<?xml version="1.0" encoding="UTF-8" standalone="no"?>
<svg
   xmlns:dc="http://purl.org/dc/elements/1.1/"
   xmlns:cc="http://creativecommons.org/ns#"
   xmlns:rdf="http://www.w3.org/1999/02/22-rdf-syntax-ns#"
   xmlns:svg="http://www.w3.org/2000/svg"
   xmlns="http://www.w3.org/2000/svg"
   xmlns:sodipodi="http://sodipodi.sourceforge.net/DTD/sodipodi-0.dtd"
   xmlns:inkscape="http://www.inkscape.org/namespaces/inkscape"
   width="398.5264mm"
   height="212.04616mm"
   viewBox="0 0 398.5264 212.04616"
   version="1.1"
   id="svg8"
   inkscape:version="1.0.2 (e86c870879, 2021-01-15)"
   sodipodi:docname="Interface2.svg">
  <defs
     id="defs2" />
  <sodipodi:namedview
     id="base"
     pagecolor="#3d3d3d"
     bordercolor="#666666"
     borderopacity="1.0"
     inkscape:pageopacity="0"
     inkscape:pageshadow="2"
     inkscape:zoom="0.7"
     inkscape:cx="677.83757"
     inkscape:cy="294.39057"
     inkscape:document-units="mm"
     inkscape:current-layer="layer1"
     inkscape:document-rotation="0"
     showgrid="false"
     inkscape:window-width="2528"
     inkscape:window-height="1381"
     inkscape:window-x="1096"
     inkscape:window-y="43"
     inkscape:window-maximized="1" />
  <metadata
     id="metadata5">
    <rdf:RDF>
      <cc:Work
         rdf:about="">
        <dc:format>image/svg+xml</dc:format>
        <dc:type
           rdf:resource="http://purl.org/dc/dcmitype/StillImage" />
        <dc:title />
      </cc:Work>
    </rdf:RDF>
  </metadata>
  <g
     inkscape:label="Layer 1"
     inkscape:groupmode="layer"
     id="layer1"
     transform="translate(-234.32974,-30.675317)">
    <path
       style="fill:#a6e22e;stroke-width:1"
       d="m 253.12868,190.3601 c 0.0668,-0.18315 1.59027,-4.8276 3.38546,-10.32101 l 3.264,-9.98802 h 14.59985 14.59986 l -3.3598,10.2526 -3.35979,10.25261 -14.62553,0.0684 c -11.66404,0.0545 -14.60093,10e-4 -14.50405,-0.26458 z m -11.96938,-4.00225 -6.74688,-2.75494 -0.0705,-8.56185 c -0.0447,-5.43254 0.0349,-9.07078 0.21789,-9.95426 1.03873,-5.01482 5.22072,-8.94363 11.08596,-10.41482 3.01593,-0.75648 8.22708,-0.60549 10.85938,0.31466 5.29901,1.85232 8.90902,5.67884 9.93819,10.53423 0.20425,0.96364 0.37344,1.84137 0.37597,1.95051 0.003,0.10914 -1.95624,0.19844 -4.35281,0.19844 h -4.35741 l -2.16538,6.68073 c -1.19096,3.6744 -2.18064,6.70429 -2.19929,6.73308 -0.0187,0.0288 -2.11379,-0.74965 -4.65586,-1.72987 l -4.62195,-1.78224 -0.13229,-4.62012 c -0.0728,-2.54107 -0.22862,-4.76895 -0.34635,-4.95085 -0.28612,-0.44209 -1.36591,-0.42114 -1.7435,0.0338 -0.21055,0.25369 -0.28075,1.99492 -0.23084,5.72538 l 0.0717,5.36082 4.23333,1.63657 c 2.32834,0.90012 4.5076,1.78411 4.84281,1.96443 0.92302,0.49651 1.63738,1.86647 1.6385,3.14223 7.9e-4,0.91218 -0.16909,1.31395 -0.88671,2.09701 -0.79936,0.87225 -1.04291,0.97777 -2.4474,1.06031 -1.46561,0.0861 -1.96671,-0.0745 -8.30657,-2.66328 z m 6.64227,-34.71716 c -3.16236,-0.8504 -5.54152,-2.79838 -6.86441,-5.62036 -0.61572,-1.31345 -0.70367,-1.833 -0.70205,-4.14739 0.002,-2.39472 0.075,-2.79061 0.77256,-4.17132 0.96061,-1.90135 3.11626,-3.96976 5.11187,-4.90497 1.33571,-0.62596 1.84598,-0.71317 4.16788,-0.71231 2.15546,8e-4 2.9295,0.11529 4.17634,0.61775 2.14461,0.86424 4.39954,3.01538 5.37487,5.12749 0.6765,1.46496 0.76754,1.96027 0.76754,4.17566 0,2.16721 -0.0957,2.71405 -0.69463,3.96875 -1.38988,2.91169 -3.7599,4.83914 -6.98236,5.67848 -1.90379,0.49588 -3.25134,0.49278 -5.12761,-0.0118 z"
       id="path847"
       sodipodi:nodetypes="sscccccssccssssscscsssccssscsssssscsscssssssssss" />
    <g
       id="g875"
       transform="matrix(1.7753646,0,0,1.7753646,-309.19889,-68.547272)"
       style="stroke-width:0.563265">
      <path
         style="fill:#000000;stroke-width:0.563265"
         d="m 320.67549,111.08876 c -0.88871,-0.5006 -1.26343,-1.16741 -1.26343,-2.24826 0,-1.77226 1.18371,-2.64583 3.5852,-2.64583 1.3472,0 1.58364,0.0888 2.39439,0.89958 1.15428,1.15428 1.19772,2.19798 0.14072,3.38096 -0.68125,0.76246 -0.93152,0.85802 -2.44739,0.93449 -1.16293,0.0587 -1.91296,-0.0412 -2.40949,-0.32094 z m 3.66673,-1.74844 c 0.55565,-0.46115 -0.041,-1.24583 -1.09808,-1.44414 -1.00793,-0.18908 -2.36375,0.45162 -2.17396,1.02733 0.29312,0.88919 2.38221,1.1553 3.27204,0.41681 z m 4.94283,-0.79135 c -2.09206,-0.60533 -3.24544,-2.96791 -2.30572,-4.72303 1.44307,-2.69521 6.7281,-2.80611 8.3326,-0.17484 1.88856,3.09712 -1.82376,6.11402 -6.02688,4.89787 z m 3.35324,-1.72253 c 2.42929,-0.97202 1.35712,-3.2638 -1.53155,-3.2737 -2.93966,-0.0101 -3.95169,2.09831 -1.53419,3.19621 1.33672,0.60707 1.7181,0.61671 3.06574,0.0775 z m 10.16583,-1.80041 c -2.94362,-0.67284 -6.52932,-2.93889 -7.4896,-4.73319 -0.35389,-0.661237 -0.40368,-0.671241 -2.64147,-0.530729 -2.91295,0.182907 -4.96731,-0.203385 -7.37767,-1.38726 -2.34175,-1.150176 -4.25163,-2.994174 -5.24704,-5.066062 -1.39008,-2.893348 -0.95159,-6.522712 1.11517,-9.230312 0.86191,-1.129173 0.88404,-1.213427 0.50908,-1.938515 -0.5763,-1.114454 -0.88794,-3.540807 -0.64895,-5.052647 0.75968,-4.805737 6.22212,-8.728059 12.15517,-8.728059 1.17894,0 1.25498,-0.04622 1.70015,-1.033436 0.64298,-1.425878 2.79562,-3.517654 4.62149,-4.490835 4.82394,-2.571132 11.36685,-1.976155 15.4984,1.409342 l 1.0887,0.892101 1.57215,-0.562836 c 2.31875,-0.830119 7.01212,-0.792722 9.24507,0.07366 4.29636,1.666991 7.155,4.81884 7.48495,8.252676 0.10805,1.124486 0.21133,1.308385 0.81728,1.45525 2.63215,0.637952 5.60836,2.614848 7.00251,4.651292 3.7042,5.410759 0.88537,12.19123 -6.04086,14.530821 l -1.32638,0.448033 -0.16242,1.464315 c -0.44103,3.976065 -3.95434,7.547611 -8.61997,8.762861 -3.12028,0.81273 -7.28789,0.38236 -10.10082,-1.04306 l -1.27953,-0.64839 -1.01615,0.69049 c -2.60897,1.77284 -7.48039,2.58681 -10.85926,1.81448 z m 7.40062,-2.81113 c 0.82758,-0.30963 2.0374,-0.96961 2.6885,-1.4666 1.41425,-1.079518 1.95128,-1.118454 3.2438,-0.23519 4.35493,2.97601 11.7605,1.93146 14.76571,-2.0827 1.08406,-1.448014 1.42598,-2.543574 1.42598,-4.569036 0,-1.860254 0.1218,-2.003896 1.98438,-2.340255 2.63994,-0.476745 5.51995,-2.57228 6.49912,-4.728856 0.65571,-1.444172 0.6632,-3.922932 0.0161,-5.336132 -0.97576,-2.131039 -3.99425,-4.326088 -6.57066,-4.778195 -1.83873,-0.322657 -2.11991,-0.663975 -2.23574,-2.713881 -0.12747,-2.256214 -1.05438,-3.919849 -3.00886,-5.400419 -3.06238,-2.319824 -7.52093,-2.832681 -11.32257,-1.302407 -1.13878,0.458394 -2.11726,0.833444 -2.1744,0.833444 -0.0571,0 -0.71546,-0.592566 -1.46293,-1.316814 -3.42059,-3.314296 -8.74604,-4.047018 -13.20813,-1.817287 -1.81145,0.905195 -3.78629,2.949971 -4.24953,4.400025 -0.17273,0.540669 -0.42466,1.102097 -0.55985,1.247618 -0.13519,0.14552 -1.28167,0.272959 -2.54772,0.283197 -5.51378,0.04459 -9.75649,3.117973 -10.05797,7.28592 -0.0985,1.361842 -0.002,1.802151 0.7122,3.253129 0.45438,0.922959 0.82613,1.829742 0.82613,2.015074 0,0.185333 -0.54291,0.917382 -1.20646,1.626778 -0.66356,0.709395 -1.37793,1.700183 -1.5875,2.201754 -0.52904,1.266155 -0.47397,3.741507 0.11193,5.031179 0.68035,1.497586 3.1625,3.675969 4.99802,4.386355 1.66146,0.643022 5.19484,0.838051 7.51479,0.414792 l 1.23182,-0.224737 0.91129,1.42458 c 0.50121,0.783521 1.31611,1.766884 1.81089,2.185254 1.08955,0.9213 3.22865,1.9331 4.7827,2.26224 1.71713,0.36368 4.95626,0.10197 6.66895,-0.53883 z"
         id="path863" />
      <path
         style="fill:#d7d7d7;fill-opacity:1;stroke-width:8.51549;stroke-linecap:round;stroke-linejoin:round"
         d="m 1306.5772,240.1493 c -15.4474,0.26144 -31.2264,9.72489 -36.2669,24.75959 -0.8269,2.67094 -4.4437,1.40156 -6.5551,2.03568 -10.9695,0.32966 -22.5688,2.17254 -31.2999,9.35122 -8.68,6.60044 -13.9335,19.12645 -9.0264,29.50323 0.9711,3.42198 3.8354,6.51062 3.6658,10.12652 -3.9452,6.18581 -10.9098,11.14167 -11.3198,19.09819 -1.008,7.80247 1.176,16.30204 7.3448,21.52749 5.8255,5.6559 12.9004,10.71385 21.2739,11.27879 8.3773,1.2996 16.9474,0.54947 25.2232,-0.53269 2.6852,2.93562 4.557,7.05548 7.4479,10.067 5.729,6.28342 13.9271,9.89769 22.0656,11.85252 9.0175,1.16645 18.5236,0.29765 26.9515,-3.22578 5.0583,-1.88848 8.9278,-6.26623 14.1658,-7.61857 4.1404,0.5283 7.3682,3.81927 11.2902,5.14054 9.9958,4.5599 21.6523,4.11904 32.0813,1.38008 9.6024,-2.96386 18.8768,-9.63594 22.5646,-19.26294 2.0556,-5.42234 1.2088,-11.42349 2.6122,-16.88553 4.2744,-2.52882 9.6538,-2.3307 14.011,-4.84064 7.9747,-3.92466 15.9685,-10.19562 18.3593,-19.11793 0.2819,-5.14424 0.8046,-10.49704 -0.4291,-15.54096 -4.8372,-11.17541 -16.43,-18.15324 -27.9824,-20.62625 -3.1713,-0.41006 -5.6274,-2.88416 -5.6082,-6.15167 -0.5291,-6.87697 -1.9324,-14.32594 -7.1568,-19.35172 -10.3939,-11.63256 -27.5661,-14.89068 -42.3061,-11.44708 -4.7484,1.19395 -9.2741,3.36968 -13.9251,4.67886 -7.109,-6.29887 -14.5547,-12.99191 -24.1559,-15.01911 -4.2563,-1.02795 -8.6595,-1.2983 -13.0254,-1.17884 z"
         id="path865"
         transform="scale(0.26458333)" />
      <path
         style="fill:#d7d7d7;fill-opacity:1;stroke-width:8.51549;stroke-linecap:round;stroke-linejoin:round"
         d="m 1250.6469,390.81888 c -4.5869,-0.13995 -11.0196,2.0982 -10.8256,7.61363 1.5856,4.47109 6.7829,6.62142 11.1403,7.39956 4.5341,0.0163 10.0302,-2.00251 11.7913,-6.50877 1.0278,-5.11002 -4.8934,-8.2954 -9.263,-8.41761 -0.9453,-0.0796 -1.8947,-0.10406 -2.843,-0.0868 z"
         id="path867"
         transform="scale(0.26458333)" />
      <path
         style="fill:#d7d7d7;fill-opacity:1;stroke-width:8.51549;stroke-linecap:round;stroke-linejoin:round"
         d="m 1219.9734,407.02176 c -2.5044,0.34152 -6.5424,0.99722 -6.9853,4.02878 0.4043,4.0047 5.5662,4.7804 8.8162,4.39574 2.6374,0.0431 6.8033,-2.23012 5.0537,-5.31711 -1.4877,-2.17148 -4.3334,-3.15532 -6.8846,-3.10741 z"
         id="path869"
         transform="scale(0.26458333)" />
    </g>
    <g
       id="g909"
       transform="translate(-22.200467)">
      <path
         style="fill:#f92672;stroke-width:1"
         d="m 430.47599,207.21648 v -2.61795 l 7.63035,0.0454 7.63035,0.0454 0.0482,2.57252 0.0482,2.57251 h -7.67861 -7.67861 z m 17.47974,0.0454 0.0482,-2.57252 7.63035,-0.0454 7.63034,-0.0454 v 2.61795 2.61795 h -7.6786 -7.67861 z m -18.52618,-6.49669 v -2.44172 h 3.74976 3.74977 v 2.44172 2.4417 h -3.74977 -3.74976 z m 9.59243,0 v -2.44172 h 7.67395 7.67395 v 2.44172 2.4417 h -7.67395 -7.67395 z m 17.4408,0 v -2.44172 h 3.92417 3.92418 v 2.44172 2.4417 h -3.92418 -3.92417 z m -25.98679,-6.62568 v -2.79235 h 7.67838 7.67838 l -0.0481,2.74692 -0.048,2.74692 -7.63035,0.0454 -7.63034,0.0454 z m 17.55707,2.67242 c -0.0639,-0.0639 -0.11628,-1.31968 -0.11628,-2.79052 v -2.67425 h 7.67395 7.67396 v 2.79052 2.79053 h -7.55768 c -4.15672,0 -7.61,-0.0523 -7.67395,-0.11628 z m -18.60351,-9.29826 v -2.44518 h 3.75469 3.75469 l -0.0485,2.39811 -0.0485,2.39811 -3.70616,0.0471 -3.70617,0.0471 z m 9.71053,2.3238 c -0.0649,-0.0649 -0.1181,-1.16455 -0.1181,-2.44354 v -2.32544 h 7.67887 7.67887 l -0.0485,2.39811 -0.0485,2.39811 -7.51225,0.0454 c -4.13173,0.025 -7.56539,-0.008 -7.63034,-0.0727 z m 17.43897,-0.002 c -0.0639,-0.0639 -0.11627,-1.16272 -0.11627,-2.44171 v -2.32543 h 3.92417 3.92418 v 2.4417 2.44172 h -3.80791 c -2.09434,0 -3.86022,-0.0523 -3.92417,-0.11628 z"
         id="path891" />
      <path
         style="fill:#f92672;stroke-width:1"
         d="m 430.29526,180.62677 v -2.61795 l 7.63035,0.0454 7.63035,0.0454 0.0482,2.57252 0.0482,2.57251 h -7.67861 -7.67861 z m 17.47974,0.0454 0.0482,-2.57252 7.63035,-0.0454 7.63034,-0.0454 v 2.61795 2.61795 h -7.6786 -7.67861 z m -18.52618,-6.49669 v -2.44172 h 3.74976 3.74977 v 2.44172 2.4417 h -3.74977 -3.74976 z m 9.59243,0 v -2.44172 h 7.67395 7.67395 v 2.44172 2.4417 h -7.67395 -7.67395 z m 17.4408,0 v -2.44172 h 3.92417 3.92418 v 2.44172 2.4417 h -3.92418 -3.92417 z m -25.98679,-6.62568 v -2.79235 h 7.67838 7.67838 l -0.0481,2.74692 -0.048,2.74692 -7.63035,0.0454 -7.63034,0.0454 z m 17.55707,2.67242 c -0.0639,-0.0639 -0.11628,-1.31968 -0.11628,-2.79052 v -2.67425 h 7.67395 7.67396 v 2.79052 2.79053 h -7.55768 c -4.15672,0 -7.61,-0.0523 -7.67395,-0.11628 z m -18.60351,-9.29826 v -2.44518 h 3.75469 3.75469 l -0.0485,2.39811 -0.0485,2.39811 -3.70616,0.0471 -3.70617,0.0471 z m 9.71053,2.3238 c -0.0649,-0.0649 -0.1181,-1.16455 -0.1181,-2.44354 v -2.32544 h 7.67887 7.67887 l -0.0485,2.39811 -0.0485,2.39811 -7.51225,0.0454 c -4.13173,0.025 -7.56539,-0.008 -7.63034,-0.0727 z m 17.43897,-0.002 c -0.0639,-0.0639 -0.11627,-1.16272 -0.11627,-2.44171 v -2.32543 h 3.92417 3.92418 v 2.4417 2.44172 h -3.80791 c -2.09434,0 -3.86022,-0.0523 -3.92417,-0.11628 z"
         id="path893" />
      <path
         style="fill:#f92672;stroke-width:1"
         d="m 430.29526,154.16842 v -2.61795 l 7.63035,0.0454 7.63035,0.0454 0.0482,2.57252 0.0482,2.57251 h -7.67861 -7.67861 z m 17.47974,0.0454 0.0482,-2.57252 7.63035,-0.0454 7.63034,-0.0454 v 2.61795 2.61795 h -7.6786 -7.67861 z m -18.52618,-6.49669 v -2.44172 h 3.74976 3.74977 v 2.44172 2.4417 h -3.74977 -3.74976 z m 9.59243,0 v -2.44172 h 7.67395 7.67395 v 2.44172 2.4417 h -7.67395 -7.67395 z m 17.4408,0 v -2.44172 h 3.92417 3.92418 v 2.44172 2.4417 h -3.92418 -3.92417 z m -25.98679,-6.62568 v -2.79235 h 7.67838 7.67838 l -0.0481,2.74692 -0.048,2.74692 -7.63035,0.0454 -7.63034,0.0454 z m 17.55707,2.67242 c -0.0639,-0.0639 -0.11628,-1.31968 -0.11628,-2.79052 v -2.67425 h 7.67395 7.67396 v 2.79052 2.79053 h -7.55768 c -4.15672,0 -7.61,-0.0523 -7.67395,-0.11628 z m -18.60351,-9.29826 v -2.44518 h 3.75469 3.75469 l -0.0485,2.39811 -0.0485,2.39811 -3.70616,0.0471 -3.70617,0.0471 z m 9.71053,2.3238 c -0.0649,-0.0649 -0.1181,-1.16455 -0.1181,-2.44354 v -2.32544 h 7.67887 7.67887 l -0.0485,2.39811 -0.0485,2.39811 -7.51225,0.0454 c -4.13173,0.025 -7.56539,-0.008 -7.63034,-0.0727 z m 17.43897,-0.002 c -0.0639,-0.0639 -0.11627,-1.16272 -0.11627,-2.44171 v -2.32543 h 3.92417 3.92418 v 2.4417 2.44172 h -3.80791 c -2.09434,0 -3.86022,-0.0523 -3.92417,-0.11628 z"
         id="path895" />
      <path
         style="fill:#f92672;stroke-width:1"
         d="m 430.29526,118.71418 v -2.61795 l 7.63035,0.0454 7.63035,0.0454 0.0482,2.57252 0.0482,2.57251 h -7.67861 -7.67861 z m 17.47974,0.0454 0.0482,-2.57252 7.63035,-0.0454 7.63034,-0.0454 v 2.61795 2.61795 h -7.6786 -7.67861 z m -18.52618,-6.49669 v -2.44172 h 3.74976 3.74977 v 2.44172 2.4417 h -3.74977 -3.74976 z m 9.59243,0 v -2.44172 h 7.67395 7.67395 v 2.44172 2.4417 h -7.67395 -7.67395 z m 17.4408,0 v -2.44172 h 3.92417 3.92418 v 2.44172 2.4417 h -3.92418 -3.92417 z m -25.98679,-6.62568 v -2.79235 h 7.67838 7.67838 l -0.0481,2.74692 -0.048,2.74692 -7.63035,0.0454 -7.63034,0.0454 z m 17.55707,2.67242 c -0.0639,-0.0639 -0.11628,-1.31968 -0.11628,-2.79052 v -2.67425 h 7.67395 7.67396 v 2.79052 2.79053 h -7.55768 c -4.15672,0 -7.61,-0.0523 -7.67395,-0.11628 z m -18.60351,-9.298257 v -2.44518 h 3.75469 3.75469 l -0.0485,2.39811 -0.0485,2.398107 -3.70616,0.0471 -3.70617,0.0471 z m 9.71053,2.323797 c -0.0649,-0.0649 -0.1181,-1.16455 -0.1181,-2.443537 v -2.32544 h 7.67887 7.67887 l -0.0485,2.39811 -0.0485,2.398107 -7.51225,0.0454 c -4.13173,0.025 -7.56539,-0.008 -7.63034,-0.0727 z m 17.43897,-0.002 c -0.0639,-0.0639 -0.11627,-1.16272 -0.11627,-2.441707 v -2.32543 h 3.92417 3.92418 v 2.4417 2.441717 h -3.80791 c -2.09434,0 -3.86022,-0.0523 -3.92417,-0.11628 z"
         id="path897" />
      <path
         style="fill:#f92672;stroke-width:1"
         d="m 430.29526,92.255836 v -2.61795 l 7.63035,0.0454 7.63035,0.0454 0.0482,2.57252 0.0482,2.572507 h -7.67861 -7.67861 z m 17.47974,0.0454 0.0482,-2.57252 7.63035,-0.0454 7.63034,-0.0454 v 2.61795 2.617947 h -7.6786 -7.67861 z m -18.52618,-6.496687 v -2.441717 h 3.74976 3.74977 v 2.441717 2.4417 h -3.74977 -3.74976 z m 9.59243,0 v -2.441717 h 7.67395 7.67395 v 2.441717 2.4417 h -7.67395 -7.67395 z m 17.4408,0 v -2.441717 h 3.92417 3.92418 v 2.441717 2.4417 h -3.92418 -3.92417 z m -25.98679,-6.625677 v -2.792347 h 7.67838 7.67838 l -0.0481,2.746917 -0.048,2.74692 -7.63035,0.0454 -7.63034,0.0454 z m 17.55707,2.67242 c -0.0639,-0.0639 -0.11628,-1.31968 -0.11628,-2.79052 v -2.674247 h 7.67395 7.67396 v 2.790517 2.79053 h -7.55768 c -4.15672,0 -7.61,-0.0523 -7.67395,-0.11628 z m -18.60351,-9.298254 v -2.44518 h 3.75469 3.75469 l -0.0485,2.39811 -0.0485,2.398107 -3.70616,0.0471 -3.70617,0.0471 z m 9.71053,2.323797 c -0.0649,-0.0649 -0.1181,-1.16455 -0.1181,-2.443537 v -2.32544 h 7.67887 7.67887 l -0.0485,2.39811 -0.0485,2.398107 -7.51225,0.0454 c -4.13173,0.025 -7.56539,-0.008 -7.63034,-0.0727 z m 17.43897,-0.002 c -0.0639,-0.0639 -0.11627,-1.16272 -0.11627,-2.441707 v -2.32543 h 3.92417 3.92418 v 2.4417 2.441717 h -3.80791 c -2.09434,0 -3.86022,-0.0523 -3.92417,-0.11628 z"
         id="path899" />
      <path
         style="fill:#f92672;stroke-width:1"
         d="m 430.29526,65.797501 v -2.61795 l 7.63035,0.0454 7.63035,0.0454 0.0482,2.57252 0.0482,2.572507 h -7.67861 -7.67861 z m 17.47974,0.0454 0.0482,-2.57252 7.63035,-0.0454 7.63034,-0.0454 v 2.61795 2.617947 h -7.6786 -7.67861 z m -18.52618,-6.496687 v -2.441717 h 3.74976 3.74977 v 2.441717 2.4417 h -3.74977 -3.74976 z m 9.59243,0 v -2.441717 h 7.67395 7.67395 v 2.441717 2.4417 h -7.67395 -7.67395 z m 17.4408,0 v -2.441717 h 3.92417 3.92418 v 2.441717 2.4417 h -3.92418 -3.92417 z M 430.29526,52.720537 V 49.92819 h 7.67838 7.67838 l -0.0481,2.746917 -0.048,2.74692 -7.63035,0.0454 -7.63034,0.0454 z m 17.55707,2.67242 c -0.0639,-0.0639 -0.11628,-1.31968 -0.11628,-2.79052 V 49.92819 h 7.67395 7.67396 v 2.790517 2.79053 h -7.55768 c -4.15672,0 -7.61,-0.0523 -7.67395,-0.11628 z m -18.60351,-9.298254 v -2.44518 h 3.75469 3.75469 l -0.0485,2.39811 -0.0485,2.398107 -3.70616,0.0471 -3.70617,0.0471 z m 9.71053,2.323797 c -0.0649,-0.0649 -0.1181,-1.16455 -0.1181,-2.443537 v -2.32544 h 7.67887 7.67887 l -0.0485,2.39811 -0.0485,2.398107 -7.51225,0.0454 c -4.13173,0.025 -7.56539,-0.008 -7.63034,-0.0727 z m 17.43897,-0.002 c -0.0639,-0.0639 -0.11627,-1.16272 -0.11627,-2.441707 v -2.32543 h 3.92417 3.92418 v 2.4417 2.441717 h -3.80791 c -2.09434,0 -3.86022,-0.0523 -3.92417,-0.11628 z"
         id="path901" />
    </g>
    <path
       style="fill:#66d9ef;stroke-width:1"
       d="m 493.76796,155.62854 h -4.61131 v 12.17083 12.17083 h 20.37291 20.37292 v -10.05416 c 0,-11.85143 -0.19353,-11.1125 2.91042,-11.1125 h 1.85208 v -1.5875 -1.5875 h -15.7017 m 1.15353,-2.91042 h 16.89943 l 0.41188,0.58804 c 0.30093,0.42964 0.41188,1.24926 0.41188,3.04271 v 2.45467 h 8.06979 c 7.71702,0 8.09293,0.0231 8.59896,0.52916 0.51956,0.51956 0.52917,0.88195 0.52917,19.95715 0,17.30902 -0.0453,19.47332 -0.41578,19.84375 -0.36545,0.36545 -1.83346,0.41577 -12.12982,0.41577 -11.01237,0 -11.74029,-0.029 -12.15194,-0.48385 -0.36409,-0.40232 -0.43788,-1.1157 -0.43788,-4.23334 v -3.74947 h -4.77176 -4.77175 l 0.0754,2.71197 0.0754,2.71198 2.24099,0.0778 c 2.91601,0.10122 3.77853,0.82856 2.90908,2.45315 -0.26528,0.49566 -0.69699,0.51177 -13.71733,0.51177 -12.68776,0 -13.46805,-0.0272 -13.88131,-0.48385 l -3e-5,-1e-5 c -0.54652,-0.6039 -0.55334,-1.08566 -0.026,-1.83853 0.37342,-0.53312 0.63285,-0.58803 2.77813,-0.58803 h 2.36624 v -2.77813 -2.77812 h -8.06979 c -7.71701,0 -8.09292,-0.0231 -8.59896,-0.52917 -0.51887,-0.51888 -0.52916,-0.88194 -0.52916,-18.67052 0,-11.99932 0.0927,-18.31462 0.27389,-18.65313 0.25856,-0.48313 0.61341,-0.51177 6.34069,-0.51177 m 24.81393,41.07656 0.0754,-2.71197 h -5.56551 -5.56551 v 2.78349 2.78349 l 5.49011,-0.0715 5.4901,-0.0715 z m 34.45273,-14.48593 v -17.33021 h -9.39271 -9.39271 v 17.33021 17.33021 h 9.39271 9.39271 z m -10.86827,11.79431 c -1.03982,-1.03982 -1.03982,-2.17589 0,-3.21571 0.8619,-0.8619 1.53704,-0.96042 2.64726,-0.38631 0.83279,0.43066 1.07726,0.8832 1.07726,1.99417 0,1.11096 -0.24447,1.5635 -1.07726,1.99416 -1.11022,0.57411 -1.78536,0.47559 -2.64726,-0.38631 z m -5.12013,-14.72363 c -0.22867,-0.22867 -0.41577,-0.69642 -0.41577,-1.03943 0,-1.38901 0.31897,-1.45521 7.01146,-1.45521 6.76523,0 7.01146,0.0546 7.01146,1.55348 0,1.32299 -0.17293,1.35693 -6.91319,1.35693 -5.35466,0 -6.33934,-0.0612 -6.69396,-0.41577 z m 0.17227,-6.87527 c -0.72603,-0.50853 -0.78002,-1.71361 -0.10419,-2.32524 0.42073,-0.38076 1.27833,-0.43788 6.57358,-0.43788 5.5636,0 6.12755,0.0418 6.5276,0.48385 0.62498,0.6906 0.55276,1.78693 -0.15015,2.27927 -0.48907,0.34256 -1.57016,0.41188 -6.42342,0.41188 -4.85326,0 -5.93435,-0.0693 -6.42342,-0.41188 z m -6.14429,16.0223 v -2.38125 h -20.37292 -20.37291 v 2.38125 2.38125 h 20.37291 20.37292 z"
       id="path925"
       sodipodi:nodetypes="ccccccssccccccsscssssssscccccssssssscccsssscccccccccccccccccccsssssssssssssssssssccccccccc" />
    <g
       id="g935"
       transform="matrix(1.6083078,0,0,2.2793611,15.511534,-108.9194)"
       style="stroke-width:0.522287">
      <path
         style="fill:#000000;stroke-width:0.522287"
         d="m 320.67549,111.08876 c -0.88871,-0.5006 -1.26343,-1.16741 -1.26343,-2.24826 0,-1.77226 1.18371,-2.64583 3.5852,-2.64583 1.3472,0 1.58364,0.0888 2.39439,0.89958 1.15428,1.15428 1.19772,2.19798 0.14072,3.38096 -0.68125,0.76246 -0.93152,0.85802 -2.44739,0.93449 -1.16293,0.0587 -1.91296,-0.0412 -2.40949,-0.32094 z m 3.66673,-1.74844 c 0.55565,-0.46115 -0.041,-1.24583 -1.09808,-1.44414 -1.00793,-0.18908 -2.36375,0.45162 -2.17396,1.02733 0.29312,0.88919 2.38221,1.1553 3.27204,0.41681 z m 4.94283,-0.79135 c -2.09206,-0.60533 -3.24544,-2.96791 -2.30572,-4.72303 1.44307,-2.69521 6.7281,-2.80611 8.3326,-0.17484 1.88856,3.09712 -1.82376,6.11402 -6.02688,4.89787 z m 3.35324,-1.72253 c 2.42929,-0.97202 1.35712,-3.2638 -1.53155,-3.2737 -2.93966,-0.0101 -3.95169,2.09831 -1.53419,3.19621 1.33672,0.60707 1.7181,0.61671 3.06574,0.0775 z m 10.16583,-1.80041 c -2.94362,-0.67284 -6.52932,-2.93889 -7.4896,-4.73319 -0.35389,-0.661237 -0.40368,-0.671241 -2.64147,-0.530729 -2.91295,0.182907 -4.96731,-0.203385 -7.37767,-1.38726 -2.34175,-1.150176 -4.25163,-2.994174 -5.24704,-5.066062 -1.39008,-2.893348 -0.95159,-6.522712 1.11517,-9.230312 0.86191,-1.129173 0.88404,-1.213427 0.50908,-1.938515 -0.5763,-1.114454 -0.88794,-3.540807 -0.64895,-5.052647 0.75968,-4.805737 6.22212,-8.728059 12.15517,-8.728059 1.17894,0 1.25498,-0.04622 1.70015,-1.033436 0.64298,-1.425878 2.79562,-3.517654 4.62149,-4.490835 4.82394,-2.571132 11.36685,-1.976155 15.4984,1.409342 l 1.0887,0.892101 1.57215,-0.562836 c 2.31875,-0.830119 7.01212,-0.792722 9.24507,0.07366 4.29636,1.666991 7.155,4.81884 7.48495,8.252676 0.10805,1.124486 0.21133,1.308385 0.81728,1.45525 2.63215,0.637952 5.60836,2.614848 7.00251,4.651292 3.7042,5.410759 0.88537,12.19123 -6.04086,14.530821 l -1.32638,0.448033 -0.16242,1.464315 c -0.44103,3.976065 -3.95434,7.547611 -8.61997,8.762861 -3.12028,0.81273 -7.28789,0.38236 -10.10082,-1.04306 l -1.27953,-0.64839 -1.01615,0.69049 c -2.60897,1.77284 -7.48039,2.58681 -10.85926,1.81448 z m 7.40062,-2.81113 c 0.82758,-0.30963 2.0374,-0.96961 2.6885,-1.4666 1.41425,-1.079518 1.95128,-1.118454 3.2438,-0.23519 4.35493,2.97601 11.7605,1.93146 14.76571,-2.0827 1.08406,-1.448014 1.42598,-2.543574 1.42598,-4.569036 0,-1.860254 0.1218,-2.003896 1.98438,-2.340255 2.63994,-0.476745 5.51995,-2.57228 6.49912,-4.728856 0.65571,-1.444172 0.6632,-3.922932 0.0161,-5.336132 -0.97576,-2.131039 -3.99425,-4.326088 -6.57066,-4.778195 -1.83873,-0.322657 -2.11991,-0.663975 -2.23574,-2.713881 -0.12747,-2.256214 -1.05438,-3.919849 -3.00886,-5.400419 -3.06238,-2.319824 -7.52093,-2.832681 -11.32257,-1.302407 -1.13878,0.458394 -2.11726,0.833444 -2.1744,0.833444 -0.0571,0 -0.71546,-0.592566 -1.46293,-1.316814 -3.42059,-3.314296 -8.74604,-4.047018 -13.20813,-1.817287 -1.81145,0.905195 -3.78629,2.949971 -4.24953,4.400025 -0.17273,0.540669 -0.42466,1.102097 -0.55985,1.247618 -0.13519,0.14552 -1.28167,0.272959 -2.54772,0.283197 -5.51378,0.04459 -9.75649,3.117973 -10.05797,7.28592 -0.0985,1.361842 -0.002,1.802151 0.7122,3.253129 0.45438,0.922959 0.82613,1.829742 0.82613,2.015074 0,0.185333 -0.54291,0.917382 -1.20646,1.626778 -0.66356,0.709395 -1.37793,1.700183 -1.5875,2.201754 -0.52904,1.266155 -0.47397,3.741507 0.11193,5.031179 0.68035,1.497586 3.1625,3.675969 4.99802,4.386355 1.66146,0.643022 5.19484,0.838051 7.51479,0.414792 l 1.23182,-0.224737 0.91129,1.42458 c 0.50121,0.783521 1.31611,1.766884 1.81089,2.185254 1.08955,0.9213 3.22865,1.9331 4.7827,2.26224 1.71713,0.36368 4.95626,0.10197 6.66895,-0.53883 z"
         id="path927" />
      <path
         style="fill:#d7d7d7;fill-opacity:1;stroke-width:7.89598;stroke-linecap:round;stroke-linejoin:round"
         d="m 1306.5772,240.1493 c -15.4474,0.26144 -31.2264,9.72489 -36.2669,24.75959 -0.8269,2.67094 -4.4437,1.40156 -6.5551,2.03568 -10.9695,0.32966 -22.5688,2.17254 -31.2999,9.35122 -8.68,6.60044 -13.9335,19.12645 -9.0264,29.50323 0.9711,3.42198 3.8354,6.51062 3.6658,10.12652 -3.9452,6.18581 -10.9098,11.14167 -11.3198,19.09819 -1.008,7.80247 1.176,16.30204 7.3448,21.52749 5.8255,5.6559 12.9004,10.71385 21.2739,11.27879 8.3773,1.2996 16.9474,0.54947 25.2232,-0.53269 2.6852,2.93562 4.557,7.05548 7.4479,10.067 5.729,6.28342 13.9271,9.89769 22.0656,11.85252 9.0175,1.16645 18.5236,0.29765 26.9515,-3.22578 5.0583,-1.88848 8.9278,-6.26623 14.1658,-7.61857 4.1404,0.5283 7.3682,3.81927 11.2902,5.14054 9.9958,4.5599 21.6523,4.11904 32.0813,1.38008 9.6024,-2.96386 18.8768,-9.63594 22.5646,-19.26294 2.0556,-5.42234 1.2088,-11.42349 2.6122,-16.88553 4.2744,-2.52882 9.6538,-2.3307 14.011,-4.84064 7.9747,-3.92466 15.9685,-10.19562 18.3593,-19.11793 0.2819,-5.14424 0.8046,-10.49704 -0.4291,-15.54096 -4.8372,-11.17541 -16.43,-18.15324 -27.9824,-20.62625 -3.1713,-0.41006 -5.6274,-2.88416 -5.6082,-6.15167 -0.5291,-6.87697 -1.9324,-14.32594 -7.1568,-19.35172 -10.3939,-11.63256 -27.5661,-14.89068 -42.3061,-11.44708 -4.7484,1.19395 -9.2741,3.36968 -13.9251,4.67886 -7.109,-6.29887 -14.5547,-12.99191 -24.1559,-15.01911 -4.2563,-1.02795 -8.6595,-1.2983 -13.0254,-1.17884 z"
         id="path929"
         transform="scale(0.26458333)" />
      <path
         style="fill:#d7d7d7;fill-opacity:1;stroke-width:7.89598;stroke-linecap:round;stroke-linejoin:round"
         d="m 1250.6469,390.81888 c -4.5869,-0.13995 -11.0196,2.0982 -10.8256,7.61363 1.5856,4.47109 6.7829,6.62142 11.1403,7.39956 4.5341,0.0163 10.0302,-2.00251 11.7913,-6.50877 1.0278,-5.11002 -4.8934,-8.2954 -9.263,-8.41761 -0.9453,-0.0796 -1.8947,-0.10406 -2.843,-0.0868 z"
         id="path931"
         transform="scale(0.26458333)" />
      <path
         style="fill:#d7d7d7;fill-opacity:1;stroke-width:7.89598;stroke-linecap:round;stroke-linejoin:round"
         d="m 1219.9734,407.02176 c -2.5044,0.34152 -6.5424,0.99722 -6.9853,4.02878 0.4043,4.0047 5.5662,4.7804 8.8162,4.39574 2.6374,0.0431 6.8033,-2.23012 5.0537,-5.31711 -1.4877,-2.17148 -4.3334,-3.15532 -6.8846,-3.10741 z"
         id="path933"
         transform="scale(0.26458333)" />
    </g>
    <text
       xml:space="preserve"
       style="font-style:normal;font-weight:normal;font-size:10.5833px;line-height:1.25;font-family:sans-serif;letter-spacing:0px;word-spacing:0px;fill:#000000;fill-opacity:1;stroke:none;stroke-width:0.264583"
       x="295.66605"
       y="90.475258"
       id="text939"><tspan
         sodipodi:role="line"
         id="tspan937"
         x="295.66605"
         y="90.475258"
         style="stroke-width:0.264583">GRect</tspan></text>
    <rect
       style="fill:#ae81ff;fill-opacity:1;stroke-width:4;stroke-linecap:round;stroke-linejoin:round"
       id="rect941"
       width="36.261768"
       height="11.168176"
       x="293.4949"
       y="67.756775"
       ry="0" />
    <text
       xml:space="preserve"
       style="font-style:normal;font-weight:normal;font-size:10.5833px;line-height:1.25;font-family:sans-serif;letter-spacing:0px;word-spacing:0px;fill:#000000;fill-opacity:1;stroke:none;stroke-width:0.264583"
       x="552.19141"
       y="64.255951"
       id="text945"><tspan
         sodipodi:role="line"
         id="tspan943"
         x="552.19141"
         y="64.255951"
         style="stroke-width:0.264583">x1,y1,w,h</tspan></text>
    <path
       style="fill:none;stroke:#000000;stroke-width:1.765;stroke-linecap:round;stroke-linejoin:miter;stroke-miterlimit:4;stroke-dasharray:7.06, 7.06;stroke-dashoffset:0;stroke-opacity:1"
       d="m 548.96842,79.401782 h 64.48764"
       id="path947" />
    <text
       xml:space="preserve"
       style="font-style:normal;font-weight:normal;font-size:7.86153px;line-height:1.25;font-family:sans-serif;letter-spacing:0px;word-spacing:0px;fill:#000000;fill-opacity:1;stroke:none;stroke-width:0.264583"
       x="548.32928"
       y="92.385101"
       id="text951"><tspan
         sodipodi:role="line"
         id="tspan949"
         x="548.32928"
         y="92.385101"
         style="stroke-width:0.264583">set_color</tspan></text>
    <text
       xml:space="preserve"
       style="font-style:normal;font-weight:normal;font-size:7.86153px;line-height:1.25;font-family:sans-serif;letter-spacing:0px;word-spacing:0px;fill:#000000;fill-opacity:1;stroke:none;stroke-width:0.264583"
       x="562.39075"
       y="114.40774"
       id="text955"><tspan
         sodipodi:role="line"
         id="tspan953"
         x="562.39075"
         y="114.40774"
         style="stroke-width:0.264583">set_fill_color</tspan></text>
    <text
       xml:space="preserve"
       style="font-style:normal;font-weight:normal;font-size:7.86153px;line-height:1.25;font-family:sans-serif;letter-spacing:0px;word-spacing:0px;fill:#000000;fill-opacity:1;stroke:none;stroke-width:0.264583"
       x="542.94287"
       y="103.4575"
       id="text959"><tspan
         sodipodi:role="line"
         id="tspan957"
         x="542.94287"
         y="103.4575"
         style="stroke-width:0.264583">move</tspan></text>
    <text
       xml:space="preserve"
       style="font-style:normal;font-weight:normal;font-size:7.86153px;line-height:1.25;font-family:sans-serif;letter-spacing:0px;word-spacing:0px;fill:#000000;fill-opacity:1;stroke:none;stroke-width:0.264583"
       x="589.30609"
       y="89.303024"
       id="text963"><tspan
         sodipodi:role="line"
         id="tspan961"
         x="589.30609"
         y="89.303024"
         style="stroke-width:0.264583">get_width</tspan></text>
    <text
       xml:space="preserve"
       style="font-style:normal;font-weight:normal;font-size:7.86153px;line-height:1.25;font-family:sans-serif;letter-spacing:0px;word-spacing:0px;fill:#000000;fill-opacity:1;stroke:none;stroke-width:0.264583"
       x="574.74341"
       y="100.25893"
       id="text967"><tspan
         sodipodi:role="line"
         id="tspan965"
         x="574.74341"
         y="100.25893"
         style="stroke-width:0.264583">set_filled</tspan></text>
    <text
       xml:space="preserve"
       style="font-style:italic;font-variant:normal;font-weight:normal;font-stretch:normal;font-size:10.5833px;line-height:1.25;font-family:sans-serif;-inkscape-font-specification:'sans-serif, Italic';font-variant-ligatures:normal;font-variant-caps:normal;font-variant-numeric:normal;font-variant-east-asian:normal;text-align:center;letter-spacing:0px;word-spacing:0px;text-anchor:middle;fill:#ececec;fill-opacity:1;stroke:none;stroke-width:0.264583"
       x="300.21426"
       y="233.65984"
       id="text971"><tspan
         sodipodi:role="line"
         id="tspan969"
         x="300.21426"
         y="233.65984"
         style="font-style:italic;font-variant:normal;font-weight:normal;font-stretch:normal;font-size:10.5833px;font-family:sans-serif;-inkscape-font-specification:'sans-serif, Italic';font-variant-ligatures:normal;font-variant-caps:normal;font-variant-numeric:normal;font-variant-east-asian:normal;text-align:center;text-anchor:middle;fill:#ececec;fill-opacity:1;stroke-width:0.264583">client</tspan></text>
    <text
       xml:space="preserve"
       style="font-style:italic;font-variant:normal;font-weight:normal;font-stretch:normal;font-size:10.5833px;line-height:1.25;font-family:sans-serif;-inkscape-font-specification:'sans-serif, Italic';font-variant-ligatures:normal;font-variant-caps:normal;font-variant-numeric:normal;font-variant-east-asian:normal;text-align:center;letter-spacing:0px;word-spacing:0px;text-anchor:middle;fill:#ececec;fill-opacity:1;stroke:none;stroke-width:0.264583"
       x="426.9653"
       y="227.29094"
       id="text975"><tspan
         sodipodi:role="line"
         id="tspan973"
         x="426.9653"
         y="227.29094"
         style="font-style:italic;font-variant:normal;font-weight:normal;font-stretch:normal;font-size:10.5833px;font-family:sans-serif;-inkscape-font-specification:'sans-serif, Italic';font-variant-ligatures:normal;font-variant-caps:normal;font-variant-numeric:normal;font-variant-east-asian:normal;text-align:center;text-anchor:middle;fill:#ececec;fill-opacity:1;stroke-width:0.264583">abstraction</tspan><tspan
         sodipodi:role="line"
         x="426.9653"
         y="240.52007"
         style="font-style:italic;font-variant:normal;font-weight:normal;font-stretch:normal;font-size:10.5833px;font-family:sans-serif;-inkscape-font-specification:'sans-serif, Italic';font-variant-ligatures:normal;font-variant-caps:normal;font-variant-numeric:normal;font-variant-east-asian:normal;text-align:center;text-anchor:middle;fill:#ececec;fill-opacity:1;stroke-width:0.264583"
         id="tspan977">boundary</tspan></text>
    <text
       xml:space="preserve"
       style="font-style:italic;font-variant:normal;font-weight:normal;font-stretch:normal;font-size:10.5833px;line-height:1.25;font-family:sans-serif;-inkscape-font-specification:'sans-serif, Italic';font-variant-ligatures:normal;font-variant-caps:normal;font-variant-numeric:normal;font-variant-east-asian:normal;text-align:center;letter-spacing:0px;word-spacing:0px;text-anchor:middle;fill:#ececec;fill-opacity:1;stroke:none;stroke-width:0.264583"
       x="560.07306"
       y="231.77736"
       id="text983"><tspan
         sodipodi:role="line"
         x="560.07306"
         y="231.77736"
         style="font-style:italic;font-variant:normal;font-weight:normal;font-stretch:normal;font-size:10.5833px;font-family:sans-serif;-inkscape-font-specification:'sans-serif, Italic';font-variant-ligatures:normal;font-variant-caps:normal;font-variant-numeric:normal;font-variant-east-asian:normal;text-align:center;text-anchor:middle;fill:#ececec;fill-opacity:1;stroke-width:0.264583"
         id="tspan981">implementation</tspan></text>
  </g>
</svg>
