<?xml version="1.0" encoding="UTF-8" standalone="no"?>
<!-- Created with Inkscape (http://www.inkscape.org/) -->

<svg
   width="325.08984mm"
   height="163.39798mm"
   viewBox="0 0 325.08984 163.39798"
   version="1.1"
   id="svg5"
   inkscape:version="1.1.1 (3bf5ae0d25, 2021-09-20, custom)"
   sodipodi:docname="db_log.svg"
   inkscape:export-filename="/home/jedediah/Teaching/DataEng/FundDE/Lectures/images/db_log.png"
   inkscape:export-xdpi="96"
   inkscape:export-ydpi="96"
   xmlns:inkscape="http://www.inkscape.org/namespaces/inkscape"
   xmlns:sodipodi="http://sodipodi.sourceforge.net/DTD/sodipodi-0.dtd"
   xmlns="http://www.w3.org/2000/svg"
   xmlns:svg="http://www.w3.org/2000/svg">
  <sodipodi:namedview
     id="namedview7"
     pagecolor="#ffffff"
     bordercolor="#666666"
     borderopacity="1.0"
     inkscape:pageshadow="2"
     inkscape:pageopacity="0.0"
     inkscape:pagecheckerboard="0"
     inkscape:document-units="mm"
     showgrid="false"
     inkscape:zoom="0.66368547"
     inkscape:cx="291.55377"
     inkscape:cy="120.53903"
     inkscape:window-width="2528"
     inkscape:window-height="1381"
     inkscape:window-x="1096"
     inkscape:window-y="43"
     inkscape:window-maximized="1"
     inkscape:current-layer="layer1" />
  <defs
     id="defs2" />
  <g
     inkscape:label="Layer 1"
     inkscape:groupmode="layer"
     id="layer1"
     transform="translate(-7.9995284,-78.607543)">
    <path
       style="fill:#000000;stroke-width:0.264583"
       d="m 51.487954,241.92197 c -0.3638,-0.0636 -1.84708,-0.30369 -3.29617,-0.53349 -3.22896,-0.51207 -5.51403,-1.30747 -9.15633,-3.18718 -8.72837,-4.50451 -17.24088,-13.56044 -22.20343,-23.62084 -1.70701,-3.46056 -2.3012,-4.95168 -3.32592,-8.34632 -0.58869,-1.95018 -0.66582,-2.51243 -0.43026,-3.1365 0.25824,-0.68416 0.21063,-0.82464 -0.4751,-1.40164 -1.64277,-1.3823 -3.4685999,-9.58582 -4.2909799,-19.27949 -0.41519,-4.89392 -0.41409,-7.3164 0.006,-12.55538 1.13171,-14.12331 3.6104699,-24.09082 8.3593499,-33.61441 2.85734,-5.73021 6.18597,-10.58587 10.38078,-15.14302 4.25878,-4.62666 6.72312,-6.49459 9.70595,-7.35698 1.04175,-0.30118 2.04857,-0.59908 2.23737,-0.66198 0.1888,-0.0629 0.46675,-0.46857 0.61767,-0.90148 0.63447,-1.82006 4.48642,-3.37969 10.15156,-4.11031 3.63521,-0.46883 5.33788,-0.42062 10.45104,0.29592 1.57024,0.22005 6.68936,0.49181 11.77396,0.62506 6.60963,0.17321 10.50475,0.41065 14.68437,0.89514 7.93964,0.92035 10.31875,1.08749 10.31875,0.72492 0,-0.16242 -0.64853,-2.11127 -1.44117,-4.33077 -2.06892,-5.79323 -2.34765,-7.018671 -2.36222,-10.385454 -0.0112,-2.584257 0.0634,-3.073495 0.66574,-4.365625 0.93486,-2.00555 2.40972,-3.695822 4.87859,-5.59112 5.840286,-4.483478 14.445636,-6.890972 26.040316,-7.285222 10.64421,-0.361929 20.38081,1.320077 27.64431,4.775581 5.07057,2.412248 7.73987,4.924036 9.92059,9.335169 1.58396,3.204012 3.89143,6.376959 5.8555,8.051771 0.78456,0.66901 2.85438,2.56091 4.59961,4.20423 4.05499,3.81821 8.06916,6.85256 10.32061,7.80148 0.29104,0.12267 2.79136,0.31454 5.55625,0.42638 2.7649,0.11185 7.88459,0.39449 11.37709,0.6281 16.39117,1.09636 48.61601,0.68619 62.44166,-0.79478 7.44903,-0.79792 17.00573,-2.52767 25.13542,-4.54947 5.93884,-1.47696 6.17464,-1.51351 9.78959,-1.51764 3.13996,-0.004 4.0064,0.0895 5.68854,0.61122 2.42768,0.75293 5.82745,2.52128 7.87201,4.09454 1.66193,1.27883 4.80272,4.49861 5.52879,5.66785 0.25019,0.40289 1.00878,1.38738 1.68574,2.18774 5.49473,6.49626 10.5002,17.95196 12.54341,28.70729 1.83007,9.63324 2.35858,15.39937 2.35239,25.66459 -0.006,10.32771 -0.53274,15.89497 -2.34527,24.79826 -2.3682,11.63272 -7.19172,22.72086 -12.91155,29.68066 -2.64166,3.2143 -7.53293,7.40047 -10.21485,8.74232 -3.64792,1.82517 -7.60812,2.54073 -15.06644,2.72233 -5.01634,0.12214 -5.89155,0.0878 -5.70388,-0.22361 0.17171,-0.285 0.1357,-0.30495 -0.15987,-0.0885 -0.26003,0.19038 -1.85615,0.21177 -5.01173,0.0671 -7.86691,-0.36054 -30.64525,-0.6715 -52.3875,-0.71518 -11.42339,-0.0229 -24.99652,-0.15455 -30.1625,-0.29245 -5.16599,-0.1379 -14.69099,-0.38855 -21.16667,-0.557 -12.26091,-0.31895 -34.70943,-0.20353 -53.18125,0.27343 -5.60256,0.14466 -15.04173,0.31371 -20.97594,0.37566 -9.963186,0.10402 -10.763896,0.0795 -10.455596,-0.32061 0.30874,-0.40066 0.29439,-0.40089 -0.19074,-0.003 -0.37671,0.30892 -1.34506,0.48019 -3.43502,0.60755 -4.08514,0.24894 -10.63047,0.86755 -15.61042,1.47537 -2.32833,0.28417 -5.84067,0.70707 -7.80521,0.93977 -3.40489,0.40331 -13.41864,0.73451 -14.81666,0.49007 z m 4.36562,-1.694 -1.30302,-1.32291 h 1.10372 c 0.60705,0 2.0214,-0.13649 3.143,-0.30331 1.57351,-0.23403 2.32782,-0.22934 3.30266,0.0205 1.0755,0.27565 1.76739,0.24318 4.65227,-0.2183 8.57323,-1.37142 20.82038,-2.26471 36.461786,-2.65947 37.43167,-0.94469 67.56608,-0.99636 84.79896,-0.14539 5.77001,0.28493 12.32339,0.38875 21.29896,0.33741 7.13052,-0.0408 18.29375,-0.0641 24.80716,-0.0518 l 11.84257,0.0223 0.72324,0.63912 c 0.60721,0.53657 0.64532,0.54651 0.23756,0.062 l -0.48568,-0.57714 3.39799,0.11115 c 4.63637,0.15166 38.98446,0.3726 38.98446,0.25076 0,-0.0537 -0.96287,-0.67044 -2.13974,-1.37048 -5.08543,-3.02504 -9.63573,-8.27928 -13.2061,-15.24907 -0.97724,-1.90771 -1.62901,-2.88218 -1.98437,-2.96689 -0.29104,-0.0694 -3.74386,-0.30514 -7.67292,-0.52394 -10.98161,-0.61153 -20.50511,-1.61927 -21.12576,-2.23546 -0.53674,-0.53288 6.44299,-0.61083 16.87117,-0.18841 5.95467,0.24121 10.87968,0.38556 10.94445,0.32077 0.0648,-0.0648 -0.25681,-1.01763 -0.71464,-2.11743 -4.26228,-10.23847 -6.44181,-23.39215 -6.44663,-38.9059 -0.003,-10.52143 1.0187,-20.09422 2.94257,-27.56347 l 0.76168,-2.95722 -0.56885,-0.14277 c -1.08972,-0.27351 -5.34178,-0.67447 -10.07232,-0.94982 -6.8989,-0.40154 -10.85588,-0.88637 -10.60093,-1.29888 0.0611,-0.0988 -0.0886,-0.18855 -0.33256,-0.19941 -0.24398,-0.0109 -0.91985,-0.13409 -1.50193,-0.27383 -0.7598,-0.18241 -1.73004,-0.1415 -3.43958,0.14504 -1.85355,0.31066 -4.91243,0.40275 -13.8032,0.41557 l -11.42195,0.0165 -0.67458,-0.63378 c -0.37103,-0.34857 -0.62163,-0.71946 -0.55689,-0.8242 0.35625,-0.57644 3.80005,-0.78669 12.70245,-0.77551 5.24103,0.007 10.30119,-0.0547 11.24479,-0.13628 0.94359,-0.0815 2.66813,-0.2008 3.83229,-0.26503 1.16417,-0.0642 5.2123,-0.43014 8.99584,-0.81314 3.78354,-0.383 9.47658,-0.89499 12.65121,-1.13775 5.67555,-0.43402 5.77831,-0.45245 6.14627,-1.10286 1.00351,-1.77381 4.13702,-9.03602 3.97073,-9.20262 -0.24545,-0.24593 -6.37053,-0.24406 -11.19269,0.003 -2.0771,0.1066 -3.77031,0.0913 -3.77031,-0.034 0,-0.4418 3.48541,-1.09295 10.06834,-1.881 3.66258,-0.43846 6.76871,-0.86485 6.90251,-0.94754 0.1338,-0.0827 1.19374,-1.38158 2.35545,-2.88641 1.16168,-1.50483 2.94397,-3.50619 3.96063,-4.44747 1.76527,-1.63438 2.35873,-2.55263 1.41586,-2.19083 -0.23791,0.0913 -2.47033,0.51257 -4.96093,0.93615 -15.70152,2.67038 -27.28946,3.50982 -48.18457,3.49051 -13.96722,-0.0129 -24.68444,-0.31972 -33.86667,-0.96953 -3.05594,-0.21626 -6.74688,-0.46207 -8.20208,-0.54623 l -2.64584,-0.15303 0.92604,0.83724 c 0.50933,0.46048 2.03933,1.6776 3.40001,2.7047 2.1647,1.63403 3.68386,3.26388 3.35175,3.59599 -0.28518,0.28518 -8.29706,-4.45548 -13.23405,-7.83064 -4.2855,-2.92977 -10.1198,-7.73885 -12.99203,-10.70903 -1.32261,-1.36771 -4.79592,-5.391143 -5.54341,-6.421394 -0.57707,-0.795348 -1.17602,-0.728596 -1.17602,0.131083 0,0.713681 -1.90012,3.002851 -3.64617,4.392721 -0.83226,0.66249 -2.94195,1.89901 -4.6882,2.74782 -11.2504,5.46855 -28.9369,6.31971 -43.38916,2.08808 -3.26751,-0.95673 -7.62174,-3.06862 -9.210956,-4.46751 -2.1864,-1.92455 -2.25726,-1.25984 -0.30618,2.87245 0.6404,1.35632 2.028576,3.73757 3.084846,5.29166 3.65079,5.3714 4.35493,6.54952 6.76729,11.32267 2.51981,4.98575 3.08971,6.62612 2.74709,7.9072 -0.27461,1.02682 -0.70497,1.10497 -1.16596,0.21173 -1.55603,-3.01503 -2.99936,-5.97949 -4.28976,-8.81076 -1.61795,-3.54991 -3.31107,-6.31633 -4.21355,-6.88457 -0.35621,-0.22428 -1.999206,-0.42381 -4.527826,-0.54987 -2.18282,-0.10881 -5.15938,-0.32409 -6.61459,-0.4784 -1.4552,-0.1543 -4.3127,-0.46005 -6.35,-0.67944 -2.03729,-0.21938 -6.85932,-0.52176 -10.71562,-0.67195 -9.19059,-0.35795 -13.56267,-0.6943 -15.34584,-1.18057 -2.76673,-0.75449 -7.72278,-0.42188 -11.1743,0.74994 -1.54126,0.52328 -3.64236,1.55047 -3.64236,1.7807 0,0.35787 3.3497,1.01219 5.86936,1.14651 2.84357,0.15158 4.81241,0.56011 5.25198,1.08976 0.52623,0.63407 -1.83803,0.72577 -6.35297,0.24642 -2.57929,-0.27384 -5.42504,-0.40848 -7.1401,-0.33782 -4.05609,0.16712 -5.01713,0.68064 -9.27582,4.95639 -5.36839,5.38988 -8.68688,10.07094 -11.92417,16.82019 -7.25821,15.13226 -10.0095099,33.70714 -7.49798,50.62139 0.41279,2.78002 1.72502,8.93386 2.24679,10.53658 l 0.27117,0.83297 3.89097,0.15791 c 14.9486,0.60663 16.992812,2.6046 30.241412,4.38681 2.18281,0.29364 6.17141,0.65584 8.86354,0.80489 5.09548,0.28212 8.87947,0.8306 10.03848,1.45505 0.59807,0.32222 0.30635,0.34987 -2.49785,0.23674 -5.73061,-0.23118 -12.81659,-0.64471 -22.3573,-1.30476 -5.16599,-0.35739 -12.4288,-0.83896 -16.13958,-1.07016 -8.02089,-0.49973 -9.858782,-0.8372 -10.237262,-0.45872 -0.3156,0.3156 1.09745,4.09696 2.98863,7.99762 1.74964,3.60873 5.08136,9.20884 6.86957,11.54667 1.91479,2.50332 7.38346,7.92897 9.48279,9.40819 4.90845,3.45855 10.60976,5.57927 16.05464,5.97186 l 2.16402,0.15603 1.26562,1.28495 c 0.69609,0.70671 1.32516,1.28494 1.39792,1.28494 0.0728,0 -0.45407,-0.59531 -1.17074,-1.32292 z M 214.73587,226.70545 c -1.96453,-0.11923 -5.77453,-0.40423 -8.46666,-0.63333 -2.69214,-0.22909 -6.97839,-0.5927 -9.525,-0.80803 -2.54662,-0.21532 -6.68404,-0.46739 -9.19428,-0.56015 -4.62888,-0.17106 -6.26665,-0.59123 -2.51354,-0.64484 8.17651,-0.11681 16.18547,0.1752 22.55573,0.82239 1.38245,0.14045 5.54964,0.56307 9.26042,0.93916 3.71078,0.37609 7.10406,0.78429 7.54062,0.90711 1.02294,0.2878 -4.76843,0.27442 -9.65729,-0.0223 z M 107.95582,132.42014 c -0.7273,-1.57415 -0.98677,-2.53323 -1.10295,-4.07684 -0.13856,-1.84092 -0.11416,-1.98724 0.27742,-1.66362 0.23614,0.19516 0.66398,0.98195 0.95075,1.74842 0.53875,1.43993 1.2313,5.64493 0.97235,5.90388 -0.0806,0.0806 -0.5745,-0.77973 -1.09757,-1.91184 z m 59.9488,0.27862 c 0,-0.2228 11.6611,-7.56454 12.01497,-7.56454 0.22018,0 -0.14623,0.85599 -0.7213,1.68502 -0.82741,1.19284 -4.93312,3.72354 -7.96249,4.90796 -2.59611,1.01503 -3.33118,1.22942 -3.33118,0.97156 z m 23.28333,-0.98487 c 0,-1.53223 2.27801,-3.40467 4.14211,-3.40467 0.60056,0 0.8766,0.16804 1.10709,0.67391 0.70124,1.53905 0.0863,2.49968 -0.84916,1.32652 -0.484,-0.60701 -0.66629,-0.67465 -1.22746,-0.45551 -0.36247,0.14155 -1.12968,0.74481 -1.70492,1.3406 -1.18375,1.22603 -1.46766,1.32646 -1.46766,0.51915 z m -88.86036,-3.14008 c -0.32591,-0.93493 -0.58084,-0.99433 -1.04913,-0.24447 -0.27559,0.44129 -0.41815,0.48693 -0.72511,0.23218 -0.616396,-0.51157 -0.45626,-1.29552 0.32535,-1.59269 1.59044,-0.60468 3.09676,0.46204 2.50048,1.77074 -0.38429,0.84342 -0.71813,0.79079 -1.05159,-0.16576 z m 21.39161,-1.02135 c -2.18579,-0.84812 -4.81373,-2.15363 -7.86968,-3.9095 -0.73365,-0.42153 -1.21687,-1.41915 -0.68741,-1.41915 0.0958,0 1.25665,0.48792 2.57969,1.08427 1.32304,0.59636 2.94131,1.32408 3.59615,1.61718 0.65484,0.2931 2.17289,1.17172 3.37344,1.9525 3.15818,2.05393 2.94174,2.20111 -0.99219,0.6747 z m 17.06563,-0.32076 c 1.5994,-0.50384 9.60876,-2.22934 14.02292,-3.02103 5.37288,-0.96365 12.06889,-2.99813 14.8319,-4.50644 1.35878,-0.74176 3.35925,-2.20193 3.51254,-2.56386 0.18786,-0.44354 0.57326,-0.17842 0.57326,0.39436 0,1.35553 -1.37887,2.61274 -4.21003,3.83855 -6.77688,2.93419 -17.06305,5.39239 -25.68788,6.1389 -4.42288,0.38281 -4.98407,0.33108 -3.04271,-0.28048 z m 67.99792,-4.3777 c -10.03393,-0.93288 -10.675,-1.04123 -10.02232,-1.69391 0.18357,-0.18358 3.43929,-0.13334 10.17322,0.15697 9.51294,0.41012 10.79036,0.50472 10.51627,0.77882 -0.48128,0.48127 -7.94187,1.0115 -10.66717,0.75812 z M 50.363474,120.57644 c -6.09883,-0.25264 -7.43403,-0.43862 -5.95313,-0.82916 2.16174,-0.5701 19.68774,-0.35399 22.82032,0.2814 l 0.79375,0.161 -0.79375,0.23577 c -1.25211,0.37192 -9.70691,0.4476 -16.86719,0.15099 z m 100.714556,0.10121 c 0.1374,-0.22233 5.85685,-3.48093 6.10967,-3.48093 0.37879,0 6.95167,-4.02558 8.51889,-5.21742 2.01819,-1.53479 2.74543,-1.65321 2.06435,-0.33614 -1.42248,2.75079 -9.14324,7.44439 -14.28611,8.68482 -2.27253,0.54812 -2.5548,0.58913 -2.4068,0.34967 z m -5.95849,-7.41713 c 0.3468,-0.26666 2.14952,-1.28577 4.00605,-2.26467 6.19965,-3.26892 8.05869,-4.45097 10.17157,-6.4675 1.94397,-1.85534 2.88435,-1.74678 1.86946,0.2158 -1.41028,2.72718 -12.61642,9.03638 -15.99804,9.00711 l -0.67958,-0.006 0.63054,-0.48485 z m 142.67509,125.4461 c 0.32909,-0.41965 0.31975,-0.429 -0.0999,-0.0999 -0.25466,0.19972 -0.46302,0.40808 -0.46302,0.46302 0,0.21777 0.21728,0.0776 0.56293,-0.36312 z m -94.98542,-1.32292 c 0.3291,-0.41964 0.31974,-0.429 -0.0999,-0.0999 -0.25467,0.19972 -0.46303,0.40808 -0.46303,0.46302 0,0.21776 0.21728,0.0776 0.56292,-0.36313 z m -97.929586,-0.46302 c 0.34177,-0.3638 0.56187,-0.66146 0.48911,-0.66146 -0.0728,0 -0.41192,0.29766 -0.7537,0.66146 -0.34177,0.3638 -0.56188,0.66146 -0.48911,0.66146 0.0728,0 0.41192,-0.29766 0.7537,-0.66146 z m 194.865626,-0.13229 c 0.26339,-0.29104 0.41936,-0.52917 0.3466,-0.52917 -0.0728,0 -0.34779,0.23813 -0.61118,0.52917 -0.2634,0.29104 -0.41937,0.52917 -0.34661,0.52917 0.0728,0 0.3478,-0.23813 0.61119,-0.52917 z m 11.29792,-0.82221 c 0.77115,-0.16118 2.277,-0.65341 3.34634,-1.09387 l 1.94429,-0.80082 -0.17751,-1.42063 c -0.15136,-1.21155 -0.109,-1.4469 0.28782,-1.59917 0.30485,-0.11699 0.56232,-0.0146 0.74676,0.2969 1.02163,1.72574 0.97118,1.72443 2.98452,0.0772 2.9196,-2.3886 6.40223,-6.57832 8.84828,-10.64473 3.33992,-5.55239 6.76544,-15.05423 8.39829,-23.29526 1.70908,-8.62593 2.40909,-15.7379 2.40493,-24.43431 -0.007,-14.38722 -2.51044,-28.33486 -7.01008,-39.05376 -1.38583,-3.30132 -3.96308,-7.96579 -5.52341,-9.99664 l -0.76229,-0.99214 -1.97001,1.06262 c -1.86245,1.0046 -3.78148,1.41832 -3.78148,0.81526 0,-0.63126 0.65334,-1.84446 1.59822,-2.96779 0.56941,-0.67693 1.17237,-1.5317 1.33996,-1.8995 0.37224,-0.81696 0.15718,-1.12108 -2.67359,-3.7812 -2.54096,-2.38777 -4.713,-3.84051 -7.31692,-4.8938 -1.78345,-0.72141 -2.49624,-0.85759 -5.06116,-0.96698 -4.54298,-0.19373 -7.86017,0.8252 -12.41931,3.81479 -2.03089,1.33173 -6.36677,5.66687 -7.60706,7.60574 -1.26429,1.97638 -1.40052,3.01265 -0.69599,5.2937 0.5823,1.88524 0.69901,3.22921 0.33084,3.8096 -0.17725,0.27942 -0.27308,0.27658 -0.51525,-0.0152 -0.50647,-0.61023 -1.36364,-2.67823 -1.36975,-3.30458 -0.003,-0.32742 -0.0951,-0.59376 -0.20426,-0.59186 -0.36925,0.006 -3.8151,5.7944 -4.20743,7.0672 -0.58391,1.89437 -0.47807,3.41178 0.40503,5.8069 1.08257,2.93611 1.46801,5.16067 1.09167,6.30093 -0.66112,2.00322 -1.53287,1.75958 -3.20046,-0.8945 -0.63582,-1.01198 -1.15956,-1.59563 -1.30302,-1.45216 -0.30874,0.30874 -1.70336,6.34171 -2.35918,10.20561 -1.03981,6.12614 -1.40504,11.13176 -1.39592,19.13236 0.0119,10.45024 0.81736,17.86567 2.93659,27.03666 1.03476,4.47792 3.96399,12.8478 4.78613,13.67566 0.13009,0.13101 0.57774,-0.45886 1.03372,-1.36218 0.85352,-1.69078 1.88116,-2.70535 2.74027,-2.70535 0.97761,0 0.42431,1.1923 -2.39988,5.1715 l -0.61571,0.86752 1.33273,2.73518 c 3.33883,6.85218 8.92302,12.93301 14.37487,15.65325 1.45375,0.72535 1.71791,0.95179 1.4552,1.24736 -0.26564,0.29889 -0.2482,0.3066 0.10115,0.0447 0.33333,-0.24987 0.83408,-0.20852 2.38125,0.19663 2.22213,0.58191 5.58766,0.69078 7.70081,0.24913 z m 3.54409,-13.20071 c 0.53023,-1.08613 2.398,-3.72875 5.46857,-7.73727 5.22158,-6.81659 6.91311,-9.85593 8.26513,-14.85074 0.26109,-0.96451 0.57611,-1.75365 0.70001,-1.75365 0.33674,0 0.26451,1.79029 -0.13877,3.43958 -1.18504,4.84647 -3.8726,9.69975 -7.93187,14.32372 -2.4621,2.80462 -6.61852,7.10168 -6.36307,6.57836 z m -17.85345,-4.29686 c -0.2001,-0.32886 -1.1888,-1.78855 -2.19707,-3.24376 -5.8212,-8.40158 -8.3008,-13.3932 -9.50436,-19.1329 -0.71925,-3.42994 -0.79243,-7.57308 -0.12192,-6.9026 0.0628,0.0628 0.25352,1.18396 0.42386,2.49149 0.6313,4.84558 2.64194,9.86709 7.30837,18.25234 3.11598,5.59921 4.63675,8.58804 4.53107,8.90508 -0.0419,0.12555 -0.23982,-0.0408 -0.43995,-0.36965 z m 8.04365,-11.08183 c -5.99313,-3.97702 -9.89835,-8.9102 -11.5335,-14.56945 -0.66114,-2.28818 -1.04169,-8.51991 -0.55031,-9.01129 0.48398,-0.484 0.62871,-0.0751 0.85982,2.4297 0.39973,4.33195 1.7494,8.26017 4.04733,11.77978 1.26481,1.93728 7.37217,8.87495 7.81275,8.87495 0.10192,0 0.44939,0.35719 0.77216,0.79375 0.76192,1.03057 0.51411,0.97823 -1.40825,-0.29744 z m 5.41883,-12.59789 c -0.50932,-0.25637 -0.9003,-0.58519 -0.86884,-0.73071 0.0315,-0.14552 0.66175,-0.34151 1.40065,-0.43553 2.30698,-0.29356 3.24533,-1.14221 5.71074,-5.16496 0.27342,-0.44617 0.30525,-0.44265 0.57632,0.0639 0.38954,0.7279 -0.66072,3.31035 -1.84454,4.5355 -1.83092,1.89481 -3.49769,2.47511 -4.97433,1.73185 z m 13.35807,0.063 c 2.03653,-6.22259 2.61697,-10.43335 2.62591,-19.05 0.007,-6.98232 -0.31901,-10.57206 -1.31408,-14.45798 -0.46754,-1.82595 -0.4676,-1.82998 -0.0217,-1.65886 0.52512,0.20151 1.65823,3.31459 2.20671,6.06267 0.90503,4.53453 0.37843,19.31644 -0.85781,24.07878 -0.50972,1.96363 -1.44362,4.0198 -2.22239,4.8931 -0.49739,0.55777 -0.56272,0.57851 -0.41667,0.13229 z m -22.73414,-16.077 c -0.83806,-1.27905 -1.28344,-3.90246 -1.11111,-6.54483 0.3167,-4.85691 2.93788,-11.60624 4.06836,-10.47577 0.0951,0.0951 -0.41603,1.92553 -1.13588,4.06758 l -1.30884,3.89464 0.0257,4.82865 c 0.014,2.65575 -0.013,4.82865 -0.0601,4.82865 -0.0471,0 -0.26223,-0.26952 -0.47808,-0.59892 z m 7.58458,-0.10733 c -1.03762,-0.41748 -1.47529,-3.39339 -0.71525,-4.86314 0.53906,-1.04246 1.45264,-1.03413 2.34077,0.0213 0.71911,0.85461 1.23671,2.32522 1.08958,3.09571 -0.0492,0.25737 -0.0985,0.60827 -0.10962,0.77978 -0.0563,0.86767 -1.51035,1.40692 -2.60548,0.96629 z m 1.21216,-2.40261 c -0.0905,-1.09356 -0.56089,-1.34791 -0.69837,-0.37763 -0.108,0.76242 0.10999,1.36982 0.49162,1.36982 0.17201,0 0.25564,-0.40139 0.20675,-0.99219 z m 8.43216,-3.50573 c -0.0958,-0.65484 -0.29921,-2.32172 -0.45204,-3.70416 -0.53287,-4.82092 -1.85129,-8.7559 -3.40463,-10.16165 -0.62031,-0.56138 -0.73771,-1.21544 -0.21812,-1.21544 0.63627,0 2.29994,1.90428 3.08628,3.53269 0.43204,0.89468 0.96931,2.5444 1.19394,3.66605 0.41497,2.07216 0.50509,6.81496 0.15729,8.27939 -0.18171,0.76513 -0.19479,0.75082 -0.36272,-0.39688 z m 15.33983,-1.85208 c -0.52065,-6.18423 -2.67105,-17.83222 -4.22878,-22.90596 -1.7326,-5.6432 -4.55972,-11.92049 -6.9587,-15.45087 -0.66583,-0.97987 -0.77137,-1.33067 -0.40032,-1.33067 0.21667,0 1.21254,1.36277 3.57701,4.89479 1.37615,2.05566 3.86453,7.51547 4.88381,10.71562 2.31238,7.26004 3.07893,11.57971 3.4717,19.56384 0.26181,5.32184 0.006,8.67529 -0.34472,4.51325 z m -42.91007,-6.54844 c 0.44214,-4.20046 2.00734,-11.24002 3.22082,-14.48594 1.84817,-4.94352 4.44707,-8.59895 6.11357,-8.59895 0.45474,0 0.8967,0.11312 0.98216,0.25138 0.0854,0.13825 -0.48635,0.89307 -1.27063,1.67736 -2.62866,2.62864 -3.68946,5.05745 -6.14892,14.07855 -1.37657,5.0492 -2.64393,8.86354 -2.945,8.86354 -0.077,0 -0.0554,-0.80367 0.048,-1.78594 z m 27.80678,-18.93222 c -2.33537,-4.14618 -3.89755,-6.47329 -5.19779,-7.74295 -1.87783,-1.83365 -1.10366,-2.00612 1.13085,-0.25193 1.65413,1.29857 3.26009,3.52199 4.46789,6.18574 0.74393,1.6407 1.6927,4.75955 1.505,4.94726 -0.0487,0.0487 -0.90635,-1.36347 -1.90595,-3.13812 z m -32.18198,1.19145 c -0.27462,-0.91656 -0.23871,-1.31452 0.26955,-2.98792 1.46966,-4.83852 5.00851,-10.28637 9.80805,-15.09896 2.83483,-2.8425 7.0417,-6.04266 7.94364,-6.04266 0.18137,0 -2.22697,2.59369 -5.35188,5.76376 -7.50599,7.61442 -9.61475,10.74877 -11.40603,16.95338 -0.34004,1.17782 -0.69213,2.21536 -0.7824,2.30564 -0.0903,0.0903 -0.30671,-0.31167 -0.48093,-0.89324 z m -11.85696,18.7991 c 0.32909,-0.41964 0.31975,-0.429 -0.0999,-0.0999 -0.25466,0.19972 -0.46302,0.40808 -0.46302,0.46302 0,0.21776 0.21727,0.0776 0.56292,-0.36313 z m 6.56137,-24.43431 c -0.31467,-0.78578 -0.68275,-1.81566 -0.81796,-2.2886 l -0.24579,-0.8599 -2.96413,-0.002 c -2.94577,-0.002 -10.50475,0.75888 -10.50475,1.05759 0,0.0859 2.17289,0.42301 4.82864,0.74908 2.65576,0.32608 5.62952,0.77691 6.60834,1.00185 1.5543,0.35718 1.88921,0.54728 2.64456,1.501 1.07133,1.35265 1.26135,0.86446 0.45109,-1.15886 z m -25.38055,-1.39631 c 0,-0.0549 -0.20836,-0.2633 -0.46302,-0.46302 -0.41965,-0.32911 -0.429,-0.31975 -0.0999,0.0999 0.34564,0.44073 0.56292,0.58089 0.56292,0.36313 z M 132.03861,107.91504 c 8.179,-0.62864 14.35458,-2.14359 19.88378,-4.87774 8.59097,-4.248186 9.35707,-10.12229 1.95931,-15.023175 -2.41763,-1.601645 -7.86045,-3.645059 -12.06444,-4.529397 -9.79752,-2.060972 -23.59762,-1.671704 -32.03191,0.903544 -6.10967,1.865468 -11.226816,5.129194 -12.652696,8.069911 -0.79374,1.637006 -0.71279,3.924242 0.19353,5.468022 3.002936,5.115045 14.210786,9.274985 26.922186,9.992505 1.96453,0.11089 3.6842,0.21975 3.82149,0.2419 0.13729,0.0221 1.92323,-0.0884 3.96875,-0.24557 z M 119.22128,97.484414 c -3.202,-0.647935 -4.23333,-1.351034 -4.23333,-2.886046 0,-1.619271 2.39331,-3.091585 6.74687,-4.150535 1.95898,-0.476496 3.15545,-0.579088 6.74688,-0.578527 5.92654,0.0011 9.12379,0.793456 10.55833,2.617177 0.65078,0.827341 0.73282,2.377024 0.16849,3.182725 -0.55849,0.797351 -2.7617,1.660324 -4.9718,1.947395 -2.86115,0.371633 -12.96519,0.282683 -15.01544,-0.132189 z m 15.91499,-1.680789 c 0.96788,-0.314831 2.03944,-0.809316 2.38125,-1.098857 0.61497,-0.520933 0.61599,-0.530678 0.0971,-0.931352 -0.87774,-0.677818 -4.38812,-1.654493 -7.21431,-2.007203 -2.13773,-0.266788 -3.23965,-0.26805 -5.49157,-0.0063 -3.88472,0.451564 -8.29831,2.126244 -7.99576,3.033889 0.10684,0.320517 2.86918,1.110221 5.21868,1.491933 0.80037,0.130029 3.65787,0.203541 6.35001,0.163356 4.16871,-0.06222 5.15583,-0.157975 6.65456,-0.645483 z"
       id="path854"
       sodipodi:nodetypes="sssssssscsssscssssssscssssssssssscssssscsssssscssssssssssssccsssssssscsscsssssssssccscssssssscssccssssscsssssssssscssssssssssssssssssssssssssssssssscsssssssssssscssccssssssssssssssssssssssssssssssssssssssssssssssssssssssssscsssssssscsssccccsssssssssssssssssssssscsscssscsscssssssssssssccsssssssssssscssssssssssssssssssssssssssssssssssssssscsssssssssssccssscssssccssssscsssssscsssssscssssssssssssssssssssssssssssscsssssssssssscsssssssccssscsssssscsssssss" />
    <text
       xml:space="preserve"
       style="font-style:normal;font-variant:normal;font-weight:bold;font-stretch:normal;font-size:14.9924px;line-height:1.25;font-family:sans-serif;-inkscape-font-specification:'sans-serif, Bold';font-variant-ligatures:normal;font-variant-caps:normal;font-variant-numeric:normal;font-variant-east-asian:normal;letter-spacing:0px;word-spacing:0px;fill:#5e81ac;stroke-width:1.12443"
       x="71.268074"
       y="154.35081"
       id="text2133"><tspan
         sodipodi:role="line"
         id="tspan2131"
         style="font-style:normal;font-variant:normal;font-weight:bold;font-stretch:normal;font-size:14.9924px;font-family:sans-serif;-inkscape-font-specification:'sans-serif, Bold';font-variant-ligatures:normal;font-variant-caps:normal;font-variant-numeric:normal;font-variant-east-asian:normal;fill:#5e81ac;stroke-width:1.12443"
         x="71.268074"
         y="154.35081">2022-01-29 : $5.99</tspan></text>
    <text
       xml:space="preserve"
       style="font-style:normal;font-variant:normal;font-weight:bold;font-stretch:normal;font-size:14.9924px;line-height:1.25;font-family:sans-serif;-inkscape-font-specification:'sans-serif, Bold';font-variant-ligatures:normal;font-variant-caps:normal;font-variant-numeric:normal;font-variant-east-asian:normal;letter-spacing:0px;word-spacing:0px;fill:#5e81ac;stroke-width:1.12443"
       x="71.268074"
       y="173.09154"
       id="text4431"><tspan
         sodipodi:role="line"
         id="tspan4429"
         style="font-style:normal;font-variant:normal;font-weight:bold;font-stretch:normal;font-size:14.9924px;font-family:sans-serif;-inkscape-font-specification:'sans-serif, Bold';font-variant-ligatures:normal;font-variant-caps:normal;font-variant-numeric:normal;font-variant-east-asian:normal;fill:#5e81ac;stroke-width:1.12443"
         x="71.268074"
         y="173.09154">2022-01-30 : $10.59</tspan></text>
    <text
       xml:space="preserve"
       style="font-style:normal;font-variant:normal;font-weight:bold;font-stretch:normal;font-size:14.9924px;line-height:1.25;font-family:sans-serif;-inkscape-font-specification:'sans-serif, Bold';font-variant-ligatures:normal;font-variant-caps:normal;font-variant-numeric:normal;font-variant-east-asian:normal;letter-spacing:0px;word-spacing:0px;fill:#5e81ac;stroke-width:1.12443"
       x="71.268074"
       y="191.83224"
       id="text5973"><tspan
         sodipodi:role="line"
         id="tspan5971"
         style="font-style:normal;font-variant:normal;font-weight:bold;font-stretch:normal;font-size:14.9924px;font-family:sans-serif;-inkscape-font-specification:'sans-serif, Bold';font-variant-ligatures:normal;font-variant-caps:normal;font-variant-numeric:normal;font-variant-east-asian:normal;fill:#5e81ac;stroke-width:1.12443"
         x="71.268074"
         y="191.83224">2022-01-31 : $8.27</tspan></text>
    <text
       xml:space="preserve"
       style="font-style:normal;font-variant:normal;font-weight:bold;font-stretch:normal;font-size:14.9924px;line-height:1.25;font-family:sans-serif;-inkscape-font-specification:'sans-serif, Bold';font-variant-ligatures:normal;font-variant-caps:normal;font-variant-numeric:normal;font-variant-east-asian:normal;letter-spacing:0px;word-spacing:0px;fill:#5e81ac;stroke-width:1.12443"
       x="71.268074"
       y="210.57297"
       id="text7319"><tspan
         sodipodi:role="line"
         id="tspan7317"
         style="font-style:normal;font-variant:normal;font-weight:bold;font-stretch:normal;font-size:14.9924px;font-family:sans-serif;-inkscape-font-specification:'sans-serif, Bold';font-variant-ligatures:normal;font-variant-caps:normal;font-variant-numeric:normal;font-variant-east-asian:normal;fill:#5e81ac;stroke-width:1.12443"
         x="71.268074"
         y="210.57297">2022-01-30 : $11.59</tspan></text>
  </g>
</svg>
