<?xml version="1.0" encoding="UTF-8" standalone="no"?>
<!-- Created with Inkscape (http://www.inkscape.org/) -->

<svg
   width="133.88229mm"
   height="133.88229mm"
   viewBox="0 0 133.88229 133.88229"
   version="1.1"
   id="svg5"
   inkscape:version="1.2.1 (9c6d41e410, 2022-07-14, custom)"
   sodipodi:docname="docker_image_layers.svg"
   xmlns:inkscape="http://www.inkscape.org/namespaces/inkscape"
   xmlns:sodipodi="http://sodipodi.sourceforge.net/DTD/sodipodi-0.dtd"
   xmlns="http://www.w3.org/2000/svg"
   xmlns:svg="http://www.w3.org/2000/svg">
  <sodipodi:namedview
     id="namedview7"
     pagecolor="#ffffff"
     bordercolor="#000000"
     borderopacity="0.25"
     inkscape:showpageshadow="2"
     inkscape:pageopacity="0.0"
     inkscape:pagecheckerboard="0"
     inkscape:deskcolor="#d1d1d1"
     inkscape:document-units="mm"
     showgrid="false"
     inkscape:zoom="1.2938725"
     inkscape:cx="455.99547"
     inkscape:cy="223.36049"
     inkscape:window-width="1680"
     inkscape:window-height="1020"
     inkscape:window-x="0"
     inkscape:window-y="30"
     inkscape:window-maximized="1"
     inkscape:current-layer="layer1" />
  <defs
     id="defs2" />
  <g
     inkscape:label="Layer 1"
     inkscape:groupmode="layer"
     id="layer1"
     transform="translate(-296.09671,-28.553965)">
    <rect
       style="fill:none;stroke:#5a4a78;stroke-width:3;stroke-linecap:round;stroke-linejoin:round;stroke-dasharray:none"
       id="rect739"
       width="130.88229"
       height="130.88229"
       x="297.59671"
       y="30.053965" />
    <rect
       style="fill:#166775;fill-opacity:0.444791;stroke:#166775;stroke-width:1.9;stroke-linecap:round;stroke-linejoin:round"
       id="rect1569"
       width="119.4318"
       height="21.899897"
       x="303.32196"
       y="130.86113" />
    <rect
       style="fill:#8f5e15;fill-opacity:0.444791;stroke:#8f5e15;stroke-width:1.9;stroke-linecap:round;stroke-linejoin:round"
       id="rect1679"
       width="119.4318"
       height="21.899897"
       x="303.32196"
       y="99.983818" />
    <rect
       style="fill:#8f5e15;fill-opacity:0.444791;stroke:#8f5e15;stroke-width:1.9;stroke-linecap:round;stroke-linejoin:round"
       id="rect1681"
       width="119.4318"
       height="21.899897"
       x="303.32196"
       y="69.106514" />
    <rect
       style="fill:#8f5e15;fill-opacity:0.444791;stroke:#8f5e15;stroke-width:1.9;stroke-linecap:round;stroke-linejoin:round"
       id="rect1683"
       width="119.4318"
       height="21.899897"
       x="303.32196"
       y="38.229198" />
    <g
       aria-label="Base Image"
       id="text1749"
       style="font-size:21.8091px;font-family:'Bebas Neue';-inkscape-font-specification:'Bebas Neue, Normal';fill:#343b58;fill-opacity:0.999988;stroke-width:1.20297;stroke-linecap:round;stroke-linejoin:round">
      <path
         d="m 324.68659,134.17789 h 3.62031 q 1.85378,0 2.70433,0.87236 0.85056,0.85056 0.85056,2.63891 v 0.61065 q 0,1.17769 -0.39257,1.9192 -0.37075,0.74151 -1.15588,1.06865 v 0.0436 q 1.78835,0.61066 1.78835,3.18413 v 1.30855 q 0,1.76654 -0.9378,2.70433 -0.91598,0.91598 -2.70432,0.91598 h -3.77298 z m 3.33679,6.21559 q 0.7197,0 1.06865,-0.37075 0.37076,-0.37076 0.37076,-1.24312 v -0.85055 q 0,-0.82875 -0.30533,-1.19951 -0.28352,-0.37075 -0.91598,-0.37075 h -1.15589 v 4.03468 z m 0.43619,6.86987 q 0.63246,0 0.93779,-0.32714 0.30533,-0.34894 0.30533,-1.17769 v -1.33035 q 0,-1.04684 -0.37076,-1.4394 -0.34894,-0.41438 -1.17769,-0.41438 h -1.06865 v 4.68896 z"
         id="path242" />
      <path
         d="m 335.35123,134.17789 h 3.24955 l 2.48624,15.26637 h -2.399 l -0.43618,-3.03147 v 0.0436 h -2.72614 l -0.43618,2.98785 h -2.22453 z m 2.61709,10.20666 -1.06865,-7.54595 h -0.0436 l -1.04684,7.54595 z"
         id="path244" />
      <path
         d="m 345.29615,149.66235 q -1.74473,0 -2.6389,-0.98141 -0.89417,-1.00322 -0.89417,-2.85699 v -0.87236 h 2.26814 v 1.04683 q 0,1.48302 1.24312,1.48302 0.61066,0 0.91598,-0.34894 0.32714,-0.37076 0.32714,-1.1777 0,-0.9596 -0.43618,-1.6793 -0.43618,-0.74151 -1.61388,-1.76653 -1.48301,-1.30855 -2.07186,-2.35539 -0.58885,-1.06864 -0.58885,-2.399 0,-1.81015 0.91599,-2.79156 0.91598,-1.00322 2.66071,-1.00322 1.72292,0 2.59528,1.00322 0.89417,0.98141 0.89417,2.83518 v 0.63246 h -2.26814 v -0.78512 q 0,-0.78513 -0.30533,-1.13408 -0.30533,-0.37075 -0.89417,-0.37075 -1.19951,0 -1.19951,1.46121 0,0.82874 0.43619,1.54844 0.45799,0.71971 1.63568,1.74473 1.50483,1.30855 2.07186,2.37719 0.56704,1.06865 0.56704,2.50805 0,1.87558 -0.93779,2.8788 -0.91598,1.00322 -2.68252,1.00322 z"
         id="path246" />
      <path
         d="m 350.29043,134.17789 h 6.54273 v 2.18091 h -4.14373 v 4.03468 h 3.29317 v 2.18091 h -3.29317 v 4.68896 h 4.14373 v 2.18091 h -6.54273 z"
         id="path248" />
      <path
         d="m 361.6966,134.17789 h 2.399 v 15.26637 h -2.399 z"
         id="path250" />
      <path
         d="m 365.88394,134.17789 h 3.42403 l 1.52663,10.92636 h 0.0436 l 1.52664,-10.92636 h 3.42403 v 15.26637 h -2.26815 v -11.55882 h -0.0436 l -1.74472,11.55882 h -2.00644 l -1.74473,-11.55882 h -0.0436 v 11.55882 h -2.09367 z"
         id="path252" />
      <path
         d="m 379.47101,134.17789 h 3.24955 l 2.48624,15.26637 h -2.399 l -0.43618,-3.03147 v 0.0436 h -2.72614 l -0.43618,2.98785 h -2.22453 z m 2.61709,10.20666 -1.06865,-7.54595 h -0.0436 l -1.04683,7.54595 z"
         id="path254" />
      <path
         d="m 389.72125,149.66235 q -1.74473,0 -2.66071,-0.98141 -0.91599,-1.00322 -0.91599,-2.85699 v -8.02575 q 0,-1.85377 0.91599,-2.83518 0.91598,-1.00322 2.66071,-1.00322 1.74472,0 2.66071,1.00322 0.91598,0.98141 0.91598,2.83518 v 1.30855 h -2.26815 v -1.46121 q 0,-1.50483 -1.24312,-1.50483 -1.24311,0 -1.24311,1.50483 v 8.35288 q 0,1.48302 1.24311,1.48302 1.24312,0 1.24312,-1.48302 v -2.98784 h -1.1995 v -2.18091 h 3.46765 v 4.99428 q 0,1.85377 -0.91598,2.85699 -0.91599,0.98141 -2.66071,0.98141 z"
         id="path256" />
      <path
         d="m 394.84641,134.17789 h 6.54273 v 2.18091 h -4.14373 v 4.03468 h 3.29317 v 2.18091 h -3.29317 v 4.68896 h 4.14373 v 2.18091 h -6.54273 z"
         id="path258" />
    </g>
    <g
       aria-label="Application"
       id="text1753"
       style="font-size:21.8091px;font-family:'Bebas Neue';-inkscape-font-specification:'Bebas Neue, Normal';fill:#343b58;fill-opacity:0.999988;stroke-width:1.20297;stroke-linecap:round;stroke-linejoin:round">
      <path
         d="m 324.33767,103.30058 h 3.24955 l 2.48624,15.26637 h -2.399 l -0.43618,-3.03147 v 0.0436 h -2.72614 l -0.43618,2.98785 h -2.22453 z m 2.61709,10.20666 -1.06865,-7.54595 h -0.0436 l -1.04684,7.54595 z"
         id="path219" />
      <path
         d="m 331.22932,103.30058 h 3.53308 q 1.78834,0 2.68252,0.9596 0.89417,0.9596 0.89417,2.81337 v 1.50483 q 0,1.85377 -0.89417,2.81337 -0.89418,0.9596 -2.68252,0.9596 h -1.13408 v 6.2156 h -2.399 z m 3.53308,6.86986 q 0.58884,0 0.87236,-0.32713 0.30533,-0.32714 0.30533,-1.11227 v -1.81015 q 0,-0.78513 -0.30533,-1.11227 -0.28352,-0.32713 -0.87236,-0.32713 h -1.13408 v 4.68895 z"
         id="path221" />
      <path
         d="m 339.64763,103.30058 h 3.53307 q 1.78835,0 2.68252,0.9596 0.89418,0.9596 0.89418,2.81337 v 1.50483 q 0,1.85377 -0.89418,2.81337 -0.89417,0.9596 -2.68252,0.9596 h -1.13407 v 6.2156 h -2.399 z m 3.53307,6.86986 q 0.58885,0 0.87237,-0.32713 0.30532,-0.32714 0.30532,-1.11227 v -1.81015 q 0,-0.78513 -0.30532,-1.11227 -0.28352,-0.32713 -0.87237,-0.32713 h -1.13407 v 4.68895 z"
         id="path223" />
      <path
         d="m 348.06593,103.30058 h 2.399 v 13.08546 h 3.94745 v 2.18091 h -6.34645 z"
         id="path225" />
      <path
         d="m 355.56826,103.30058 h 2.399 v 15.26637 h -2.399 z"
         id="path227" />
      <path
         d="m 363.13601,118.78504 q -1.72292,0 -2.6389,-0.98141 -0.89418,-0.98141 -0.89418,-2.76976 v -8.20022 q 0,-1.78834 0.89418,-2.76975 0.91598,-0.98141 2.6389,-0.98141 1.72292,0 2.61709,0.98141 0.91598,0.98141 0.91598,2.76975 v 1.61388 h -2.26815 v -1.76654 q 0,-1.41759 -1.1995,-1.41759 -1.1995,0 -1.1995,1.41759 v 8.52736 q 0,1.39578 1.1995,1.39578 1.1995,0 1.1995,-1.39578 v -2.33358 h 2.26815 v 2.1591 q 0,1.78835 -0.91598,2.76976 -0.89417,0.98141 -2.61709,0.98141 z"
         id="path229" />
      <path
         d="m 369.96224,103.30058 h 3.24956 l 2.48623,15.26637 h -2.399 l -0.43618,-3.03147 v 0.0436 h -2.72614 l -0.43618,2.98785 H 367.476 Z m 2.61709,10.20666 -1.06864,-7.54595 h -0.0436 l -1.04684,7.54595 z"
         id="path231" />
      <path
         d="m 377.72627,105.48149 h -2.50805 v -2.18091 h 7.4151 v 2.18091 h -2.50805 v 13.08546 h -2.399 z"
         id="path233" />
      <path
         d="m 383.78921,103.30058 h 2.399 v 15.26637 h -2.399 z"
         id="path235" />
      <path
         d="m 391.44419,118.78504 q -1.76654,0 -2.70433,-1.00322 -0.93779,-1.00322 -0.93779,-2.83518 v -8.02575 q 0,-1.83197 0.93779,-2.83518 0.93779,-1.00322 2.70433,-1.00322 1.76653,0 2.70433,1.00322 0.93779,1.00321 0.93779,2.83518 v 8.02575 q 0,1.83196 -0.93779,2.83518 -0.9378,1.00322 -2.70433,1.00322 z m 0,-2.18091 q 1.24312,0 1.24312,-1.50483 v -8.33107 q 0,-1.50483 -1.24312,-1.50483 -1.24312,0 -1.24312,1.50483 v 8.33107 q 0,1.50483 1.24312,1.50483 z"
         id="path237" />
      <path
         d="m 396.70017,103.30058 h 3.00966 l 2.33357,9.13801 h 0.0436 v -9.13801 h 2.13729 v 15.26637 h -2.46443 l -2.8788,-11.14445 h -0.0436 v 11.14445 h -2.13729 z"
         id="path239" />
    </g>
    <g
       aria-label="Dependencies"
       id="text1809"
       style="font-size:21.8091px;font-family:'Bebas Neue';-inkscape-font-specification:'Bebas Neue, Normal';fill:#343b58;fill-opacity:0.999988;stroke-width:1.20297;stroke-linecap:round;stroke-linejoin:round">
      <path
         d="m 315.16685,72.423274 h 3.66393 q 1.78834,0 2.68252,0.959601 0.89417,0.9596 0.89417,2.813374 v 7.720421 q 0,1.853773 -0.89417,2.813373 -0.89418,0.959601 -2.68252,0.959601 h -3.66393 z m 3.62031,13.08546 q 0.58884,0 0.89417,-0.348946 0.32714,-0.348945 0.32714,-1.134073 v -7.938512 q 0,-0.785127 -0.32714,-1.134073 -0.30533,-0.348946 -0.89417,-0.348946 h -1.22131 v 10.90455 z"
         id="path194" />
      <path
         d="m 324.02134,72.423274 h 6.54273 v 2.18091 h -4.14372 v 4.034684 h 3.29317 v 2.18091 h -3.29317 v 4.688956 h 4.14372 v 2.18091 h -6.54273 z"
         id="path196" />
      <path
         d="m 331.93807,72.423274 h 3.53307 q 1.78835,0 2.68252,0.959601 0.89417,0.9596 0.89417,2.813374 v 1.504827 q 0,1.853774 -0.89417,2.813374 -0.89417,0.959601 -2.68252,0.959601 h -1.13407 v 6.215593 h -2.399 z m 3.53307,6.869867 q 0.58885,0 0.87236,-0.327137 0.30533,-0.327136 0.30533,-1.112264 v -1.810155 q 0,-0.785128 -0.30533,-1.112264 -0.28351,-0.327137 -0.87236,-0.327137 h -1.13407 v 4.688957 z"
         id="path198" />
      <path
         d="m 340.35637,72.423274 h 6.54273 v 2.18091 h -4.14373 v 4.034684 h 3.29318 v 2.18091 h -3.29318 v 4.688956 h 4.14373 v 2.18091 h -6.54273 z"
         id="path200" />
      <path
         d="m 348.27309,72.423274 h 3.00966 l 2.33357,9.138013 h 0.0436 v -9.138013 h 2.13729 v 15.26637 h -2.46442 L 350.454,76.545194 h -0.0436 v 11.14445 h -2.1373 z"
         id="path202" />
      <path
         d="m 357.58558,72.423274 h 3.66393 q 1.78834,0 2.68252,0.959601 0.89417,0.9596 0.89417,2.813374 v 7.720421 q 0,1.853773 -0.89417,2.813373 -0.89418,0.959601 -2.68252,0.959601 h -3.66393 z m 3.62031,13.08546 q 0.58885,0 0.89417,-0.348946 0.32714,-0.348945 0.32714,-1.134073 v -7.938512 q 0,-0.785127 -0.32714,-1.134073 -0.30532,-0.348946 -0.89417,-0.348946 h -1.22131 v 10.90455 z"
         id="path204" />
      <path
         d="m 366.44008,72.423274 h 6.54273 v 2.18091 h -4.14373 v 4.034684 h 3.29317 v 2.18091 h -3.29317 v 4.688956 h 4.14373 v 2.18091 h -6.54273 z"
         id="path206" />
      <path
         d="m 374.3568,72.423274 h 3.00966 l 2.33357,9.138013 h 0.0436 v -9.138013 h 2.13729 v 15.26637 h -2.46443 l -2.8788,-11.14445 h -0.0436 v 11.14445 h -2.13729 z"
         id="path208" />
      <path
         d="m 387.0497,87.907735 q -1.72292,0 -2.6389,-0.98141 -0.89417,-0.981409 -0.89417,-2.769755 v -8.200222 q 0,-1.788346 0.89417,-2.769755 0.91598,-0.98141 2.6389,-0.98141 1.72292,0 2.61709,0.98141 0.91598,0.981409 0.91598,2.769755 v 1.613874 h -2.26814 v -1.766537 q 0,-1.417592 -1.1995,-1.417592 -1.1995,0 -1.1995,1.417592 v 8.527358 q 0,1.395782 1.1995,1.395782 1.1995,0 1.1995,-1.395782 v -2.333574 h 2.26814 v 2.159101 q 0,1.788346 -0.91598,2.769755 -0.89417,0.98141 -2.61709,0.98141 z"
         id="path210" />
      <path
         d="m 392.02216,72.423274 h 2.399 v 15.26637 h -2.399 z"
         id="path212" />
      <path
         d="m 396.2095,72.423274 h 6.54273 v 2.18091 h -4.14373 v 4.034684 h 3.29317 v 2.18091 h -3.29317 v 4.688956 h 4.14373 v 2.18091 h -6.54273 z"
         id="path214" />
      <path
         d="m 407.28855,87.907735 q -1.74472,0 -2.6389,-0.98141 -0.89417,-1.003218 -0.89417,-2.856992 v -0.872364 h 2.26815 v 1.046837 q 0,1.483019 1.24312,1.483019 0.61065,0 0.91598,-0.348946 0.32713,-0.370754 0.32713,-1.177691 0,-0.9596 -0.43618,-1.679301 -0.43618,-0.741509 -1.61387,-1.766537 -1.48302,-1.308546 -2.07187,-2.355382 -0.58884,-1.068646 -0.58884,-2.399001 0,-1.810156 0.91598,-2.791565 0.91598,-1.003219 2.66071,-1.003219 1.72292,0 2.59528,1.003219 0.89418,0.981409 0.89418,2.835183 v 0.632464 h -2.26815 v -0.785128 q 0,-0.785127 -0.30533,-1.134073 -0.30532,-0.370755 -0.89417,-0.370755 -1.1995,0 -1.1995,1.46121 0,0.828746 0.43618,1.548446 0.45799,0.7197 1.63568,1.744728 1.50483,1.308546 2.07187,2.377192 0.56704,1.068646 0.56704,2.508046 0,1.875583 -0.9378,2.878801 -0.91598,1.003219 -2.68252,1.003219 z"
         id="path216" />
    </g>
    <g
       aria-label="Commands"
       id="text1813"
       style="font-size:21.8091px;font-family:'Bebas Neue';-inkscape-font-specification:'Bebas Neue, Normal';fill:#343b58;fill-opacity:0.999988;stroke-width:1.20297;stroke-linecap:round;stroke-linejoin:round">
      <path
         d="m 329.37554,57.030423 q -1.72292,0 -2.63891,-0.981409 -0.89417,-0.98141 -0.89417,-2.769756 v -8.200221 q 0,-1.788346 0.89417,-2.769756 0.91599,-0.981409 2.63891,-0.981409 1.72291,0 2.61709,0.981409 0.91598,0.98141 0.91598,2.769756 v 1.613873 h -2.26815 v -1.766537 q 0,-1.417591 -1.1995,-1.417591 -1.1995,0 -1.1995,1.417591 v 8.527358 q 0,1.395782 1.1995,1.395782 1.1995,0 1.1995,-1.395782 v -2.333574 h 2.26815 v 2.159101 q 0,1.788346 -0.91598,2.769756 -0.89418,0.981409 -2.61709,0.981409 z"
         id="path177" />
      <path
         d="m 337.85928,57.030423 q -1.76654,0 -2.70433,-1.003218 -0.93779,-1.003219 -0.93779,-2.835183 v -8.025749 q 0,-1.831964 0.93779,-2.835183 0.93779,-1.003218 2.70433,-1.003218 1.76654,0 2.70433,1.003218 0.93779,1.003219 0.93779,2.835183 v 8.025749 q 0,1.831964 -0.93779,2.835183 -0.93779,1.003218 -2.70433,1.003218 z m 0,-2.18091 q 1.24312,0 1.24312,-1.504828 v -8.331076 q 0,-1.504827 -1.24312,-1.504827 -1.24312,0 -1.24312,1.504827 v 8.331076 q 0,1.504828 1.24312,1.504828 z"
         id="path179" />
      <path
         d="m 343.11527,41.545963 h 3.42402 l 1.52664,10.926358 h 0.0436 l 1.52664,-10.926358 h 3.42402 v 15.266369 h -2.26814 V 45.25351 h -0.0436 l -1.74473,11.558822 h -2.00644 L 345.25256,45.25351 h -0.0436 v 11.558822 h -2.09367 z"
         id="path181" />
      <path
         d="m 354.84856,41.545963 h 3.42403 l 1.52664,10.926358 h 0.0436 l 1.52664,-10.926358 h 3.42403 v 15.266369 h -2.26815 V 45.25351 h -0.0436 l -1.74473,11.558822 h -2.00644 L 356.98585,45.25351 h -0.0436 v 11.558822 h -2.09367 z"
         id="path183" />
      <path
         d="m 368.43563,41.545963 h 3.24956 l 2.48624,15.266369 h -2.399 l -0.43619,-3.031465 v 0.04362 h -2.72613 l -0.43619,2.987846 h -2.22452 z m 2.6171,10.206658 -1.06865,-7.545948 h -0.0436 l -1.04684,7.545948 z"
         id="path185" />
      <path
         d="m 375.32729,41.545963 h 3.00965 l 2.33358,9.138012 h 0.0436 v -9.138012 h 2.1373 V 56.812332 H 380.387 l -2.8788,-11.14445 h -0.0436 v 11.14445 h -2.13729 z"
         id="path187" />
      <path
         d="m 384.63977,41.545963 h 3.66393 q 1.78835,0 2.68252,0.9596 0.89418,0.9596 0.89418,2.813374 v 7.720421 q 0,1.853773 -0.89418,2.813374 -0.89417,0.9596 -2.68252,0.9596 h -3.66393 z m 3.62032,13.085459 q 0.58884,0 0.89417,-0.348945 0.32713,-0.348946 0.32713,-1.134074 v -7.938512 q 0,-0.785127 -0.32713,-1.134073 -0.30533,-0.348945 -0.89417,-0.348945 h -1.22131 v 10.904549 z"
         id="path189" />
      <path
         d="m 396.61297,57.030423 q -1.74473,0 -2.6389,-0.981409 -0.89417,-1.003219 -0.89417,-2.856992 v -0.872364 h 2.26814 v 1.046836 q 0,1.483019 1.24312,1.483019 0.61066,0 0.91598,-0.348945 0.32714,-0.370755 0.32714,-1.177692 0,-0.9596 -0.43618,-1.6793 -0.43618,-0.74151 -1.61387,-1.766537 -1.48302,-1.308546 -2.07187,-2.355383 -0.58884,-1.068646 -0.58884,-2.399001 0,-1.810155 0.91598,-2.791565 0.91598,-1.003218 2.66071,-1.003218 1.72292,0 2.59528,1.003218 0.89417,0.98141 0.89417,2.835183 v 0.632464 h -2.26814 v -0.785128 q 0,-0.785127 -0.30533,-1.134073 -0.30533,-0.370754 -0.89417,-0.370754 -1.1995,0 -1.1995,1.461209 0,0.828746 0.43618,1.548446 0.45799,0.719701 1.63568,1.744728 1.50483,1.308546 2.07187,2.377192 0.56703,1.068646 0.56703,2.508046 0,1.875583 -0.93779,2.878802 -0.91598,1.003218 -2.68252,1.003218 z"
         id="path191" />
    </g>
  </g>
</svg>
