<?xml version="1.0" encoding="UTF-8" standalone="no"?>
<!-- Created with Inkscape (http://www.inkscape.org/) -->

<svg
   width="336.29398mm"
   height="167.61925mm"
   viewBox="0 0 336.29398 167.61925"
   version="1.1"
   id="svg5"
   inkscape:version="1.1.2 (0a00cf5339, 2022-02-04)"
   sodipodi:docname="mapreduce.svg"
   inkscape:export-filename="/home/jedediah/Teaching/DataEng/FundDE/Lectures/images/mapreduce.png"
   inkscape:export-xdpi="96"
   inkscape:export-ydpi="96"
   xmlns:inkscape="http://www.inkscape.org/namespaces/inkscape"
   xmlns:sodipodi="http://sodipodi.sourceforge.net/DTD/sodipodi-0.dtd"
   xmlns="http://www.w3.org/2000/svg"
   xmlns:svg="http://www.w3.org/2000/svg">
  <sodipodi:namedview
     id="namedview7"
     pagecolor="#ffffff"
     bordercolor="#666666"
     borderopacity="1.0"
     inkscape:pageshadow="2"
     inkscape:pageopacity="0.0"
     inkscape:pagecheckerboard="0"
     inkscape:document-units="mm"
     showgrid="false"
     inkscape:snap-global="false"
     inkscape:zoom="1.3273709"
     inkscape:cx="591.3946"
     inkscape:cy="370.65751"
     inkscape:window-width="2528"
     inkscape:window-height="1381"
     inkscape:window-x="1096"
     inkscape:window-y="43"
     inkscape:window-maximized="1"
     inkscape:current-layer="layer1" />
  <defs
     id="defs2">
    <inkscape:path-effect
       effect="rough_hatches"
       id="path-effect11762"
       is_visible="true"
       lpeversion="1"
       direction="333.64918,217.01526 , 3.6559807,1.8079203"
       dist_rdm="75;1"
       growth="0"
       do_bend="true"
       bender="333.64918,222.01526 , 5,0"
       bottom_edge_variation="3.349937;200425453"
       top_edge_variation="3.349937;1"
       bottom_tgt_variation="0;1"
       top_tgt_variation="0;1"
       scale_bf="1"
       scale_bb="1"
       scale_tf="1"
       scale_tb="1"
       top_smth_variation="0;1"
       bottom_smth_variation="0;1"
       fat_output="true"
       stroke_width_top="1"
       stroke_width_bottom="1"
       front_thickness="1"
       back_thickness="0.25" />
    <inkscape:path-effect
       effect="sketch"
       id="path-effect11760"
       is_visible="true"
       lpeversion="1"
       nbiter_approxstrokes="2"
       strokelength="83"
       strokelength_rdm="0.5;1"
       strokeoverlap="0.1"
       strokeoverlap_rdm="0.1;1"
       ends_tolerance="0;1"
       parallel_offset="0;1"
       tremble_size="0.5;1"
       tremble_frequency="5"
       nbtangents="0"
       tgt_places_rdmness="0.6;1"
       tgtscale="4.8"
       tgtlength="100"
       tgtlength_rdm="0;1" />
    <inkscape:path-effect
       effect="rough_hatches"
       id="path-effect11655"
       is_visible="true"
       lpeversion="1"
       direction="489.34039,194.3859 , 2.8389011,1.166954"
       dist_rdm="75;1"
       growth="0"
       do_bend="true"
       bender="489.34039,199.3859 , 5,0"
       bottom_edge_variation="2.901131;1"
       top_edge_variation="2.901131;1"
       bottom_tgt_variation="0;1"
       top_tgt_variation="0;1"
       scale_bf="1"
       scale_bb="1"
       scale_tf="1"
       scale_tb="1"
       top_smth_variation="0;1"
       bottom_smth_variation="0;1"
       fat_output="true"
       stroke_width_top="1"
       stroke_width_bottom="1"
       front_thickness="1"
       back_thickness="0.25" />
    <inkscape:path-effect
       effect="sketch"
       id="path-effect11653"
       is_visible="true"
       lpeversion="1"
       nbiter_approxstrokes="2"
       strokelength="83"
       strokelength_rdm="0.5;1"
       strokeoverlap="0.1"
       strokeoverlap_rdm="0.1;1"
       ends_tolerance="0;1"
       parallel_offset="0;1"
       tremble_size="0.5;1"
       tremble_frequency="5"
       nbtangents="0"
       tgt_places_rdmness="0.6;1"
       tgtscale="4.8"
       tgtlength="100"
       tgtlength_rdm="0;1" />
    <inkscape:path-effect
       effect="rough_hatches"
       id="path-effect10864"
       is_visible="true"
       lpeversion="1"
       direction="489.34039,139.23021 , 4.0524664,0.091213531"
       dist_rdm="75;1"
       growth="0"
       do_bend="true"
       bender="489.34039,144.23021 , 4.6850083,0.3203569"
       bottom_edge_variation="2.901131;1"
       top_edge_variation="2.901131;1"
       bottom_tgt_variation="0;1"
       top_tgt_variation="0;1"
       scale_bf="1"
       scale_bb="1"
       scale_tf="1"
       scale_tb="1"
       top_smth_variation="0;1"
       bottom_smth_variation="0;1"
       fat_output="true"
       stroke_width_top="1"
       stroke_width_bottom="1"
       front_thickness="1"
       back_thickness="0.25" />
    <inkscape:path-effect
       effect="sketch"
       id="path-effect10862"
       is_visible="true"
       lpeversion="1"
       nbiter_approxstrokes="2"
       strokelength="83"
       strokelength_rdm="0.5;1"
       strokeoverlap="0.1"
       strokeoverlap_rdm="0.1;1"
       ends_tolerance="0;1"
       parallel_offset="0;1"
       tremble_size="0.5;1"
       tremble_frequency="5"
       nbtangents="0"
       tgt_places_rdmness="0.6;1"
       tgtscale="4.8"
       tgtlength="100"
       tgtlength_rdm="0;1" />
    <inkscape:path-effect
       effect="rough_hatches"
       id="path-effect10430"
       is_visible="true"
       lpeversion="1"
       direction="333.39751,120.88276 , 2.9577662,1.1516964"
       dist_rdm="75;1"
       growth="0"
       do_bend="true"
       bender="333.64921,126.02385 , 4.6878126,0.22564711"
       bottom_edge_variation="3.349937;1"
       top_edge_variation="3.349937;1"
       bottom_tgt_variation="0;1"
       top_tgt_variation="0;1"
       scale_bf="1"
       scale_bb="1"
       scale_tf="1"
       scale_tb="1"
       top_smth_variation="0;1"
       bottom_smth_variation="0;1"
       fat_output="true"
       stroke_width_top="1"
       stroke_width_bottom="1"
       front_thickness="1"
       back_thickness="0.25" />
    <inkscape:path-effect
       effect="sketch"
       id="path-effect10428"
       is_visible="true"
       lpeversion="1"
       nbiter_approxstrokes="2"
       strokelength="83"
       strokelength_rdm="0.5;1"
       strokeoverlap="0.1"
       strokeoverlap_rdm="0.1;1"
       ends_tolerance="0;1"
       parallel_offset="0;1"
       tremble_size="0.5;1"
       tremble_frequency="5"
       nbtangents="0"
       tgt_places_rdmness="0.6;1"
       tgtscale="4.8"
       tgtlength="100"
       tgtlength_rdm="0;1" />
    <inkscape:path-effect
       effect="sketch"
       id="path-effect10422"
       is_visible="true"
       lpeversion="1"
       nbiter_approxstrokes="2"
       strokelength="83"
       strokelength_rdm="0.5;1"
       strokeoverlap="0.1"
       strokeoverlap_rdm="0.1;1"
       ends_tolerance="0;1"
       parallel_offset="0;1"
       tremble_size="0.5;1"
       tremble_frequency="5"
       nbtangents="0"
       tgt_places_rdmness="0.6;1"
       tgtscale="4.8"
       tgtlength="100"
       tgtlength_rdm="0;1" />
    <inkscape:path-effect
       effect="sketch"
       id="path-effect10420"
       is_visible="true"
       lpeversion="1"
       nbiter_approxstrokes="2"
       strokelength="83"
       strokelength_rdm="0.5;1"
       strokeoverlap="0.1"
       strokeoverlap_rdm="0.1;1"
       ends_tolerance="0;1"
       parallel_offset="0;1"
       tremble_size="0.5;1"
       tremble_frequency="5"
       nbtangents="0"
       tgt_places_rdmness="0.6;1"
       tgtscale="4.8"
       tgtlength="100"
       tgtlength_rdm="0;1" />
    <inkscape:path-effect
       effect="sketch"
       id="path-effect10418"
       is_visible="true"
       lpeversion="1"
       nbiter_approxstrokes="2"
       strokelength="83"
       strokelength_rdm="0.5;1"
       strokeoverlap="0.1"
       strokeoverlap_rdm="0.1;1"
       ends_tolerance="0;1"
       parallel_offset="0;1"
       tremble_size="0.5;1"
       tremble_frequency="5"
       nbtangents="0"
       tgt_places_rdmness="0.6;1"
       tgtscale="4.8"
       tgtlength="100"
       tgtlength_rdm="0;1" />
    <inkscape:path-effect
       effect="sketch"
       id="path-effect10416"
       is_visible="true"
       lpeversion="1"
       nbiter_approxstrokes="2"
       strokelength="83"
       strokelength_rdm="0.5;1"
       strokeoverlap="0.1"
       strokeoverlap_rdm="0.1;1"
       ends_tolerance="0;1"
       parallel_offset="0;1"
       tremble_size="0.5;1"
       tremble_frequency="5"
       nbtangents="0"
       tgt_places_rdmness="0.6;1"
       tgtscale="4.8"
       tgtlength="100"
       tgtlength_rdm="0;1" />
    <inkscape:path-effect
       effect="sketch"
       id="path-effect10414"
       is_visible="true"
       lpeversion="1"
       nbiter_approxstrokes="2"
       strokelength="83"
       strokelength_rdm="0.5;1"
       strokeoverlap="0.1"
       strokeoverlap_rdm="0.1;1884269107"
       ends_tolerance="0;1"
       parallel_offset="0.4;1936488777"
       tremble_size="0.5;1"
       tremble_frequency="5"
       nbtangents="0"
       tgt_places_rdmness="0.6;1"
       tgtscale="4.8"
       tgtlength="100"
       tgtlength_rdm="0;1" />
    <inkscape:path-effect
       effect="sketch"
       id="path-effect10412"
       is_visible="true"
       lpeversion="1"
       nbiter_approxstrokes="2"
       strokelength="83"
       strokelength_rdm="0.5;1"
       strokeoverlap="0.1"
       strokeoverlap_rdm="0.5;3603364513"
       ends_tolerance="0;1"
       parallel_offset="0.5;3747388666"
       tremble_size="0.5;3700934146"
       tremble_frequency="5"
       nbtangents="0"
       tgt_places_rdmness="0.6;1"
       tgtscale="4.8"
       tgtlength="100"
       tgtlength_rdm="0;1" />
    <inkscape:path-effect
       effect="sketch"
       id="path-effect10410"
       is_visible="true"
       lpeversion="1"
       nbiter_approxstrokes="2"
       strokelength="83"
       strokelength_rdm="0.5;1"
       strokeoverlap="0.1"
       strokeoverlap_rdm="0.1;1"
       ends_tolerance="0;1"
       parallel_offset="0.3;965673314"
       tremble_size="0.5;1"
       tremble_frequency="5"
       nbtangents="0"
       tgt_places_rdmness="0.6;1"
       tgtscale="4.8"
       tgtlength="100"
       tgtlength_rdm="0;1" />
    <inkscape:path-effect
       effect="sketch"
       id="path-effect10408"
       is_visible="true"
       lpeversion="1"
       nbiter_approxstrokes="2"
       strokelength="83"
       strokelength_rdm="0.5;1"
       strokeoverlap="0.1"
       strokeoverlap_rdm="0.1;1"
       ends_tolerance="0;1"
       parallel_offset="0.2;730960698"
       tremble_size="0.6;1123697271"
       tremble_frequency="5"
       nbtangents="0"
       tgt_places_rdmness="0.6;1"
       tgtscale="4.8"
       tgtlength="100"
       tgtlength_rdm="0;1" />
    <inkscape:path-effect
       effect="sketch"
       id="path-effect10406"
       is_visible="true"
       lpeversion="1"
       nbiter_approxstrokes="2"
       strokelength="83"
       strokelength_rdm="0.5;1"
       strokeoverlap="0.1"
       strokeoverlap_rdm="0.1;3913575655"
       ends_tolerance="0;1"
       parallel_offset="0;1"
       tremble_size="0.4;844883976"
       tremble_frequency="5"
       nbtangents="0"
       tgt_places_rdmness="0.6;1"
       tgtscale="4.3"
       tgtlength="100"
       tgtlength_rdm="0;1" />
  </defs>
  <g
     inkscape:label="Layer 1"
     inkscape:groupmode="layer"
     id="layer1"
     transform="translate(-240.32981,-90.20993)">
    <path
       style="fill:none;stroke:#5e81ac;stroke-width:0.5;stroke-linecap:butt;stroke-linejoin:round;stroke-miterlimit:4;stroke-dasharray:none;stroke-opacity:1"
       d="m 349.71752,125.75266 c 0,0 -1.01892,1.26762 -0.85139,1.1342 -0.41168,0.32786 0.13253,-1.08774 -0.40752,-1.51747 -0.42475,-0.33799 -1.14851,0.88072 -1.80047,2.18044 -0.65179,1.2994 -1.2369,2.67857 -1.22304,2.66763 -0.28947,0.22847 0.13531,-0.9798 0.56947,-2.27347 0.43382,-1.29268 0.87011,-2.66808 0.75334,-2.76165 -0.26939,-0.21589 -1.03941,1.38999 -1.76631,3.02348 -0.72611,1.63171 -1.41155,3.28548 -1.26348,3.16827 -0.16236,0.12852 0.55428,-1.60107 1.18105,-3.41415 0.62676,-1.81309 1.15733,-3.70998 0.91729,-3.90191 -0.3937,-0.31479 -1.3149,1.55822 -2.21867,3.50882 -0.9029,1.94873 -1.79586,3.96897 -1.77995,3.9561 -0.29931,0.24205 0.77677,-2.36603 1.69376,-5.09926 0.91698,-2.73323 1.66047,-5.59231 1.37123,-5.81976 -0.44952,-0.35347 -1.91027,3.38337 -3.52336,7.14035 -1.61309,3.75698 -3.38346,7.53387 -3.12178,7.32452 -0.0698,0.0558 1.60723,-3.41811 2.98591,-6.94876 1.37869,-3.53065 2.45241,-7.11833 2.30445,-7.23565 -0.3076,-0.24391 -1.84415,3.9463 -3.68061,8.15286 -1.83645,4.20655 -3.97883,8.42917 -3.85289,8.32927 -0.2164,0.17165 1.80648,-3.85522 3.46474,-7.97402 1.65827,-4.11881 2.93814,-8.33021 2.78418,-8.45311 -0.31327,-0.25006 -2.01422,4.42168 -4.1055,9.10169 -2.09128,4.68 -4.57877,9.36797 -4.42776,9.24842 -0.20231,0.16016 2.25779,-4.48826 4.19601,-9.25433 1.93821,-4.76608 3.33492,-9.65076 3.0684,-9.86384 -0.42653,-0.341 -2.23878,4.60895 -4.51682,9.63848 -2.27804,5.02953 -5.04532,10.13752 -5.04591,10.22506 0.002,-0.2866 2.66263,-5.31407 4.72187,-10.32596 2.05923,-5.01189 3.52659,-10.00773 3.38267,-10.12321 -0.30436,-0.24421 -1.68448,3.63608 -3.33641,7.65893 -1.65194,4.02285 -3.6031,8.18692 -3.59576,8.58025 6e-5,0.003 2.33227,-4.66207 4.13898,-9.37226 1.80672,-4.71018 3.0838,-9.46569 2.98066,-9.54699 -0.26705,-0.21049 -1.63246,4.1215 -3.3629,8.5224 -1.73044,4.4009 -3.84299,8.86988 -3.84042,9.01828 -0.004,-0.25498 2.07206,-4.71082 3.66899,-9.15534 1.59694,-4.44453 2.72085,-8.87743 2.56266,-9.00223 -0.3227,-0.2546 -1.61144,3.79279 -3.19813,7.97977 -1.58669,4.18697 -3.49959,8.51217 -3.49691,8.88895 -3.3e-4,-0.0472 1.88521,-4.09349 3.37263,-8.16635 1.48742,-4.07286 2.57538,-8.17238 2.47233,-8.25426 -0.26681,-0.212 -1.36842,3.18961 -2.66948,6.72953 -1.30106,3.53993 -2.82426,7.21709 -2.81789,7.60991 -7.2e-4,-0.0444 1.69195,-3.87272 3.02857,-7.7246 1.33662,-3.85189 2.31613,-7.72733 2.22197,-7.80167 -0.25941,-0.20482 -1.38602,3.4762 -2.74675,7.24044 -1.36072,3.76424 -2.97142,7.61094 -2.91603,7.79924 -0.0254,-0.0865 1.5485,-3.74145 2.75519,-7.44697 1.20669,-3.70551 2.04095,-7.46183 1.75026,-7.69254 -0.45584,-0.36179 -1.77138,3.61362 -3.31438,7.66161 -1.54299,4.048 -3.32915,8.16781 -3.20988,8.16781 -0.0825,0 1.60533,-3.84644 2.90993,-7.76212 1.3046,-3.91568 2.21732,-7.90101 1.95247,-8.11296 -0.42973,-0.34388 -1.69754,3.49885 -3.18198,7.41087 -1.48445,3.91202 -3.20002,7.89263 -3.1098,7.89263 -0.1115,0 1.6644,-4.1305 3.05475,-8.29897 1.39035,-4.16848 2.39157,-8.3751 2.29499,-8.45204 -0.46208,-0.36811 -1.64669,3.68115 -1.6375,4.18834 -0.0146,-0.80575 1.33504,-6.00747 0.9052,-6.3464 -0.7738,-0.61014 -0.87959,-0.08 -0.85118,1.07305 -0.009,-0.35611 0.39025,-2.12817 0.11748,-2.34228 -0.59963,-0.47067 -0.6828,2.20355 -0.6828,2.20355 0,0 0.7751,-1.02886 0.47755,-1.26411 0.0445,0.0352 -0.16134,0.97696 -0.14188,2.3411 0.0201,1.41213 0.25578,1.22205 0.49812,0.58229 0.23263,-0.61415 0.43146,-1.6017 0.36463,-1.65478 0.20246,0.1608 -0.98436,4.69509 -0.97159,6.3432 0.011,1.41798 0.54,0.5207 1.02439,-0.89091 0.47152,-1.3741 0.83715,-3.15108 0.65745,-3.29529 -0.0144,-0.0115 -1.1217,4.19321 -2.56125,8.38172 -1.43956,4.18851 -3.21132,8.36078 -2.9652,8.36078 0.44793,1e-5 2.39784,-3.80398 3.90166,-7.62592 1.50382,-3.82194 2.56214,-7.66181 2.55226,-7.66977 0.15371,0.12392 -0.86298,4.10749 -2.21451,8.04319 -1.35152,3.93571 -3.03241,7.82383 -2.81526,7.82383 0.41902,2e-5 2.44067,-3.94429 4.00474,-7.9027 1.56407,-3.95842 2.67195,-7.93088 2.68725,-7.91865 0.17918,0.14326 -0.7293,3.80571 -1.95821,7.48553 -1.22892,3.67983 -2.78335,7.37679 -2.7068,7.6463 0.1602,0.564 2.04437,-3.14534 3.50643,-6.98402 1.46938,-3.85791 2.49533,-7.90494 2.31545,-8.048 -0.0159,-0.0126 -1.05473,3.71434 -2.40135,7.51335 -1.34662,3.79902 -3.0151,7.66939 -3.01313,8.00503 0.005,0.79022 1.82311,-2.74497 3.27732,-6.46964 1.46097,-3.74196 2.53035,-7.72757 2.36178,-7.86249 -0.006,-0.005 -1.15477,3.95044 -2.65401,7.97246 -1.49924,4.02203 -3.3634,8.11007 -3.36448,8.43979 -0.003,0.78892 2.22569,-3.42947 3.97055,-7.77471 1.75883,-4.38 3.01821,-8.99394 2.9031,-9.08542 0.0481,0.0383 -1.14217,4.33362 -2.75537,8.7305 -1.6132,4.39688 -3.67168,8.89421 -3.66805,9.41784 0.007,0.95369 2.42751,-3.39245 4.31905,-7.94654 1.90247,-4.58044 3.23885,-9.45122 3.07012,-9.58518 -0.006,-0.005 -1.353,4.61732 -3.17864,9.28181 -1.82564,4.66449 -4.14326,9.37069 -4.14113,9.62779 0.006,0.68068 2.25937,-3.37432 4.05981,-7.53592 1.81461,-4.19433 3.16704,-8.59594 3.04454,-8.69496 0.0367,0.0296 -1.50058,4.89737 -3.58106,9.86602 -2.08048,4.96866 -4.73081,10.03696 -4.74,10.57273 -0.0164,0.95512 3.07313,-4.06794 5.51383,-9.21358 2.46177,-5.19006 4.26021,-10.63969 4.26007,-10.6398 0.15861,0.12774 -1.38461,5.10427 -3.4081,9.93573 -2.02348,4.83147 -4.50025,9.51916 -4.05858,9.17271 0.86747,-0.68045 3.43918,-5.08949 5.46852,-9.55278 2.00363,-4.40675 3.37033,-8.69897 3.25966,-8.78796 0.0474,0.0381 -1.37205,4.33881 -3.10668,8.52186 -1.73463,4.18305 -3.76455,8.24941 -3.31603,7.89691 0.84997,-0.668 3.10024,-4.63329 4.87285,-8.61843 1.75223,-3.93933 2.95285,-7.76167 2.83566,-7.85528 0.0412,0.0329 -1.16493,3.70794 -2.61152,7.30199 -1.4466,3.59406 -3.1222,7.1077 -2.82886,6.87521 0.67182,-0.53247 2.57257,-4.07122 4.12082,-7.60208 1.53233,-3.49456 2.65598,-6.87278 2.67793,-6.8554 0.18099,0.14336 -0.68607,3.08652 -1.65949,5.88177 -0.9758,2.8021 -2.02628,5.43693 -1.52048,5.03172 0.84653,-0.67818 1.91451,-2.50887 2.73426,-4.21562 0.81397,-1.69471 1.36404,-3.22927 1.34391,-3.24548 0.13486,0.10862 -0.51192,2.08681 -1.18489,3.96068 -0.67395,1.87663 -1.35966,3.64121 -0.9905,3.35167 1.41799,-1.11214 3.42776,-5.92045 3.09563,-6.18858 0.0133,0.0108 -0.53433,1.46579 -1.00793,2.81852 -0.47354,1.35256 -0.86603,2.60365 -0.36785,2.21405 1.61029,-1.25933 3.05276,-4.86372 3.07539,-4.84557 0.33057,0.26497 -0.41521,2.15361 0.39196,1.51672 1.39504,-1.10075 1.21837,-2.06585 1.21837,-2.06585 z m -18.05758,-4.4917 c 0,0 -0.75878,1.87084 -1.58075,3.74167 -0.82113,1.86891 -1.70369,3.73399 -1.63056,3.73399 -0.12838,0 0.73442,-2.20298 1.45526,-4.41128 0.72085,-2.2083 1.29989,-4.42191 1.04539,-4.4219 -0.45505,1e-5 -1.5219,2.62658 -2.59276,5.24562 -1.07085,2.61903 -2.14486,5.23058 -1.99063,5.23058 -0.0475,0 0.89861,-2.20101 1.70599,-4.40733 0.80737,-2.20633 1.47618,-4.41797 1.31603,-4.41797 -0.36089,0 -1.22061,2.00387 -2.04923,4.00336 -0.82863,1.99948 -1.62564,3.99461 -1.49747,3.9946 -0.0734,0 0.83996,-2.20201 1.61773,-4.40934 0.77778,-2.20733 1.42002,-4.41997 1.246,-4.41997 -0.37467,0 -1.25475,2.09957 -2.14536,4.19433 -0.89062,2.09475 -1.79137,4.18471 -1.80819,4.18471 -0.21839,10e-6 0.61304,-2.20255 1.35817,-4.41043 0.74512,-2.20788 1.40383,-4.42108 1.28158,-4.42108 -0.32286,10e-6 -1.17493,2.12151 -2.0005,4.23809 -0.82558,2.11658 -1.62407,4.22828 -1.43299,4.22827 -0.0104,0 0.91656,-2.20301 1.65131,-4.41134 0.73475,-2.20833 1.27764,-4.42196 0.94054,-4.42195 -0.53766,2e-5 -1.54687,2.29934 -2.50887,4.59289 -0.96201,2.29354 -1.87598,4.58134 -1.74483,4.58133 -0.0704,0 0.83711,-2.2026 1.61246,-4.41053 0.77536,-2.20793 1.41863,-4.42117 1.26155,-4.42116 -0.35769,10e-6 -1.21919,2.09098 -2.0861,4.17718 -0.86692,2.0862 -1.73883,4.16765 -1.72166,4.16765 -0.18437,1e-5 0.6555,-2.20319 1.354,-4.41171 0.6985,-2.20852 1.25578,-4.42235 0.94754,-4.42234 -0.50882,2e-5 -1.55751,2.46774 -2.61984,4.92882 -1.06232,2.46107 -2.13762,4.91551 -2.14844,4.91551 -0.21248,1e-5 0.64124,-2.20199 1.38622,-4.4093 0.74499,-2.20731 1.38122,-4.41994 1.17531,-4.41994 -0.4066,1e-5 -1.51053,2.69253 -2.62363,5.37713 -1.11309,2.68461 -2.23446,5.36134 -2.02003,5.36135 0.0126,0 1.02794,-2.19969 1.88348,-4.4047 0.85554,-2.20502 1.55146,-4.41535 1.36725,-4.41536 -0.3851,-1e-5 -1.21623,1.789 -1.96787,3.57451 -0.75164,1.78551 -1.42321,3.56754 -1.19897,3.56753 0.0226,0 1.00155,-2.20172 1.82371,-4.40876 0.82215,-2.20705 1.48768,-4.41941 1.32554,-4.41941 -0.36286,0 -1.26555,2.14198 -2.18113,4.37423 -0.90388,2.20372 -1.85235,4.58348 -1.85281,4.93541 9e-5,-0.0731 0.87112,-2.06936 1.59337,-4.05166 0.72225,-1.98229 1.29756,-3.95052 1.0596,-3.95052 -0.87767,-3e-5 -2.2638,3.69998 -2.25954,4.15777 -0.005,-0.52233 1.68717,-5.11078 1.10192,-5.11078 -0.98678,0 -0.61213,-1.09077 -0.5824,0.0181 6.5e-4,0.0244 -0.0851,-0.11585 -0.0851,-0.11585 0,0 -0.25211,0.35127 -0.24063,1.04949 0.0293,1.78201 0.66692,-0.0181 0.58288,-0.0181 0.31771,1e-5 -1.1543,3.93304 -1.15557,5.10819 -0.001,1.061 0.65058,0.0562 1.264,-1.26783 0.60599,-1.30799 1.13672,-2.8878 1.03986,-2.8878 0.10411,0 -0.50228,1.81535 -1.20974,3.72105 -0.69826,1.88092 -1.52359,3.92661 -1.52769,4.27707 -0.01,0.82645 1.25583,-1.4865 2.34261,-4.02285 1.08547,-2.53329 1.96256,-5.28204 1.79007,-5.28204 0.0283,0 -0.72769,2.21124 -1.57342,4.41716 -0.84574,2.20592 -1.78109,4.40652 -1.66912,4.40652 0.31376,0 1.27243,-1.7811 2.04222,-3.5657 0.76978,-1.7846 1.35111,-3.57268 1.20041,-3.57269 0.0503,0 -0.73618,2.20921 -1.6153,4.4131 -0.87912,2.20389 -1.85078,4.40246 -1.7287,4.40246 0.32406,1e-5 1.74189,-2.67533 2.88226,-5.35859 1.14037,-2.68326 2.00393,-5.3744 1.87529,-5.3744 0.0722,0 -0.65456,2.21151 -1.42309,4.4177 -0.76853,2.20619 -1.57855,4.40707 -1.23145,4.40707 0.54885,-1e-5 1.91809,-2.45319 3.00544,-4.91302 1.08734,-2.45984 1.89355,-4.92628 1.8675,-4.92628 0.17461,0 -0.47307,2.21271 -1.19511,4.42011 -0.72204,2.20739 -1.51825,4.40948 -1.19936,4.40947 0.52052,-2e-5 1.68241,-2.0804 2.57051,-4.16554 0.88811,-2.08515 1.50322,-4.17503 1.32586,-4.17503 0.0233,0 -0.71039,2.21212 -1.50932,4.41892 -0.79892,2.2068 -1.66283,4.40829 -1.4579,4.40829 0.40662,-2e-5 1.61271,-2.28664 2.59801,-4.57902 0.98531,-2.29239 1.75033,-4.59051 1.75314,-4.59051 0.20348,-1e-5 -0.42981,2.21251 -1.18811,4.41972 -0.7583,2.2072 -1.64169,4.40909 -1.49681,4.40909 0.34653,-2e-5 1.43527,-2.11062 2.28232,-4.22614 0.84705,-2.11551 1.45304,-4.23591 1.24085,-4.23591 -0.0115,0 -0.76067,2.21208 -1.52935,4.41884 -0.76868,2.20675 -1.55642,4.4082 -1.20347,4.40819 0.55462,-1e-5 1.74549,-2.08889 2.65739,-4.18258 0.91191,-2.0937 1.54565,-4.19217 1.38518,-4.19217 0.0403,0 -0.69243,2.21153 -1.49377,4.41773 -0.80133,2.20621 -1.67109,4.4071 -1.46312,4.4071 0.40968,-1e-5 1.49587,-1.99409 2.34481,-3.99257 0.84893,-1.99847 1.46124,-4.00131 1.28676,-4.00131 0.0263,0 -0.73296,2.21052 -1.56391,4.41572 -0.83095,2.2052 -1.73334,4.40509 -1.55131,4.40509 0.38383,0 1.75341,-2.6102 2.85086,-5.22792 1.09746,-2.61772 1.92345,-5.24293 1.84366,-5.24293 0.12086,0 -0.54859,2.21249 -1.29298,4.41967 -0.74439,2.20717 -1.56355,4.40904 -1.30069,4.40903 0.46447,-2e-5 1.46644,-2.09667 2.25213,-4.19815 0.78645,-2.10353 1.35559,-4.20774 1.35559,-4.20774 z"
       id="path10424"
       sodipodi:nodetypes="cccccccc"
       inkscape:path-effect="#path-effect10430"
       inkscape:original-d="m 316.06311,121.26096 h 15.68218 v -9.75623 l 18.45963,14.63433 -18.45963,14.63435 v -9.75623 h -15.68218 z" />
    <path
       style="fill:none;stroke:#bf616a;stroke-width:0.5;stroke-linecap:butt;stroke-linejoin:round;stroke-miterlimit:4;stroke-dasharray:none;stroke-opacity:1"
       d="m 505.32918,152.89469 c 0,0 -0.57894,0.68443 -0.57686,0.68404 -0.38366,0.0713 -0.15603,-1.9647 -0.83806,-3.64939 -0.50821,-1.25534 -0.87166,0.0154 -1.17102,1.54409 -0.30265,1.54552 -0.57273,3.39798 -0.63305,3.40916 -0.25408,0.0471 -0.10631,-1.95399 -0.0326,-4.07058 0.0747,-2.14354 0.0739,-4.32167 -0.0904,-4.7373 -0.33097,-0.8375 -0.5378,1.38676 -0.78923,3.79735 -0.2518,2.41407 -0.57515,5.02314 -0.52868,5.01451 -0.14737,0.0273 0.1685,-2.77452 0.23665,-5.831 0.0696,-3.12159 -0.11504,-6.30258 -0.5157,-7.30847 -0.58341,-1.46471 -0.71745,1.49174 -0.97001,4.72454 -0.25437,3.2559 -0.68971,6.85358 -0.74857,6.8646 -0.25185,0.0471 0.1824,-4.53855 0.0258,-9.43325 -0.16063,-5.02138 -0.89303,-9.97127 -1.50999,-11.15008 -0.78578,-1.50135 -0.25141,4.03289 -0.30419,9.9435 -0.0526,5.89139 -0.81846,12.09282 -0.69456,12.06974 -0.0701,0.0131 0.64819,-5.49796 0.58936,-10.99313 -0.0588,-5.49518 -0.87579,-10.9732 -1.04268,-10.69084 -0.31982,0.54113 0.1604,6.27336 -0.0232,11.81822 -0.18362,5.54486 -0.99462,10.90482 -0.97507,10.90119 -0.17512,0.0325 0.50323,-5.02576 0.543,-10.05887 0.0398,-5.03311 -0.54158,-10.03986 -0.72635,-9.73269 -0.34656,0.57616 -0.13269,5.68444 -0.41473,10.60667 -0.28204,4.92222 -1.02561,9.66073 -0.99121,9.65435 -0.16061,0.0298 0.48537,-4.57516 0.55811,-9.07944 0.0721,-4.46616 -0.37276,-8.94229 -0.74301,-8.32919 -0.45773,0.75797 -0.62831,5.56107 -1.04912,9.80626 -0.43125,4.35042 -1.15242,8.45809 -1.16624,8.46065 -0.20946,0.0388 0.3817,-3.98157 0.57142,-8.06773 0.18973,-4.08616 -0.0296,-8.23865 -0.2299,-8.35265 -0.39053,-0.22225 -0.45883,3.45721 -0.72352,7.16074 -0.26469,3.70353 -0.73279,7.43064 -0.55429,7.39728 -0.0161,0.003 0.60326,-4.20451 0.75268,-8.46215 0.14941,-4.25764 -0.17478,-8.56567 -0.31212,-8.64295 -0.33043,-0.18593 -0.21249,4.19654 -0.48105,8.59217 -0.26857,4.39563 -0.93231,8.80383 -0.91275,8.80018 -0.17524,0.0327 0.42155,-4.38998 0.52009,-8.88515 0.0985,-4.49517 -0.30951,-9.06338 -0.52959,-9.18729 -0.41389,-0.23304 -0.26959,4.61125 -0.5647,9.46714 -0.29511,4.8559 -1.03975,9.72272 -0.8901,9.69487 -0.0459,0.009 0.71096,-4.61929 0.91148,-9.30517 0.20052,-4.68588 -0.15981,-9.43013 -0.29732,-9.5079 -0.33086,-0.18713 -0.18969,4.41235 -0.4493,9.01587 -0.25962,4.60352 -0.92725,9.21058 -0.77538,9.18223 -0.0433,0.008 0.70367,-4.75691 0.86567,-9.57996 0.162,-4.82306 -0.26522,-9.70446 -0.38887,-9.77412 -0.31831,-0.1793 -0.0711,4.90237 -0.35306,9.98093 -0.282,5.07856 -1.1016,10.15345 -1.00263,10.13503 -0.0967,0.018 0.70302,-4.9017 0.81871,-9.92649 0.11569,-5.02478 -0.46667,-10.1556 -0.88655,-10.39291 -0.61469,-0.34741 -0.65723,2.71041 -0.76719,5.84862 -0.10996,3.13821 -0.30091,6.35588 -0.23122,6.39526 -0.11113,-0.0628 0.0455,-3.05014 -0.0819,-6.09083 -0.12746,-3.04068 -0.54387,-6.13503 -0.92574,-6.35198 -0.56765,-0.3225 -0.62853,2.37515 -0.71476,5.16141 -0.0861,2.78169 -0.21731,5.63692 -0.18051,5.65766 -0.14562,-0.0821 -0.061,-3.10315 -0.19208,-6.13683 -0.13104,-3.03367 -0.47738,-6.0799 -0.60475,-6.15206 -0.32396,-0.18353 -0.22305,2.43563 -0.20775,5.09142 0.0153,2.65578 -0.0607,5.3478 -0.0433,5.3575 -0.16702,-0.0935 -0.15678,-3.13629 -0.40298,-6.21369 -0.2462,-3.07741 -0.75129,-6.18959 -1.05548,-6.3608 -0.50322,-0.28324 -0.39935,2.481 -0.33423,5.31861 0.0651,2.83761 0.0806,5.74785 0.19345,5.81083 -0.073,-0.0408 -0.0627,-3.07497 -0.30326,-6.14028 -0.24057,-3.06531 -0.73408,-6.16187 -0.91987,-6.26614 -0.3863,-0.2168 -0.16709,2.71385 -0.0439,5.69563 0.12314,2.98178 0.14166,6.0141 0.22416,6.06014 -0.10397,-0.058 -0.13277,-3.1519 -0.40911,-6.21723 -0.27635,-3.06532 -0.79341,-6.10163 -0.96539,-5.98241 -0.34136,0.23667 -0.0942,3.49875 -0.0292,6.67247 0.065,3.17372 -0.0407,6.25984 -0.12907,6.21015 -0.2739,-0.1541 -0.3756,-2.49533 -0.5648,-4.75923 -0.18921,-2.2639 -0.45668,-4.44985 -0.56723,-4.25956 -0.26335,0.45332 -0.27531,2.34819 -0.24391,4.09885 0.0317,1.76565 0.10622,3.43202 0.26361,3.52021 -0.0297,-0.0166 -0.0441,-1.97063 -0.22589,-3.77914 -0.182,-1.81044 -0.51605,-3.46857 -0.85186,-2.88025 -1.00175,1.75502 -0.90328,5.13201 -0.72931,5.22927 -0.20307,-0.11353 -0.33991,-3.83003 -0.64962,-3.28213 -0.65097,1.15159 -0.62519,2.23271 -0.72405,2.17753 -0.4731,-0.26403 -0.57565,1.06986 -0.57565,1.06986 0,0 -0.1312,-0.47493 0.59554,-0.0672 1.13044,0.6342 1.02332,-2.64615 0.75118,-2.17568 0.084,-0.14531 0.15846,3.02555 0.61019,3.27944 0.41451,0.23297 0.62204,-1.01606 0.7022,-2.35183 0.0802,-1.3364 0.0265,-2.76186 0.0914,-2.87304 0.23324,-0.39942 0.4778,1.22813 0.63341,2.96857 0.15571,1.74163 0.2107,3.5989 0.36414,3.68533 0.33937,0.19116 0.54304,-1.8408 0.51606,-3.85979 -0.0269,-2.01066 -0.27672,-4.03279 -0.44298,-3.75293 0.003,-0.005 0.17368,2.14342 0.33114,4.34179 0.15747,2.19837 0.29675,4.44601 0.69198,4.66955 0.5797,0.32787 0.98654,-2.90969 0.95045,-6.22859 -0.0361,-3.31889 -0.52381,-6.71971 -0.63518,-6.64328 0.0596,-0.0409 0.47053,2.95771 0.70709,5.9836 0.23655,3.02588 0.29305,6.07864 0.51996,6.20595 0.41227,0.23128 0.69057,-2.64898 0.61763,-5.62232 -0.0729,-2.97333 -0.50731,-6.04044 -0.65481,-6.12367 0.0518,0.0292 0.44557,3.08862 0.65259,6.15294 0.20703,3.06431 0.22474,6.13338 0.42045,6.24322 0.38044,0.21351 0.65881,-2.54541 0.64145,-5.37484 -0.0174,-2.82942 -0.33762,-5.72983 -0.365,-5.74533 0.17046,0.0965 0.57616,3.17164 0.78864,6.24804 0.21249,3.0764 0.22969,6.15387 0.51788,6.31607 0.47143,0.26534 0.83539,-2.27641 0.86468,-4.92427 0.0293,-2.64785 -0.28709,-5.40256 -0.48616,-5.51594 -0.004,-0.002 0.24452,3.00733 0.34219,6.03999 0.0977,3.03266 0.04,6.08823 0.30563,6.23871 0.44695,0.2532 0.8662,-2.45244 0.99897,-5.22621 0.13277,-2.77377 -0.0278,-5.61615 0.0288,-5.5838 0.25038,0.14301 0.56878,3.20072 0.66276,6.24039 0.094,3.03966 -0.0361,6.06129 0.19418,6.19212 0.41,0.23293 0.89279,-2.83574 1.05529,-5.96571 0.16251,-3.12998 -0.002,-6.32168 0.0931,-6.26792 0.28825,0.16379 0.75185,5.30309 0.57485,10.34812 -0.17701,5.04503 -0.98231,9.99661 -0.75444,9.95436 0.42417,-0.0787 1.5264,-5.00576 1.87058,-9.98263 0.34419,-4.97687 -0.0692,-10.00348 -0.26875,-10.11649 -0.006,-0.003 0.30496,4.88661 0.0841,9.73 -0.22082,4.84339 -0.97104,9.64027 -0.79707,9.60793 0.36975,-0.0687 1.31612,-4.52857 1.63139,-9.031 0.31527,-4.50244 -4.3e-4,-9.04748 -0.18404,-9.15188 0.009,0.005 0.25398,4.75784 -0.004,9.46411 -0.25799,4.70626 -1.01655,9.36602 -0.83979,9.33326 0.37288,-0.0691 1.39833,-4.7889 1.75241,-9.54368 0.35407,-4.75478 0.0393,-9.54438 -0.063,-9.60229 0.0903,0.0511 0.38559,4.62819 0.23215,9.14387 -0.15344,4.51568 -0.7488,8.97044 -0.44276,8.91352 0.50144,-0.0933 1.44284,-4.3552 1.76456,-8.65043 0.32172,-4.29523 0.0256,-8.62361 -0.15776,-8.72735 0.009,0.005 0.22268,4.32189 0.0211,8.60015 -0.20155,4.27827 -0.81661,8.51789 -0.67038,8.49068 0.34141,-0.0635 1.08017,-3.64515 1.38754,-7.24916 0.30737,-3.60401 0.1846,-7.23032 0.0686,-7.29667 0.0731,0.0418 0.1835,4.20339 -0.057,8.31022 -0.24051,4.10683 -0.82573,8.15934 -0.48478,8.09647 0.5372,-0.0991 1.6106,-4.57595 2.06977,-9.08804 0.45918,-4.51209 0.30559,-9.0593 0.36992,-9.16353 0.23898,-0.38727 0.5794,4.0219 0.44475,8.48104 -0.13466,4.45914 -0.76326,8.96696 -0.47173,8.9131 0.48715,-0.09 1.58023,-5.17803 1.88939,-10.25209 0.30916,-5.07406 -0.14881,-10.13301 -0.23551,-9.99198 0.0785,-0.12773 0.52417,4.88623 0.41455,9.87613 -0.10961,4.9899 -0.77794,9.95551 -0.47211,9.89896 0.5011,-0.0926 1.66211,-5.78763 1.87336,-11.4771 0.21126,-5.68947 -0.50763,-11.37209 -0.59752,-11.22333 0.0663,-0.10977 0.74183,5.37506 0.72372,10.82833 -0.0181,5.45328 -0.73413,10.87471 -0.53412,10.83761 0.39458,-0.0732 1.40735,-5.64891 1.5866,-11.19428 0.17924,-5.54537 -0.45112,-11.05877 -0.31891,-10.80057 0.43821,0.8558 1.0799,5.82864 1.19075,10.92459 0.10824,4.97571 -0.33774,9.71278 0.044,9.64167 0.57531,-0.10717 1.22867,-3.03887 1.5381,-5.93261 0.30942,-2.89373 0.28357,-5.7489 0.32307,-5.64677 0.25785,0.66667 0.36168,3.86637 0.25595,7.07116 -0.10371,3.14363 -0.41415,6.10864 -0.13671,6.05738 0.47188,-0.0872 0.99673,-2.10381 1.27071,-4.19423 0.27658,-2.11026 0.29979,-4.23441 0.15562,-4.61021 0.0347,0.0904 -0.0344,2.33419 -0.13646,4.52937 -0.1021,2.19518 -0.23225,4.34212 0.15219,4.27118 0.58347,-0.10767 1.04984,-1.43165 1.35261,-2.68922 0.3025,-1.25641 0.44128,-2.44288 0.51329,-2.2598 0.45485,1.15645 0.15151,3.76542 0.79431,3.64639 1.03847,-0.1923 0.69742,-1.67708 0.69742,-1.67708 z m -20.46373,-0.65815 c 0,0 -0.99109,3.90067 -0.90158,3.88393 -0.12007,0.0225 -0.0382,-0.84437 -0.0761,-1.41449 -0.0391,-0.58696 -0.18534,-0.82603 -0.73289,0.37008 -1.68604,3.68311 -1.18153,3.27078 -1.18153,3.27078 0,0 0.85458,-1.91874 1.02475,-2.28022 0.75233,-1.59818 0.29479,1.13713 0.79699,1.04359 0.44708,-0.0833 0.74967,-1.2993 0.90511,-2.49692 0.15545,-1.19776 0.1653,-2.37675 0.1653,-2.37675 z"
       id="path10858"
       sodipodi:nodetypes="cccccccc"
       inkscape:path-effect="#path-effect10864"
       inkscape:original-d="m 478.05588,131.94654 13.74672,7.76372 4.79472,-8.11654 9.15816,22.34092 -23.78731,4.41315 4.25121,-8.9671 -13.74672,-7.76372 z" />
    <path
       style="fill:none;stroke:#d08770;stroke-width:0.5;stroke-linecap:butt;stroke-linejoin:round;stroke-miterlimit:4;stroke-dasharray:none;stroke-opacity:1"
       d="m 497.71922,212.77243 c 0,0 -0.0549,0.31848 -0.32052,-0.14606 -0.46436,-0.81222 -0.61717,-0.55945 -0.62726,-0.56098 -0.38404,-0.0585 -0.50319,0.15157 -0.8174,-0.40868 -0.51298,-0.91469 -1.56957,0.89063 -1.2249,0.94317 -0.027,-0.004 1.02469,-1.80687 0.78921,-2.22412 -0.43823,-0.77651 -1.90295,1.78013 -1.83988,1.78973 -0.15448,-0.0235 0.44615,-1.18431 1.00587,-2.41131 0.56177,-1.23151 1.07719,-2.51571 0.90431,-2.80866 -0.27917,-0.47308 -0.93561,0.30552 -1.54558,1.19731 -0.61089,0.89316 -1.18382,1.90361 -1.20054,1.90107 -0.40714,-0.0618 1.46303,-3.56201 1.27722,-3.88395 -0.201,-0.34825 -0.96268,0.79924 -1.68019,2.03933 -0.71748,1.24004 -1.39804,2.57254 -1.25637,2.59408 -0.0898,-0.0137 2.27778,-4.40261 2.00522,-4.88342 -0.2439,-0.43027 -1.14199,0.9207 -2.00313,2.38398 -0.86122,1.46339 -1.69613,3.03944 -1.56178,3.0599 -0.052,-0.008 0.90017,-1.76322 1.77898,-3.51654 0.88006,-1.75583 1.68446,-3.50466 1.68446,-3.50466 0,0 -0.97768,1.96986 -2.02417,3.95293 -1.04477,1.97982 -2.15566,3.96634 -1.97982,3.99318 0.3618,0.0552 1.34245,-1.26784 2.17203,-2.62365 0.82958,-1.35581 1.5056,-2.74438 1.46359,-2.82023 0.0631,0.1139 -0.49995,1.32189 -1.07545,2.50784 -0.57551,1.18594 -1.16211,2.34984 -0.9932,2.37558 0.3551,0.0541 1.18131,-1.02863 1.86384,-2.16269 0.68445,-1.13727 1.22004,-2.31627 1.1329,-2.47072 0.0407,0.0722 -1.98265,3.78436 -1.32766,3.88395 1.08004,0.16422 2.80142,-3.07229 2.78636,-3.09839 0.0982,0.17024 -0.49312,1.44608 -1.08345,2.70287 -0.58847,1.25282 -1.17247,2.47468 -0.89452,2.51711 0.94272,0.14391 1.96189,-1.61059 1.86312,-1.78973 0.098,0.17774 -1.09239,2.18222 -0.8181,2.22411 0.65025,0.0993 1.25384,-0.91271 1.23715,-0.94316 0.17728,0.32359 0.1824,0.31266 0.8121,0.40868 1.0005,0.15255 0.68356,0.6748 0.61996,0.56097 0.13138,0.23513 0.8776,-0.77884 0.8776,-0.77884 z m 7.14058,-16.50777 c 0,0 -1.03384,1.31438 -1.04797,1.32253 -0.53528,0.30899 0.1236,-1.4327 -0.26948,-2.12901 -0.32219,-0.57075 -0.93927,0.45802 -1.44862,1.58745 -0.5115,1.13419 -0.91773,2.36709 -0.67673,2.22842 -0.0385,0.0222 1.55616,-4.17913 1.26412,-4.70165 -0.27264,-0.4878 -0.80889,0.46121 -1.29487,1.52047 -0.48672,1.06086 -0.93224,2.23673 -0.88757,2.21061 -0.21886,0.12796 0.39093,-1.6148 0.91437,-3.48091 0.52711,-1.87919 0.95609,-3.84253 0.73408,-4.22109 -0.34907,-0.59524 -1.25814,1.7383 -2.25603,4.23221 -0.99689,2.49144 -2.10598,5.1358 -2.12998,5.14982 -0.29226,0.17073 0.76204,-2.5897 1.63909,-5.44451 0.87705,-2.8548 1.56179,-5.80399 1.44083,-6.01078 -0.25213,-0.43101 -1.2856,2.89648 -2.54054,6.3551 -1.24896,3.44218 -2.73419,6.96615 -2.52699,6.84589 -0.0656,0.0381 1.37579,-3.26716 2.46137,-6.58403 1.08558,-3.31687 1.81315,-6.64536 1.55846,-6.65372 -0.45572,-0.015 -1.56831,3.41968 -2.8495,6.82922 -1.2812,3.40954 -2.7261,6.79396 -2.52839,6.67855 -0.0765,0.0446 1.45649,-3.44987 2.59168,-6.91388 1.13519,-3.46401 1.87871,-6.89751 1.59105,-6.73085 -0.52552,0.30446 -2.19221,5.84459 -4.56291,11.30893 -2.3707,5.46433 -5.4228,10.85287 -5.41444,10.85414 -0.17828,-0.0271 2.65235,-5.20806 4.69143,-10.33354 2.03908,-5.12548 3.30285,-10.19549 2.9651,-10.00073 -0.57961,0.33423 -2.32462,5.57575 -4.63397,10.7393 -2.30935,5.16355 -5.16123,10.24914 -5.01433,10.27153 -0.0395,-0.006 2.75804,-4.90627 4.85173,-9.78227 2.09369,-4.876 3.49027,-9.72774 3.33127,-9.63672 -0.40427,0.23143 -2.01316,4.9274 -4.07573,9.57294 -2.06257,4.64555 -4.56603,9.24067 -4.37063,9.27042 0.009,10e-4 2.7325,-4.79383 4.73054,-9.54463 1.99804,-4.7508 3.28248,-9.45724 2.97142,-9.27846 -0.55658,0.31989 -2.13762,4.69313 -4.06212,8.99156 -1.9245,4.29842 -4.17511,8.52203 -4.03929,8.54265 -0.0513,-0.008 2.41242,-4.54607 4.26431,-9.05528 1.8519,-4.50921 3.09942,-8.98935 2.91238,-8.88086 -0.43207,0.25063 -1.91513,4.56909 -3.74911,8.83233 -1.83399,4.26325 -4.00612,8.47128 -3.80993,8.50103 0.009,10e-4 2.39895,-4.41024 4.19406,-8.79528 1.79512,-4.38503 3.00185,-8.74351 2.81718,-8.63595 -0.42967,0.25025 -1.90236,4.55738 -3.72118,8.80978 -1.81883,4.25241 -3.97115,8.45011 -3.76412,8.48151 0.0196,0.003 2.34632,-4.29678 4.08978,-8.56288 1.74346,-4.2661 2.91188,-8.49855 2.67579,-8.36098 -0.482,0.28088 -2.07351,4.82558 -4.10811,9.29973 -2.03461,4.47415 -4.49513,8.87776 -4.50378,8.87644 -0.19555,-0.0298 1.90458,-4.00046 3.54644,-7.92562 1.64186,-3.92517 2.83566,-7.80479 2.57106,-7.65237 -0.51631,0.29743 -1.97971,3.95475 -3.66882,7.53844 -1.68911,3.5837 -3.58972,7.09376 -3.57055,7.09667 -0.1681,-0.0255 1.68675,-3.60481 3.1807,-7.22434 1.49395,-3.61954 2.61906,-7.27933 2.44067,-7.4659 -0.32825,-0.34333 -1.71441,3.17142 -3.32997,6.77979 -1.61556,3.60838 -3.48032,7.31037 -3.275,7.34153 0.0178,0.003 2.01786,-3.70727 3.58537,-7.48887 1.5675,-3.78161 2.68783,-7.63484 2.52057,-7.91862 -0.28861,-0.48969 -1.6781,3.2 -3.39157,7.07123 -1.70582,3.85397 -3.76042,7.83773 -3.68,7.84993 -0.10726,-0.0163 1.99332,-4.09634 3.62439,-8.22277 1.63107,-4.12643 2.78216,-8.29924 2.66237,-8.50098 -0.25542,-0.43014 -1.65119,3.77665 -3.46235,8.09727 -1.81117,4.32062 -4.06666,8.75507 -3.90079,8.78025 -0.0217,-0.003 2.23804,-4.2768 3.95638,-8.60793 1.71833,-4.33113 2.88158,-8.7199 2.74369,-8.95374 -0.25943,-0.43996 -1.63905,3.74931 -3.4486,8.13846 -1.79887,4.36328 -4.05308,8.84884 -3.89963,8.87211 -0.0344,-0.005 2.31567,-4.52221 4.0423,-9.13904 1.72663,-4.61684 2.80511,-9.33352 2.56415,-9.73809 -0.36397,-0.61114 -1.84772,4.19834 -3.89907,9.26882 -2.03882,5.03953 -4.68911,10.24717 -4.48911,10.27755 0.0125,0.002 2.60759,-4.85384 4.51256,-9.75272 1.90497,-4.89888 3.1081,-9.8409 3.00853,-10.0116 -0.24066,-0.41254 -1.73189,4.90652 -3.98539,10.32894 -2.2535,5.42242 -5.30194,10.94819 -5.29625,10.94906 -0.18125,-0.0276 2.61886,-5.2587 4.66345,-10.54479 2.04458,-5.28609 3.31772,-10.6272 3.17895,-10.87491 -0.27845,-0.49701 -1.68714,4.43991 -3.70078,9.50748 -2.01363,5.06758 -4.67114,10.26581 -4.50259,10.29143 -0.019,-0.003 2.9942,-5.79452 4.84589,-10.91876 2.40352,-6.65137 2.17665,-8.05398 1.72359,-6.91447 -3.49714,8.79573 -4.55301,11.29422 -4.55301,11.29422 0,0 1.32175,-2.70737 2.41164,-5.34873 0.592,-1.43471 2.46792,-6.45529 1.87593,-5.02059 0.54627,-1.33048 -0.42218,2.75289 -2.35374,7.76584 -1.86144,4.83095 -4.59118,10.0455 -4.44737,10.0674 0.33103,0.0504 3.16402,-4.81542 5.22307,-9.73579 2.05906,-4.92038 3.32929,-9.89531 3.23746,-10.06312 0.0446,0.0815 -1.34665,5.41311 -3.46491,10.736 -2.11826,5.32289 -4.96097,10.63706 -4.65569,10.68369 0.49184,0.0751 3.71874,-5.12818 6.02403,-10.40836 2.30529,-5.28019 3.66651,-10.63725 3.53397,-10.86963 0.005,0.009 -1.31245,4.942 -3.2862,9.87643 -1.97376,4.93444 -4.60396,9.87078 -4.49159,9.88789 0.29955,0.0456 3.13312,-4.84536 5.21811,-9.74553 2.085,-4.90017 3.41887,-9.80956 3.42394,-9.80085 0.14345,0.24624 -1.04714,4.95342 -2.83926,9.6051 -1.79211,4.65167 -4.17166,9.24784 -4.01238,9.27204 0.34674,0.0527 2.77887,-4.12356 4.60953,-8.35117 1.83065,-4.22761 3.04778,-8.50659 2.95965,-8.6594 0.0457,0.0792 -1.22681,4.45845 -3.00776,8.8235 -1.78095,4.36505 -4.06693,8.71588 -3.92041,8.73816 0.33377,0.0508 2.7664,-4.07916 4.60785,-8.26649 1.84146,-4.18733 3.07842,-8.43209 2.9745,-8.61102 0.0287,0.0495 -1.22953,4.21279 -2.9209,8.37254 -1.69136,4.15976 -3.81499,8.31596 -3.58307,8.35121 0.41922,0.0637 2.64778,-3.62252 4.374,-7.34671 1.72621,-3.72418 2.94216,-7.48633 2.89137,-7.57445 0.0778,0.13502 -1.14623,3.97876 -2.7705,7.79281 -1.62426,3.81406 -3.6425,7.59842 -3.53556,7.61468 0.29406,0.0447 2.37266,-3.44827 4.01532,-6.97111 1.64266,-3.52284 2.84351,-7.07553 2.77307,-7.15022 0.0774,0.0821 -1.15234,3.73239 -2.6983,7.37331 -1.54595,3.64092 -3.40624,7.27245 -3.11388,7.31694 0.47925,0.0729 2.80336,-3.63047 4.57972,-7.3298 1.77636,-3.69932 3.00585,-7.39457 2.84974,-7.30532 0.0975,-0.0557 -1.21713,3.8144 -2.89992,7.71066 -1.68278,3.89626 -3.73943,7.81864 -3.41992,7.86734 0.50604,0.0771 3.40297,-4.51754 5.53183,-9.10619 2.12886,-4.58864 3.49124,-9.17125 3.31614,-9.06998 0.0727,-0.042 -1.22201,4.18094 -3.01193,8.41842 -1.78993,4.23748 -4.07855,8.48946 -3.97345,8.50544 0.29213,0.0444 2.87432,-4.34356 4.78375,-8.71005 1.90944,-4.36649 3.15148,-8.71151 2.92613,-8.58125 0.0215,-0.0124 -1.3134,4.33658 -3.15668,8.6931 -1.84329,4.35651 -4.19679,8.72054 -4.08096,8.73814 0.30281,0.046 2.90492,-4.35151 4.82972,-8.72845 1.9248,-4.37694 3.17745,-8.73329 2.95445,-8.60491 0.0239,-0.0137 -1.35355,4.45693 -3.25522,8.93772 -1.90166,4.48078 -4.33012,8.97169 -4.15443,8.99842 0.36243,0.0551 3.04415,-4.35661 5.06053,-8.76805 2.01638,-4.41144 3.36749,-8.82257 3.26862,-8.76616 0.14848,-0.0847 -1.26898,4.61227 -3.31984,9.33482 -2.05086,4.72254 -4.74196,9.47067 -4.62659,9.48826 0.3016,0.046 3.24383,-4.73633 5.40246,-9.49442 2.15863,-4.75808 3.54027,-9.49192 3.28863,-9.34893 -0.005,0.003 -1.53631,4.84486 -3.68445,9.69272 -2.14813,4.84786 -4.91416,9.70132 -4.75076,9.72627 0.3494,0.0533 3.64731,-5.21821 6.05701,-10.49368 2.4097,-5.27546 3.93003,-10.55484 3.86418,-10.51715 0.17783,-0.10179 -1.22436,4.95876 -3.32185,10.05627 -2.09748,5.0975 -4.9009,10.23196 -4.59878,10.278 0.4884,0.0744 3.98754,-5.49785 6.45936,-11.07298 2.47182,-5.57513 3.91543,-11.15311 3.80584,-11.0901 0.13007,-0.0748 -0.74655,3.41208 -1.93533,6.8798 -1.18878,3.46772 -2.68587,6.91629 -2.42462,6.76493 0.53754,-0.31142 2.26701,-3.68704 3.53763,-6.98547 1.27062,-3.29843 2.09603,-6.51966 2.0157,-6.5223 0.12062,0.004 -0.73299,3.38524 -1.87521,6.72961 -1.14221,3.34436 -2.56595,6.65182 -2.31655,6.50815 0.5243,-0.30203 2.16207,-3.50513 3.36742,-6.68129 1.20534,-3.17617 1.9827,-6.3254 1.87156,-6.5197 0.0265,0.0464 -0.77083,3.04777 -1.70674,5.96881 -0.9359,2.92103 -1.99664,5.76168 -1.52195,5.48648 0.76475,-0.44336 2.00764,-2.75519 2.95338,-4.99879 0.94092,-2.23214 1.56684,-4.3617 1.55448,-4.38324 0.12821,0.22357 -0.40409,2.23861 -0.97762,4.18201 -0.57048,1.93308 -1.16395,3.74808 -0.77086,3.51999 1.35521,-0.78636 2.36419,-3.48691 2.23089,-3.73108 0.0608,0.11129 -0.32966,1.34307 -0.72642,2.51884 -0.39676,1.17577 -0.79615,2.29554 -0.59876,2.18281 0.92867,-0.53039 2.19632,-3.77706 2.17491,-3.81587 0.22186,0.40226 -0.64751,2.63855 0.24182,2.12901 1.42127,-0.81432 1.40972,-2.24744 1.40972,-2.24744 z"
       id="path11649"
       sodipodi:nodetypes="cccccccc"
       inkscape:path-effect="#path-effect11655"
       inkscape:original-d="m 500.03454,187.90869 -12.32386,7.11379 -5.13662,-8.89515 -8.97431,22.97059 24.38416,3.71483 -5.13662,-8.89514 12.32386,-7.11378 z" />
    <path
       style="fill:none;stroke:#b48ead;stroke-width:0.5;stroke-linecap:butt;stroke-linejoin:round;stroke-miterlimit:4;stroke-dasharray:none;stroke-opacity:1"
       d="m 351.09997,226.39022 c 0,0 -0.96952,0.76139 -0.97071,0.76139 -0.41952,0 0.74322,-2.14835 0.75115,-3.93324 0.006,-1.32326 -0.77884,-0.39992 -1.57922,0.80873 -0.80966,1.22265 -1.67747,2.77262 -1.74471,2.77262 -0.27642,0 0.51232,-1.71009 1.31532,-3.52074 0.81033,-1.8272 1.61374,-3.70529 1.61913,-4.12405 0.0112,-0.8699 -0.95968,0.82639 -1.97793,2.71769 -1.02197,1.89821 -2.11836,4.01217 -2.06963,4.01217 -0.16045,0 0.84803,-2.04583 1.71706,-4.09165 0.86903,-2.04583 1.59861,-4.09165 1.20541,-4.09165 -0.60238,0 -1.90807,2.21884 -3.17523,4.43768 -1.26717,2.21884 -2.4958,4.43768 -2.56171,4.43768 -0.27508,0 1.0596,-2.73202 2.20184,-5.46404 1.14223,-2.73202 2.09203,-5.46405 1.62684,-5.46405 -0.67435,0 -2.07462,2.45637 -3.39027,4.91275 -1.31565,2.45637 -2.54668,4.91274 -2.41397,4.91274 -0.0765,0 1.04639,-2.19832 2.03723,-4.39663 0.99083,-2.19832 1.84965,-4.39663 1.6204,-4.39663 -0.43841,0 -1.87777,2.75548 -3.35009,5.51096 -1.47232,2.75548 -2.97761,5.51097 -2.9582,5.51097 -0.18977,0 1.11747,-2.55021 2.28591,-5.10042 1.16843,-2.55021 2.19806,-5.10042 1.95816,-5.10042 -0.44908,0 -1.77033,2.43291 -3.08538,4.86582 -1.31505,2.43291 -2.6239,4.86582 -2.5885,4.86582 -0.17377,0 1.04031,-2.38599 2.08034,-4.77198 1.04003,-2.38599 1.906,-4.77198 1.47814,-4.77198 -0.63703,0 -2.67403,3.7967 -4.83445,7.59118 -2.16042,3.79448 -4.44394,7.58672 -4.45518,7.57781 -0.15297,-0.12135 1.93664,-3.80216 3.75055,-7.45264 1.81392,-3.65048 3.35637,-7.27062 3.13513,-7.27062 -0.43042,0 -2.16777,3.33308 -3.98051,6.69197 -1.81275,3.35889 -3.70421,6.7436 -3.5736,6.84685 -0.0122,-0.01 2.29255,-3.94268 4.26301,-7.87336 1.97045,-3.93067 3.60702,-7.85894 3.45776,-7.85894 -0.35843,0 -2.2606,3.95526 -4.37359,7.91314 -2.11299,3.95789 -4.43722,7.9184 -4.424,7.9289 -0.12924,-0.10269 2.08807,-4.03388 3.98199,-7.93939 1.89391,-3.90551 3.46827,-7.78535 3.22969,-7.78535 -0.44774,0 -2.14201,3.36811 -3.91704,6.75787 -1.77503,3.38975 -3.63365,6.80116 -3.52357,6.88775 -0.0344,-0.0271 1.73014,-3.1678 3.31327,-6.38698 1.60183,-3.25721 2.9755,-6.47878 2.97654,-6.85764 0.002,-0.80436 -1.82196,2.99844 -3.945,7.07023 -2.11569,4.05769 -4.55446,8.34205 -4.44459,8.43029 -0.032,-0.0257 2.51909,-4.37758 4.7115,-8.80223 2.19241,-4.42465 4.01417,-8.92204 4.01262,-9.23865 -0.004,-0.7981 -1.73771,3.03125 -3.78341,7.12474 -2.03796,4.07801 -4.41008,8.3737 -4.33778,8.43087 -0.0721,-0.057 2.23079,-4.19398 4.22767,-8.61329 2.04133,-4.51766 3.64597,-9.02261 3.64773,-10.30741 0.002,-1.75548 -1.90573,2.57486 -4.18966,7.28533 -2.29432,4.73191 -5.08151,9.90823 -5.02615,9.95186 -0.0905,-0.0713 2.67635,-5.23041 4.8161,-10.27605 2.13974,-5.04564 3.67528,-9.97783 3.12659,-9.59537 -0.76392,0.53248 -2.94464,5.5116 -5.23975,10.2195 -2.31667,4.75212 -4.83036,9.3657 -4.80198,9.38824 -0.11736,-0.0932 2.3419,-4.74643 4.36627,-9.33799 2.02438,-4.59156 3.62493,-9.12144 3.43212,-8.96789 -0.4895,0.38984 -2.27341,4.68367 -4.27252,8.88255 -1.9991,4.19888 -4.19867,8.30281 -4.18599,8.31285 -0.13408,-0.10612 2.08292,-4.42745 3.86075,-8.62958 1.77784,-4.20214 3.13657,-8.28508 2.67571,-7.91443 -0.71958,0.57875 -2.46877,4.35605 -4.17489,7.89811 -1.72215,3.57534 -3.45764,7.01527 -3.36835,7.08565 -0.0589,-0.0464 1.77765,-3.65072 3.30779,-7.18628 1.53014,-3.53555 2.76356,-7.00235 2.48059,-6.77376 -0.54665,0.4416 -2.27397,4.24923 -4.01949,7.85288 -1.76137,3.63638 -3.5993,7.16698 -3.53521,7.21819 -0.0826,-0.066 1.73571,-3.59755 3.25623,-7.04886 1.52053,-3.45131 2.75431,-6.82238 2.43888,-6.56743 -0.59693,0.48248 -2.04547,3.4678 -3.45686,6.24484 -1.42284,2.7996 -2.84529,5.45858 -2.91769,5.40118 -0.22104,-0.17523 0.65132,-2.18584 1.4488,-4.10842 0.79747,-1.92257 1.52664,-3.7571 1.30499,-3.58014 -0.53481,0.42697 -1.45914,2.09433 -2.24494,3.6565 -0.78939,1.56932 -1.45217,3.0549 -1.32692,3.15407 -0.0241,-0.0191 0.85183,-1.79129 1.50589,-3.42337 0.6544,-1.63288 1.09552,-3.12322 0.4227,-2.58273 -2.00041,1.60697 -3.38217,4.48023 -3.24477,4.5888 -0.16391,-0.12952 1.36988,-3.35875 0.76119,-2.86812 -1.27673,1.02911 -1.81166,2.135 -1.89351,2.07029 -0.38192,-0.30193 -1.13211,0.94423 -1.13211,0.94423 0,0 0.1122,-0.51139 0.69452,-0.0478 0.89514,0.71257 2.4322,-2.48706 1.91153,-2.0703 0.16446,-0.13164 -1.14843,2.57989 -0.78615,2.86812 0.66152,0.52632 3.02313,-4.38013 3.2847,-4.5888 0.46018,-0.3671 -0.0503,1.08662 -0.68896,2.65469 -0.63887,1.56866 -1.41478,3.25344 -1.29189,3.35142 0.27401,0.21846 1.40692,-1.6144 2.32495,-3.43183 0.91686,-1.81511 1.62929,-3.63493 1.30617,-3.37875 0.007,-0.006 -0.79367,1.78975 -1.57897,3.64982 -0.78362,1.8561 -1.55467,3.78894 -1.24173,4.03875 0.47199,0.37678 2.37335,-2.62599 3.9254,-5.66569 1.5547,-3.04487 2.75215,-6.14218 2.5505,-5.98033 0.10992,-0.0882 -1.21289,3.24377 -2.73666,6.63386 -1.52377,3.3901 -3.25609,6.83828 -3.07694,6.98243 0.32484,0.26135 2.65817,-3.59689 4.55561,-7.47524 1.89745,-3.87835 3.35582,-7.77679 3.13024,-7.59583 0.0807,-0.0648 -1.24324,3.3631 -2.77846,6.83823 -1.53522,3.47513 -3.288,6.99753 -3.1314,7.1218 0.30377,0.24107 2.52716,-3.52068 4.38153,-7.33479 1.85437,-3.81411 3.33169,-7.68058 3.2921,-7.64896 0.26261,-0.20975 -1.19334,3.83448 -2.98271,7.97703 -1.78938,4.14255 -3.92805,8.38343 -3.69772,8.56697 0.37608,0.2997 3.07192,-4.11928 5.20655,-8.55312 2.13464,-4.43384 3.70537,-8.88254 3.4016,-8.64228 -0.005,0.004 -1.70782,4.49529 -3.74745,9.02818 -2.03964,4.5329 -4.42329,9.10738 -4.21024,9.2777 0.3578,0.28604 3.34669,-4.58653 5.79338,-9.54529 2.4467,-4.95876 4.33421,-10.00371 4.41897,-10.06244 0.36512,-0.25297 -1.2756,4.64091 -3.43749,9.63502 -2.16189,4.99411 -4.86459,10.08844 -4.67812,10.2364 0.33135,0.2629 3.06852,-4.18327 5.3277,-8.62673 2.25918,-4.44346 4.04086,-8.88421 4.03811,-8.61046 -0.009,0.91132 -1.68665,5.39501 -3.78429,9.97651 -2.05646,4.49155 -4.423,8.81104 -4.25575,8.94419 0.31068,0.24733 2.64413,-3.38574 4.63691,-7.20857 2.02289,-3.88057 3.61747,-7.77764 3.61964,-8.34705 6e-5,-0.0147 -1.89508,4.44473 -4.14553,8.93322 -2.25044,4.48849 -4.86121,9.00606 -4.73558,9.10767 0.26648,0.21553 2.66578,-3.43199 4.73499,-7.2472 2.09863,-3.86944 3.78366,-7.74385 3.78948,-8.25332 -2.5e-4,0.0224 -1.46025,3.28214 -3.09328,6.56199 -1.63303,3.27985 -3.4416,6.5798 -3.31178,6.68263 0.27331,0.21649 2.45287,-3.19492 4.30377,-6.66045 1.8509,-3.46553 3.36563,-6.98518 3.25559,-6.98518 0.0991,0 -1.56122,3.84212 -3.47715,7.72876 -1.91593,3.88665 -4.09403,7.81784 -3.87137,7.99599 0.36413,0.29134 3.01583,-3.66917 5.21145,-7.70252 2.19563,-4.03334 3.92336,-8.13952 3.72399,-8.13952 0.01,0 -1.71324,3.89065 -3.70596,7.80251 -1.99272,3.91186 -4.2583,7.84494 -4.15171,7.92979 0.24839,0.19772 2.46043,-3.18698 4.34985,-6.62112 1.88942,-3.43414 3.44945,-6.9177 3.32207,-6.9177 0.0818,0 -1.54379,3.58266 -3.37744,7.2144 -1.83365,3.63174 -3.8821,7.31255 -3.63635,7.50886 0.3865,0.30873 2.99528,-3.48352 5.23726,-7.35295 2.24199,-3.86943 4.10513,-7.81605 4.18437,-7.81605 0.28841,0 -0.66805,2.38599 -1.72885,4.77199 -1.06079,2.38599 -2.22591,4.77198 -1.91269,4.77198 0.5224,0 2.13132,-2.43291 3.46754,-4.86582 1.33622,-2.43291 2.39974,-4.86582 2.29102,-4.86582 0.10046,0 -1.02109,2.5502 -2.21171,5.10041 -1.19063,2.55021 -2.45034,5.10042 -2.12112,5.10042 0.53839,0 2.34655,-2.75548 3.84285,-5.51096 1.4963,-2.75548 2.68074,-5.51096 2.56136,-5.51096 0.0898,0 -0.85788,2.19831 -1.86784,4.39662 -1.00997,2.19832 -2.08223,4.39663 -1.86632,4.39663 0.42509,0 1.95639,-2.45637 3.29341,-4.91274 1.33703,-2.45637 2.47978,-4.91274 2.59634,-4.91274 0.32573,0 -0.71756,2.73202 -1.88357,5.46404 -1.16601,2.73203 -2.45474,5.46405 -2.04021,5.46405 0.6237,0 2.15054,-2.21884 3.43701,-4.43768 1.28647,-2.21885 2.33258,-4.43769 2.37716,-4.43769 0.25375,0 -0.56335,2.04583 -1.45018,4.09166 -0.88684,2.04582 -1.84339,4.09165 -1.5435,4.09165 0.50906,0 1.57603,-1.49959 2.47458,-3.09062 0.90432,-1.60126 1.62344,-3.26326 1.63155,-3.63925 -0.002,0.095 -0.89156,2.00623 -1.74568,3.89367 -0.85412,1.88744 -1.67117,3.75113 -1.25531,3.75113 1.25008,0 3.3603,-3.97683 3.3551,-3.58135 -0.0161,1.22913 -1.48379,3.93324 -0.78537,3.93324 1.12567,0 1.46265,-1.65778 1.46265,-1.65778 z m -14.81959,11.40922 c 0,0 0.10954,-1.03285 -0.0475,-1.15761 -0.43265,-0.34375 0.85522,-2.40733 0.84641,-3.10485 -0.0174,-1.37327 -2.05323,1.95339 -1.89378,2.07995 -0.11993,-0.0952 1.68453,-3.03678 1.67409,-4.14176 -0.009,-0.91027 -0.80629,0.007 -1.59297,1.14523 -0.79134,1.14455 -1.59556,2.52946 -1.5229,2.58735 -0.0671,-0.0535 0.81729,-1.55281 1.67491,-3.17668 0.86376,-1.63547 1.68221,-3.36066 1.67432,-3.92398 -0.013,-0.92732 -1.08452,0.82306 -2.21328,2.78191 -1.13059,1.96202 -2.35288,4.16211 -2.35288,4.16211 0,0 1.06036,-1.48212 2.0762,-2.97705 1.01678,-1.49632 1.99004,-3.00823 1.9897,-3.07058 0.002,0.31582 -0.87502,2.00763 -1.77384,3.68407 -0.8936,1.6667 -1.79642,3.28883 -1.63717,3.41659 0.64823,0.52007 3.14836,-3.70922 3.14834,-3.73258 4.8e-4,0.63694 -2.0142,3.89872 -1.71012,4.14175 0.59448,0.47513 1.91352,-1.66156 1.91187,-2.07994 9.7e-4,0.24702 -1.48703,2.61394 -0.87343,3.10484 0.88853,0.71085 0.62203,0.26123 0.62203,0.26123 z"
       id="path11756"
       sodipodi:nodetypes="cccccccc"
       inkscape:path-effect="#path-effect11762"
       inkscape:original-d="m 351.09997,216.65753 h -14.81959 v -10.69841 l -20.05698,16.04761 20.05698,16.04763 v -10.69842 h 14.81959 z" />
    <path
       style="fill:none;stroke:#000000;stroke-width:1;stroke-linecap:butt;stroke-linejoin:round;stroke-miterlimit:4;stroke-dasharray:none;stroke-opacity:1"
       d="m 315.60106,120.78808 c 5.29256,-0.10408 10.2895,-0.0125 15.34381,-0.004 -0.007,-0.37355 -0.0144,-0.74753 -0.0211,-1.12205 -0.0593,-3.35135 -0.0773,-6.72953 -0.11836,-10.13754 1.67957,1.32612 3.34931,2.63953 4.99135,3.93939 4.15769,3.29128 8.73846,6.94773 13.24684,10.47632 l 0,0 c 0.99245,0.77676 1.95919,1.54482 2.9063,2.30652 -0.6491,0.51767 -1.30727,1.03239 -1.97258,1.54491 m -0.58686,-3.80676 c 0.69047,0.54513 1.3904,1.10128 2.09776,1.66624 -3.63866,2.85027 -7.08792,5.92496 -10.60541,8.94085 -3.29369,2.82399 -6.67746,5.49098 -9.99856,8.22732 0.0149,-1.20157 0.0348,-2.39769 0.063,-3.58336 0.0583,-2.45626 0.0461,-4.97673 1e-5,-7.52749 -1.08984,-0.0172 -2.18585,-0.0399 -3.28517,-0.0656 m 3.70286,0.37029 c -0.007,-0.25026 -0.0136,-0.50058 -0.0202,-0.75094 -5.28717,0.12032 -10.50156,0.22652 -16.00132,0.63303 -0.008,-0.10849 -0.0159,-0.21682 -0.024,-0.32499 -0.24964,-3.31049 -0.0959,-7.11331 0.14398,-11.03315 2.05736,-0.16883 4.13942,-0.37118 6.19758,-0.54951 3.44307,-0.29835 6.52928,-0.22878 9.48037,-0.0957 -0.14108,-1.58244 -0.31751,-3.14826 -0.49962,-4.7382 m -15.17754,4.86524 c 5.22366,0.0413 10.34873,0.0845 15.55,0.23812 0.003,-0.363 0.007,-0.72542 0.0112,-1.08722 0.0373,-3.23744 -0.0244,-6.54277 -0.14503,-9.79391 1.62764,1.42851 3.23019,2.8801 4.8188,4.38873 4.02243,3.81988 8.891,6.93034 13.70778,10.41772 l 10e-6,10e-6 c 1.06033,0.76768 2.07015,1.52601 3.04539,2.27589 -3.28393,2.65659 -7.00183,5.20718 -10.44501,7.69262 -2.60687,1.88175 -5.16675,3.91566 -7.73747,5.93378 m 6.13536,-4.40276 c -2.91402,2.29563 -5.98064,4.79472 -9.06545,7.33434 -0.0334,-1.61976 -0.0703,-3.23184 -0.0995,-4.84968 -0.0356,-1.9717 -0.0442,-4.00049 -0.0408,-6.05687 -3.48292,-0.0202 -6.93075,-0.12071 -10.41778,-0.15487 -1.66625,-0.0163 -3.34719,-0.0356 -5.04281,-0.0623 -0.0637,-3.78182 -0.20054,-7.60091 -0.41033,-11.50806 0.13597,-0.007 0.27184,-0.0145 0.40759,-0.0219 3.81112,-0.20855 7.95873,-0.16455 12.06499,-0.20351"
       id="path1203"
       sodipodi:nodetypes="cccccccc"
       inkscape:path-effect="#path-effect10416"
       inkscape:original-d="M 315.44835,120.44063 H 330.916 v -11.16646 l 20.93407,16.74968 -20.93407,16.74969 v -11.16646 h -15.46765 z" />
    <path
       style="fill:none;stroke:#000000;stroke-width:1;stroke-linecap:butt;stroke-linejoin:round;stroke-miterlimit:4;stroke-dasharray:none;stroke-opacity:1"
       d="m 477.91809,132.00867 c 4.60181,2.47384 8.90799,5.14336 13.27155,7.72967 0.17971,-0.32342 0.35972,-0.64727 0.54017,-0.97167 1.61469,-2.90281 3.27068,-5.83243 4.90364,-8.7919 0.76831,1.99639 1.52681,3.98006 2.25759,5.95018 l 0,0 c 1.85037,4.98843 4.12382,10.34201 6.32489,15.56774 0.48453,1.15036 0.94334,2.29202 1.38254,3.42732 -0.82109,0.12518 -1.65125,0.24741 -2.48856,0.36744 m 1.0735,-3.47104 c 0.30901,0.82571 0.62748,1.66244 0.95338,2.50799 -4.59753,0.66214 -9.00566,1.54871 -13.48203,2.37647 -4.19155,0.7751 -8.47319,1.39319 -12.69215,2.08063 0.62083,-1.03922 1.24659,-2.07298 1.88064,-3.09631 1.31352,-2.11993 2.55649,-4.30408 3.76556,-6.51852 -0.94646,-0.55231 -1.89909,-1.11013 -2.85503,-1.67082 m 2.8882,1.87253 c 0.12124,-0.21591 0.24271,-0.43189 0.36435,-0.64791 -4.59641,-2.45762 -9.12005,-4.92936 -13.92905,-7.10079 0.051,-0.0927 0.10191,-0.18526 0.15264,-0.27765 1.55255,-2.8276 3.50842,-6.14752 5.55054,-9.58447 1.79892,0.79565 3.62255,1.55778 5.42228,2.34391 3.01075,1.31513 5.66464,2.99816 8.1834,4.74469 0.68417,-1.36131 1.33298,-2.70601 1.97612,-4.07483 m -15.58103,-3.5319 c 4.53292,2.61917 8.96723,5.24031 13.47775,7.97189 0.19038,-0.31288 0.38115,-0.62517 0.57239,-0.93684 1.71128,-2.7889 3.32357,-5.64568 4.87697,-8.44827 0.71639,2.09878 1.40769,4.22064 2.08505,6.39952 l 0,1e-5 c 1.7151,5.51702 4.27636,10.32462 6.78582,15.50914 0.55241,1.14129 1.05432,2.27321 1.52164,3.39669 -4.18049,0.61067 -8.79494,1.11534 -13.13468,1.55485 -3.28567,0.33276 -6.52434,0.81768 -9.77385,1.28681 m 7.69238,-0.84969 c -3.71442,0.46916 -7.58143,1.14178 -11.46663,1.85494 0.80538,-1.395 1.60731,-2.78232 2.41689,-4.1754 0.98665,-1.69779 2.00031,-3.45267 3.02602,-5.23513 -3.01551,-1.76459 -5.99592,-3.6095 -9.01555,-5.38806 -1.4429,-0.84987 -2.9005,-1.70266 -4.37277,-2.56292 1.79738,-3.28314 3.52161,-6.60357 5.17289,-10.01204 0.11667,0.0649 0.23322,0.12964 0.34967,0.19425 3.26916,1.81408 6.87481,3.88072 10.43911,5.86439"
       id="path1664"
       sodipodi:nodetypes="cccccccc"
       inkscape:path-effect="#path-effect10418"
       inkscape:original-d="m 477.76539,131.66117 13.39538,7.73382 5.58323,-9.67044 9.7546,24.97269 -26.50428,4.03862 5.58323,-9.67044 -13.39538,-7.73382 z" />
    <path
       style="fill:none;stroke:#000000;stroke-width:1;stroke-linecap:butt;stroke-linejoin:round;stroke-miterlimit:4;stroke-dasharray:none;stroke-opacity:1"
       d="m 501.0679,187.16437 c -4.32838,2.47384 -8.9524,5.14336 -13.51903,7.72967 -0.19444,-0.32342 -0.38858,-0.64727 -0.58228,-0.97167 -1.73332,-2.90281 -3.42532,-5.83243 -5.14037,-8.7919 -0.8219,1.99639 -1.65362,3.98006 -2.51306,5.95018 l 0,0 c -2.17611,4.98843 -3.92915,10.34201 -5.75457,15.56774 -0.40183,1.15036 -0.82938,2.29202 -1.27655,3.42732 0.81569,0.12518 1.62231,0.24741 2.42179,0.36744 m -1.8398,-3.47104 c -0.35667,0.82571 -0.70389,1.66244 -1.04367,2.50799 4.52753,0.66214 9.24446,1.54871 13.89315,2.37647 4.35291,0.7751 8.61573,1.39319 12.94123,2.08063 -0.59096,-1.03922 -1.17699,-2.07298 -1.75472,-3.09631 -1.19685,-2.11993 -2.46425,-4.30408 -3.76554,-6.51852 0.90715,-0.55231 1.80814,-1.11013 2.7058,-1.67082 m -1.90359,1.87253 c -0.13511,-0.21591 -0.26999,-0.43189 -0.40469,-0.64791 4.33384,-2.45762 8.74046,-4.92936 12.86171,-7.10079 -0.0667,-0.0927 -0.13363,-0.18526 -0.20067,-0.27765 -2.05183,-2.8276 -3.70033,-6.14752 -5.26259,-9.58447 -1.54212,0.79565 -3.05954,1.55778 -4.60086,2.34391 -2.57846,1.31513 -5.51378,2.99816 -8.58422,4.74469 -0.96633,-1.36131 -1.968,-2.70601 -2.97536,-4.07483 m 16.16104,-3.5319 c -4.39728,2.61917 -8.89316,5.24031 -13.31284,7.97189 -0.18377,-0.31288 -0.36715,-0.62517 -0.55006,-0.93684 -1.63672,-2.7889 -3.37244,-5.64568 -5.16704,-8.44827 -0.87383,2.09878 -1.77275,4.22064 -2.6856,6.39952 l 0,1e-5 c -2.31138,5.51702 -3.77661,10.32462 -5.29363,15.50914 -0.33395,1.14129 -0.71842,2.27321 -1.13746,3.39669 4.35155,0.61067 8.26913,1.11534 12.46143,1.55485 3.17404,0.33276 6.39508,0.81768 9.60527,1.28681 m -7.12487,-0.84969 c 3.90244,0.46916 7.65229,1.14178 11.38395,1.85494 -0.87223,-1.395 -1.74792,-2.78232 -2.61595,-4.1754 -1.05789,-1.69779 -2.08877,-3.45267 -3.1076,-5.23513 3.02726,-1.76459 6.08961,-3.6095 9.11275,-5.38806 1.44458,-0.84987 2.87448,-1.70266 4.28969,-2.56292 -1.92476,-3.28314 -3.92268,-6.60357 -5.99355,-10.01204 -0.13291,0.0649 -0.26593,0.12964 -0.39905,0.19425 -3.73744,1.81408 -7.13839,3.88072 -10.58069,5.86439"
       id="path1666"
       sodipodi:nodetypes="cccccccc"
       inkscape:path-effect="#path-effect10420"
       inkscape:original-d="m 500.91538,186.81687 -13.39538,7.73382 -5.58323,-9.67044 -9.7546,24.97269 26.50428,4.03862 -5.58323,-9.67044 13.39538,-7.73382 z" />
    <path
       style="fill:none;stroke:#000000;stroke-width:1;stroke-linecap:butt;stroke-linejoin:round;stroke-miterlimit:4;stroke-dasharray:none;stroke-opacity:1"
       d="m 352.00255,216.77949 c -5.01914,-0.10408 -10.3339,-0.0125 -15.59129,-0.004 -0.007,-0.37355 -0.0144,-0.74753 -0.0211,-1.12205 -0.0593,-3.35135 -0.0773,-6.72953 -0.11836,-10.13754 -1.73315,1.32612 -3.47612,2.63953 -5.24681,3.93939 l 0,0 c -4.48344,3.29128 -8.54379,6.94773 -12.67653,10.47632 -0.90976,0.77676 -1.84522,1.54482 -2.80031,2.30652 0.6437,0.51767 1.27833,1.03239 1.90581,1.54491 m -0.17944,-3.80676 c -0.73813,0.54513 -1.46681,1.10128 -2.18805,1.66624 3.56866,2.85027 7.32671,5.92496 11.01653,8.94085 3.45505,2.82399 6.82001,5.49098 10.24764,8.22732 0.0149,-1.20157 0.0348,-2.39769 0.063,-3.58336 0.0583,-2.45626 0.0461,-4.97673 1e-5,-7.52749 1.05053,-0.0172 2.0949,-0.04 3.13594,-0.0656 m -2.71825,0.37029 c -0.007,-0.25026 -0.0136,-0.50058 -0.0202,-0.75094 5.0246,0.12032 10.12197,0.22652 14.93398,0.63303 -0.008,-0.10849 -0.0159,-0.21682 -0.024,-0.32499 -0.24964,-3.31049 -0.096,-7.11331 0.14398,-11.03315 -1.80056,-0.16883 -3.57641,-0.37118 -5.37616,-0.54951 -3.01078,-0.29835 -6.37842,-0.22878 -9.88119,-0.0957 -0.14108,-1.58244 -0.31751,-3.14826 -0.49962,-4.7382 m 15.75756,4.86524 c -5.08804,0.0412 -10.27467,0.0845 -15.3851,0.23812 0.003,-0.363 0.007,-0.72542 0.0112,-1.08722 0.0373,-3.23744 -0.0244,-6.54277 -0.14503,-9.79391 -1.78508,1.42851 -3.59525,2.8801 -5.41936,4.38873 l 0,0 c -4.6187,3.81988 -8.39125,6.93034 -12.21559,10.41773 -0.84187,0.76768 -1.73425,1.52601 -2.66121,2.27589 3.45499,2.65659 6.47602,5.20718 9.77176,7.69262 2.49525,1.88175 5.03749,3.91566 7.56889,5.93378 m -5.56785,-4.40276 c 3.10205,2.29563 6.0515,4.79472 8.98277,7.33434 -0.0334,-1.61976 -0.0703,-3.23184 -0.0995,-4.84968 -0.0356,-1.9717 -0.0442,-4.00049 -0.0408,-6.05687 3.49467,-0.0202 7.02443,-0.12071 10.51498,-0.15487 1.66793,-0.0163 3.32117,-0.0356 4.95973,-0.0623 -0.0637,-3.78182 -0.20054,-7.60091 -0.41033,-11.50806 -0.15221,-0.007 -0.30454,-0.0145 -0.45697,-0.0219 -4.27941,-0.20855 -8.22232,-0.16455 -12.20658,-0.20351"
       id="path1668"
       sodipodi:nodetypes="cccccccc"
       inkscape:path-effect="#path-effect10422"
       inkscape:original-d="m 351.85004,216.43204 h -15.46765 v -11.16646 l -20.93407,16.74968 20.93407,16.74969 v -11.16646 h 15.46765 z" />
    <g
       id="g10098"
       transform="translate(-6.1194878,0.15374756)">
      <path
         style="opacity:1;fill:none;stroke:#2e3440;stroke-width:2;stroke-linecap:round;stroke-linejoin:round;stroke-miterlimit:4;stroke-dasharray:none;stroke-opacity:0.99938;stop-color:#000000"
         id="rect846"
         width="63.724186"
         height="35.536453"
         x="247.4493"
         y="108.10188"
         inkscape:path-effect="#path-effect10406"
         d="m 247.08684,107.86424 c 5.49801,-0.0799 11.23577,0.055 17.11818,0.16889 5.88596,0.11397 10.89513,-0.004 16.08438,-0.006 5.18924,-0.002 11.20873,0.0318 17.02812,0.0937 l 0,0 c 2.15168,0.0229 4.23383,0.0162 6.29016,-0.011 m -5.9247,0.0143 c 4.45429,0.0636 8.80715,0.0474 13.16408,0.0698 -0.0108,1.1368 -0.0213,2.27615 -0.0298,3.42006 l 0,0 c -0.0415,5.59631 0.1398,10.92684 0.425,16.1875 0.18455,3.4041 0.0881,7.10454 -0.0552,10.87893 m -0.1012,-4.16888 c -0.054,3.07308 -0.0532,6.15721 -0.048,9.26677 -2.4688,0.0426 -4.93466,0.10178 -7.42417,0.18526 l 0,0 c -5.57014,0.18678 -11.04286,-0.20652 -16.525,-0.6125 -4.83229,-0.35786 -9.74598,0.0894 -14.6353,0.50704 m 4.9799,0.10543 c -5.52997,-0.0156 -11.03799,-0.0307 -16.5275,-0.0906 -4.36579,-0.0476 -8.87718,0.0149 -13.47241,0.0968 -0.0509,-1.1142 -0.10742,-2.22711 -0.16845,-3.34029 -0.29744,-5.42537 0.16685,-11.14266 0.50312,-16.83125 l 10e-6,0 c 0.31461,-5.32207 -0.15824,-10.3111 -0.59494,-15.3464 0.32645,0.01 0.65306,0.0193 0.98012,0.0285 2.99714,0.0842 6.37222,0.0668 9.84237,0.0365 m -10.75855,-0.0989 c 5.6162,0.0818 11.06112,-0.23279 16.58985,-0.69703 l 0,0 c 5.53205,-0.46451 11.00364,0.0424 16.4125,0.125 5.40885,0.0826 11.25248,0.21092 17.15625,0.63125 4.31607,0.30729 8.27883,0.12927 12.32174,-0.0393 m -6.5607,-0.31395 c 2.52347,-0.0318 5.12327,-0.0639 7.7734,-0.11669 0.10106,2.90603 0.2696,5.78422 0.46527,8.60268 l 0,0 c 0.36489,5.25603 -0.10714,11.30017 -0.31875,17.30625 -0.12793,3.63077 -0.0919,6.84719 -0.0317,9.96106 -2.14899,-0.1512 -4.28767,-0.34629 -6.45522,-0.49797 -0.26022,-0.0182 -0.52056,-0.0344 -0.78103,-0.0486 m 4.69506,0.17964 c -5.59546,-0.10069 -11.08218,0.039 -16.65864,0.10956 l 0,0 c -5.57982,0.0706 -10.84099,-0.1175 -15.93125,-0.35938 -4.53657,-0.21557 -9.80897,0.12229 -14.87263,0.50326 m 4.12541,-0.0875 c -5.56108,0.0541 -10.99702,0.0404 -16.40244,0.11241 -0.47933,0.006 -0.96038,0.0107 -1.44287,0.0132 0.081,-5.01759 0.008,-10.23483 0.0655,-15.49207 0.0325,-3.00037 0.028,-5.85406 0.0126,-8.6608 m 0.1,4.47602 c 0.0498,-5.37098 -0.0829,-10.63983 -0.25441,-15.95704 0.20511,3e-5 0.41016,-10e-6 0.61516,-1.4e-4 5.35184,-0.003 11.20083,-0.0261 17,-0.0812 l 0,0 c 5.79916,-0.0551 11.12633,-0.0946 16.78125,-0.2875 l 0,0 c 5.65492,-0.19291 10.97294,0.0309 16.31875,0.0969 1.85128,0.0229 3.74808,0.038 5.66711,0.0538"
         sodipodi:type="rect" />
      <text
         xml:space="preserve"
         style="font-style:normal;font-variant:normal;font-weight:normal;font-stretch:normal;font-size:8.06219px;line-height:1.25;font-family:xkcd;-inkscape-font-specification:'xkcd, Normal';font-variant-ligatures:normal;font-variant-caps:normal;font-variant-numeric:normal;font-variant-east-asian:normal;letter-spacing:0px;word-spacing:0px;stroke-width:0.264582"
         x="250.1601"
         y="128.24924"
         id="text3476"><tspan
           sodipodi:role="line"
           id="tspan3474"
           style="font-style:normal;font-variant:normal;font-weight:normal;font-stretch:normal;font-size:8.06219px;font-family:xkcd;-inkscape-font-specification:'xkcd, Normal';font-variant-ligatures:normal;font-variant-caps:normal;font-variant-numeric:normal;font-variant-east-asian:normal;stroke-width:0.264582"
           x="250.1601"
           y="128.24924">Incoming record</tspan></text>
    </g>
    <g
       id="g6557"
       transform="translate(-17.795289,9.3293766)">
      <path
         style="opacity:1;fill:none;stroke:#2e3440;stroke-width:2;stroke-linecap:round;stroke-linejoin:round;stroke-miterlimit:4;stroke-dasharray:none;stroke-opacity:0.99938;stop-color:#000000"
         id="rect1164"
         width="63.724186"
         height="35.536453"
         x="529.69489"
         y="146.92195"
         inkscape:path-effect="#path-effect10410"
         d="m 529.81713,146.98112 c 5.67663,-0.11164 11.01317,0.002 16.4452,-0.004 5.4353,-0.006 10.98345,-0.0843 16.35391,-0.25 5.37045,-0.16567 11.16399,0.0338 16.88515,0.10547 l 0,0 c 2.11536,0.0265 4.15818,0.0284 6.15734,0.0169 m -5.70952,-0.31795 c 4.22836,-0.12528 8.66949,-0.002 13.10896,0.13321 0.0268,1.22567 0.0535,2.45227 0.0757,3.67498 0.10331,5.69224 0.0589,11.1271 0.1875,16.77969 l 0,0 c 0.0832,3.65772 0.0229,7.18479 -0.0746,10.67969 m 0.77824,-4.04318 c -0.0776,2.93774 -0.12712,5.86626 -0.21034,8.83978 -2.73758,0.0964 -5.50413,0.23143 -8.34883,0.44835 l 0,0 c -5.91657,0.45117 -10.88261,-0.25795 -16.04531,-0.76953 -4.55072,-0.45094 -9.91672,-0.0614 -15.3323,0.11758 m 4.55202,-0.35578 c -5.45726,0.0443 -11.02795,0.0908 -16.49638,0.27336 -4.05351,0.13536 -8.25542,0.16897 -12.53211,0.32485 -0.0621,-1.37964 -0.13339,-2.74431 -0.21066,-4.08442 l 0,0 c -0.29814,-5.1704 0.24987,-11.05022 0.74609,-16.55313 0.43744,-4.85114 0.0648,-9.85247 -0.0944,-14.94499 0.63398,-0.0288 1.27181,-0.0593 1.91597,-0.0913 3.21132,-0.15939 6.46964,-0.16662 9.71711,-0.18965 m -11.63597,0.53233 c 5.66495,-0.15955 11.01547,0.10015 16.44913,0.29717 l 0,0 c 5.43693,0.19714 11.07169,-0.0239 16.60781,-0.0781 5.53612,-0.0542 10.91038,-0.14052 16.12344,-0.42578 3.81112,-0.20855 7.95873,-0.16454 12.06499,-0.2035 m -5.75709,-0.19722 c 2.61714,0.0146 5.20715,0.0847 7.80773,0.22032 0.0485,3.12862 0.11129,6.34543 0.24736,9.66586 0.2534,6.18373 0.0652,10.7704 0.20312,15.70156 l 0,0 c 0.0833,2.97737 0.0148,6.49305 -0.11368,10.14846 -2.27666,0.20634 -4.57912,0.47286 -6.88141,0.68691 -0.27588,0.0257 -0.55029,0.0488 -0.82332,0.0695 m 4.64369,-0.72435 c -5.67663,-0.10916 -11.01136,-0.0891 -16.4413,-0.27324 -5.43321,-0.18425 -10.93385,0.10422 -16.19765,0.30859 l 0,0 c -4.69125,0.18214 -9.75684,0.0873 -14.62726,0.14646 m 4.11539,-0.20327 c -5.59761,0.12077 -11.14697,0.033 -16.8516,0.0935 -0.28911,0.003 -0.57718,0.006 -0.86427,0.01 -0.12793,-5.18942 0.088,-10.31741 0.20707,-15.22592 0.0652,-2.68929 -0.01,-5.61775 -0.17246,-8.63245 m 0.0488,2.73046 c -0.13321,-5.00511 -0.17713,-9.90394 -0.45788,-14.7792 0.52821,0.0107 1.05343,0.0217 1.57517,0.0328 5.15676,0.1104 11.26646,-0.0688 17.20156,-0.20703 l 0,0 c 5.9351,-0.13827 10.97614,0.26508 16.32656,0.79688 l 10e-6,-1e-5 c 5.35042,0.5318 11.03943,-0.11465 16.51796,-0.34765 1.89725,-0.0807 3.80373,-0.12357 5.71279,-0.15738"
         sodipodi:type="rect" />
      <text
         xml:space="preserve"
         style="font-style:normal;font-variant:normal;font-weight:normal;font-stretch:normal;font-size:8.06219px;line-height:1.25;font-family:xkcd;-inkscape-font-specification:'xkcd, Normal';font-variant-ligatures:normal;font-variant-caps:normal;font-variant-numeric:normal;font-variant-east-asian:normal;letter-spacing:0px;word-spacing:0px;stroke-width:0.264582"
         x="539.5033"
         y="167.04074"
         id="text4250"><tspan
           sodipodi:role="line"
           id="tspan4248"
           style="font-style:normal;font-variant:normal;font-weight:normal;font-stretch:normal;font-size:8.06219px;font-family:xkcd;-inkscape-font-specification:'xkcd, Normal';font-variant-ligatures:normal;font-variant-caps:normal;font-variant-numeric:normal;font-variant-east-asian:normal;stroke-width:0.264582"
           x="539.5033"
           y="167.04074">Sorted pairs</tspan></text>
    </g>
    <g
       id="g6543">
      <path
         style="opacity:1;fill:none;stroke:#2e3440;stroke-width:2;stroke-linecap:round;stroke-linejoin:round;stroke-miterlimit:4;stroke-dasharray:none;stroke-opacity:0.99938;stop-color:#000000"
         id="rect1162"
         width="102.87263"
         height="69.627853"
         x="362.24435"
         y="91.20993"
         inkscape:path-effect="#path-effect10408"
         d="m 362.69295,91.738334 c 5.56095,0.153782 10.89412,-0.366597 16.08838,-1.101841 l 0,0 c 5.1974,-0.735687 11.09465,0.369254 16.68437,1.101562 5.58973,0.732309 11.07336,0.008 16.62344,0.02344 l 0,0 c 2.0521,0.0057 4.08033,-0.01402 6.08706,-0.05655 m -5.20091,-1.202626 c 5.4133,0.112316 11.16915,0.127901 16.91834,0.393547 l 0,0 c 5.75265,0.265806 10.93264,-0.123617 16.21094,-0.365625 l 0,0 c 3.41551,-0.1566 7.09809,-0.0093 10.84075,0.245573 m -3.846,0.979444 c 4.02866,0.0067 8.03162,-0.09609 11.93832,-0.292797 -0.0597,1.386113 -0.13161,2.760222 -0.2191,4.123044 -0.33238,5.177653 0.13357,11.240343 0.39844,17.110933 l 0,0 c 0.23348,5.17471 0.10806,9.63429 0.16984,14.07926 m -0.34655,-4.7179 c -0.0841,5.36187 0.007,11.15421 0.0236,16.87155 l 0,0 c 0.0167,5.72079 -0.14266,10.99794 -0.42188,16.39844 l 0,0 c -0.0877,1.69599 -0.12538,3.40685 -0.13917,5.12016 -3.82575,-0.0533 -7.53746,-0.0948 -11.40708,-0.25392 l -1e-5,0 c -5.6412,-0.23194 -10.80323,0.0396 -15.80312,0.12188 -2.95216,0.0486 -6.28757,0.0497 -9.67802,0.054 m 6.84739,0.84311 c -5.48779,0.14626 -10.93861,-0.1402 -16.21976,-0.42214 l 0,0 c -5.28434,-0.28211 -10.92718,-0.20653 -16.18281,-0.61406 -5.25564,-0.40754 -11.33806,0.27626 -17.42031,0.825 l -1e-5,0 c -4.44655,0.40116 -8.15041,0.26423 -11.75453,0.2342 m 5.88566,-0.3577 c -5.65922,-0.0325 -10.96421,0.1013 -16.35835,0.30722 4.2e-4,-0.019 8.3e-4,-0.038 0.001,-0.057 l 0,0 c 0.11597,-5.32603 0.11366,-11.19907 0.33282,-16.98906 0.21915,-5.78999 0.0414,-11.0643 0.1125,-16.59531 l 0,0 c 0.003,-0.2626 0.006,-0.52497 0.009,-0.78712 m -0.78243,4.7241 c 0.002,-5.56439 0.0632,-11.15924 0.19219,-16.88525 l 0,0 c 0.12907,-5.72946 -0.0145,-10.91582 -0.0422,-16.145311 -0.0118,-2.22197 -0.0167,-4.542222 -0.0208,-6.890297 2.57596,0.0033 5.153,-0.02694 7.7233,0.0025 m -8.16507,-0.910483 c 5.46315,0.115573 11.17138,0.245959 16.91356,0.735728 5.74563,0.490065 11.11804,0.07989 16.75468,0.229688 2.93181,0.07792 5.76562,0.02476 8.54345,-0.09602 m -3.72546,-0.300946 c 5.33512,-0.04971 10.93302,0.118847 16.20597,0.351652 5.27613,0.232946 11.20703,0.03244 17.01719,0.09375 5.81016,0.06131 11.01237,-0.326645 16.44062,-0.974999 l 1e-5,-10e-7 c 4.91347,-0.586868 10.10418,-0.0023 15.34161,0.314144 0.024,0.557903 0.0485,1.112864 0.0732,1.663226 0.0903,2.009758 0.0859,3.938428 0.0192,5.819665 m -0.28633,-6.408518 c 0.0313,5.553348 0.0894,11.043923 0.26713,16.538393 0.17784,5.49779 -0.0863,10.89469 -0.2625,16.07969 l 0,0 c -0.17624,5.185 0.10993,11.24036 0.3375,17.125 0.22757,5.88464 -0.085,10.89282 -0.25312,16.075 -0.0298,0.91781 -0.0432,1.85611 -0.0432,2.80905 -0.39583,-0.0109 -0.78945,-0.0195 -1.18106,-0.026 m 0.98818,-5.99484 c -0.0195,1.93667 0.004,3.86448 0.0626,5.80139 -3.53176,0.10234 -6.92909,0.23878 -10.24105,0.53948 -5.02642,0.45635 -11.30492,-0.2638 -17.3125,-0.78282 -6.00759,-0.51901 -10.91079,0.2531 -16.14063,0.75938 l 0,0 c -2.69979,0.26135 -5.57897,0.23367 -8.51207,0.12661 m 4.82719,-0.16427 c -5.6685,-0.0855 -10.93856,0.11083 -16.21944,0.33766 -5.28407,0.22696 -11.30499,-0.20582 -17.32187,-0.61875 -6.01689,-0.41293 -11.03438,0.11703 -16.50156,0.35156 l -10e-6,0 c -1.93155,0.0829 -3.85007,0.1116 -5.74711,0.11709 0.10595,-3.56835 0.28385,-7.21456 0.58548,-10.7492 0.0795,-0.93203 0.13444,-1.86711 0.17166,-2.80425 m -0.94218,6.62387 c -0.11359,-5.37437 0.10816,-11.18473 0.31895,-16.9559 0.21092,-5.77465 -0.1452,-10.98532 -0.43593,-16.34688 -0.29073,-5.36155 0.005,-11.29066 0.0141,-17.26562 0.006,-3.784631 0.081,-7.130861 0.23094,-10.375429 m 1.0187,5.864643 c -0.0972,-2.689242 -0.0925,-5.43833 -0.0574,-8.228427 2.84969,-0.07599 5.73207,-0.195966 8.5679,-0.338999 l 10e-6,0 c 5.57768,-0.281325 11.09555,0.262277 16.69374,0.792187 4.44257,0.420522 8.75349,0.196409 13.03414,0.119412"
         sodipodi:type="rect" />
      <g
         id="g6448"
         transform="translate(-6.1548876,1.7317942)">
        <text
           xml:space="preserve"
           style="font-style:normal;font-variant:normal;font-weight:normal;font-stretch:normal;font-size:13.3233px;line-height:1.25;font-family:xkcd;-inkscape-font-specification:'xkcd, Normal';font-variant-ligatures:normal;font-variant-caps:normal;font-variant-numeric:normal;font-variant-east-asian:normal;letter-spacing:0px;word-spacing:0px;stroke-width:0.264582"
           x="374.31827"
           y="121.85841"
           id="text3696"><tspan
             sodipodi:role="line"
             id="tspan3694"
             style="font-style:normal;font-variant:normal;font-weight:normal;font-stretch:normal;font-size:13.3233px;font-family:xkcd;-inkscape-font-specification:'xkcd, Normal';font-variant-ligatures:normal;font-variant-caps:normal;font-variant-numeric:normal;font-variant-east-asian:normal;stroke-width:0.264582"
             x="374.31827"
             y="121.85841">MAPPER</tspan></text>
        <text
           xml:space="preserve"
           style="font-style:normal;font-variant:normal;font-weight:normal;font-stretch:normal;font-size:8.06219px;line-height:1.25;font-family:xkcd;-inkscape-font-specification:'xkcd, Normal';font-variant-ligatures:normal;font-variant-caps:normal;font-variant-numeric:normal;font-variant-east-asian:normal;letter-spacing:0px;word-spacing:0px;stroke-width:0.264582"
           x="374.37433"
           y="135.52443"
           id="text4090"><tspan
             sodipodi:role="line"
             id="tspan4088"
             style="font-style:normal;font-variant:normal;font-weight:normal;font-stretch:normal;font-size:8.06219px;font-family:xkcd;-inkscape-font-specification:'xkcd, Normal';font-variant-ligatures:normal;font-variant-caps:normal;font-variant-numeric:normal;font-variant-east-asian:normal;stroke-width:0.264582"
             x="374.37433"
             y="135.52443">Extracts key-value pairs</tspan></text>
      </g>
    </g>
    <g
       id="g10104"
       transform="translate(4.5406684)">
      <path
         style="opacity:1;fill:none;stroke:#2e3440;stroke-width:2;stroke-linecap:round;stroke-linejoin:round;stroke-miterlimit:4;stroke-dasharray:none;stroke-opacity:0.99938;stop-color:#000000"
         id="rect1168"
         width="63.724186"
         height="35.536453"
         x="236.78914"
         y="204.24704"
         inkscape:path-effect="#path-effect10414"
         d="m 237.1981,204.50387 c 5.67663,-0.11164 11.01317,0.002 16.4452,-0.004 5.4353,-0.006 10.98345,-0.0843 16.35391,-0.25 5.37045,-0.16566 11.164,0.0338 16.88515,0.10547 l 0,0 c 2.11536,0.0265 4.15818,0.0285 6.15735,0.0169 m -5.51062,-0.61561 c 4.18864,-0.1241 8.58607,-0.005 12.98385,0.12939 0.0278,1.26765 0.0556,2.53648 0.0785,3.80114 l 0,0 c 0.1033,5.69225 0.0589,11.1271 0.1875,16.77969 0.0832,3.65772 0.0229,7.18479 -0.0746,10.67969 m 0.26417,-4.19845 c -0.0795,3.00843 -0.12948,6.00719 -0.2164,9.05451 -2.66803,0.0959 -5.36475,0.22948 -8.13562,0.44077 l 0,0 c -5.91657,0.45116 -10.88262,-0.25795 -16.04531,-0.76953 -4.55072,-0.45094 -9.91673,-0.0614 -15.3323,0.11757 m 4.71614,-0.0331 c -5.45727,0.0443 -11.02796,0.0908 -16.49639,0.27336 -4.18644,0.1398 -8.53117,0.17107 -12.95311,0.34059 -0.0578,-1.2477 -0.12292,-2.48237 -0.19295,-3.69687 l 0,0 c -0.29814,-5.17039 0.24987,-11.05022 0.74609,-16.55312 l 0,0 c 0.4495,-4.98484 0.0436,-10.12825 -0.10707,-15.36623 0.50527,-0.0234 1.0133,-0.0479 1.52533,-0.0733 3.21132,-0.1594 6.46964,-0.16663 9.71711,-0.18965 m -11.22409,-0.0583 c 5.66496,-0.15955 11.01547,0.10015 16.44913,0.29717 l 0,0 c 5.43694,0.19713 11.07169,-0.0239 16.60782,-0.0781 5.53612,-0.0542 10.91037,-0.14052 16.12343,-0.42578 3.81112,-0.20855 7.95873,-0.16454 12.06499,-0.2035 m -6.01733,-0.44176 c 2.54952,0.0142 5.07329,0.0812 7.60617,0.20995 0.049,3.19423 0.11148,6.48027 0.25057,9.87459 0.2534,6.18373 0.0652,10.77041 0.20313,15.70156 l 0,10e-6 c 0.0816,2.91844 0.0174,6.3541 -0.10614,9.93159 -2.34369,0.20873 -4.7156,0.48491 -7.08732,0.70542 -0.27588,0.0257 -0.55029,0.0488 -0.82331,0.0695 m 5.31092,-0.41107 c -5.67664,-0.10916 -11.01136,-0.0891 -16.4413,-0.27324 l 0,0 c -5.43321,-0.18425 -10.93385,0.10422 -16.19766,0.30859 -4.69124,0.18214 -9.75683,0.0873 -14.62726,0.14646 m 4.49424,-0.4103 c -5.59761,0.12076 -11.14697,0.033 -16.85159,0.0935 -0.28672,0.003 -0.57241,0.006 -0.85714,0.01 -0.12829,-5.19178 0.0878,-10.32213 0.2069,-15.2328 0.0652,-2.6893 -0.01,-5.61776 -0.17247,-8.63246 m -0.47702,3.15422 c -0.13593,-5.10751 -0.17888,-10.10436 -0.47541,-15.07842 0.43136,0.009 0.86066,0.0179 1.28762,0.027 5.15677,0.1104 11.26647,-0.0688 17.20156,-0.20703 l 1e-5,0 c 5.93509,-0.13828 10.97613,0.26508 16.32656,0.79687 l 0,0 c 5.35043,0.53179 11.03943,-0.11466 16.51797,-0.34766 1.89724,-0.0807 3.80373,-0.12356 5.71279,-0.15737"
         sodipodi:type="rect" />
      <text
         xml:space="preserve"
         style="font-style:normal;font-variant:normal;font-weight:normal;font-stretch:normal;font-size:8.06219px;line-height:1.25;font-family:xkcd;-inkscape-font-specification:'xkcd, Normal';font-variant-ligatures:normal;font-variant-caps:normal;font-variant-numeric:normal;font-variant-east-asian:normal;text-align:center;letter-spacing:0px;word-spacing:0px;text-anchor:middle;stroke-width:0.264582"
         x="268.80878"
         y="220.22292"
         id="text4694"><tspan
           sodipodi:role="line"
           id="tspan4692"
           style="font-style:normal;font-variant:normal;font-weight:normal;font-stretch:normal;font-size:8.06219px;font-family:xkcd;-inkscape-font-specification:'xkcd, Normal';font-variant-ligatures:normal;font-variant-caps:normal;font-variant-numeric:normal;font-variant-east-asian:normal;text-align:center;text-anchor:middle;stroke-width:0.264582"
           x="268.80878"
           y="220.22292">Output to</tspan><tspan
           sodipodi:role="line"
           style="font-style:normal;font-variant:normal;font-weight:normal;font-stretch:normal;font-size:8.06219px;font-family:xkcd;-inkscape-font-specification:'xkcd, Normal';font-variant-ligatures:normal;font-variant-caps:normal;font-variant-numeric:normal;font-variant-east-asian:normal;text-align:center;text-anchor:middle;stroke-width:0.264582"
           x="268.80878"
           y="230.30066"
           id="tspan6779">HDFS</tspan></text>
    </g>
    <g
       id="g6552"
       transform="translate(4.0690103e-6,6.0444832)">
      <g
         id="g6455"
         transform="translate(4.1970787,-0.72091966)">
        <text
           xml:space="preserve"
           style="font-style:normal;font-variant:normal;font-weight:normal;font-stretch:normal;font-size:13.3233px;line-height:1.25;font-family:xkcd;-inkscape-font-specification:'xkcd, Normal';font-variant-ligatures:normal;font-variant-caps:normal;font-variant-numeric:normal;font-variant-east-asian:normal;letter-spacing:0px;word-spacing:0px;stroke-width:0.264582"
           x="366.45023"
           y="209.26146"
           id="text4356"><tspan
             sodipodi:role="line"
             id="tspan4354"
             style="font-style:normal;font-variant:normal;font-weight:normal;font-stretch:normal;font-size:13.3233px;font-family:xkcd;-inkscape-font-specification:'xkcd, Normal';font-variant-ligatures:normal;font-variant-caps:normal;font-variant-numeric:normal;font-variant-east-asian:normal;stroke-width:0.264582"
             x="366.45023"
             y="209.26146">REDUCER</tspan></text>
        <text
           xml:space="preserve"
           style="font-style:normal;font-variant:normal;font-weight:normal;font-stretch:normal;font-size:8.06219px;line-height:1.25;font-family:xkcd;-inkscape-font-specification:'xkcd, Normal';font-variant-ligatures:normal;font-variant-caps:normal;font-variant-numeric:normal;font-variant-east-asian:normal;letter-spacing:0px;word-spacing:0px;stroke-width:0.264582"
           x="366.71936"
           y="222.92747"
           id="text4360"><tspan
             sodipodi:role="line"
             id="tspan4358"
             style="font-style:normal;font-variant:normal;font-weight:normal;font-stretch:normal;font-size:8.06219px;font-family:xkcd;-inkscape-font-specification:'xkcd, Normal';font-variant-ligatures:normal;font-variant-caps:normal;font-variant-numeric:normal;font-variant-east-asian:normal;stroke-width:0.264582"
             x="366.71936"
             y="222.92747">Operates or aggregates</tspan><tspan
             sodipodi:role="line"
             style="font-style:normal;font-variant:normal;font-weight:normal;font-stretch:normal;font-size:8.06219px;font-family:xkcd;-inkscape-font-specification:'xkcd, Normal';font-variant-ligatures:normal;font-variant-caps:normal;font-variant-numeric:normal;font-variant-east-asian:normal;stroke-width:0.264582"
             x="366.71936"
             y="233.00522"
             id="tspan6362">on sorted pairs</tspan></text>
      </g>
      <path
         style="opacity:1;fill:none;stroke:#2e3440;stroke-width:2;stroke-linecap:round;stroke-linejoin:round;stroke-miterlimit:4;stroke-dasharray:none;stroke-opacity:0.99938;stop-color:#000000"
         id="rect4798"
         width="102.87263"
         height="69.627853"
         x="362.24435"
         y="181.15685"
         inkscape:path-effect="#path-effect10412"
         d="m 361.93169,180.36017 c 5.38206,0.11034 11.1068,-0.002 16.7348,0.004 l 0,0 c 5.63138,0.006 11.14986,0.0843 16.84609,0.25 5.69623,0.16569 10.96931,-0.0339 16.31484,-0.10547 l 0,0 c 1.97648,-0.0265 4.02548,-0.0284 6.11813,-0.0169 m -4.44368,1.31795 c 5.67273,0.15827 11.0028,-0.0837 16.42958,-0.24248 l 1e-5,0 c 5.43005,-0.15888 11.00772,-0.0605 16.41249,-0.17969 l 0,0 c 3.49736,-0.0772 7.13822,-0.0237 10.81624,0.0619 m -4.42549,-0.21844 c 4.07905,-0.0953 8.10565,-0.17165 12.24221,-0.37422 0.0643,1.47801 0.14548,2.93662 0.25335,4.36707 0.38327,5.08219 -0.18408,11.32459 -0.55468,17.36953 l 0,0 c -0.32668,5.32838 0.16186,9.81619 0.70002,14.51468 m -0.62594,-4.55198 c -0.074,5.48446 -0.0321,10.96924 -0.0936,16.31665 -0.0616,5.35063 0.14716,10.88661 0.44532,16.05703 l 0,0 c 0.0891,1.54508 0.10263,3.1535 0.0646,4.79629 -3.96913,-0.0252 -8.22234,0.13875 -12.45007,0.11742 -6.02953,-0.0304 -11.01667,0.13237 -16.45546,0.40235 l -10e-6,0 c -3.21131,0.1594 -6.46963,0.16663 -9.71711,0.18965 m 4.74773,0.4122 c -5.66625,0.15825 -11.01549,-0.10017 -16.44913,-0.29717 l 0,0 c -5.43691,-0.19711 -11.07171,0.0239 -16.60781,0.0781 -5.5361,0.0542 -10.9104,0.1405 -16.12344,0.42578 -3.8111,0.20856 -7.95873,0.16454 -12.06499,0.20349 m 4.58626,0.16364 c -4.10447,-0.0238 -8.1409,-0.1829 -12.25608,-0.51664 -0.039,-1.64421 -0.0893,-3.31341 -0.1588,-5.00975 l 0,0 c -0.25338,-6.1837 -0.0652,-10.77043 -0.20312,-15.70156 -0.13792,-4.93114 0.14053,-11.33894 0.41796,-17.4125 l 0,0 c 0.0132,-0.28836 0.0249,-0.57417 0.0352,-0.8576 m 0.1057,4.19353 c 0.14534,-5.42214 -0.0487,-10.97092 -0.1487,-16.31675 l 0,-1e-5 c -0.1001,-5.34906 -0.13284,-11.17091 -0.40234,-16.90859 -0.0391,-0.83315 -0.0683,-1.65894 -0.0901,-2.47925 4.01637,-0.0865 8.22998,-0.0281 12.30688,-0.0776 m -12.58379,1.22827 c 5.59631,-0.12206 11.14695,-0.033 16.8516,-0.0935 5.70809,-0.0606 11.00846,-0.18006 16.41641,-0.54297 2.81285,-0.18877 5.76599,-0.13839 8.80668,-0.002 m -3.52223,0.95496 c 5.67691,0.0376 11.24587,-0.0538 17.15223,-0.16413 5.90992,-0.11039 10.86685,0.0687 15.99844,0.20703 5.13158,0.13829 11.15718,-0.2651 16.87343,-0.79687 l 0,0 c 5.31425,-0.49438 10.33582,0.0295 15.50597,0.29291 0.002,0.40907 0.005,0.81665 0.009,1.22218 0.019,1.99692 0.0287,3.95602 0.0359,5.90605 m -0.71532,-4.76561 c 0.14167,5.39607 0.14169,10.87984 0.42552,16.04727 0.284,5.17054 -0.005,11.36826 -0.0117,17.50234 -0.006,6.13409 -0.0903,10.75465 -0.27343,15.6625 l 0,1e-5 c -0.18315,4.90785 -0.0843,11.07706 -0.25,16.63124 -0.009,0.29671 -0.0169,0.59408 -0.0243,0.89215 -1.1071,0.009 -2.20461,0.0272 -3.29619,0.055 m 3.68737,-1.06016 c -0.0115,0.46408 -0.0215,0.92683 -0.0303,1.38847 -5.17568,0.0954 -10.19802,0.0511 -15.39535,0.17768 -5.66461,0.13795 -10.98173,-0.0809 -16.35,-0.23828 -5.36827,-0.15739 -11.11048,0.0199 -16.72891,0.0547 -2.90038,0.018 -5.76749,0.0247 -8.63709,0.0334 m 4.47595,-0.0804 c -5.40789,-0.0649 -10.98616,0.0376 -16.36757,0.11731 l 0,0 c -5.38465,0.0798 -10.88958,-0.0518 -16.06875,-0.15235 -5.17917,-0.10058 -11.18742,0.21983 -16.96328,0.66406 l 0,0 c -0.25905,0.0199 -0.51684,0.0382 -0.77343,0.0549 -0.17913,-4.92927 0.18597,-10.55989 0.45859,-15.73459 0.0487,-0.92385 0.0789,-1.85767 0.0948,-2.79975 m -0.64553,2.92063 c 0.0414,-5.67934 -0.10895,-11.09903 -0.3243,-16.70301 -0.21547,-5.60737 -0.0397,-10.94217 -0.11718,-16.225 -0.0775,-5.28284 0.0138,-11.09666 0.0351,-16.68985 0.007,-1.94595 0.0229,-3.86859 0.0494,-5.77548 1.60147,0.015 3.2103,0.0406 4.82806,0.0726"
         sodipodi:type="rect" />
    </g>
  </g>
</svg>
