<?xml version="1.0" encoding="UTF-8"?>
<svg xmlns="http://www.w3.org/2000/svg" xmlns:xlink="http://www.w3.org/1999/xlink" width="326.164" height="73.62" viewBox="0 0 326.164 73.62">
<defs>
<clipPath id="clip-0">
<path clip-rule="nonzero" d="M 0 0 L 326.164062 0 L 326.164062 48 L 0 48 Z M 0 0 "/>
</clipPath>
<clipPath id="clip-1">
<path clip-rule="nonzero" d="M 0 25 L 326.164062 25 L 326.164062 73.621094 L 0 73.621094 Z M 0 25 "/>
</clipPath>
</defs>
<g clip-path="url(#clip-0)">
<path fill="none" stroke-width="1.59404" stroke-linecap="butt" stroke-linejoin="miter" stroke="rgb(0%, 67.83905%, 93.728638%)" stroke-opacity="1" stroke-miterlimit="10" d="M -0.0009375 -0.001625 C -0.0009375 -0.001625 2.338906 2.342125 3.237344 3.193687 C 4.135781 4.04525 5.577187 5.385094 6.475625 6.131187 C 7.374062 6.877281 8.815469 7.986656 9.713906 8.568687 C 10.612344 9.150719 12.05375 9.943687 12.952188 10.314781 C 13.850625 10.681969 15.292031 11.096031 16.190469 11.221031 C 17.088906 11.349937 18.530313 11.349937 19.42875 11.221031 C 20.327188 11.096031 21.768594 10.681969 22.667031 10.314781 C 23.565469 9.943687 25.006875 9.150719 25.905313 8.568687 C 26.80375 7.986656 28.245156 6.877281 29.143594 6.131187 C 30.042031 5.385094 31.483438 4.04525 32.381875 3.193687 C 33.280313 2.342125 34.721719 0.885094 35.620156 -0.001625 C 36.518594 -0.884438 37.96 -2.345375 38.858438 -3.193031 C 39.756875 -4.044594 41.198281 -5.384438 42.096719 -6.130531 C 42.995156 -6.876625 44.436563 -7.989906 45.335 -8.568031 C 46.233438 -9.150063 47.674844 -9.946938 48.573281 -10.314125 C 49.471719 -10.681313 50.913125 -11.095375 51.811563 -11.224281 C 52.71 -11.349281 54.151406 -11.349281 55.049844 -11.224281 C 55.948281 -11.095375 57.389688 -10.681313 58.288125 -10.314125 C 59.186563 -9.946938 60.627969 -9.150063 61.526406 -8.568031 C 62.424844 -7.989906 63.86625 -6.876625 64.764687 -6.130531 C 65.663125 -5.384438 67.104531 -4.044594 68.002969 -3.193031 C 68.901406 -2.345375 70.342812 -0.884438 71.24125 -0.001625 C 72.139687 0.885094 73.581094 2.342125 74.479531 3.193687 C 75.377969 4.04525 76.819375 5.385094 77.717812 6.131187 C 78.61625 6.877281 80.057656 7.986656 80.956094 8.568687 C 81.854531 9.150719 83.295937 9.943687 84.194375 10.314781 C 85.092812 10.681969 86.534219 11.096031 87.432656 11.221031 C 88.331094 11.349937 89.7725 11.349937 90.670937 11.221031 C 91.569375 11.096031 93.010781 10.681969 93.909219 10.314781 C 94.807656 9.943687 96.249062 9.150719 97.1475 8.568687 C 98.045937 7.986656 99.487344 6.877281 100.385781 6.131187 C 101.284219 5.385094 102.725625 4.04525 103.624062 3.193687 C 104.5225 2.342125 105.963906 0.885094 106.862344 -0.001625 C 107.760781 -0.884438 109.202187 -2.345375 110.100625 -3.193031 C 110.999062 -4.044594 112.440469 -5.384438 113.338906 -6.130531 C 114.237344 -6.876625 115.67875 -7.989906 116.577187 -8.568031 C 117.475625 -9.150063 118.917031 -9.946938 119.815469 -10.314125 C 120.713906 -10.681313 122.155312 -11.095375 123.05375 -11.224281 C 123.952187 -11.349281 125.393594 -11.349281 126.292031 -11.224281 C 127.190469 -11.095375 128.631875 -10.681313 129.530313 -10.314125 C 130.42875 -9.946938 131.870156 -9.150063 132.768594 -8.568031 C 133.667031 -7.989906 135.108438 -6.876625 136.006875 -6.130531 C 136.905313 -5.384438 138.346719 -4.044594 139.245156 -3.193031 C 140.143594 -2.345375 141.585 -0.888344 142.483438 -0.001625 C 143.381875 0.885094 144.823281 2.342125 145.721719 3.193687 C 146.620156 4.04525 148.061563 5.385094 148.96 6.131187 C 149.858438 6.873375 151.299844 7.986656 152.198281 8.568687 C 153.096719 9.150719 154.538125 9.943687 155.436563 10.314781 C 156.335 10.681969 157.776406 11.096031 158.674844 11.221031 C 159.573281 11.349937 161.014688 11.349937 161.913125 11.221031 C 162.811563 11.096031 164.252969 10.681969 165.151406 10.314781 C 166.049844 9.943687 167.49125 9.150719 168.389688 8.568687 C 169.288125 7.986656 170.729531 6.877281 171.627969 6.131187 C 172.526406 5.385094 173.967813 4.04525 174.86625 3.193687 C 175.764688 2.342125 177.206094 0.885094 178.104531 -0.001625 C 179.002969 -0.884438 180.444375 -2.341469 181.342813 -3.193031 C 182.24125 -4.044594 183.682656 -5.384438 184.581094 -6.130531 C 185.479531 -6.876625 186.920938 -7.989906 187.819375 -8.568031 C 188.717813 -9.150063 190.159219 -9.943031 191.057656 -10.314125 C 191.956094 -10.681313 193.3975 -11.095375 194.295938 -11.224281 C 195.194375 -11.349281 196.635781 -11.349281 197.534219 -11.224281 C 198.432656 -11.095375 199.874063 -10.681313 200.7725 -10.314125 C 201.670938 -9.946938 203.112344 -9.150063 204.010781 -8.568031 C 204.909219 -7.989906 206.350625 -6.876625 207.249063 -6.130531 C 208.1475 -5.384438 209.588906 -4.044594 210.487344 -3.193031 C 211.385781 -2.345375 212.827188 -0.888344 213.725625 -0.001625 C 214.624063 0.885094 216.065469 2.342125 216.963906 3.193687 C 217.862344 4.04525 219.30375 5.385094 220.202188 6.131187 C 221.100625 6.873375 222.542031 7.986656 223.440469 8.568687 C 224.338906 9.150719 225.780313 9.943687 226.67875 10.314781 C 227.577188 10.681969 229.018594 11.096031 229.917031 11.221031 C 230.815469 11.349937 232.256875 11.349937 233.155313 11.221031 C 234.05375 11.096031 235.495156 10.681969 236.393594 10.314781 C 237.292031 9.943687 238.733438 9.150719 239.631875 8.568687 C 240.530313 7.990562 241.971719 6.877281 242.870156 6.131187 C 243.768594 5.385094 245.21 4.04525 246.108438 3.193687 C 247.006875 2.346031 248.448281 0.885094 249.346719 0.00228125 C 250.245156 -0.884438 251.686563 -2.341469 252.585 -3.193031 C 253.483438 -4.044594 254.924844 -5.384438 255.823281 -6.130531 C 256.721719 -6.876625 258.163125 -7.989906 259.061562 -8.568031 C 259.96 -9.150063 261.401406 -9.943031 262.299844 -10.314125 C 263.198281 -10.681313 264.639687 -11.095375 265.538125 -11.224281 C 266.436562 -11.349281 267.877969 -11.349281 268.776406 -11.224281 C 269.674844 -11.095375 271.11625 -10.681313 272.014687 -10.314125 C 272.913125 -9.946938 274.354531 -9.150063 275.252969 -8.568031 C 276.151406 -7.989906 277.592812 -6.876625 278.49125 -6.130531 C 279.389687 -5.384438 280.831094 -4.044594 281.729531 -3.193031 C 282.627969 -2.345375 284.069375 -0.888344 284.967812 -0.001625 C 285.86625 0.885094 287.307656 2.342125 288.206094 3.193687 C 289.104531 4.04525 290.545937 5.385094 291.444375 6.131187 C 292.342812 6.873375 293.784219 7.986656 294.682656 8.568687 C 295.581094 9.150719 297.0225 9.943687 297.920937 10.314781 C 298.819375 10.681969 300.260781 11.096031 301.159219 11.221031 C 302.057656 11.349937 303.499062 11.349937 304.3975 11.221031 C 305.295937 11.096031 306.737344 10.681969 307.635781 10.314781 C 308.534219 9.943687 309.975625 9.150719 310.874062 8.568687 C 311.7725 7.990562 313.213906 6.877281 314.112344 6.131187 C 315.010781 5.385094 316.452187 4.04525 317.350625 3.193687 C 318.249062 2.346031 320.588906 0.00228125 320.588906 0.00228125 " transform="matrix(1, 0, 0, -1, 2.79, 14.139)"/>
</g>
<g clip-path="url(#clip-1)">
<path fill="none" stroke-width="1.59404" stroke-linecap="butt" stroke-linejoin="miter" stroke="rgb(100%, 0%, 0%)" stroke-opacity="1" stroke-miterlimit="10" d="M -0.0009375 -45.353188 C -0.0009375 -45.353188 2.338906 -44.185219 3.237344 -43.739906 C 4.135781 -43.2985 5.577187 -42.591469 6.475625 -42.161781 C 7.374062 -41.732094 8.815469 -41.052406 9.713906 -40.646156 C 10.612344 -40.236 12.05375 -39.603188 12.952188 -39.224281 C 13.850625 -38.849281 15.292031 -38.26725 16.190469 -37.927406 C 17.088906 -37.591469 18.530313 -37.07975 19.42875 -36.786781 C 20.327188 -36.493813 21.768594 -36.056313 22.667031 -35.818031 C 23.565469 -35.575844 25.006875 -35.228188 25.905313 -35.040688 C 26.80375 -34.853188 28.245156 -34.603188 29.143594 -34.474281 C 30.042031 -34.349281 31.483438 -34.196938 32.381875 -34.130531 C 33.280313 -34.068031 34.721719 -34.01725 35.620156 -34.01725 C 36.518594 -34.01725 37.96 -34.068031 38.858438 -34.130531 C 39.756875 -34.196938 41.198281 -34.349281 42.096719 -34.474281 C 42.995156 -34.603188 44.436563 -34.853188 45.335 -35.040688 C 46.233438 -35.228188 47.674844 -35.575844 48.573281 -35.814125 C 49.471719 -36.056313 50.913125 -36.493813 51.811563 -36.786781 C 52.71 -37.07975 54.151406 -37.591469 55.049844 -37.927406 C 55.948281 -38.26725 57.389688 -38.849281 58.288125 -39.224281 C 59.186563 -39.599281 60.627969 -40.236 61.526406 -40.646156 C 62.424844 -41.052406 63.86625 -41.732094 64.764687 -42.161781 C 65.663125 -42.587563 67.104531 -43.2985 68.002969 -43.739906 C 68.901406 -44.185219 70.342812 -44.907875 71.24125 -45.353188 C 72.139687 -45.802406 73.581094 -46.525063 74.479531 -46.966469 C 75.377969 -47.411781 76.819375 -48.118813 77.717812 -48.5485 C 78.61625 -48.978188 80.057656 -49.657875 80.956094 -50.064125 C 81.854531 -50.470375 83.295937 -51.107094 84.194375 -51.482094 C 85.092812 -51.861 86.534219 -52.439125 87.432656 -52.778969 C 88.331094 -53.118813 89.7725 -53.630531 90.670937 -53.9235 C 91.569375 -54.216469 93.010781 -54.650063 93.909219 -54.89225 C 94.807656 -55.134438 96.249062 -55.482094 97.1475 -55.665688 C 98.045937 -55.853188 99.487344 -56.107094 100.385781 -56.232094 C 101.284219 -56.357094 102.725625 -56.513344 103.624062 -56.575844 C 104.5225 -56.64225 105.963906 -56.693031 106.862344 -56.693031 C 107.760781 -56.693031 109.202187 -56.64225 110.100625 -56.575844 C 110.999062 -56.513344 112.440469 -56.357094 113.338906 -56.232094 C 114.237344 -56.107094 115.67875 -55.853188 116.577187 -55.665688 C 117.475625 -55.482094 118.917031 -55.134438 119.815469 -54.89225 C 120.713906 -54.650063 122.155312 -54.216469 123.05375 -53.9235 C 123.952187 -53.630531 125.393594 -53.118813 126.292031 -52.778969 C 127.190469 -52.439125 128.631875 -51.861 129.530313 -51.486 C 130.42875 -51.107094 131.870156 -50.470375 132.768594 -50.064125 C 133.667031 -49.657875 135.108438 -48.978188 136.006875 -48.5485 C 136.905313 -48.118813 138.346719 -47.411781 139.245156 -46.966469 C 140.143594 -46.525063 141.585 -45.802406 142.483438 -45.353188 C 143.381875 -44.907875 144.823281 -44.185219 145.721719 -43.739906 C 146.620156 -43.2985 148.061563 -42.591469 148.96 -42.161781 C 149.858438 -41.732094 151.299844 -41.052406 152.198281 -40.646156 C 153.096719 -40.236 154.538125 -39.603188 155.436563 -39.224281 C 156.335 -38.849281 157.776406 -38.26725 158.674844 -37.927406 C 159.573281 -37.591469 161.014688 -37.07975 161.913125 -36.786781 C 162.811563 -36.493813 164.252969 -36.056313 165.151406 -35.818031 C 166.049844 -35.575844 167.49125 -35.228188 168.389688 -35.040688 C 169.288125 -34.853188 170.729531 -34.603188 171.627969 -34.474281 C 172.526406 -34.349281 173.967813 -34.196938 174.86625 -34.130531 C 175.764688 -34.068031 177.206094 -34.01725 178.104531 -34.01725 C 179.002969 -34.01725 180.444375 -34.068031 181.342813 -34.130531 C 182.24125 -34.196938 183.682656 -34.349281 184.581094 -34.474281 C 185.479531 -34.603188 186.920938 -34.853188 187.819375 -35.040688 C 188.717813 -35.228188 190.159219 -35.575844 191.057656 -35.814125 C 191.956094 -36.056313 193.3975 -36.493813 194.295938 -36.786781 C 195.194375 -37.07975 196.635781 -37.591469 197.534219 -37.927406 C 198.432656 -38.26725 199.874063 -38.849281 200.7725 -39.224281 C 201.670938 -39.599281 203.112344 -40.236 204.010781 -40.64225 C 204.909219 -41.052406 206.350625 -41.732094 207.249063 -42.161781 C 208.1475 -42.587563 209.588906 -43.2985 210.487344 -43.739906 C 211.385781 -44.185219 212.827188 -44.907875 213.725625 -45.353188 C 214.624063 -45.802406 216.065469 -46.525063 216.963906 -46.966469 C 217.862344 -47.411781 219.30375 -48.118813 220.202188 -48.5485 C 221.100625 -48.978188 222.542031 -49.657875 223.440469 -50.064125 C 224.338906 -50.470375 225.780313 -51.107094 226.67875 -51.482094 C 227.577188 -51.861 229.018594 -52.439125 229.917031 -52.778969 C 230.815469 -53.118813 232.256875 -53.630531 233.155313 -53.9235 C 234.05375 -54.216469 235.495156 -54.650063 236.393594 -54.89225 C 237.292031 -55.134438 238.733438 -55.482094 239.631875 -55.665688 C 240.530313 -55.853188 241.971719 -56.107094 242.870156 -56.232094 C 243.768594 -56.357094 245.21 -56.513344 246.108438 -56.575844 C 247.006875 -56.64225 248.448281 -56.693031 249.346719 -56.693031 C 250.245156 -56.693031 251.686563 -56.64225 252.585 -56.575844 C 253.483438 -56.513344 254.924844 -56.357094 255.823281 -56.232094 C 256.721719 -56.107094 258.163125 -55.853188 259.061562 -55.665688 C 259.96 -55.482094 261.401406 -55.134438 262.299844 -54.89225 C 263.198281 -54.650063 264.639687 -54.216469 265.538125 -53.9235 C 266.436562 -53.630531 267.877969 -53.118813 268.776406 -52.778969 C 269.674844 -52.443031 271.11625 -51.861 272.014687 -51.486 C 272.913125 -51.107094 274.354531 -50.470375 275.252969 -50.064125 C 276.151406 -49.657875 277.592812 -48.978188 278.49125 -48.5485 C 279.389687 -48.118813 280.831094 -47.411781 281.729531 -46.966469 C 282.627969 -46.525063 284.069375 -45.802406 284.967812 -45.353188 C 285.86625 -44.907875 287.307656 -44.185219 288.206094 -43.739906 C 289.104531 -43.2985 290.545937 -42.591469 291.444375 -42.161781 C 292.342812 -41.732094 293.784219 -41.052406 294.682656 -40.646156 C 295.581094 -40.236 297.0225 -39.603188 297.920937 -39.224281 C 298.819375 -38.849281 300.260781 -38.26725 301.159219 -37.931313 C 302.057656 -37.591469 303.499062 -37.07975 304.3975 -36.786781 C 305.295937 -36.493813 306.737344 -36.060219 307.635781 -35.818031 C 308.534219 -35.575844 309.975625 -35.228188 310.874062 -35.040688 C 311.7725 -34.853188 313.213906 -34.603188 314.112344 -34.474281 C 315.010781 -34.349281 316.452187 -34.196938 317.350625 -34.130531 C 318.249062 -34.068031 320.588906 -34.01725 320.588906 -34.01725 " transform="matrix(1, 0, 0, -1, 2.79, 14.139)"/>
</g>
</svg>
