<?xml version="1.0" encoding="UTF-8"?>
<svg xmlns="http://www.w3.org/2000/svg" xmlns:xlink="http://www.w3.org/1999/xlink" width="139.428" height="111.081" viewBox="0 0 139.428 111.081">
<defs>
<clipPath id="clip-0">
<path clip-rule="nonzero" d="M 0 76 L 35 76 L 35 111.082031 L 0 111.082031 Z M 0 76 "/>
</clipPath>
<clipPath id="clip-1">
<path clip-rule="nonzero" d="M 19 76 L 64 76 L 64 111.082031 L 19 111.082031 Z M 19 76 "/>
</clipPath>
<clipPath id="clip-2">
<path clip-rule="nonzero" d="M 47 76 L 92 76 L 92 111.082031 L 47 111.082031 Z M 47 76 "/>
</clipPath>
<clipPath id="clip-3">
<path clip-rule="nonzero" d="M 76 76 L 120 76 L 120 111.082031 L 76 111.082031 Z M 76 76 "/>
</clipPath>
<clipPath id="clip-4">
<path clip-rule="nonzero" d="M 104 76 L 139.429688 76 L 139.429688 111.082031 L 104 111.082031 Z M 104 76 "/>
</clipPath>
<clipPath id="clip-5">
<path clip-rule="nonzero" d="M 104 47 L 139.429688 47 L 139.429688 92 L 104 92 Z M 104 47 "/>
</clipPath>
<clipPath id="clip-6">
<path clip-rule="nonzero" d="M 104 19 L 139.429688 19 L 139.429688 64 L 104 64 Z M 104 19 "/>
</clipPath>
</defs>
<path fill-rule="nonzero" fill="rgb(97.645569%, 14.901733%, 44.706726%)" fill-opacity="1" d="M 23.652344 98.058594 C 23.652344 92.1875 18.890625 87.429688 13.019531 87.429688 C 7.148438 87.429688 2.390625 92.1875 2.390625 98.058594 C 2.390625 103.929688 7.148438 108.691406 13.019531 108.691406 C 18.890625 108.691406 23.652344 103.929688 23.652344 98.058594 Z M 23.652344 98.058594 "/>
<g clip-path="url(#clip-0)">
<path fill="none" stroke-width="0.79701" stroke-linecap="butt" stroke-linejoin="miter" stroke="rgb(100%, 100%, 100%)" stroke-opacity="1" stroke-miterlimit="10" d="M 10.631344 0.00140625 C 10.631344 5.8725 5.869625 10.630313 -0.00146875 10.630313 C -5.872562 10.630313 -10.630375 5.8725 -10.630375 0.00140625 C -10.630375 -5.869687 -5.872562 -10.631406 -0.00146875 -10.631406 C 5.869625 -10.631406 10.631344 -5.869687 10.631344 0.00140625 Z M 10.631344 0.00140625 " transform="matrix(1, 0, 0, -1, 13.021, 98.06)"/>
</g>
<path fill-rule="nonzero" fill="rgb(97.645569%, 14.901733%, 44.706726%)" fill-opacity="1" d="M 51.996094 98.058594 C 51.996094 92.1875 47.238281 87.429688 41.367188 87.429688 C 35.496094 87.429688 30.738281 92.1875 30.738281 98.058594 C 30.738281 103.929688 35.496094 108.691406 41.367188 108.691406 C 47.238281 108.691406 51.996094 103.929688 51.996094 98.058594 Z M 51.996094 98.058594 "/>
<g clip-path="url(#clip-1)">
<path fill="none" stroke-width="0.79701" stroke-linecap="butt" stroke-linejoin="miter" stroke="rgb(100%, 100%, 100%)" stroke-opacity="1" stroke-miterlimit="10" d="M 38.975094 0.00140625 C 38.975094 5.8725 34.217281 10.630313 28.346187 10.630313 C 22.475094 10.630313 17.717281 5.8725 17.717281 0.00140625 C 17.717281 -5.869687 22.475094 -10.631406 28.346187 -10.631406 C 34.217281 -10.631406 38.975094 -5.869687 38.975094 0.00140625 Z M 38.975094 0.00140625 " transform="matrix(1, 0, 0, -1, 13.021, 98.06)"/>
</g>
<path fill-rule="nonzero" fill="rgb(97.645569%, 14.901733%, 44.706726%)" fill-opacity="1" d="M 80.34375 98.058594 C 80.34375 92.1875 75.585938 87.429688 69.714844 87.429688 C 63.84375 87.429688 59.085938 92.1875 59.085938 98.058594 C 59.085938 103.929688 63.84375 108.691406 69.714844 108.691406 C 75.585938 108.691406 80.34375 103.929688 80.34375 98.058594 Z M 80.34375 98.058594 "/>
<g clip-path="url(#clip-2)">
<path fill="none" stroke-width="0.79701" stroke-linecap="butt" stroke-linejoin="miter" stroke="rgb(100%, 100%, 100%)" stroke-opacity="1" stroke-miterlimit="10" d="M 67.32275 0.00140625 C 67.32275 5.8725 62.564937 10.630313 56.693844 10.630313 C 50.82275 10.630313 46.064937 5.8725 46.064937 0.00140625 C 46.064937 -5.869687 50.82275 -10.631406 56.693844 -10.631406 C 62.564937 -10.631406 67.32275 -5.869687 67.32275 0.00140625 Z M 67.32275 0.00140625 " transform="matrix(1, 0, 0, -1, 13.021, 98.06)"/>
</g>
<path fill-rule="nonzero" fill="rgb(97.645569%, 14.901733%, 44.706726%)" fill-opacity="1" d="M 108.691406 98.058594 C 108.691406 92.1875 103.933594 87.429688 98.0625 87.429688 C 92.191406 87.429688 87.429688 92.1875 87.429688 98.058594 C 87.429688 103.929688 92.191406 108.691406 98.0625 108.691406 C 103.933594 108.691406 108.691406 103.929688 108.691406 98.058594 Z M 108.691406 98.058594 "/>
<g clip-path="url(#clip-3)">
<path fill="none" stroke-width="0.79701" stroke-linecap="butt" stroke-linejoin="miter" stroke="rgb(100%, 100%, 100%)" stroke-opacity="1" stroke-miterlimit="10" d="M 95.670406 0.00140625 C 95.670406 5.8725 90.912594 10.630313 85.0415 10.630313 C 79.170406 10.630313 74.408687 5.8725 74.408687 0.00140625 C 74.408687 -5.869687 79.170406 -10.631406 85.0415 -10.631406 C 90.912594 -10.631406 95.670406 -5.869687 95.670406 0.00140625 Z M 95.670406 0.00140625 " transform="matrix(1, 0, 0, -1, 13.021, 98.06)"/>
</g>
<path fill-rule="nonzero" fill="rgb(97.645569%, 14.901733%, 44.706726%)" fill-opacity="1" d="M 137.039062 98.058594 C 137.039062 92.1875 132.277344 87.429688 126.410156 87.429688 C 120.539062 87.429688 115.777344 92.1875 115.777344 98.058594 C 115.777344 103.929688 120.539062 108.691406 126.410156 108.691406 C 132.277344 108.691406 137.039062 103.929688 137.039062 98.058594 Z M 137.039062 98.058594 "/>
<g clip-path="url(#clip-4)">
<path fill="none" stroke-width="0.79701" stroke-linecap="butt" stroke-linejoin="miter" stroke="rgb(100%, 100%, 100%)" stroke-opacity="1" stroke-miterlimit="10" d="M 124.018062 0.00140625 C 124.018062 5.8725 119.256344 10.630313 113.389156 10.630313 C 107.518062 10.630313 102.756344 5.8725 102.756344 0.00140625 C 102.756344 -5.869687 107.518062 -10.631406 113.389156 -10.631406 C 119.256344 -10.631406 124.018062 -5.869687 124.018062 0.00140625 Z M 124.018062 0.00140625 " transform="matrix(1, 0, 0, -1, 13.021, 98.06)"/>
</g>
<path fill-rule="nonzero" fill="rgb(97.645569%, 14.901733%, 44.706726%)" fill-opacity="1" stroke-width="0.79701" stroke-linecap="butt" stroke-linejoin="miter" stroke="rgb(100%, 100%, 100%)" stroke-opacity="1" stroke-miterlimit="10" d="M 10.631344 28.345156 C 10.631344 34.21625 5.869625 38.977969 -0.00146875 38.977969 C -5.872562 38.977969 -10.630375 34.21625 -10.630375 28.345156 C -10.630375 22.474063 -5.872562 17.71625 -0.00146875 17.71625 C 5.869625 17.71625 10.631344 22.474063 10.631344 28.345156 Z M 10.631344 28.345156 " transform="matrix(1, 0, 0, -1, 13.021, 98.06)"/>
<path fill-rule="nonzero" fill="rgb(97.645569%, 14.901733%, 44.706726%)" fill-opacity="1" stroke-width="0.79701" stroke-linecap="butt" stroke-linejoin="miter" stroke="rgb(100%, 100%, 100%)" stroke-opacity="1" stroke-miterlimit="10" d="M 38.975094 28.345156 C 38.975094 34.21625 34.217281 38.977969 28.346187 38.977969 C 22.475094 38.977969 17.717281 34.21625 17.717281 28.345156 C 17.717281 22.474063 22.475094 17.71625 28.346187 17.71625 C 34.217281 17.71625 38.975094 22.474063 38.975094 28.345156 Z M 38.975094 28.345156 " transform="matrix(1, 0, 0, -1, 13.021, 98.06)"/>
<path fill-rule="nonzero" fill="rgb(97.645569%, 14.901733%, 44.706726%)" fill-opacity="1" stroke-width="0.79701" stroke-linecap="butt" stroke-linejoin="miter" stroke="rgb(100%, 100%, 100%)" stroke-opacity="1" stroke-miterlimit="10" d="M 67.32275 28.345156 C 67.32275 34.21625 62.564937 38.977969 56.693844 38.977969 C 50.82275 38.977969 46.064937 34.21625 46.064937 28.345156 C 46.064937 22.474063 50.82275 17.71625 56.693844 17.71625 C 62.564937 17.71625 67.32275 22.474063 67.32275 28.345156 Z M 67.32275 28.345156 " transform="matrix(1, 0, 0, -1, 13.021, 98.06)"/>
<path fill-rule="nonzero" fill="rgb(97.645569%, 14.901733%, 44.706726%)" fill-opacity="1" stroke-width="0.79701" stroke-linecap="butt" stroke-linejoin="miter" stroke="rgb(100%, 100%, 100%)" stroke-opacity="1" stroke-miterlimit="10" d="M 95.670406 28.345156 C 95.670406 34.21625 90.912594 38.977969 85.0415 38.977969 C 79.170406 38.977969 74.408687 34.21625 74.408687 28.345156 C 74.408687 22.474063 79.170406 17.71625 85.0415 17.71625 C 90.912594 17.71625 95.670406 22.474063 95.670406 28.345156 Z M 95.670406 28.345156 " transform="matrix(1, 0, 0, -1, 13.021, 98.06)"/>
<path fill-rule="nonzero" fill="rgb(97.645569%, 14.901733%, 44.706726%)" fill-opacity="1" d="M 137.039062 69.714844 C 137.039062 63.84375 132.277344 59.082031 126.410156 59.082031 C 120.539062 59.082031 115.777344 63.84375 115.777344 69.714844 C 115.777344 75.585938 120.539062 80.34375 126.410156 80.34375 C 132.277344 80.34375 137.039062 75.585938 137.039062 69.714844 Z M 137.039062 69.714844 "/>
<g clip-path="url(#clip-5)">
<path fill="none" stroke-width="0.79701" stroke-linecap="butt" stroke-linejoin="miter" stroke="rgb(100%, 100%, 100%)" stroke-opacity="1" stroke-miterlimit="10" d="M 124.018062 28.345156 C 124.018062 34.21625 119.256344 38.977969 113.389156 38.977969 C 107.518062 38.977969 102.756344 34.21625 102.756344 28.345156 C 102.756344 22.474063 107.518062 17.71625 113.389156 17.71625 C 119.256344 17.71625 124.018062 22.474063 124.018062 28.345156 Z M 124.018062 28.345156 " transform="matrix(1, 0, 0, -1, 13.021, 98.06)"/>
</g>
<path fill-rule="nonzero" fill="rgb(97.645569%, 14.901733%, 44.706726%)" fill-opacity="1" stroke-width="0.79701" stroke-linecap="butt" stroke-linejoin="miter" stroke="rgb(100%, 100%, 100%)" stroke-opacity="1" stroke-miterlimit="10" d="M 10.631344 56.692813 C 10.631344 62.563906 5.869625 67.321719 -0.00146875 67.321719 C -5.872562 67.321719 -10.630375 62.563906 -10.630375 56.692813 C -10.630375 50.821719 -5.872562 46.063906 -0.00146875 46.063906 C 5.869625 46.063906 10.631344 50.821719 10.631344 56.692813 Z M 10.631344 56.692813 " transform="matrix(1, 0, 0, -1, 13.021, 98.06)"/>
<path fill-rule="nonzero" fill="rgb(97.645569%, 14.901733%, 44.706726%)" fill-opacity="1" stroke-width="0.79701" stroke-linecap="butt" stroke-linejoin="miter" stroke="rgb(100%, 100%, 100%)" stroke-opacity="1" stroke-miterlimit="10" d="M 38.975094 56.692813 C 38.975094 62.563906 34.217281 67.321719 28.346187 67.321719 C 22.475094 67.321719 17.717281 62.563906 17.717281 56.692813 C 17.717281 50.821719 22.475094 46.063906 28.346187 46.063906 C 34.217281 46.063906 38.975094 50.821719 38.975094 56.692813 Z M 38.975094 56.692813 " transform="matrix(1, 0, 0, -1, 13.021, 98.06)"/>
<path fill-rule="nonzero" fill="rgb(97.645569%, 14.901733%, 44.706726%)" fill-opacity="1" stroke-width="0.79701" stroke-linecap="butt" stroke-linejoin="miter" stroke="rgb(100%, 100%, 100%)" stroke-opacity="1" stroke-miterlimit="10" d="M 67.32275 56.692813 C 67.32275 62.563906 62.564937 67.321719 56.693844 67.321719 C 50.82275 67.321719 46.064937 62.563906 46.064937 56.692813 C 46.064937 50.821719 50.82275 46.063906 56.693844 46.063906 C 62.564937 46.063906 67.32275 50.821719 67.32275 56.692813 Z M 67.32275 56.692813 " transform="matrix(1, 0, 0, -1, 13.021, 98.06)"/>
<path fill-rule="nonzero" fill="rgb(97.645569%, 14.901733%, 44.706726%)" fill-opacity="1" stroke-width="0.79701" stroke-linecap="butt" stroke-linejoin="miter" stroke="rgb(100%, 100%, 100%)" stroke-opacity="1" stroke-miterlimit="10" d="M 95.670406 56.692813 C 95.670406 62.563906 90.912594 67.321719 85.0415 67.321719 C 79.170406 67.321719 74.408687 62.563906 74.408687 56.692813 C 74.408687 50.821719 79.170406 46.063906 85.0415 46.063906 C 90.912594 46.063906 95.670406 50.821719 95.670406 56.692813 Z M 95.670406 56.692813 " transform="matrix(1, 0, 0, -1, 13.021, 98.06)"/>
<path fill-rule="nonzero" fill="rgb(97.645569%, 14.901733%, 44.706726%)" fill-opacity="1" d="M 137.039062 41.367188 C 137.039062 35.496094 132.277344 30.738281 126.410156 30.738281 C 120.539062 30.738281 115.777344 35.496094 115.777344 41.367188 C 115.777344 47.238281 120.539062 51.996094 126.410156 51.996094 C 132.277344 51.996094 137.039062 47.238281 137.039062 41.367188 Z M 137.039062 41.367188 "/>
<g clip-path="url(#clip-6)">
<path fill="none" stroke-width="0.79701" stroke-linecap="butt" stroke-linejoin="miter" stroke="rgb(100%, 100%, 100%)" stroke-opacity="1" stroke-miterlimit="10" d="M 124.018062 56.692813 C 124.018062 62.563906 119.256344 67.321719 113.389156 67.321719 C 107.518062 67.321719 102.756344 62.563906 102.756344 56.692813 C 102.756344 50.821719 107.518062 46.063906 113.389156 46.063906 C 119.256344 46.063906 124.018062 50.821719 124.018062 56.692813 Z M 124.018062 56.692813 " transform="matrix(1, 0, 0, -1, 13.021, 98.06)"/>
</g>
<path fill-rule="nonzero" fill="rgb(97.645569%, 14.901733%, 44.706726%)" fill-opacity="1" stroke-width="0.79701" stroke-linecap="butt" stroke-linejoin="miter" stroke="rgb(100%, 100%, 100%)" stroke-opacity="1" stroke-miterlimit="10" d="M 10.631344 85.040469 C 10.631344 90.911563 5.869625 95.669375 -0.00146875 95.669375 C -5.872562 95.669375 -10.630375 90.911563 -10.630375 85.040469 C -10.630375 79.169375 -5.872562 74.411563 -0.00146875 74.411563 C 5.869625 74.411563 10.631344 79.169375 10.631344 85.040469 Z M 10.631344 85.040469 " transform="matrix(1, 0, 0, -1, 13.021, 98.06)"/>
<path fill-rule="nonzero" fill="rgb(97.645569%, 14.901733%, 44.706726%)" fill-opacity="1" stroke-width="0.79701" stroke-linecap="butt" stroke-linejoin="miter" stroke="rgb(100%, 100%, 100%)" stroke-opacity="1" stroke-miterlimit="10" d="M 38.975094 85.040469 C 38.975094 90.911563 34.217281 95.669375 28.346187 95.669375 C 22.475094 95.669375 17.717281 90.911563 17.717281 85.040469 C 17.717281 79.169375 22.475094 74.411563 28.346187 74.411563 C 34.217281 74.411563 38.975094 79.169375 38.975094 85.040469 Z M 38.975094 85.040469 " transform="matrix(1, 0, 0, -1, 13.021, 98.06)"/>
<path fill-rule="nonzero" fill="rgb(97.645569%, 14.901733%, 44.706726%)" fill-opacity="1" stroke-width="0.79701" stroke-linecap="butt" stroke-linejoin="miter" stroke="rgb(100%, 100%, 100%)" stroke-opacity="1" stroke-miterlimit="10" d="M 67.32275 85.040469 C 67.32275 90.911563 62.564937 95.669375 56.693844 95.669375 C 50.82275 95.669375 46.064937 90.911563 46.064937 85.040469 C 46.064937 79.169375 50.82275 74.411563 56.693844 74.411563 C 62.564937 74.411563 67.32275 79.169375 67.32275 85.040469 Z M 67.32275 85.040469 " transform="matrix(1, 0, 0, -1, 13.021, 98.06)"/>
</svg>
