<?xml version="1.0" encoding="UTF-8"?>
<svg xmlns="http://www.w3.org/2000/svg" xmlns:xlink="http://www.w3.org/1999/xlink" width="103.044pt" height="103.044pt" viewBox="0 0 103.044 103.044" version="1.1">
<defs>
<clipPath id="clip1">
  <path d="M 0 61 L 59 61 L 59 103.042969 L 0 103.042969 Z M 0 61 "/>
</clipPath>
<clipPath id="clip2">
  <path d="M 0 36 L 63 36 L 63 103.042969 L 0 103.042969 Z M 0 36 "/>
</clipPath>
<clipPath id="clip3">
  <path d="M 37 52 L 103 52 L 103 103.042969 L 37 103.042969 Z M 37 52 "/>
</clipPath>
<clipPath id="clip4">
  <path d="M 28 71 L 75 71 L 75 103.042969 L 28 103.042969 Z M 28 71 "/>
</clipPath>
<clipPath id="clip5">
  <path d="M 71 43 L 103.042969 43 L 103.042969 89 L 71 89 Z M 71 43 "/>
</clipPath>
<clipPath id="clip6">
  <path d="M 71 14 L 103.042969 14 L 103.042969 60 L 71 60 Z M 71 14 "/>
</clipPath>
</defs>
<g id="surface1">
<g clip-path="url(#clip1)" clip-rule="nonzero">
<path style="fill:none;stroke-width:1.49442;stroke-linecap:butt;stroke-linejoin:miter;stroke:rgb(12.940979%,74.900818%,76.075745%);stroke-opacity:1;stroke-miterlimit:10;" d="M 8.068312 -2.689594 C 18.392531 -6.131 24.130812 -8.045062 28.244094 -9.416156 " transform="matrix(1,0,0,-1,9.002,79.869)"/>
</g>
<path style=" stroke:none;fill-rule:nonzero;fill:rgb(12.940979%,74.900818%,76.075745%);fill-opacity:1;" d="M 43.453125 91.351562 C 41.730469 90.394531 39.085938 88.363281 37.417969 86.464844 L 35.691406 91.640625 C 38.164062 91.125 41.5 91.085938 43.453125 91.351562 "/>
<path style="fill:none;stroke-width:1.49442;stroke-linecap:butt;stroke-linejoin:miter;stroke:rgb(12.940979%,74.900818%,76.075745%);stroke-opacity:1;stroke-miterlimit:10;" d="M 8.068312 2.689313 C 18.392531 6.130719 24.130812 8.044781 28.244094 9.415875 " transform="matrix(1,0,0,-1,9.002,79.869)"/>
<path style=" stroke:none;fill-rule:nonzero;fill:rgb(12.940979%,74.900818%,76.075745%);fill-opacity:1;" d="M 43.453125 68.382812 C 41.5 68.652344 38.164062 68.613281 35.691406 68.097656 L 37.417969 73.269531 C 39.085938 71.375 41.730469 69.34375 43.453125 68.382812 "/>
<path style="fill:none;stroke-width:1.49442;stroke-linecap:butt;stroke-linejoin:miter;stroke:rgb(12.940979%,74.900818%,76.075745%);stroke-opacity:1;stroke-miterlimit:10;" d="M 6.013625 6.013531 C 17.951125 17.951031 24.568312 24.568219 31.876906 31.876813 " transform="matrix(1,0,0,-1,9.002,79.869)"/>
<path style=" stroke:none;fill-rule:nonzero;fill:rgb(12.940979%,74.900818%,76.075745%);fill-opacity:1;" d="M 45.507812 43.363281 C 43.878906 44.476562 40.878906 45.933594 38.4375 46.578125 L 42.292969 50.433594 C 42.9375 47.992188 44.394531 44.992188 45.507812 43.363281 "/>
<path style="fill:none;stroke-width:1.49442;stroke-linecap:butt;stroke-linejoin:miter;stroke:rgb(12.940979%,74.900818%,76.075745%);stroke-opacity:1;stroke-miterlimit:10;" d="M 4.376906 7.290875 C 17.568312 29.279156 24.955031 41.58775 34.77925 57.96275 " transform="matrix(1,0,0,-1,9.002,79.869)"/>
<path style=" stroke:none;fill-rule:nonzero;fill:rgb(12.940979%,74.900818%,76.075745%);fill-opacity:1;" d="M 47.148438 16.292969 C 45.835938 17.769531 43.28125 19.910156 41.066406 21.128906 L 45.742188 23.933594 C 45.773438 21.40625 46.460938 18.144531 47.148438 16.292969 "/>
<g clip-path="url(#clip2)" clip-rule="nonzero">
<path style="fill:none;stroke-width:1.49442;stroke-linecap:butt;stroke-linejoin:miter;stroke:rgb(12.940979%,74.900818%,76.075745%);stroke-opacity:1;stroke-miterlimit:10;" d="M 6.013625 22.333844 C 17.951125 10.392438 24.568312 3.779156 31.876906 -3.533344 " transform="matrix(1,0,0,-1,9.002,79.869)"/>
</g>
<path style=" stroke:none;fill-rule:nonzero;fill:rgb(12.940979%,74.900818%,76.075745%);fill-opacity:1;" d="M 45.507812 88.027344 C 44.394531 86.402344 42.9375 83.402344 42.292969 80.957031 L 38.4375 84.816406 C 40.878906 85.457031 43.878906 86.914062 45.507812 88.027344 "/>
<path style="fill:none;stroke-width:1.49442;stroke-linecap:butt;stroke-linejoin:miter;stroke:rgb(12.940979%,74.900818%,76.075745%);stroke-opacity:1;stroke-miterlimit:10;" d="M 8.068312 25.658063 C 18.392531 22.216656 24.130812 20.302594 28.244094 18.9315 " transform="matrix(1,0,0,-1,9.002,79.869)"/>
<path style=" stroke:none;fill-rule:nonzero;fill:rgb(12.940979%,74.900818%,76.075745%);fill-opacity:1;" d="M 43.453125 63.007812 C 41.730469 62.046875 39.085938 60.015625 37.417969 58.121094 L 35.691406 63.292969 C 38.164062 62.777344 41.5 62.738281 43.453125 63.007812 "/>
<path style="fill:none;stroke-width:1.49442;stroke-linecap:butt;stroke-linejoin:miter;stroke:rgb(12.940979%,74.900818%,76.075745%);stroke-opacity:1;stroke-miterlimit:10;" d="M 8.068312 31.036969 C 18.392531 34.478375 24.130812 36.388531 28.244094 37.759625 " transform="matrix(1,0,0,-1,9.002,79.869)"/>
<path style=" stroke:none;fill-rule:nonzero;fill:rgb(12.940979%,74.900818%,76.075745%);fill-opacity:1;" d="M 43.453125 40.039062 C 41.5 40.304688 38.164062 40.269531 35.691406 39.75 L 37.417969 44.925781 C 39.085938 43.027344 41.730469 40.996094 43.453125 40.039062 "/>
<path style="fill:none;stroke-width:1.49442;stroke-linecap:butt;stroke-linejoin:miter;stroke:rgb(12.940979%,74.900818%,76.075745%);stroke-opacity:1;stroke-miterlimit:10;" d="M 6.013625 34.361188 C 17.951125 46.298688 24.568312 52.915875 31.876906 60.224469 " transform="matrix(1,0,0,-1,9.002,79.869)"/>
<path style=" stroke:none;fill-rule:nonzero;fill:rgb(12.940979%,74.900818%,76.075745%);fill-opacity:1;" d="M 45.507812 15.015625 C 43.878906 16.128906 40.878906 17.585938 38.4375 18.230469 L 42.292969 22.085938 C 42.9375 19.644531 44.394531 16.644531 45.507812 15.015625 "/>
<path style="fill:none;stroke-width:1.49442;stroke-linecap:butt;stroke-linejoin:miter;stroke:rgb(12.940979%,74.900818%,76.075745%);stroke-opacity:1;stroke-miterlimit:10;" d="M 4.376906 49.40025 C 17.568312 27.415875 24.955031 15.103375 34.77925 -1.267719 " transform="matrix(1,0,0,-1,9.002,79.869)"/>
<path style=" stroke:none;fill-rule:nonzero;fill:rgb(12.940979%,74.900818%,76.075745%);fill-opacity:1;" d="M 47.148438 86.75 C 46.460938 84.898438 45.773438 81.636719 45.742188 79.109375 L 41.066406 81.917969 C 43.28125 83.132812 45.835938 85.273438 47.148438 86.75 "/>
<path style="fill:none;stroke-width:1.49442;stroke-linecap:butt;stroke-linejoin:miter;stroke:rgb(12.940979%,74.900818%,76.075745%);stroke-opacity:1;stroke-miterlimit:10;" d="M 6.013625 50.6815 C 17.951125 38.740094 24.568312 32.126813 31.876906 24.814313 " transform="matrix(1,0,0,-1,9.002,79.869)"/>
<path style=" stroke:none;fill-rule:nonzero;fill:rgb(12.940979%,74.900818%,76.075745%);fill-opacity:1;" d="M 45.507812 59.683594 C 44.394531 58.054688 42.9375 55.054688 42.292969 52.609375 L 38.4375 56.46875 C 40.878906 57.109375 43.878906 58.566406 45.507812 59.683594 "/>
<path style="fill:none;stroke-width:1.49442;stroke-linecap:butt;stroke-linejoin:miter;stroke:rgb(12.940979%,74.900818%,76.075745%);stroke-opacity:1;stroke-miterlimit:10;" d="M 8.068312 54.005719 C 18.392531 50.564313 24.130812 48.65025 28.244094 47.279156 " transform="matrix(1,0,0,-1,9.002,79.869)"/>
<path style=" stroke:none;fill-rule:nonzero;fill:rgb(12.940979%,74.900818%,76.075745%);fill-opacity:1;" d="M 43.453125 34.660156 C 41.730469 33.703125 39.085938 31.671875 37.417969 29.773438 L 35.691406 34.949219 C 38.164062 34.429688 41.5 34.390625 43.453125 34.660156 "/>
<path style="fill:none;stroke-width:1.49442;stroke-linecap:butt;stroke-linejoin:miter;stroke:rgb(12.940979%,74.900818%,76.075745%);stroke-opacity:1;stroke-miterlimit:10;" d="M 8.068312 59.384625 C 18.392531 62.822125 24.130812 64.736188 28.244094 66.107281 " transform="matrix(1,0,0,-1,9.002,79.869)"/>
<path style=" stroke:none;fill-rule:nonzero;fill:rgb(12.940979%,74.900818%,76.075745%);fill-opacity:1;" d="M 43.453125 11.691406 C 41.5 11.960938 38.164062 11.921875 35.691406 11.402344 L 37.417969 16.578125 C 39.085938 14.679688 41.730469 12.648438 43.453125 11.691406 "/>
<g clip-path="url(#clip3)" clip-rule="nonzero">
<path style="fill:none;stroke-width:1.49442;stroke-linecap:butt;stroke-linejoin:miter;stroke:rgb(12.940979%,74.900818%,76.075745%);stroke-opacity:1;stroke-miterlimit:10;" d="M 49.595656 -9.455219 C 60.701125 -2.052875 66.857375 2.052594 72.517531 5.826031 " transform="matrix(1,0,0,-1,9.002,79.869)"/>
</g>
<path style=" stroke:none;fill-rule:nonzero;fill:rgb(12.940979%,74.900818%,76.075745%);fill-opacity:1;" d="M 86.96875 70.414062 C 85.152344 71.1875 81.925781 72.027344 79.402344 72.175781 L 82.429688 76.714844 C 83.539062 74.445312 85.554688 71.789062 86.96875 70.414062 "/>
<path style="fill:none;stroke-width:1.49442;stroke-linecap:butt;stroke-linejoin:miter;stroke:rgb(12.940979%,74.900818%,76.075745%);stroke-opacity:1;stroke-miterlimit:10;" d="M 51.025344 14.173688 C 60.974562 14.173688 66.587844 14.173688 69.990188 14.173688 " transform="matrix(1,0,0,-1,9.002,79.869)"/>
<path style=" stroke:none;fill-rule:nonzero;fill:rgb(12.940979%,74.900818%,76.075745%);fill-opacity:1;" d="M 85.539062 65.695312 C 83.597656 65.332031 80.449219 64.242188 78.265625 62.96875 L 78.265625 68.421875 C 80.449219 67.148438 83.597656 66.058594 85.539062 65.695312 "/>
<path style="fill:none;stroke-width:1.49442;stroke-linecap:butt;stroke-linejoin:miter;stroke:rgb(12.940979%,74.900818%,76.075745%);stroke-opacity:1;stroke-miterlimit:10;" d="M 49.595656 37.802594 C 60.701125 30.40025 66.857375 26.294781 72.517531 22.521344 " transform="matrix(1,0,0,-1,9.002,79.869)"/>
<path style=" stroke:none;fill-rule:nonzero;fill:rgb(12.940979%,74.900818%,76.075745%);fill-opacity:1;" d="M 86.96875 60.980469 C 85.554688 59.601562 83.539062 56.945312 82.429688 54.675781 L 79.402344 59.214844 C 81.925781 59.363281 85.152344 60.207031 86.96875 60.980469 "/>
<path style="fill:none;stroke-width:1.49442;stroke-linecap:butt;stroke-linejoin:miter;stroke:rgb(12.940979%,74.900818%,76.075745%);stroke-opacity:1;stroke-miterlimit:10;" d="M 51.025344 42.521344 C 60.974562 42.521344 66.587844 42.521344 69.990188 42.521344 " transform="matrix(1,0,0,-1,9.002,79.869)"/>
<path style=" stroke:none;fill-rule:nonzero;fill:rgb(12.940979%,74.900818%,76.075745%);fill-opacity:1;" d="M 85.539062 37.347656 C 83.597656 36.984375 80.449219 35.894531 78.265625 34.621094 L 78.265625 40.074219 C 80.449219 38.804688 83.597656 37.710938 85.539062 37.347656 "/>
<path style="fill:none;stroke-width:1.49442;stroke-linecap:butt;stroke-linejoin:miter;stroke:rgb(12.940979%,74.900818%,76.075745%);stroke-opacity:1;stroke-miterlimit:10;" d="M 49.595656 66.15025 C 60.701125 58.747906 66.857375 54.642438 72.517531 50.869 " transform="matrix(1,0,0,-1,9.002,79.869)"/>
<path style=" stroke:none;fill-rule:nonzero;fill:rgb(12.940979%,74.900818%,76.075745%);fill-opacity:1;" d="M 86.96875 32.632812 C 85.554688 31.253906 83.539062 28.597656 82.429688 26.328125 L 79.402344 30.867188 C 81.925781 31.019531 85.152344 31.859375 86.96875 32.632812 "/>
<path style="fill-rule:nonzero;fill:rgb(15.293884%,84.313965%,58.822632%);fill-opacity:1;stroke-width:0.99628;stroke-linecap:butt;stroke-linejoin:miter;stroke:rgb(0%,0%,0%);stroke-opacity:1;stroke-miterlimit:10;" d="M 8.505812 0.0018125 C 8.505812 4.697125 4.697219 8.505719 0.00190625 8.505719 C -4.697313 8.505719 -8.505906 4.697125 -8.505906 0.0018125 C -8.505906 -4.697406 -4.697313 -8.506 0.00190625 -8.506 C 4.697219 -8.506 8.505812 -4.697406 8.505812 0.0018125 Z M 8.505812 0.0018125 " transform="matrix(1,0,0,-1,9.002,79.869)"/>
<path style="fill-rule:nonzero;fill:rgb(15.293884%,84.313965%,58.822632%);fill-opacity:1;stroke-width:0.99628;stroke-linecap:butt;stroke-linejoin:miter;stroke:rgb(0%,0%,0%);stroke-opacity:1;stroke-miterlimit:10;" d="M 8.505812 28.345563 C 8.505812 33.044781 4.697219 36.849469 0.00190625 36.849469 C -4.697313 36.849469 -8.505906 33.044781 -8.505906 28.345563 C -8.505906 23.65025 -4.697313 19.841656 0.00190625 19.841656 C 4.697219 19.841656 8.505812 23.65025 8.505812 28.345563 Z M 8.505812 28.345563 " transform="matrix(1,0,0,-1,9.002,79.869)"/>
<path style="fill-rule:nonzero;fill:rgb(15.293884%,84.313965%,58.822632%);fill-opacity:1;stroke-width:0.99628;stroke-linecap:butt;stroke-linejoin:miter;stroke:rgb(0%,0%,0%);stroke-opacity:1;stroke-miterlimit:10;" d="M 8.505812 56.693219 C 8.505812 61.388531 4.697219 65.197125 0.00190625 65.197125 C -4.697313 65.197125 -8.505906 61.388531 -8.505906 56.693219 C -8.505906 51.997906 -4.697313 48.189313 0.00190625 48.189313 C 4.697219 48.189313 8.505812 51.997906 8.505812 56.693219 Z M 8.505812 56.693219 " transform="matrix(1,0,0,-1,9.002,79.869)"/>
<path style=" stroke:none;fill-rule:nonzero;fill:rgb(15.293884%,84.313965%,58.822632%);fill-opacity:1;" d="M 60.027344 94.042969 C 60.027344 89.34375 56.21875 85.539062 51.523438 85.539062 C 46.824219 85.539062 43.019531 89.34375 43.019531 94.042969 C 43.019531 98.738281 46.824219 102.546875 51.523438 102.546875 C 56.21875 102.546875 60.027344 98.738281 60.027344 94.042969 Z M 60.027344 94.042969 "/>
<g clip-path="url(#clip4)" clip-rule="nonzero">
<path style="fill:none;stroke-width:0.99628;stroke-linecap:butt;stroke-linejoin:miter;stroke:rgb(0%,0%,0%);stroke-opacity:1;stroke-miterlimit:10;" d="M 51.025344 -14.173969 C 51.025344 -9.47475 47.21675 -5.670062 42.521437 -5.670062 C 37.822219 -5.670062 34.017531 -9.47475 34.017531 -14.173969 C 34.017531 -18.869281 37.822219 -22.677875 42.521437 -22.677875 C 47.21675 -22.677875 51.025344 -18.869281 51.025344 -14.173969 Z M 51.025344 -14.173969 " transform="matrix(1,0,0,-1,9.002,79.869)"/>
</g>
<path style="fill-rule:nonzero;fill:rgb(15.293884%,84.313965%,58.822632%);fill-opacity:1;stroke-width:0.99628;stroke-linecap:butt;stroke-linejoin:miter;stroke:rgb(0%,0%,0%);stroke-opacity:1;stroke-miterlimit:10;" d="M 51.025344 14.173688 C 51.025344 18.869 47.21675 22.677594 42.521437 22.677594 C 37.822219 22.677594 34.017531 18.869 34.017531 14.173688 C 34.017531 9.478375 37.822219 5.669781 42.521437 5.669781 C 47.21675 5.669781 51.025344 9.478375 51.025344 14.173688 Z M 51.025344 14.173688 " transform="matrix(1,0,0,-1,9.002,79.869)"/>
<path style="fill-rule:nonzero;fill:rgb(15.293884%,84.313965%,58.822632%);fill-opacity:1;stroke-width:0.99628;stroke-linecap:butt;stroke-linejoin:miter;stroke:rgb(0%,0%,0%);stroke-opacity:1;stroke-miterlimit:10;" d="M 51.025344 42.521344 C 51.025344 47.216656 47.21675 51.02525 42.521437 51.02525 C 37.822219 51.02525 34.017531 47.216656 34.017531 42.521344 C 34.017531 37.822125 37.822219 34.017438 42.521437 34.017438 C 47.21675 34.017438 51.025344 37.822125 51.025344 42.521344 Z M 51.025344 42.521344 " transform="matrix(1,0,0,-1,9.002,79.869)"/>
<path style="fill-rule:nonzero;fill:rgb(15.293884%,84.313965%,58.822632%);fill-opacity:1;stroke-width:0.99628;stroke-linecap:butt;stroke-linejoin:miter;stroke:rgb(0%,0%,0%);stroke-opacity:1;stroke-miterlimit:10;" d="M 51.025344 70.865094 C 51.025344 75.564313 47.21675 79.372906 42.521437 79.372906 C 37.822219 79.372906 34.017531 75.564313 34.017531 70.865094 C 34.017531 66.169781 37.822219 62.361188 42.521437 62.361188 C 47.21675 62.361188 51.025344 66.169781 51.025344 70.865094 Z M 51.025344 70.865094 " transform="matrix(1,0,0,-1,9.002,79.869)"/>
<path style=" stroke:none;fill-rule:nonzero;fill:rgb(15.293884%,84.313965%,58.822632%);fill-opacity:1;" d="M 102.546875 65.695312 C 102.546875 61 98.738281 57.191406 94.042969 57.191406 C 89.34375 57.191406 85.539062 61 85.539062 65.695312 C 85.539062 70.390625 89.34375 74.199219 94.042969 74.199219 C 98.738281 74.199219 102.546875 70.390625 102.546875 65.695312 Z M 102.546875 65.695312 "/>
<g clip-path="url(#clip5)" clip-rule="nonzero">
<path style="fill:none;stroke-width:0.99628;stroke-linecap:butt;stroke-linejoin:miter;stroke:rgb(0%,0%,0%);stroke-opacity:1;stroke-miterlimit:10;" d="M 93.544875 14.173688 C 93.544875 18.869 89.736281 22.677594 85.040969 22.677594 C 80.34175 22.677594 76.537063 18.869 76.537063 14.173688 C 76.537063 9.478375 80.34175 5.669781 85.040969 5.669781 C 89.736281 5.669781 93.544875 9.478375 93.544875 14.173688 Z M 93.544875 14.173688 " transform="matrix(1,0,0,-1,9.002,79.869)"/>
</g>
<path style=" stroke:none;fill-rule:nonzero;fill:rgb(15.293884%,84.313965%,58.822632%);fill-opacity:1;" d="M 102.546875 37.347656 C 102.546875 32.652344 98.738281 28.84375 94.042969 28.84375 C 89.34375 28.84375 85.539062 32.652344 85.539062 37.347656 C 85.539062 42.046875 89.34375 45.851562 94.042969 45.851562 C 98.738281 45.851562 102.546875 42.046875 102.546875 37.347656 Z M 102.546875 37.347656 "/>
<g clip-path="url(#clip6)" clip-rule="nonzero">
<path style="fill:none;stroke-width:0.99628;stroke-linecap:butt;stroke-linejoin:miter;stroke:rgb(0%,0%,0%);stroke-opacity:1;stroke-miterlimit:10;" d="M 93.544875 42.521344 C 93.544875 47.216656 89.736281 51.02525 85.040969 51.02525 C 80.34175 51.02525 76.537063 47.216656 76.537063 42.521344 C 76.537063 37.822125 80.34175 34.017438 85.040969 34.017438 C 89.736281 34.017438 93.544875 37.822125 93.544875 42.521344 Z M 93.544875 42.521344 " transform="matrix(1,0,0,-1,9.002,79.869)"/>
</g>
</g>
</svg>
