<?xml version="1.0" encoding="UTF-8"?>
<svg xmlns="http://www.w3.org/2000/svg" xmlns:xlink="http://www.w3.org/1999/xlink" width="138.631" height="110.284" viewBox="0 0 138.631 110.284">
<path fill-rule="nonzero" fill="rgb(95.292664%, 54.508972%, 65.879822%)" fill-opacity="1" d="M 23.253906 97.660156 C 23.253906 91.792969 18.492188 87.03125 12.621094 87.03125 C 6.75 87.03125 1.992188 91.792969 1.992188 97.660156 C 1.992188 103.53125 6.75 108.292969 12.621094 108.292969 C 18.492188 108.292969 23.253906 103.53125 23.253906 97.660156 Z M 23.253906 97.660156 "/>
<path fill-rule="nonzero" fill="rgb(95.292664%, 54.508972%, 65.879822%)" fill-opacity="1" d="M 51.597656 97.660156 C 51.597656 91.792969 46.839844 87.03125 40.96875 87.03125 C 35.097656 87.03125 30.339844 91.792969 30.339844 97.660156 C 30.339844 103.53125 35.097656 108.292969 40.96875 108.292969 C 46.839844 108.292969 51.597656 103.53125 51.597656 97.660156 Z M 51.597656 97.660156 "/>
<path fill-rule="nonzero" fill="rgb(95.292664%, 54.508972%, 65.879822%)" fill-opacity="1" d="M 79.945312 97.660156 C 79.945312 91.792969 75.1875 87.03125 69.316406 87.03125 C 63.445312 87.03125 58.6875 91.792969 58.6875 97.660156 C 58.6875 103.53125 63.445312 108.292969 69.316406 108.292969 C 75.1875 108.292969 79.945312 103.53125 79.945312 97.660156 Z M 79.945312 97.660156 "/>
<path fill-rule="nonzero" fill="rgb(95.292664%, 54.508972%, 65.879822%)" fill-opacity="1" d="M 108.292969 97.660156 C 108.292969 91.792969 103.535156 87.03125 97.664062 87.03125 C 91.792969 87.03125 87.03125 91.792969 87.03125 97.660156 C 87.03125 103.53125 91.792969 108.292969 97.664062 108.292969 C 103.535156 108.292969 108.292969 103.53125 108.292969 97.660156 Z M 108.292969 97.660156 "/>
<path fill-rule="nonzero" fill="rgb(95.292664%, 54.508972%, 65.879822%)" fill-opacity="1" d="M 136.640625 97.660156 C 136.640625 91.792969 131.878906 87.03125 126.007812 87.03125 C 120.136719 87.03125 115.378906 91.792969 115.378906 97.660156 C 115.378906 103.53125 120.136719 108.292969 126.007812 108.292969 C 131.878906 108.292969 136.640625 103.53125 136.640625 97.660156 Z M 136.640625 97.660156 "/>
<path fill-rule="nonzero" fill="rgb(95.292664%, 54.508972%, 65.879822%)" fill-opacity="1" d="M 23.253906 69.316406 C 23.253906 63.445312 18.492188 58.683594 12.621094 58.683594 C 6.75 58.683594 1.992188 63.445312 1.992188 69.316406 C 1.992188 75.1875 6.75 79.945312 12.621094 79.945312 C 18.492188 79.945312 23.253906 75.1875 23.253906 69.316406 Z M 23.253906 69.316406 "/>
<path fill-rule="nonzero" fill="rgb(95.292664%, 54.508972%, 65.879822%)" fill-opacity="1" d="M 51.597656 69.316406 C 51.597656 63.445312 46.839844 58.683594 40.96875 58.683594 C 35.097656 58.683594 30.339844 63.445312 30.339844 69.316406 C 30.339844 75.1875 35.097656 79.945312 40.96875 79.945312 C 46.839844 79.945312 51.597656 75.1875 51.597656 69.316406 Z M 51.597656 69.316406 "/>
<path fill-rule="nonzero" fill="rgb(95.292664%, 54.508972%, 65.879822%)" fill-opacity="1" d="M 79.945312 69.316406 C 79.945312 63.445312 75.1875 58.683594 69.316406 58.683594 C 63.445312 58.683594 58.6875 63.445312 58.6875 69.316406 C 58.6875 75.1875 63.445312 79.945312 69.316406 79.945312 C 75.1875 79.945312 79.945312 75.1875 79.945312 69.316406 Z M 79.945312 69.316406 "/>
<path fill-rule="nonzero" fill="rgb(95.292664%, 54.508972%, 65.879822%)" fill-opacity="1" d="M 108.292969 69.316406 C 108.292969 63.445312 103.535156 58.683594 97.664062 58.683594 C 91.792969 58.683594 87.03125 63.445312 87.03125 69.316406 C 87.03125 75.1875 91.792969 79.945312 97.664062 79.945312 C 103.535156 79.945312 108.292969 75.1875 108.292969 69.316406 Z M 108.292969 69.316406 "/>
<path fill-rule="nonzero" fill="rgb(95.292664%, 54.508972%, 65.879822%)" fill-opacity="1" d="M 136.640625 69.316406 C 136.640625 63.445312 131.878906 58.683594 126.007812 58.683594 C 120.136719 58.683594 115.378906 63.445312 115.378906 69.316406 C 115.378906 75.1875 120.136719 79.945312 126.007812 79.945312 C 131.878906 79.945312 136.640625 75.1875 136.640625 69.316406 Z M 136.640625 69.316406 "/>
<path fill-rule="nonzero" fill="rgb(95.292664%, 54.508972%, 65.879822%)" fill-opacity="1" d="M 23.253906 40.96875 C 23.253906 35.097656 18.492188 30.339844 12.621094 30.339844 C 6.75 30.339844 1.992188 35.097656 1.992188 40.96875 C 1.992188 46.839844 6.75 51.597656 12.621094 51.597656 C 18.492188 51.597656 23.253906 46.839844 23.253906 40.96875 Z M 23.253906 40.96875 "/>
<path fill-rule="nonzero" fill="rgb(95.292664%, 54.508972%, 65.879822%)" fill-opacity="1" d="M 51.597656 40.96875 C 51.597656 35.097656 46.839844 30.339844 40.96875 30.339844 C 35.097656 30.339844 30.339844 35.097656 30.339844 40.96875 C 30.339844 46.839844 35.097656 51.597656 40.96875 51.597656 C 46.839844 51.597656 51.597656 46.839844 51.597656 40.96875 Z M 51.597656 40.96875 "/>
<path fill-rule="nonzero" fill="rgb(95.292664%, 54.508972%, 65.879822%)" fill-opacity="1" d="M 79.945312 40.96875 C 79.945312 35.097656 75.1875 30.339844 69.316406 30.339844 C 63.445312 30.339844 58.6875 35.097656 58.6875 40.96875 C 58.6875 46.839844 63.445312 51.597656 69.316406 51.597656 C 75.1875 51.597656 79.945312 46.839844 79.945312 40.96875 Z M 79.945312 40.96875 "/>
<path fill-rule="nonzero" fill="rgb(95.292664%, 54.508972%, 65.879822%)" fill-opacity="1" d="M 108.292969 40.96875 C 108.292969 35.097656 103.535156 30.339844 97.664062 30.339844 C 91.792969 30.339844 87.03125 35.097656 87.03125 40.96875 C 87.03125 46.839844 91.792969 51.597656 97.664062 51.597656 C 103.535156 51.597656 108.292969 46.839844 108.292969 40.96875 Z M 108.292969 40.96875 "/>
<path fill-rule="nonzero" fill="rgb(95.292664%, 54.508972%, 65.879822%)" fill-opacity="1" d="M 136.640625 40.96875 C 136.640625 35.097656 131.878906 30.339844 126.007812 30.339844 C 120.136719 30.339844 115.378906 35.097656 115.378906 40.96875 C 115.378906 46.839844 120.136719 51.597656 126.007812 51.597656 C 131.878906 51.597656 136.640625 46.839844 136.640625 40.96875 Z M 136.640625 40.96875 "/>
<path fill-rule="nonzero" fill="rgb(95.292664%, 54.508972%, 65.879822%)" fill-opacity="1" d="M 23.253906 12.621094 C 23.253906 6.75 18.492188 1.992188 12.621094 1.992188 C 6.75 1.992188 1.992188 6.75 1.992188 12.621094 C 1.992188 18.492188 6.75 23.25 12.621094 23.25 C 18.492188 23.25 23.253906 18.492188 23.253906 12.621094 Z M 23.253906 12.621094 "/>
<path fill-rule="nonzero" fill="rgb(95.292664%, 54.508972%, 65.879822%)" fill-opacity="1" d="M 51.597656 12.621094 C 51.597656 6.75 46.839844 1.992188 40.96875 1.992188 C 35.097656 1.992188 30.339844 6.75 30.339844 12.621094 C 30.339844 18.492188 35.097656 23.25 40.96875 23.25 C 46.839844 23.25 51.597656 18.492188 51.597656 12.621094 Z M 51.597656 12.621094 "/>
<path fill-rule="nonzero" fill="rgb(95.292664%, 54.508972%, 65.879822%)" fill-opacity="1" d="M 79.945312 12.621094 C 79.945312 6.75 75.1875 1.992188 69.316406 1.992188 C 63.445312 1.992188 58.6875 6.75 58.6875 12.621094 C 58.6875 18.492188 63.445312 23.25 69.316406 23.25 C 75.1875 23.25 79.945312 18.492188 79.945312 12.621094 Z M 79.945312 12.621094 "/>
</svg>
