<?xml version="1.0" encoding="UTF-8" standalone="no"?>
<!-- Created with Inkscape (http://www.inkscape.org/) -->

<svg
   width="141.4115mm"
   height="139.09561mm"
   viewBox="0 0 141.4115 139.09561"
   version="1.1"
   id="svg9961"
   inkscape:version="1.2.2 (b0a8486541, 2022-12-01)"
   sodipodi:docname="banana_dist.svg"
   inkscape:export-filename="banana_dist.png"
   inkscape:export-xdpi="96"
   inkscape:export-ydpi="96"
   xmlns:inkscape="http://www.inkscape.org/namespaces/inkscape"
   xmlns:sodipodi="http://sodipodi.sourceforge.net/DTD/sodipodi-0.dtd"
   xmlns:xlink="http://www.w3.org/1999/xlink"
   xmlns="http://www.w3.org/2000/svg"
   xmlns:svg="http://www.w3.org/2000/svg">
  <sodipodi:namedview
     id="namedview9963"
     pagecolor="#ffffff"
     bordercolor="#000000"
     borderopacity="0.25"
     inkscape:showpageshadow="2"
     inkscape:pageopacity="0.0"
     inkscape:pagecheckerboard="0"
     inkscape:deskcolor="#d1d1d1"
     inkscape:document-units="mm"
     showgrid="false"
     inkscape:zoom="0.96001054"
     inkscape:cx="260.93463"
     inkscape:cy="297.91339"
     inkscape:window-width="1680"
     inkscape:window-height="1020"
     inkscape:window-x="0"
     inkscape:window-y="30"
     inkscape:window-maximized="1"
     inkscape:current-layer="layer1" />
  <defs
     id="defs9958">
    <marker
       style="overflow:visible"
       id="TriangleStart"
       refX="0"
       refY="0"
       orient="auto-start-reverse"
       inkscape:stockid="TriangleStart"
       markerWidth="5.3244081"
       markerHeight="6.155385"
       viewBox="0 0 5.3244081 6.1553851"
       inkscape:isstock="true"
       inkscape:collect="always"
       preserveAspectRatio="xMidYMid">
      <path
         transform="scale(0.5)"
         style="fill:context-stroke;fill-rule:evenodd;stroke:context-stroke;stroke-width:1pt"
         d="M 5.77,0 -2.88,5 V -5 Z"
         id="path135" />
    </marker>
  </defs>
  <g
     inkscape:label="Layer 1"
     inkscape:groupmode="layer"
     id="layer1"
     transform="translate(-35.597916,-15.58211)">
    <path
       style="display:inline;fill:#000000;fill-opacity:1;stroke:#000000;stroke-width:1.57059;stroke-linecap:round;stroke-linejoin:round;stroke-dasharray:none;stroke-dashoffset:0;marker-end:url(#TriangleStart)"
       d="M 46.730673,153.89243 V 21.159393"
       id="path9965" />
    <path
       style="display:inline;fill:#000000;fill-opacity:1;stroke:#000000;stroke-width:1.57059;stroke-linecap:round;stroke-linejoin:round;stroke-dasharray:none;stroke-dashoffset:0;marker-end:url(#TriangleStart)"
       d="M 36.383211,142.47188 H 169.11624"
       id="path9995" />
    <circle
       style="fill:#7a0000;fill-opacity:1;stroke:#000000;stroke-width:0.292;stroke-linecap:round;stroke-linejoin:round;stroke-dasharray:none;stroke-dashoffset:0"
       id="path10059"
       cx="-12.79313"
       cy="74.385437"
       r="1.3752273" />
    <circle
       style="fill:#0d52bf;fill-opacity:1;stroke:#000000;stroke-width:0.292;stroke-linecap:round;stroke-linejoin:round;stroke-dasharray:none;stroke-dashoffset:0"
       id="circle10113"
       cx="-12.79313"
       cy="86.612717"
       r="1.3752273" />
    <use
       id="use10296"
       inkscape:spray-origin="#path10059"
       xlink:href="#path10059"
       transform="matrix(1.3423819,0,0,1.3423819,69.638189,-27.326345)" />
    <use
       id="use10298"
       inkscape:spray-origin="#path10059"
       xlink:href="#path10059"
       transform="matrix(1.3423819,0,0,1.3423819,83.730416,-27.48333)" />
    <use
       id="use10300"
       inkscape:spray-origin="#path10059"
       xlink:href="#path10059"
       transform="matrix(1.3423819,0,0,1.3423819,75.155529,-26.419932)" />
    <use
       id="use10302"
       inkscape:spray-origin="#path10059"
       xlink:href="#path10059"
       transform="matrix(1.3423819,0,0,1.3423819,84.168089,-20.566511)" />
    <use
       id="use10304"
       inkscape:spray-origin="#path10059"
       xlink:href="#path10059"
       transform="matrix(1.3423819,0,0,1.3423819,75.685748,-10.482983)" />
    <use
       id="use10306"
       inkscape:spray-origin="#path10059"
       xlink:href="#path10059"
       transform="matrix(1.3423819,0,0,1.3423819,72.080041,-38.968391)" />
    <use
       id="use10308"
       inkscape:spray-origin="#path10059"
       xlink:href="#path10059"
       transform="matrix(1.3423819,0,0,1.3423819,83.846426,-34.957985)" />
    <use
       id="use10310"
       inkscape:spray-origin="#path10059"
       xlink:href="#path10059"
       transform="matrix(1.3423819,0,0,1.3423819,94.448014,-30.38598)" />
    <use
       id="use10312"
       inkscape:spray-origin="#path10059"
       xlink:href="#path10059"
       transform="matrix(1.3423819,0,0,1.3423819,89.858306,-49.086897)" />
    <use
       id="use10314"
       inkscape:spray-origin="#path10059"
       xlink:href="#path10059"
       transform="matrix(1.3423819,0,0,1.3423819,98.700109,-39.216294)" />
    <use
       id="use10316"
       inkscape:spray-origin="#path10059"
       xlink:href="#path10059"
       transform="matrix(1.3423819,0,0,1.3423819,89.082284,-59.291112)" />
    <use
       id="use10318"
       inkscape:spray-origin="#path10059"
       xlink:href="#path10059"
       transform="matrix(1.3423819,0,0,1.3423819,110.31781,-56.514342)" />
    <use
       id="use10320"
       inkscape:spray-origin="#path10059"
       xlink:href="#path10059"
       transform="matrix(1.3423819,0,0,1.3423819,99.221772,-45.411767)" />
    <use
       id="use10322"
       inkscape:spray-origin="#path10059"
       xlink:href="#path10059"
       transform="matrix(1.3423819,0,0,1.3423819,112.60371,-46.877076)" />
    <use
       id="use10324"
       inkscape:spray-origin="#path10059"
       xlink:href="#path10059"
       transform="matrix(1.3423819,0,0,1.3423819,105.68591,-60.338313)" />
    <use
       id="use10326"
       inkscape:spray-origin="#path10059"
       xlink:href="#path10059"
       transform="matrix(1.3423819,0,0,1.3423819,107.80837,-41.062277)" />
    <use
       id="use10328"
       inkscape:spray-origin="#path10059"
       xlink:href="#path10059"
       transform="matrix(1.3423819,0,0,1.3423819,119.14655,-62.3347)" />
    <use
       id="use10330"
       inkscape:spray-origin="#path10059"
       xlink:href="#path10059"
       transform="matrix(1.3423819,0,0,1.3423819,120.02001,-42.984615)" />
    <use
       id="use10332"
       inkscape:spray-origin="#path10059"
       xlink:href="#path10059"
       transform="matrix(1.3423819,0,0,1.3423819,100.06006,-53.766628)" />
    <use
       id="use10334"
       inkscape:spray-origin="#path10059"
       xlink:href="#path10059"
       transform="matrix(1.3423819,0,0,1.3423819,128.44411,-52.389116)" />
    <use
       id="use10336"
       inkscape:spray-origin="#path10059"
       xlink:href="#path10059"
       transform="matrix(1.3423819,0,0,1.3423819,124.43082,-58.50043)" />
    <use
       id="use10338"
       inkscape:spray-origin="#path10059"
       xlink:href="#path10059"
       transform="matrix(1.3423819,0,0,1.3423819,125.13446,-45.700636)" />
    <use
       id="use10340"
       inkscape:spray-origin="#path10059"
       xlink:href="#path10059"
       transform="matrix(1.3423819,0,0,1.3423819,116.41915,-56.094815)" />
    <use
       id="use10342"
       inkscape:spray-origin="#path10059"
       xlink:href="#path10059"
       transform="matrix(1.3423819,0,0,1.3423819,128.43074,-40.240856)" />
    <use
       id="use10344"
       inkscape:spray-origin="#path10059"
       xlink:href="#path10059"
       transform="matrix(1.3423819,0,0,1.3423819,133.85357,-37.364812)" />
    <use
       id="use10346"
       inkscape:spray-origin="#path10059"
       xlink:href="#path10059"
       transform="matrix(1.3423819,0,0,1.3423819,137.0899,-56.663491)" />
    <use
       id="use10348"
       inkscape:spray-origin="#path10059"
       xlink:href="#path10059"
       transform="matrix(1.3423819,0,0,1.3423819,135.75412,-46.956073)" />
    <use
       id="use10350"
       inkscape:spray-origin="#path10059"
       xlink:href="#path10059"
       transform="matrix(1.3423819,0,0,1.3423819,143.201,-25.862696)" />
    <use
       id="use10352"
       inkscape:spray-origin="#path10059"
       xlink:href="#path10059"
       transform="matrix(1.3423819,0,0,1.3423819,142.20617,-37.028207)" />
    <use
       id="use10354"
       inkscape:spray-origin="#path10059"
       xlink:href="#path10059"
       transform="matrix(1.3423819,0,0,1.3423819,148.746,-46.147363)" />
    <use
       id="use10356"
       inkscape:spray-origin="#path10059"
       xlink:href="#path10059"
       transform="matrix(1.3423819,0,0,1.3423819,151.76512,-40.688122)" />
    <use
       id="use10358"
       inkscape:spray-origin="#path10059"
       xlink:href="#path10059"
       transform="matrix(1.3423819,0,0,1.3423819,131.43376,-30.678044)" />
    <use
       id="use10360"
       inkscape:spray-origin="#path10059"
       xlink:href="#path10059"
       transform="matrix(1.3423819,0,0,1.3423819,142.18242,-16.066008)" />
    <use
       id="use10362"
       inkscape:spray-origin="#path10059"
       xlink:href="#path10059"
       transform="matrix(1.3423819,0,0,1.3423819,137.1577,-25.963567)" />
    <use
       id="use10364"
       inkscape:spray-origin="#path10059"
       xlink:href="#path10059"
       transform="matrix(1.3423819,0,0,1.3423819,151.81205,-8.8117404)" />
    <use
       id="use10366"
       inkscape:spray-origin="#path10059"
       xlink:href="#path10059"
       transform="matrix(1.3423819,0,0,1.3423819,152.16184,-27.895484)" />
    <use
       id="use10368"
       inkscape:spray-origin="#path10059"
       xlink:href="#path10059"
       transform="matrix(1.3423819,0,0,1.3423819,142.18177,-5.1925675)" />
    <use
       id="use10370"
       inkscape:spray-origin="#path10059"
       xlink:href="#path10059"
       transform="matrix(1.3423819,0,0,1.3423819,157.66143,-8.2618981)" />
    <use
       id="use10372"
       inkscape:spray-origin="#path10059"
       xlink:href="#path10059"
       transform="matrix(1.3423819,0,0,1.3423819,136.2848,-11.486695)" />
    <use
       id="use10374"
       inkscape:spray-origin="#circle10113"
       xlink:href="#circle10113"
       transform="matrix(1.3423819,0,0,1.3423819,101.95579,-35.128396)" />
    <use
       id="use10376"
       inkscape:spray-origin="#circle10113"
       xlink:href="#circle10113"
       transform="matrix(1.3423819,0,0,1.3423819,96.714843,-36.952995)" />
    <use
       id="use10378"
       inkscape:spray-origin="#circle10113"
       xlink:href="#circle10113"
       transform="matrix(1.3423819,0,0,1.3423819,111.65849,-45.925068)" />
    <use
       id="use10380"
       inkscape:spray-origin="#circle10113"
       xlink:href="#circle10113"
       transform="matrix(1.3423819,0,0,1.3423819,97.325611,-20.910125)" />
    <use
       id="use10382"
       inkscape:spray-origin="#circle10113"
       xlink:href="#circle10113"
       transform="matrix(1.3423819,0,0,1.3423819,110.67203,-14.029435)" />
    <use
       id="use10384"
       inkscape:spray-origin="#circle10113"
       xlink:href="#circle10113"
       transform="matrix(1.3423819,0,0,1.3423819,103.90118,-21.152113)" />
    <use
       id="use10386"
       inkscape:spray-origin="#circle10113"
       xlink:href="#circle10113"
       transform="matrix(1.3423819,0,0,1.3423819,120.3036,-17.82304)" />
    <use
       id="use10388"
       inkscape:spray-origin="#circle10113"
       xlink:href="#circle10113"
       transform="matrix(1.3423819,0,0,1.3423819,107.93027,-4.8036043)" />
    <use
       id="use10390"
       inkscape:spray-origin="#circle10113"
       xlink:href="#circle10113"
       transform="matrix(1.3423819,0,0,1.3423819,103.8744,-13.231883)" />
    <use
       id="use10392"
       inkscape:spray-origin="#circle10113"
       xlink:href="#circle10113"
       transform="matrix(1.3423819,0,0,1.3423819,122.45726,6.615222)" />
    <use
       id="use10394"
       inkscape:spray-origin="#circle10113"
       xlink:href="#circle10113"
       transform="matrix(1.3423819,0,0,1.3423819,117.08198,5.8210542)" />
    <use
       id="use10396"
       inkscape:spray-origin="#circle10113"
       xlink:href="#circle10113"
       transform="matrix(1.3423819,0,0,1.3423819,120.27686,-2.0375996)" />
    <use
       id="use10398"
       inkscape:spray-origin="#circle10113"
       xlink:href="#circle10113"
       transform="matrix(1.3423819,0,0,1.3423819,110.70589,0.18535654)" />
    <use
       id="use10400"
       inkscape:spray-origin="#circle10113"
       xlink:href="#circle10113"
       transform="matrix(1.3423819,0,0,1.3423819,126.01205,16.753505)" />
    <use
       id="use10402"
       inkscape:spray-origin="#circle10113"
       xlink:href="#circle10113"
       transform="matrix(1.3423819,0,0,1.3423819,126.13775,0.01288598)" />
    <use
       id="use10404"
       inkscape:spray-origin="#circle10113"
       xlink:href="#circle10113"
       transform="matrix(1.3423819,0,0,1.3423819,129.91563,8.9016433)" />
    <use
       id="use10406"
       inkscape:spray-origin="#circle10113"
       xlink:href="#circle10113"
       transform="matrix(1.3423819,0,0,1.3423819,133.52221,17.73949)" />
    <use
       id="use10408"
       inkscape:spray-origin="#circle10113"
       xlink:href="#circle10113"
       transform="matrix(1.3423819,0,0,1.3423819,141.70398,0.64717751)" />
    <use
       id="use10410"
       inkscape:spray-origin="#circle10113"
       xlink:href="#circle10113"
       transform="matrix(1.3423819,0,0,1.3423819,142.02787,16.388181)" />
    <use
       id="use10412"
       inkscape:spray-origin="#circle10113"
       xlink:href="#circle10113"
       transform="matrix(1.3423819,0,0,1.3423819,133.20302,2.768314)" />
    <use
       id="use10414"
       inkscape:spray-origin="#circle10113"
       xlink:href="#circle10113"
       transform="matrix(1.3423819,0,0,1.3423819,155.22868,11.662599)" />
    <use
       id="use10416"
       inkscape:spray-origin="#circle10113"
       xlink:href="#circle10113"
       transform="matrix(1.3423819,0,0,1.3423819,146.17675,11.440957)" />
    <use
       id="use10418"
       inkscape:spray-origin="#circle10113"
       xlink:href="#circle10113"
       transform="matrix(1.3423819,0,0,1.3423819,158.55288,5.1551656)" />
    <use
       id="use10420"
       inkscape:spray-origin="#circle10113"
       xlink:href="#circle10113"
       transform="matrix(1.3423819,0,0,1.3423819,171.42537,4.8065611)" />
    <use
       id="use10422"
       inkscape:spray-origin="#circle10113"
       xlink:href="#circle10113"
       transform="matrix(1.3423819,0,0,1.3423819,169.65152,-6.5009791)" />
    <use
       id="use10424"
       inkscape:spray-origin="#circle10113"
       xlink:href="#circle10113"
       transform="matrix(1.3423819,0,0,1.3423819,160.32616,19.457953)" />
    <use
       id="use10426"
       inkscape:spray-origin="#circle10113"
       xlink:href="#circle10113"
       transform="matrix(1.3423819,0,0,1.3423819,174.82726,14.879678)" />
    <use
       id="use10428"
       inkscape:spray-origin="#circle10113"
       xlink:href="#circle10113"
       transform="matrix(1.3423819,0,0,1.3423819,165.60088,0.10781117)" />
    <use
       id="use10430"
       inkscape:spray-origin="#circle10113"
       xlink:href="#circle10113"
       transform="matrix(1.3423819,0,0,1.3423819,164.46168,-4.9770776)" />
    <use
       id="use10432"
       inkscape:spray-origin="#circle10113"
       xlink:href="#circle10113"
       transform="matrix(1.3423819,0,0,1.3423819,174.71706,-0.98027525)" />
    <use
       id="use10434"
       inkscape:spray-origin="#circle10113"
       xlink:href="#circle10113"
       transform="matrix(1.3423819,0,0,1.3423819,180.64438,-14.113821)" />
    <use
       id="use10436"
       inkscape:spray-origin="#circle10113"
       xlink:href="#circle10113"
       transform="matrix(1.3423819,0,0,1.3423819,184.93522,4.477695)" />
    <use
       id="use10438"
       inkscape:spray-origin="#circle10113"
       xlink:href="#circle10113"
       transform="matrix(1.3423819,0,0,1.3423819,178.19987,-24.021896)" />
    <use
       id="use10440"
       inkscape:spray-origin="#circle10113"
       xlink:href="#circle10113"
       transform="matrix(1.3423819,0,0,1.3423819,184.42565,-22.112583)" />
    <use
       id="use10442"
       inkscape:spray-origin="#circle10113"
       xlink:href="#circle10113"
       transform="matrix(1.3423819,0,0,1.3423819,190.48111,-19.830255)" />
    <use
       id="use10444"
       inkscape:spray-origin="#circle10113"
       xlink:href="#circle10113"
       transform="matrix(1.3423819,0,0,1.3423819,172.32312,-27.200254)" />
    <use
       id="use10446"
       inkscape:spray-origin="#circle10113"
       xlink:href="#circle10113"
       transform="matrix(1.3423819,0,0,1.3423819,182.84289,-34.362022)" />
    <use
       id="use10448"
       inkscape:spray-origin="#circle10113"
       xlink:href="#circle10113"
       transform="matrix(1.3423819,0,0,1.3423819,176.4679,-42.017567)" />
    <use
       id="use10450"
       inkscape:spray-origin="#circle10113"
       xlink:href="#circle10113"
       transform="matrix(1.3423819,0,0,1.3423819,191.56224,-30.20473)" />
    <use
       id="use10452"
       inkscape:spray-origin="#circle10113"
       xlink:href="#circle10113"
       transform="matrix(1.3423819,0,0,1.3423819,176.93727,-48.134852)" />
    <use
       id="use10454"
       inkscape:spray-origin="#circle10113"
       xlink:href="#circle10113"
       transform="matrix(1.3423819,0,0,1.3423819,192.14061,-43.387155)" />
    <use
       id="use10456"
       inkscape:spray-origin="#circle10113"
       xlink:href="#circle10113"
       transform="matrix(1.3423819,0,0,1.3423819,171.7473,-37.410391)" />
    <use
       id="use10458"
       inkscape:spray-origin="#circle10113"
       xlink:href="#circle10113"
       transform="matrix(1.3423819,0,0,1.3423819,118.04063,-42.789007)" />
    <use
       id="use10460"
       inkscape:spray-origin="#circle10113"
       xlink:href="#circle10113"
       transform="matrix(1.3423819,0,0,1.3423819,117.19475,-36.557482)" />
    <use
       id="use10462"
       inkscape:spray-origin="#circle10113"
       xlink:href="#circle10113"
       transform="matrix(1.3423819,0,0,1.3423819,110.13108,-19.74015)" />
    <use
       id="use10464"
       inkscape:spray-origin="#circle10113"
       xlink:href="#circle10113"
       transform="matrix(1.3423819,0,0,1.3423819,123.5723,-25.377711)" />
    <use
       id="use10466"
       inkscape:spray-origin="#circle10113"
       xlink:href="#circle10113"
       transform="matrix(1.3423819,0,0,1.3423819,116.61195,-26.392972)" />
    <use
       id="use10468"
       inkscape:spray-origin="#circle10113"
       xlink:href="#circle10113"
       transform="matrix(1.3423819,0,0,1.3423819,152.76669,-5.0892001)" />
    <use
       id="use10470"
       inkscape:spray-origin="#circle10113"
       xlink:href="#circle10113"
       transform="matrix(1.3423819,0,0,1.3423819,147.47965,-12.056777)" />
    <use
       id="use10472"
       inkscape:spray-origin="#circle10113"
       xlink:href="#circle10113"
       transform="matrix(1.3423819,0,0,1.3423819,159.94432,-15.703881)" />
  </g>
</svg>
