<?xml version="1.0" encoding="UTF-8" standalone="no"?>
<!-- Created with Inkscape (http://www.inkscape.org/) -->

<svg
   width="191.95056mm"
   height="166.48329mm"
   viewBox="0 0 191.95055 166.48329"
   version="1.1"
   id="svg1"
   inkscape:version="1.3.2 (091e20ef0f, 2023-11-25, custom)"
   sodipodi:docname="doppler_graph.svg"
   xmlns:inkscape="http://www.inkscape.org/namespaces/inkscape"
   xmlns:sodipodi="http://sodipodi.sourceforge.net/DTD/sodipodi-0.dtd"
   xmlns="http://www.w3.org/2000/svg"
   xmlns:svg="http://www.w3.org/2000/svg">
  <sodipodi:namedview
     id="namedview1"
     pagecolor="#ffffff"
     bordercolor="#000000"
     borderopacity="0.25"
     inkscape:showpageshadow="2"
     inkscape:pageopacity="0.0"
     inkscape:pagecheckerboard="0"
     inkscape:deskcolor="#d1d1d1"
     inkscape:document-units="mm"
     inkscape:zoom="1.4929298"
     inkscape:cx="537.86856"
     inkscape:cy="335.91667"
     inkscape:window-width="2560"
     inkscape:window-height="1413"
     inkscape:window-x="1080"
     inkscape:window-y="27"
     inkscape:window-maximized="1"
     inkscape:current-layer="layer1" />
  <defs
     id="defs1">
    <marker
       style="overflow:visible"
       id="Triangle"
       refX="0"
       refY="0"
       orient="auto-start-reverse"
       inkscape:stockid="Triangle arrow"
       markerWidth="1.001"
       markerHeight="1.001"
       viewBox="0 0 1 1"
       inkscape:isstock="true"
       inkscape:collect="always"
       preserveAspectRatio="xMidYMid">
      <path
         transform="scale(0.5)"
         style="fill:context-stroke;fill-rule:evenodd;stroke:context-stroke;stroke-width:1pt"
         d="M 5.77,0 -2.88,5 V -5 Z"
         id="path135" />
    </marker>
  </defs>
  <g
     inkscape:label="Layer 1"
     inkscape:groupmode="layer"
     id="layer1"
     transform="translate(-7.274337,-18.15559)">
    <path
       style="fill:none;stroke:#343b58;stroke-width:1.95359;stroke-linecap:round;stroke-linejoin:round;stroke-opacity:0.998262;marker-start:url(#Triangle);marker-end:url(#Triangle)"
       d="M 40.962225,25.099872 V 157.42603 l 151.318395,0.19049"
       id="path1"
       sodipodi:nodetypes="ccc" />
    <text
       xml:space="preserve"
       style="font-style:normal;font-variant:normal;font-weight:normal;font-stretch:normal;font-size:17.6px;line-height:1;font-family:Georgia;-inkscape-font-specification:'Georgia, Normal';font-variant-ligatures:no-contextual;font-variant-caps:normal;font-variant-numeric:normal;font-variant-east-asian:normal;text-align:center;letter-spacing:0px;baseline-shift:baseline;text-anchor:middle;fill:#343b58;stroke:none;stroke-width:1.95359;stroke-linecap:round;stroke-linejoin:round;stroke-opacity:0.998262"
       x="123.39669"
       y="176.97185"
       id="text1"><tspan
         sodipodi:role="line"
         id="tspan1"
         style="font-style:normal;font-variant:normal;font-weight:normal;font-stretch:normal;font-size:17.6px;font-family:Georgia;-inkscape-font-specification:'Georgia, Normal';font-variant-ligatures:no-contextual;font-variant-caps:normal;font-variant-numeric:normal;font-variant-east-asian:normal;baseline-shift:baseline;fill:#343b58;stroke:none;stroke-width:1.95359"
         x="123.39669"
         y="176.97185">λ<tspan
   style="font-style:normal;font-variant:normal;font-weight:normal;font-stretch:normal;font-size:12.4178px;font-family:Georgia;-inkscape-font-specification:'Georgia, Normal';font-variant-ligatures:no-contextual;font-variant-caps:normal;font-variant-numeric:normal;font-variant-east-asian:normal;baseline-shift:sub;stroke-width:1.95359"
   id="tspan2">rest</tspan></tspan></text>
    <text
       xml:space="preserve"
       style="font-style:normal;font-variant:normal;font-weight:normal;font-stretch:normal;font-size:17.6px;line-height:1;font-family:Georgia;-inkscape-font-specification:'Georgia, Normal';font-variant-ligatures:no-contextual;font-variant-caps:normal;font-variant-numeric:normal;font-variant-east-asian:normal;text-align:center;letter-spacing:0px;baseline-shift:baseline;text-anchor:middle;fill:#343b58;stroke:none;stroke-width:1.95359;stroke-linecap:round;stroke-linejoin:round;stroke-opacity:0.998262"
       x="24.060659"
       y="89.717651"
       id="text4"><tspan
         sodipodi:role="line"
         id="tspan4"
         style="font-style:normal;font-variant:normal;font-weight:normal;font-stretch:normal;font-size:17.6px;font-family:Georgia;-inkscape-font-specification:'Georgia, Normal';font-variant-ligatures:no-contextual;font-variant-caps:normal;font-variant-numeric:normal;font-variant-east-asian:normal;baseline-shift:baseline;fill:#343b58;stroke:none;stroke-width:1.95359"
         x="24.060659"
         y="89.717651">λ<tspan
   style="font-size:11.44px;baseline-shift:sub;stroke-width:1.95359"
   id="tspan5">obs</tspan></tspan></text>
    <circle
       style="fill:#5a4a78;stroke:none;stroke-width:1.95359;stroke-linecap:round;stroke-linejoin:round;stroke-opacity:0.998262"
       id="path5"
       cx="64.39299"
       cy="131.33093"
       r="3.5777655" />
    <circle
       style="fill:#5a4a78;stroke:none;stroke-width:1.95359;stroke-linecap:round;stroke-linejoin:round;stroke-opacity:0.998262"
       id="circle5"
       cx="107.63451"
       cy="100.05806"
       r="3.5777655" />
    <circle
       style="fill:#5a4a78;stroke:none;stroke-width:1.95359;stroke-linecap:round;stroke-linejoin:round;stroke-opacity:0.998262"
       id="circle6"
       cx="156.35162"
       cy="63.235764"
       r="3.5777655" />
    <circle
       style="fill:#5a4a78;stroke:none;stroke-width:1.95359;stroke-linecap:round;stroke-linejoin:round;stroke-opacity:0.998262"
       id="circle7"
       cx="136.9164"
       cy="76.217537"
       r="3.5777655" />
    <g
       id="g24"
       class="fragment">
      <path
         style="fill:#5a4a78;stroke:#8c4351;stroke-width:1.95359;stroke-linecap:round;stroke-linejoin:round;stroke-opacity:0.998262"
         d="M 47.895885,141.75093 188.06118,41.61362"
         id="path7"
         sodipodi:nodetypes="cc" />
      <g
         inkscape:label=""
         transform="matrix(2.4516177,0,0,2.4516177,123.42745,89.713428)"
         id="g14"
         style="fill:#8c4351;stroke:#8c4351;stroke-width:0.133714">
        <g
           fill="#000000"
           fill-opacity="1"
           id="g15"
           transform="matrix(0.352778,0,0,0.352778,-0.818841,-0.700176)"
           style="fill:#8c4351;stroke:#8c4351;stroke-width:0.379031">
          <g
             id="use12"
             transform="translate(1.993,16.438999)"
             style="fill:#8c4351;stroke:#8c4351;stroke-width:0.379031">
            <path
               d="m 2.078125,-1.9375 c 0.21875,0.046875 1.03125,0.203125 1.03125,0.921875 0,0.5 -0.34375,0.90625 -1.125,0.90625 -0.84375,0 -1.203125,-0.5625 -1.390625,-1.421875 C 0.5625,-1.65625 0.5625,-1.6875 0.453125,-1.6875 c -0.125,0 -0.125,0.0625 -0.125,0.234375 V -0.125 c 0,0.171875 0,0.234375 0.109375,0.234375 0.046875,0 0.0625,-0.015625 0.25,-0.203125 0.015625,-0.015625 0.015625,-0.03125 0.203125,-0.21875 0.4375,0.40625 0.890625,0.421875 1.09375,0.421875 1.140625,0 1.609375,-0.671875 1.609375,-1.390625 0,-0.515625 -0.296875,-0.828125 -0.421875,-0.9375 C 2.84375,-2.546875 2.453125,-2.625 2.03125,-2.703125 1.46875,-2.8125 0.8125,-2.9375 0.8125,-3.515625 c 0,-0.359375 0.25,-0.765625 1.109375,-0.765625 1.09375,0 1.15625,0.90625 1.171875,1.203125 0,0.09375 0.09375,0.09375 0.109375,0.09375 0.140625,0 0.140625,-0.046875 0.140625,-0.234375 v -1.015625 c 0,-0.15625 0,-0.234375 -0.109375,-0.234375 -0.046875,0 -0.078125,0 -0.203125,0.125 -0.03125,0.03125 -0.125,0.125 -0.171875,0.15625 -0.375,-0.28125 -0.78125,-0.28125 -0.9375,-0.28125 -1.21875,0 -1.59375,0.671875 -1.59375,1.234375 0,0.34375 0.15625,0.625 0.421875,0.84375 0.328125,0.25 0.609375,0.3125 1.328125,0.453125 z m 0,0"
               id="path23"
               style="fill:#8c4351;stroke:#8c4351;stroke-width:0.379031" />
          </g>
          <g
             id="use13"
             transform="translate(5.9222488,16.438999)"
             style="fill:#8c4351;stroke:#8c4351;stroke-width:0.379031">
            <path
               d="M 1.765625,-6.921875 0.328125,-6.8125 V -6.5 c 0.703125,0 0.78125,0.0625 0.78125,0.5625 V -0.75 c 0,0.4375 -0.109375,0.4375 -0.78125,0.4375 V 0 C 0.65625,-0.015625 1.1875,-0.03125 1.4375,-0.03125 c 0.25,0 0.734375,0.015625 1.109375,0.03125 v -0.3125 c -0.671875,0 -0.78125,0 -0.78125,-0.4375 z m 0,0"
               id="path24"
               style="fill:#8c4351;stroke:#8c4351;stroke-width:0.379031" />
          </g>
          <g
             id="use14"
             transform="translate(8.6898603,16.438999)"
             style="fill:#8c4351;stroke:#8c4351;stroke-width:0.379031">
            <path
               d="M 4.6875,-2.140625 C 4.6875,-3.40625 3.703125,-4.46875 2.5,-4.46875 c -1.25,0 -2.21875,1.09375 -2.21875,2.328125 0,1.296875 1.03125,2.25 2.203125,2.25 1.203125,0 2.203125,-0.984375 2.203125,-2.25 z m -2.1875,2 c -0.4375,0 -0.875,-0.203125 -1.140625,-0.671875 -0.25,-0.4375 -0.25,-1.046875 -0.25,-1.40625 0,-0.390625 0,-0.921875 0.234375,-1.359375 C 1.609375,-4.03125 2.078125,-4.25 2.484375,-4.25 c 0.4375,0 0.859375,0.21875 1.125,0.65625 0.265625,0.421875 0.265625,1 0.265625,1.375 0,0.359375 0,0.90625 -0.21875,1.34375 C 3.421875,-0.421875 2.984375,-0.140625 2.5,-0.140625 Z m 0,0"
               id="path25"
               style="fill:#8c4351;stroke:#8c4351;stroke-width:0.379031" />
          </g>
          <g
             id="use15"
             transform="translate(13.67116,16.438999)"
             style="fill:#8c4351;stroke:#8c4351;stroke-width:0.379031">
            <path
               d="m 1.71875,-3.75 v -0.65625 l -1.4375,0.109375 v 0.3125 c 0.703125,0 0.78125,0.0625 0.78125,0.5 v 4.65625 C 1.0625,1.625 0.953125,1.625 0.28125,1.625 V 1.9375 C 0.625,1.921875 1.140625,1.90625 1.390625,1.90625 c 0.28125,0 0.78125,0.015625 1.125,0.03125 V 1.625 C 1.859375,1.625 1.75,1.625 1.75,1.171875 V -0.59375 c 0.046875,0.171875 0.46875,0.703125 1.21875,0.703125 1.1875,0 2.21875,-0.984375 2.21875,-2.265625 0,-1.265625 -0.953125,-2.25 -2.078125,-2.25 -0.78125,0 -1.203125,0.4375 -1.390625,0.65625 z M 1.75,-1.140625 v -2.21875 C 2.03125,-3.875 2.515625,-4.15625 3.03125,-4.15625 c 0.734375,0 1.328125,0.875 1.328125,2 0,1.203125 -0.6875,2.046875 -1.421875,2.046875 -0.40625,0 -0.78125,-0.203125 -1.046875,-0.609375 C 1.75,-0.921875 1.75,-0.9375 1.75,-1.140625 Z m 0,0"
               id="path26"
               style="fill:#8c4351;stroke:#8c4351;stroke-width:0.379031" />
          </g>
        </g>
        <g
           fill="#000000"
           fill-opacity="1"
           id="g16"
           transform="matrix(0.352778,0,0,0.352778,-0.818841,-0.700176)"
           style="fill:#8c4351;stroke:#8c4351;stroke-width:0.379031">
          <g
             id="use16"
             transform="translate(19.485332,16.438999)"
             style="fill:#8c4351;stroke:#8c4351;stroke-width:0.379031">
            <path
               d="M 1.109375,-2.515625 C 1.171875,-4 2.015625,-4.25 2.359375,-4.25 c 1.015625,0 1.125,1.34375 1.125,1.734375 z m 0,0.21875 h 2.78125 c 0.21875,0 0.25,0 0.25,-0.21875 0,-0.984375 -0.546875,-1.953125 -1.78125,-1.953125 -1.15625,0 -2.078125,1.03125 -2.078125,2.28125 0,1.328125 1.046875,2.296875 2.1875,2.296875 C 3.6875,0.109375 4.140625,-1 4.140625,-1.1875 4.140625,-1.28125 4.0625,-1.3125 4,-1.3125 c -0.078125,0 -0.109375,0.0625 -0.125,0.140625 -0.34375,1.03125 -1.25,1.03125 -1.34375,1.03125 -0.5,0 -0.890625,-0.296875 -1.125,-0.671875 -0.296875,-0.46875 -0.296875,-1.125 -0.296875,-1.484375 z m 0,0"
               id="path27"
               style="fill:#8c4351;stroke:#8c4351;stroke-width:0.379031" />
          </g>
        </g>
        <g
           fill="#000000"
           fill-opacity="1"
           id="g17"
           transform="matrix(0.352778,0,0,0.352778,-0.818841,-0.700176)"
           style="fill:#8c4351;stroke:#8c4351;stroke-width:0.379031">
          <g
             id="use17"
             transform="translate(27.230259,16.438999)"
             style="fill:#8c4351;stroke:#8c4351;stroke-width:0.379031">
            <path
               d="m 6.84375,-3.265625 c 0.15625,0 0.34375,0 0.34375,-0.1875 C 7.1875,-3.65625 7,-3.65625 6.859375,-3.65625 h -5.96875 c -0.140625,0 -0.328125,0 -0.328125,0.203125 0,0.1875 0.1875,0.1875 0.328125,0.1875 z m 0.015625,1.9375 c 0.140625,0 0.328125,0 0.328125,-0.203125 0,-0.1875 -0.1875,-0.1875 -0.34375,-0.1875 H 0.890625 c -0.140625,0 -0.328125,0 -0.328125,0.1875 0,0.203125 0.1875,0.203125 0.328125,0.203125 z m 0,0"
               id="path28"
               style="fill:#8c4351;stroke:#8c4351;stroke-width:0.379031" />
          </g>
        </g>
        <g
           fill="#000000"
           fill-opacity="1"
           id="g18"
           transform="matrix(0.352778,0,0,0.352778,-0.818841,-0.700176)"
           style="fill:#8c4351;stroke:#8c4351;stroke-width:0.379031">
          <g
             id="use18"
             transform="translate(38.300999,2.391)"
             style="fill:#8c4351;stroke:#8c4351;stroke-width:0.379031">
            <path
               d="m 6.984375,23.421875 c 0,-0.04687 -0.03125,-0.0625 -0.046875,-0.09375 -0.375,-0.375 -1.03125,-1.03125 -1.703125,-2.109375 C 3.625,18.640625 2.90625,15.40625 2.90625,11.5625 c 0,-2.6875 0.359375,-6.140625 2,-9.109375 C 5.6875,1.03125 6.515625,0.21875 6.953125,-0.21875 c 0.03125,-0.03125 0.03125,-0.046875 0.03125,-0.078125 0,-0.109375 -0.078125,-0.109375 -0.21875,-0.109375 -0.140625,0 -0.15625,0 -0.3125,0.15625 -3.328125,3.046875 -4.375,7.609375 -4.375,11.796875 0,3.921875 0.890625,7.875 3.421875,10.859375 0.203125,0.21875 0.578125,0.625 0.984375,0.984375 0.125,0.125 0.140625,0.125 0.28125,0.125 0.140625,0 0.21875,0 0.21875,-0.09375 z m 0,0"
               id="path29"
               style="fill:#8c4351;stroke:#8c4351;stroke-width:0.379031" />
          </g>
        </g>
        <g
           fill="#000000"
           fill-opacity="1"
           id="g19"
           transform="matrix(0.352778,0,0,0.352778,-0.818841,-0.700176)"
           style="fill:#8c4351;stroke:#8c4351;stroke-width:0.379031">
          <g
             id="use19"
             transform="translate(46.830002,9.6990004)"
             style="fill:#8c4351;stroke:#8c4351;stroke-width:0.379031">
            <path
               d="M 6.265625,-5.671875 C 6.75,-6.453125 7.171875,-6.484375 7.53125,-6.5 c 0.125,-0.015625 0.140625,-0.171875 0.140625,-0.1875 0,-0.078125 -0.0625,-0.125 -0.140625,-0.125 -0.25,0 -0.546875,0.03125 -0.8125,0.03125 -0.328125,0 -0.671875,-0.03125 -0.984375,-0.03125 -0.0625,0 -0.1875,0 -0.1875,0.1875 0,0.109375 0.078125,0.125 0.15625,0.125 0.265625,0.015625 0.453125,0.125 0.453125,0.328125 0,0.15625 -0.140625,0.375 -0.140625,0.375 l -3.0625,4.875 -0.6875,-5.28125 C 2.265625,-6.375 2.5,-6.5 2.953125,-6.5 c 0.140625,0 0.25,0 0.25,-0.203125 0,-0.078125 -0.078125,-0.109375 -0.125,-0.109375 -0.40625,0 -0.828125,0.03125 -1.25,0.03125 -0.171875,0 -0.359375,0 -0.546875,0 -0.171875,0 -0.359375,-0.03125 -0.53125,-0.03125 -0.078125,0 -0.1875,0 -0.1875,0.1875 0,0.125 0.078125,0.125 0.25,0.125 0.546875,0 0.5625,0.09375 0.59375,0.34375 L 2.1875,-0.015625 C 2.21875,0.1875 2.265625,0.21875 2.390625,0.21875 c 0.15625,0 0.203125,-0.046875 0.28125,-0.171875 z m 0,0"
               id="path30"
               style="fill:#8c4351;stroke:#8c4351;stroke-width:0.379031" />
          </g>
        </g>
        <path
           fill="none"
           stroke-width="0.398"
           stroke-linecap="butt"
           stroke-linejoin="miter"
           stroke="#000000"
           stroke-opacity="1"
           stroke-miterlimit="10"
           d="m 44.507,11.964469 h 8.027344"
           id="path19"
           transform="scale(0.352778)"
           style="fill:#8c4351;stroke:#8c4351;stroke-width:0.379031" />
        <g
           fill="#000000"
           fill-opacity="1"
           id="g20"
           transform="matrix(0.352778,0,0,0.352778,-0.818841,-0.700176)"
           style="fill:#8c4351;stroke:#8c4351;stroke-width:0.379031">
          <g
             id="use20"
             transform="translate(48.687,23.273001)"
             style="fill:#8c4351;stroke:#8c4351;stroke-width:0.379031">
            <path
               d="m 3.953125,-3.78125 c -0.171875,0 -0.296875,0 -0.4375,0.125 -0.171875,0.15625 -0.1875,0.328125 -0.1875,0.390625 0,0.25 0.1875,0.359375 0.375,0.359375 0.28125,0 0.546875,-0.25 0.546875,-0.640625 0,-0.484375 -0.46875,-0.859375 -1.171875,-0.859375 -1.34375,0 -2.671875,1.421875 -2.671875,2.828125 0,0.90625 0.578125,1.6875 1.625,1.6875 1.421875,0 2.25,-1.0625 2.25,-1.171875 0,-0.0625 -0.046875,-0.140625 -0.109375,-0.140625 -0.0625,0 -0.078125,0.03125 -0.140625,0.109375 -0.78125,0.984375 -1.875,0.984375 -1.984375,0.984375 -0.625,0 -0.90625,-0.484375 -0.90625,-1.09375 0,-0.40625 0.203125,-1.375 0.546875,-1.984375 0.3125,-0.578125 0.859375,-1 1.40625,-1 0.328125,0 0.71875,0.125 0.859375,0.40625 z m 0,0"
               id="path31"
               style="fill:#8c4351;stroke:#8c4351;stroke-width:0.379031" />
          </g>
        </g>
        <g
           fill="#000000"
           fill-opacity="1"
           id="g21"
           transform="matrix(0.352778,0,0,0.352778,-0.818841,-0.700176)"
           style="fill:#8c4351;stroke:#8c4351;stroke-width:0.379031">
          <g
             id="use21"
             transform="translate(58.264999,16.438999)"
             style="fill:#8c4351;stroke:#8c4351;stroke-width:0.379031">
            <path
               d="m 4.078125,-2.296875 h 2.78125 C 7,-2.296875 7.1875,-2.296875 7.1875,-2.5 7.1875,-2.6875 7,-2.6875 6.859375,-2.6875 h -2.78125 v -2.796875 c 0,-0.140625 0,-0.328125 -0.203125,-0.328125 -0.203125,0 -0.203125,0.1875 -0.203125,0.328125 V -2.6875 h -2.78125 c -0.140625,0 -0.328125,0 -0.328125,0.1875 0,0.203125 0.1875,0.203125 0.328125,0.203125 h 2.78125 V 0.5 c 0,0.140625 0,0.328125 0.203125,0.328125 0.203125,0 0.203125,-0.1875 0.203125,-0.328125 z m 0,0"
               id="path32"
               style="fill:#8c4351;stroke:#8c4351;stroke-width:0.379031" />
          </g>
        </g>
        <g
           fill="#000000"
           fill-opacity="1"
           id="g22"
           transform="matrix(0.352778,0,0,0.352778,-0.818841,-0.700176)"
           style="fill:#8c4351;stroke:#8c4351;stroke-width:0.379031">
          <g
             id="use22"
             transform="translate(68.225609,16.438999)"
             style="fill:#8c4351;stroke:#8c4351;stroke-width:0.379031">
            <path
               d="m 2.9375,-6.375 c 0,-0.25 0,-0.265625 -0.234375,-0.265625 C 2.078125,-6 1.203125,-6 0.890625,-6 v 0.3125 c 0.203125,0 0.78125,0 1.296875,-0.265625 v 5.171875 c 0,0.359375 -0.03125,0.46875 -0.921875,0.46875 h -0.3125 V 0 c 0.34375,-0.03125 1.203125,-0.03125 1.609375,-0.03125 0.390625,0 1.265625,0 1.609375,0.03125 v -0.3125 h -0.3125 c -0.90625,0 -0.921875,-0.109375 -0.921875,-0.46875 z m 0,0"
               id="path33"
               style="fill:#8c4351;stroke:#8c4351;stroke-width:0.379031" />
          </g>
        </g>
        <g
           fill="#000000"
           fill-opacity="1"
           id="g23"
           transform="matrix(0.352778,0,0,0.352778,-0.818841,-0.700176)"
           style="fill:#8c4351;stroke:#8c4351;stroke-width:0.379031">
          <g
             id="use23"
             transform="translate(73.209,2.391)"
             style="fill:#8c4351;stroke:#8c4351;stroke-width:0.379031">
            <path
               d="M 5.25,11.5625 C 5.25,7.640625 4.359375,3.703125 1.828125,0.71875 1.625,0.484375 1.25,0.078125 0.84375,-0.28125 c -0.125,-0.125 -0.140625,-0.125 -0.28125,-0.125 -0.125,0 -0.21875,0 -0.21875,0.109375 0,0.03125 0.046875,0.078125 0.0625,0.09375 0.34375,0.359375 1.015625,1.03125 1.6875,2.109375 1.609375,2.5625 2.328125,5.8125 2.328125,9.640625 0,2.6875 -0.359375,6.140625 -2,9.125 -0.78125,1.40625 -1.609375,2.234375 -2.03125,2.65625 -0.015625,0.03125 -0.046875,0.0625 -0.046875,0.09375 0,0.09375 0.09375,0.09375 0.21875,0.09375 0.140625,0 0.15625,0 0.3125,-0.15625 C 4.203125,20.328125 5.25,15.765625 5.25,11.5625 Z m 0,0"
               id="path34"
               style="fill:#8c4351;stroke:#8c4351;stroke-width:0.379031" />
          </g>
        </g>
      </g>
    </g>
  </g>
</svg>
