<?xml version="1.0" encoding="UTF-8" standalone="no"?>
<!-- Created with Inkscape (http://www.inkscape.org/) -->

<svg
   width="369.90915mm"
   height="173.98244mm"
   viewBox="0 0 369.90915 173.98244"
   version="1.1"
   id="svg5"
   xml:space="preserve"
   sodipodi:docname="light_sources.svg"
   inkscape:version="1.2.2 (b0a8486541, 2022-12-01)"
   xmlns:inkscape="http://www.inkscape.org/namespaces/inkscape"
   xmlns:sodipodi="http://sodipodi.sourceforge.net/DTD/sodipodi-0.dtd"
   xmlns:xlink="http://www.w3.org/1999/xlink"
   xmlns="http://www.w3.org/2000/svg"
   xmlns:svg="http://www.w3.org/2000/svg"><sodipodi:namedview
     id="namedview7"
     pagecolor="#ffffff"
     bordercolor="#000000"
     borderopacity="0.25"
     inkscape:showpageshadow="2"
     inkscape:pageopacity="0.0"
     inkscape:pagecheckerboard="0"
     inkscape:deskcolor="#d1d1d1"
     inkscape:document-units="mm"
     showgrid="false"
     inkscape:zoom="0.66331437"
     inkscape:cx="919.62428"
     inkscape:cy="116.83751"
     inkscape:window-width="2560"
     inkscape:window-height="1413"
     inkscape:window-x="1080"
     inkscape:window-y="27"
     inkscape:window-maximized="1"
     inkscape:current-layer="layer1" /><defs
     id="defs2"><linearGradient
       inkscape:collect="always"
       id="linearGradient3253"><stop
         style="stop-color:#ffcbcb;stop-opacity:1;"
         offset="0"
         id="stop3249" /><stop
         style="stop-color:#ff0000;stop-opacity:0.99997067;"
         offset="1"
         id="stop3251" /></linearGradient><linearGradient
       inkscape:collect="always"
       id="linearGradient817"><stop
         style="stop-color:#ffa700;stop-opacity:1;"
         offset="0"
         id="stop813" /><stop
         style="stop-color:#ffff00;stop-opacity:1"
         offset="1"
         id="stop815" /></linearGradient><radialGradient
       inkscape:collect="always"
       xlink:href="#linearGradient817"
       id="radialGradient819"
       cx="308.98166"
       cy="48.394638"
       fx="308.98166"
       fy="48.394638"
       r="38.854816"
       gradientUnits="userSpaceOnUse" /><radialGradient
       inkscape:collect="always"
       xlink:href="#linearGradient3253"
       id="radialGradient3255"
       cx="393.55276"
       cy="157.81487"
       fx="393.55276"
       fy="157.81487"
       r="20.597071"
       gradientUnits="userSpaceOnUse"
       gradientTransform="matrix(1.7761038,0,0,1.7805119,-293.56384,-115.10347)" /><marker
       style="overflow:visible"
       refX="0"
       refY="0"
       orient="auto-start-reverse"
       inkscape:stockid="Arrow29150"
       markerWidth="7.6999998"
       markerHeight="5.5999999"
       viewBox="0 0 7.7 5.6"
       inkscape:isstock="true"
       inkscape:collect="always"
       preserveAspectRatio="xMidYMid"
       id="Arrow29150"><path
         transform="scale(0.7)"
         d="M -2,-4 9,0 -2,4 c 2,-2.33 2,-5.66 0,-8 z"
         style="fill:#ffb200;fill-opacity:1;fill-rule:evenodd;stroke:#ffb200;stroke-opacity:1"
         id="path7078" /></marker><marker
       style="overflow:visible"
       refX="0"
       refY="0"
       orient="auto-start-reverse"
       inkscape:stockid="Arrow21888"
       markerWidth="7.6999998"
       markerHeight="5.5999999"
       viewBox="0 0 7.7 5.6"
       inkscape:isstock="true"
       inkscape:collect="always"
       preserveAspectRatio="xMidYMid"
       id="Arrow21888"><path
         transform="scale(0.7)"
         d="M -2,-4 9,0 -2,4 c 2,-2.33 2,-5.66 0,-8 z"
         style="fill:#ff6600;fill-opacity:1;fill-rule:evenodd;stroke:#ff6600;stroke-opacity:1"
         id="path7081" /></marker></defs><g
     inkscape:label="Layer 1"
     inkscape:groupmode="layer"
     id="layer1"
     transform="translate(-263.28796,-18.507421)"><path
       style="fill:#000000;stroke-width:0.264583"
       d="m 573.96565,319.32189 c 0.003,-0.10914 0.77631,-0.96909 1.71979,-1.91101 l 1.7154,-1.71254 v 1.91098 1.91101 h -1.71979 c -0.94589,0 -1.71784,-0.0893 -1.7154,-0.19844 z"
       id="path2077" /><path
       sodipodi:type="star"
       style="fill:url(#radialGradient819);fill-opacity:1;stroke:#ff6600;stroke-width:2.265;stroke-linecap:round;stroke-linejoin:round"
       id="path234"
       inkscape:flatsided="false"
       sodipodi:sides="12"
       sodipodi:cx="308.98166"
       sodipodi:cy="48.394638"
       sodipodi:r1="38.381134"
       sodipodi:r2="26.866795"
       sodipodi:arg1="0.70913281"
       sodipodi:arg2="0.9709322"
       inkscape:rounded="0"
       inkscape:randomized="0"
       d="m 338.11013,73.387507 -13.96135,-2.816685 -2.43756,14.032512 -10.68254,-9.419998 -9.12724,10.933734 -4.54136,-13.499229 -13.37129,4.90527 2.81669,-13.961353 -14.03252,-2.437556 9.42,-10.682544 -10.93373,-9.127243 13.49923,-4.541355 -4.90527,-13.371291 13.96135,2.816686 2.43756,-14.032513 10.68254,9.419998 9.12724,-10.933734 4.54136,13.499229 13.37129,-4.90527 -2.81669,13.961353 14.03251,2.437557 -9.41999,10.682543 10.93373,9.127243 -13.49923,4.541355 z"
       inkscape:transform-center-x="3.8926824e-06"
       transform="translate(-6.8388828,8.9676005)" /><path
       id="path3180"
       style="fill:#000000;stroke-width:0.69291"
       d="m 619.46806,191.42364 c 2.10508,-1.07361 4.37986,-4.56863 4.37986,-6.72928 0,-0.55986 -0.78477,-4.41037 -1.74391,-8.55665 -0.95916,-4.1463 -2.35188,-10.34502 -3.09493,-13.77494 -0.74303,-3.42991 -3.69715,-16.65868 -6.56466,-29.39729 -4.71934,-20.96513 -5.46082,-25.30437 -3.97189,-23.24384 5.45758,7.55262 9.57948,15.91652 11.25899,22.84599 1.6038,6.61703 6.83309,9.35195 11.24531,5.88128 2.89975,-2.28093 2.9415,-4.60107 0.22863,-12.70827 -4.27987,-12.79024 -9.35902,-21.2721 -16.94273,-28.293274 -7.8188,-7.238805 -15.59107,-10.40107 -25.75328,-10.478012 -5.52538,-0.0419 -7.11354,0.207153 -9.88808,1.550138 -4.19143,2.028868 -8.40289,6.788986 -10.06782,11.379402 -0.71144,1.961566 -2.13006,5.905036 -3.15249,8.763306 -2.36231,6.60388 -7.48074,13.47898 -14.04767,18.86875 -5.10427,4.18934 -6.42764,6.48531 -5.47253,9.49458 0.61156,1.92681 4.33271,4.89695 6.13073,4.89342 3.75575,-0.008 14.84711,-10.00033 20.58383,-18.5453 l 3.38128,-5.03654 0.64136,2.61133 c 2.70572,11.01666 4.22042,18.5646 3.75654,18.71925 -0.30258,0.10082 -2.49421,1.45363 -4.87035,3.0062 -9.38363,6.13126 -16.65096,21.16349 -17.9159,37.05844 -0.35363,4.44352 -0.21056,6.08417 0.69819,7.99893 2.27206,4.78801 8.23731,6.27498 12.10782,3.01818 2.5496,-2.14536 3.32673,-4.55205 3.81811,-11.82428 0.6522,-9.65283 5.65137,-20.14129 11.44396,-24.00984 2.51105,-1.67699 10.59829,-4.16024 12.61889,-3.8747 1.27117,0.17965 1.79015,0.81164 2.18498,2.66078 2.4621,11.53148 6.94488,31.25275 7.4976,32.98459 1.52418,4.77573 7.00892,7.03328 11.51013,4.73765 z M 585.1265,82.760796 c 8.00063,-2.859025 12.39084,-8.873113 12.39084,-16.974078 0,-6.765443 -3.75759,-12.806505 -9.86206,-15.855216 -6.55101,-3.271733 -16.21942,-1.364931 -21.06562,4.154583 -5.19477,5.916535 -5.88757,14.990149 -1.62182,21.241298 4.74009,6.946224 12.99934,9.991792 20.15866,7.433413 z" /><path
       id="path3178"
       style="fill:#000000;stroke-width:0.264583"
       d="m 955.91736,78.466684 c -0.3265,-0.13127 -0.83207,-0.62974 -1.12349,-1.10771 -0.51322,-0.84177 -0.53018,-1.33809 -0.54035,-15.818 l -0.0105,-14.948959 -0.61453,0.75118 c -1.36613,1.6699 -3.35672,6.33586 -3.70693,8.68906 -0.10134,0.68098 -0.4215,1.53976 -0.71147,1.90839 -0.93888,1.193579 -2.92263,1.152109 -3.86931,-0.0809 -0.47983,-0.62496 -0.40531,-2.5754 0.178,-4.65845 2.23501,-7.9814 6.7566,-13.2835 12.63349,-14.81424 2.22632,-0.57988 27.99604,-0.58672 28.82278,-0.008 0.88367,0.61895 1.28042,1.84391 0.89701,2.76954 -0.73466,1.77363 -0.49959,1.73067 -9.95151,1.81861 l -8.56595,0.0797 -0.0718,17.073879 -0.0718,17.07388 -0.86407,0.77195 c -1.45767,1.30226 -3.72559,0.99456 -4.7146,-0.63966 -0.49097,-0.81128 -0.61613,-3.48094 -0.63776,-13.6035 -10e-4,-0.52898 -0.13394,-0.59531 -1.1919,-0.59531 h -1.19063 v 6.50845 c 0,7.17843 -0.14411,7.95869 -1.61003,8.71674 -0.8277,0.42803 -2.17807,0.4775 -3.08465,0.11302 z m 4.3749,-41.513049 c -1.57316,-0.50899 -3.08088,-1.86327 -3.99765,-3.59079 -0.7918,-1.49203 -0.78422,-4.3407 0.0156,-5.856404 1.24536,-2.360067 2.98658,-3.534137 5.54605,-3.739586 4.06143,-0.326012 7.28991,2.627133 7.28773,6.66621 -0.002,3.77506 -2.60165,6.47655 -6.41528,6.6667 -0.94588,0.0472 -2.04229,-0.0186 -2.43645,-0.14613 z" /><path
       id="path3176"
       style="fill:#000000;stroke-width:0.264583"
       d="m 899.17093,78.936014 c -0.39558,-0.3267 -0.84207,-0.92917 -0.99219,-1.33882 -0.17695,-0.48287 -0.27294,-6.70665 -0.27294,-17.696 V 42.950015 l -1.70352,-1.56096 c -0.93694,-0.85854 -2.11399,-2.12268 -2.61568,-2.80921 -2.07859,-2.84446 -4.30006,-8.31834 -4.58687,-11.302414 -0.14208,-1.478243 -0.10241,-1.637577 0.57636,-2.315104 0.54635,-0.545346 0.98803,-0.727604 1.76323,-0.727604 1.53432,0 2.12501,0.747506 2.82788,3.578606 0.67545,2.720686 2.45154,6.564606 3.87055,8.376866 2.55497,3.26305 6.64365,4.62892 10.46207,3.49497 4.12752,-1.22574 7.45204,-5.71527 8.99207,-12.14315 0.59066,-2.465311 1.30509,-3.307292 2.8063,-3.307292 0.6855,0 1.14456,0.212918 1.73752,0.805876 0.75169,0.751692 0.79395,0.895765 0.62852,2.142852 -0.0975,0.735336 -0.48285,2.307454 -0.85623,3.493604 -1.69044,5.37017 -4.17501,9.22125 -7.56418,11.72449 l -1.25678,0.92825 v 17.201839 17.20184 l -0.89958,0.89959 c -0.76785,0.76785 -1.08168,0.89958 -2.14312,0.89958 -1.06145,0 -1.37527,-0.13173 -2.14313,-0.89958 l -0.89958,-0.89959 v -6.90562 -6.90563 h -1.31058 -1.31059 l -0.0785,7.03356 -0.0785,7.03355 -0.86407,0.77166 c -1.12561,1.00522 -2.98679,1.08489 -4.0885,0.17502 z m 3.55508,-41.625209 c -1.54736,-0.77108 -2.78782,-2.17974 -3.36831,-3.82503 -1.50399,-4.26277 1.82539,-8.991115 6.32664,-8.984992 3.7853,0.0051 6.77691,2.969588 6.77095,6.709462 -0.006,3.91146 -2.8498,6.76282 -6.75848,6.777 -1.19946,0.004 -1.94553,-0.16552 -2.9708,-0.67644 z" /><path
       id="path3174"
       style="fill:#000000;stroke-width:0.264583"
       d="m 1021.8315,79.556564 c -1.2954,-0.78991 -1.4236,-1.57012 -1.4236,-8.66236 v -6.44281 h -1.3229 -1.323 v 2.40771 c 0,2.3854 -0.01,2.41604 -0.8995,3.30729 -1.3076,1.30753 -2.0487,1.21564 -8.749,-1.08479 -3.1788,-1.09141 -5.8225,-1.98438 -5.8747,-1.98438 -0.3601,0 -1.1437,-1.90701 -1.1445,-2.7854 -10e-4,-1.23444 0.5086,-2.08115 1.5894,-2.64007 1.1242,-0.58134 1.5863,-0.5126 5.3457,0.79526 1.8823,0.65485 3.473,1.19063 3.5348,1.19063 0.062,0 0.1124,-4.55843 0.1124,-10.129839 v -10.12984 l -1.1245,-0.8588 c -3.0438,-2.32467 -6.1457,-7.51064 -7.4668,-12.48361 -0.8393,-3.159325 -0.8346,-3.517446 0.059,-4.479776 1.5433,-1.662789 3.7192,-0.966679 4.2886,1.372 1.6329,6.706316 4.42,11.108176 8.1229,12.829166 1.301,0.60467 1.9008,0.71782 3.7942,0.71582 1.9042,-0.002 2.5005,-0.11734 3.8899,-0.7523 3.3885,-1.54856 6.4668,-6.01447 7.7758,-11.280746 0.6771,-2.72415 1.0475,-3.349167 2.1602,-3.645392 1.7699,-0.471194 3.1075,0.578631 3.1075,2.438953 0,2.156885 -1.7052,6.987865 -3.6227,10.263445 -0.9522,1.62663 -3.7102,4.63857 -5.1824,5.65963 l -0.7353,0.50996 0.01,16.873979 c 0.01,13.99154 -0.057,17.02761 -0.3684,17.7733 -0.6781,1.62314 -2.91,2.22302 -4.55,1.22297 z m -5.262,-41.656459 c -1.4698,-0.68447 -2.8988,-2.14975 -3.503,-3.59197 -0.6001,-1.43265 -0.5125,-3.97625 0.1867,-5.42066 0.7197,-1.486769 2.542,-3.132417 3.9286,-3.547847 3.4076,-1.020961 6.6615,0.343554 8.3217,3.489727 0.8013,1.51857 0.8076,4.36596 0.013,5.85641 -1.7736,3.3264 -5.6871,4.7324 -8.947,3.21434 z" /><path
       id="path3170"
       style="fill:#000000;stroke-width:0.264583"
       d="m 955.65631,143.70188 c -0.47007,-0.2061 -1.0947,-0.76842 -1.38807,-1.24959 -0.51813,-0.84983 -0.53341,-1.30207 -0.53437,-15.80907 l -9.9e-4,-14.93422 -0.69317,0.9113 c -1.12274,1.47606 -2.6871,5.01582 -3.39692,7.68642 -0.73306,2.75801 -1.43553,3.67592 -2.81314,3.67592 -2.01787,0 -2.82783,-1.53689 -2.21389,-4.20085 1.23997,-5.38042 4.10903,-10.63524 7.20943,-13.20438 2.91372,-2.41446 5.07914,-3.20533 9.5806,-3.49909 2.0556,-0.13415 3.70784,-0.38453 4.36563,-0.66157 3.79159,-1.59692 6.52953,-5.552796 8.20799,-11.859186 0.72056,-2.70738 1.23723,-3.352 2.68663,-3.352 1.25187,0 1.91541,0.41127 2.35293,1.4584 0.33355,0.79831 0.30766,1.1342 -0.25992,3.37166 -1.45162,5.72245 -4.04507,10.140946 -7.56994,12.897016 -0.6514,0.50932 -1.42248,1.05804 -1.71353,1.21938 -0.51897,0.2877 -0.53171,0.63747 -0.66145,18.16245 -0.1288,17.39747 -0.14626,17.88476 -0.66146,18.46244 -1.78131,1.99734 -4.68839,1.33361 -5.40109,-1.23316 -0.16519,-0.59493 -0.28512,-3.60452 -0.28598,-7.17621 l -10e-4,-6.15157 h -1.19063 -1.19062 v 6.49079 c 0,6.98383 -0.14452,7.90109 -1.36697,8.6762 -0.9615,0.60967 -2.12083,0.73051 -3.0596,0.31892 z m 3.47377,-41.91954 c -2.51605,-1.14263 -3.93054,-3.389986 -3.92902,-6.242456 10e-4,-2.05568 0.41664,-3.11315 1.80258,-4.58725 1.40254,-1.49173 2.67733,-2.01423 4.93132,-2.0212 1.69464,-0.005 2.16503,0.10007 3.22167,0.72121 3.02677,1.77929 4.2605,5.25894 3.01807,8.51222 -0.55346,1.44921 -2.68686,3.462826 -4.07826,3.849286 -1.51685,0.4213 -3.75866,0.31667 -4.96636,-0.2318 z" /><circle
       style="fill:url(#radialGradient3255);fill-opacity:1;stroke:none;stroke-width:2.4466;stroke-linecap:round;stroke-linejoin:round"
       id="path3247"
       cx="409.75046"
       cy="170.65771"
       r="21.025206" /><path
       style="fill:none;stroke:#ffb200;stroke-width:3;stroke-linecap:round;stroke-linejoin:round;stroke-dasharray:none;stroke-opacity:1;marker-end:url(#Arrow29150)"
       d="M 340.90829,57.249954 538.26762,63.53218"
       id="path3320"
       sodipodi:nodetypes="cc"
       class="fragment"
       data-fragment-index="1" /><path
       style="fill:none;stroke:#ff6600;stroke-width:3;stroke-linecap:round;stroke-linejoin:round;stroke-dasharray:none;marker-end:url(#Arrow21888)"
       d="M 323.65709,88.652476 409.54246,147.33517 542.74407,82.567579"
       id="path3322"
       sodipodi:nodetypes="ccc"
       class="fragment"
       data-fragment-index="2" /></g></svg>
