<?xml version="1.0" encoding="UTF-8" standalone="no"?>
<!-- Created with Inkscape (http://www.inkscape.org/) -->

<svg
   width="180.39609mm"
   height="174.07144mm"
   viewBox="0 0 180.39608 174.07144"
   version="1.1"
   id="svg1"
   inkscape:version="1.4 (e7c3feb100, 2024-10-09)"
   sodipodi:docname="physical_separation.svg"
   xmlns:inkscape="http://www.inkscape.org/namespaces/inkscape"
   xmlns:sodipodi="http://sodipodi.sourceforge.net/DTD/sodipodi-0.dtd"
   xmlns:xlink="http://www.w3.org/1999/xlink"
   xmlns="http://www.w3.org/2000/svg"
   xmlns:svg="http://www.w3.org/2000/svg">
  <sodipodi:namedview
     id="namedview1"
     pagecolor="#ffffff"
     bordercolor="#000000"
     borderopacity="0.25"
     inkscape:showpageshadow="2"
     inkscape:pageopacity="0.0"
     inkscape:pagecheckerboard="0"
     inkscape:deskcolor="#d1d1d1"
     inkscape:document-units="mm"
     showgrid="false"
     inkscape:zoom="2.9279062"
     inkscape:cx="84.531397"
     inkscape:cy="303.28841"
     inkscape:window-width="2560"
     inkscape:window-height="1413"
     inkscape:window-x="1080"
     inkscape:window-y="27"
     inkscape:window-maximized="1"
     inkscape:current-layer="layer1" />
  <defs
     id="defs1">
    <marker
       style="overflow:visible"
       id="Triangle"
       refX="0"
       refY="0"
       orient="auto-start-reverse"
       inkscape:stockid="Triangle arrow"
       markerWidth="0.25"
       markerHeight="0.25"
       viewBox="0 0 1 1"
       inkscape:isstock="true"
       inkscape:collect="always"
       preserveAspectRatio="xMidYMid"
       markerUnits="userSpaceOnUse">
      <path
         transform="scale(0.5)"
         style="fill:context-stroke;fill-rule:evenodd;stroke:context-stroke;stroke-width:1pt"
         d="M 5.77,0 -2.88,5 V -5 Z"
         id="path135" />
    </marker>
    <g
       id="g5273">
      <g
         id="g9357">
        <path
           d="m 10.984375,-12.46875 c 0,-2.53125 -0.796875,-4.984375 -2.828125,-4.984375 -3.46875,0 -7.171875,7.265625 -7.171875,12.71875 0,1.140625 0.25,4.984375 2.859375,4.984375 3.375,0 7.140625,-7.09375 7.140625,-12.71875 z m -7.515625,3.5 c 0.375,-1.46875 0.890625,-3.546875 1.890625,-5.3125 0.8125,-1.484375 1.671875,-2.671875 2.765625,-2.671875 0.828125,0 1.359375,0.703125 1.359375,3.078125 0,0.890625 -0.0625,2.125 -0.78125,4.90625 z m 5.0625,0.734375 c -0.625,2.4375 -1.140625,4 -2.03125,5.5625 C 5.78125,-1.40625 4.90625,-0.25 3.859375,-0.25 c -0.765625,0 -1.375,-0.59375 -1.375,-3.046875 0,-1.609375 0.390625,-3.296875 0.78125,-4.9375 z m 0,0"
           id="path8526" />
      </g>
    </g>
  </defs>
  <g
     inkscape:label="Layer 1"
     inkscape:groupmode="layer"
     id="layer1"
     transform="translate(-2.3532512,-7.6679577)">
    <circle
       style="fill:none;stroke:#343b58;stroke-width:1.91352;stroke-linecap:butt;stroke-linejoin:round;stroke-dashoffset:4.80983"
       id="path1"
       cx="95.713608"
       cy="94.703682"
       r="86.078964" />
    <path
       style="fill:none;stroke:#343b58;stroke-width:1.48054;stroke-linecap:butt;stroke-linejoin:round;stroke-dashoffset:4.80983"
       d="M 16.873909,60.150974 95.7143,94.703579 10.191982,104.48322"
       id="path2" />
    <circle
       style="fill:#34548a;stroke:none;stroke-width:1.48054;stroke-linecap:butt;stroke-linejoin:round;stroke-dashoffset:4.80983"
       id="path3"
       cx="95.714302"
       cy="94.703583"
       r="3.2166276" />
    <path
       sodipodi:type="star"
       style="fill:#8f5e15;stroke:none;stroke-width:1;stroke-linecap:butt;stroke-linejoin:round;stroke-dashoffset:4.80983"
       id="path4"
       inkscape:flatsided="false"
       sodipodi:sides="5"
       sodipodi:cx="25.240795"
       sodipodi:cy="39.23365"
       sodipodi:r1="3.3153384"
       sodipodi:r2="1.2284644"
       sodipodi:arg1="1.089909"
       sodipodi:arg2="1.6856229"
       inkscape:rounded="0"
       inkscape:randomized="0"
       d="m 26.774358,42.172979 -1.674313,-1.718954 -2.180821,1.146433 1.117432,-2.123553 -1.764233,-1.719816 2.364924,0.406526 1.090464,-2.209337 0.344172,2.3748 2.438177,0.35437 -2.152214,1.06118 z"
       inkscape:transform-center-x="-0.22281511"
       inkscape:transform-center-y="-0.25172551"
       transform="matrix(1.4805406,0,0,1.4805406,-20.496113,2.0639607)" />
    <path
       sodipodi:type="star"
       style="fill:#8f5e15;stroke:none;stroke-width:1;stroke-linecap:butt;stroke-linejoin:round;stroke-dashoffset:4.80983"
       id="path5"
       inkscape:flatsided="false"
       sodipodi:sides="5"
       sodipodi:cx="25.240795"
       sodipodi:cy="39.23365"
       sodipodi:r1="3.3153384"
       sodipodi:r2="1.2284644"
       sodipodi:arg1="1.089909"
       sodipodi:arg2="1.6856229"
       inkscape:rounded="0"
       inkscape:randomized="0"
       d="m 26.774358,42.172979 -1.674313,-1.718954 -2.180821,1.146433 1.117432,-2.123553 -1.764233,-1.719816 2.364924,0.406526 1.090464,-2.209337 0.344172,2.3748 2.438177,0.35437 -2.152214,1.06118 z"
       inkscape:transform-center-x="-0.2228147"
       inkscape:transform-center-y="-0.25172566"
       transform="matrix(1.4805406,0,0,1.4805406,-27.178042,46.396202)" />
    <path
       id="circle5"
       style="fill:none;stroke:none;stroke-width:1.91352;stroke-linejoin:round;stroke-dashoffset:4.80983"
       d="M 5.6775255,103.67533 A 86.078964,86.078964 0 0 1 12.330729,59.246211" />
    <text
       xml:space="preserve"
       style="font-weight:500;font-size:4.93889px;line-height:1.1;font-family:'Fira Code';-inkscape-font-specification:'Fira Code, Medium';text-align:start;letter-spacing:0.0585868px;writing-mode:lr-tb;direction:ltr;text-anchor:start;fill:#5a4a78;stroke:none;stroke-width:0.962739;stroke-linecap:butt;stroke-linejoin:round;stroke-dashoffset:4.80983"
       x="64.16922"
       y="46.335167"
       id="text5"
       transform="rotate(23.782196)"><tspan
         sodipodi:role="line"
         id="tspan5"
         style="font-size:4.93889px;fill:#5a4a78;stroke-width:0.962739"
         x="64.16922"
         y="46.335167">distance</tspan></text>
    <text
       xml:space="preserve"
       style="font-weight:500;font-size:4.93889px;line-height:1.1;font-family:'Fira Code';-inkscape-font-specification:'Fira Code, Medium';text-align:center;letter-spacing:0.029685px;writing-mode:lr-tb;direction:ltr;text-anchor:middle;fill:#5a4a78;stroke:none;stroke-width:0.650262;stroke-linecap:butt;stroke-linejoin:round;stroke-dashoffset:4.80983"
       id="text6"><textPath
         xlink:href="#circle5"
         startOffset="50%"
         id="textPath11">separation</textPath></text>
    <g
       inkscape:label=""
       transform="matrix(0.99783576,0,0,0.99783576,65.855144,87.714122)"
       id="g6"
       style="fill:#5a4a78">
      <g
         fill="#000000"
         fill-opacity="1"
         id="g2"
         transform="matrix(0.352778,0,0,0.352778,-68.9361,-7.19803)"
         style="fill:#5a4a78">
        <g
           id="use1"
           transform="translate(194.425,37.856998)"
           style="fill:#5a4a78">
          <path
             d="m 10.984375,-12.46875 c 0,-2.53125 -0.796875,-4.984375 -2.828125,-4.984375 -3.46875,0 -7.171875,7.265625 -7.171875,12.71875 0,1.140625 0.25,4.984375 2.859375,4.984375 3.375,0 7.140625,-7.09375 7.140625,-12.71875 z m -7.515625,3.5 c 0.375,-1.46875 0.890625,-3.546875 1.890625,-5.3125 0.8125,-1.484375 1.671875,-2.671875 2.765625,-2.671875 0.828125,0 1.359375,0.703125 1.359375,3.078125 0,0.890625 -0.0625,2.125 -0.78125,4.90625 z m 5.0625,0.734375 c -0.625,2.4375 -1.140625,4 -2.03125,5.5625 C 5.78125,-1.40625 4.90625,-0.25 3.859375,-0.25 c -0.765625,0 -1.375,-0.59375 -1.375,-3.046875 0,-1.609375 0.390625,-3.296875 0.78125,-4.9375 z m 0,0"
             id="path2-1"
             style="fill:#5a4a78" />
        </g>
      </g>
    </g>
    <path
       style="fill:none;stroke:#965027;stroke-width:0.74;stroke-linecap:butt;stroke-linejoin:round;stroke-dasharray:none;stroke-dashoffset:4.80983;marker-start:url(#Triangle);marker-end:url(#Triangle)"
       id="path6"
       sodipodi:type="arc"
       sodipodi:cx="95.713608"
       sodipodi:cy="94.703682"
       sodipodi:rx="24.597296"
       sodipodi:ry="24.597296"
       sodipodi:start="3.1219017"
       sodipodi:end="3.4557278"
       sodipodi:open="true"
       sodipodi:arc-type="arc"
       d="m 71.12108,95.187995 a 24.597296,24.597296 0 0 1 1.198926,-8.084731" />
    <path
       style="fill:#485e30;stroke:none;stroke-width:0.592216;stroke-linecap:butt;stroke-linejoin:round;stroke-dasharray:none;stroke-dashoffset:4.80983"
       d="m 93.612489,92.992926 c -0.124514,0.07649 -0.193294,0.198894 -0.267581,0.317752 -0.03955,0.06328 -0.09678,0.119198 -0.133797,0.183963 -0.0087,0.01532 -0.008,0.03487 -0.01673,0.05018 -0.148181,0.259318 0.01963,-0.05453 -0.08362,0.100336 -0.03808,0.0571 -0.02785,0.06132 -0.05017,0.117066 -0.04086,0.102157 -0.09819,0.188984 -0.05018,0.30103 0.04154,0.09695 0.178972,0.02621 0.250859,0.05017 0.01907,0.0064 0.0322,0.02444 0.05016,0.03345 0.101373,0.05069 0.123403,0.08541 0.100351,0.200688 -0.0024,0.01096 0.005,0.02347 0,0.03346 -0.0071,0.01407 -0.02561,0.01974 -0.03346,0.03346 -0.01488,0.02606 -0.01857,0.05755 -0.03345,0.08362 -0.05417,0.09481 -0.164878,0.173017 -0.217412,0.267581 -0.0111,0.02009 -0.0065,0.04634 -0.01673,0.06689 -0.0071,0.01407 -0.0264,0.01935 -0.03345,0.03345 -0.03959,0.07918 -0.103742,0.31208 -0.05018,0.401372 0.0064,0.01066 0.02228,0.0111 0.03346,0.01673 0.08544,0.04273 0.139837,-2.03e-4 0.217412,-0.03345 0.05359,-0.02296 0.177355,-0.06942 0.234131,-0.08362 0.02794,-0.007 0.04417,0.02209 0.06691,0.03346 0.005,0.0024 0.0111,0 0.01673,0 0.0111,0.0056 0.02347,0.0092 0.03345,0.01673 0.08022,0.06017 0.2142,0.251524 0.234134,0.351203 0.009,0.04511 -0.01466,0.106658 0,0.150512 0.0095,0.0286 0.02761,0.03424 0.01673,0.06689 -0.0024,0.0075 -0.01516,0.009 -0.01673,0.01673 -0.01303,0.06504 0.0098,0.05854 0,0.117066 -0.0028,0.0174 -0.01421,0.0327 -0.01673,0.05018 -0.0114,0.07962 0.06569,0.373166 0.117067,0.43482 0.02018,0.02421 0.04459,0.04459 0.06689,0.06689 0.01199,0.01199 0.130939,0.100337 0.150514,0.100337 0.0111,0 -0.005,-0.02347 0,-0.03346 0.0036,-0.0071 0.01673,-0.0089 0.01673,-0.01673 0,-0.01244 -0.01436,-0.02123 -0.01673,-0.03345 -0.0031,-0.01642 0,-0.03345 0,-0.05018 -0.0111,-0.03345 -0.02582,-0.06593 -0.03346,-0.100336 -0.02594,-0.116681 0.03544,-0.231228 0.100337,-0.317752 0.01497,-0.01994 0.01583,-0.04927 0.03346,-0.06689 0.0089,-0.0089 0.02464,-0.0078 0.03345,-0.01673 0.04957,-0.04957 0.135884,-0.17143 0.167241,-0.234131 0.02213,-0.04424 0.02354,-0.117999 0.06689,-0.150516 0.01406,-0.01051 0.03549,-0.007 0.05017,-0.01673 0.02625,-0.01747 0.04066,-0.04941 0.06689,-0.06689 0.04338,-0.02891 0.09138,-0.05333 0.133796,-0.08362 0.05232,-0.03737 0.08569,-0.126986 0.117067,-0.150516 0.01407,-0.01051 0.03506,-0.0077 0.05016,-0.01673 0.01347,-0.0081 0.02116,-0.02358 0.03346,-0.03346 0.05784,-0.04628 0.0484,-0.0257 0.117066,-0.06689 0.0517,-0.03103 0.09658,-0.07338 0.150513,-0.100352 0.01578,-0.0078 0.03639,-0.0058 0.05018,-0.01673 0.01571,-0.01258 0.02444,-0.0322 0.03345,-0.05018 0.02504,-0.05004 -0.08634,-0.148806 -0.117066,-0.167241 -0.01512,-0.009 -0.03439,-0.0089 -0.05018,-0.01673 -0.169645,-0.08482 -0.440142,-0.218923 -0.401374,-0.451542 0.01318,-0.07945 0.06141,-0.149279 0.100351,-0.217409 0.01244,-0.02166 0.01814,-0.04721 0.03346,-0.06689 0.158142,-0.203333 0.412895,-0.28603 0.602056,-0.451545 0.109264,-0.0956 0.145744,-0.223014 0.200684,-0.351199 0.007,-0.01621 0.007,-0.03549 0.01673,-0.05018 0.02416,-0.03623 0.0545,-0.06799 0.08362,-0.100336 0.1339,-0.148774 0.360909,-0.36523 0.250857,-0.585336 -0.09256,-0.185139 -0.325999,-0.267581 -0.518438,-0.267581 -0.07062,0 -0.15251,-0.0055 -0.217411,0.03345 -0.07474,0.04485 -0.118843,0.143701 -0.183963,0.200686 -0.158575,0.138756 -0.337019,0.260172 -0.535161,0.334476 -0.03071,0.01155 -0.155124,0.04326 -0.183963,0 -0.0062,-0.0093 0.0028,-0.02264 0,-0.03346 -0.01497,-0.05987 -0.07767,-0.126468 -0.133797,-0.150516 -0.101046,-0.04331 -0.348874,-0.08478 -0.451542,-0.03346 -0.01861,0.0093 -0.109383,0.160914 -0.117067,0.183963 -0.0036,0.01051 0.0036,0.02287 0,0.03345 -0.0089,0.02661 -0.05426,0.04163 -0.06689,0.06689 -0.0213,0.0426 -0.03142,0.09002 -0.05018,0.133796 z"
       id="path10" />
    <path
       style="fill:#485e30;stroke:none;stroke-width:0.592216;stroke-linecap:butt;stroke-linejoin:round;stroke-dasharray:none;stroke-dashoffset:4.80983"
       d="m 97.20811,93.160165 c 0.02789,0.03345 0.06278,0.06212 0.08362,0.100351 0.02002,0.03667 0.01673,0.09246 0.01673,0.133796 0,0.03345 0.0073,0.06769 0,0.100336 -0.0043,0.01963 -0.02347,0.03271 -0.03345,0.05018 -0.01244,0.02166 -0.01676,0.04837 -0.03346,0.06689 -0.06899,0.07666 -0.209698,0.171745 -0.30103,0.217413 -0.07135,0.03568 -0.160545,0.03177 -0.234134,0.05016 -0.129621,0.03239 -0.263107,0.106644 -0.317753,0.234135 -0.0208,0.04859 0.04702,0.08661 0.08362,0.100351 0.02863,0.01066 0.127089,0.04443 0.167236,0.05016 0.05617,0.008 0.130406,-0.01787 0.183961,0 0.05731,0.01911 0.209966,0.06128 0.234136,0.133797 0.04459,0.133796 0.02116,0.249231 0.03346,0.384647 0.0076,0.08275 0.02723,0.166794 0.01673,0.250854 -0.01199,0.0957 -0.05493,0.188608 -0.06689,0.284307 -0.009,0.07222 -0.0087,0.144989 -0.01673,0.217408 -0.005,0.04569 -0.02773,0.08818 -0.03345,0.133797 -0.0062,0.04979 0.0055,0.100647 0,0.150516 -0.009,0.08113 -0.03635,0.194265 -0.06689,0.267581 -0.01728,0.04148 -0.0468,0.07687 -0.06689,0.117066 -0.02342,0.04685 -0.04369,0.07039 -0.08362,0.100337 -0.01258,0.0095 -0.02228,0.0223 -0.03345,0.03346 -0.02789,0.0223 -0.05457,0.04615 -0.08362,0.06689 -0.0717,0.05121 -0.286849,0.07703 -0.367925,0.06689 -0.0228,-0.0028 -0.04399,-0.01481 -0.06689,-0.01673 -0.108094,-0.009 -0.225779,0 -0.334479,0 -0.05447,0 -0.114224,-0.01066 -0.167236,0 -0.116667,0.02335 -0.339763,0.08714 -0.43482,0.150514 -0.02616,0.01747 -0.212453,0.122026 -0.16724,0.167239 0.0078,0.0078 0.02287,-0.0036 0.03346,0 0.01907,0.0064 0.03035,0.03675 0.05017,0.03346 0.07416,-0.01244 0.103801,-0.05824 0.167236,-0.08362 0.0663,-0.02652 0.16811,0.01066 0.234136,0.01673 0.06107,0.0056 0.124099,-0.01332 0.183962,0 0.0293,0.0065 0.05475,0.02518 0.08362,0.03345 0.01066,0.0031 0.02347,-0.005 0.03346,0 0.01407,0.0071 0.0188,0.02758 0.03345,0.03346 0.01552,0.0062 0.03463,-0.0062 0.05018,0 0.01466,0.0058 0.0188,0.02758 0.03346,0.03346 0.06987,0.02797 0.33031,-0.0031 0.40137,-0.03346 0.04378,-0.01876 0.09569,-0.02159 0.133797,-0.05016 0.0099,-0.0076 0.0078,-0.02464 0.01673,-0.03346 0.01125,-0.01125 0.08461,-0.05018 0.100351,-0.05018 0.0078,0 -0.0111,0.0111 -0.01673,0.01673 -0.0298,0.0298 -0.0065,0.0028 -0.03345,0.05018 -0.0253,0.04428 -0.248347,0.411685 -0.06689,0.351203 0.05676,-0.01892 0.105489,-0.09777 0.150514,-0.133796 0.01947,-0.01559 0.04927,-0.01583 0.06689,-0.03346 0.04063,-0.04061 -0.005,-0.02456 0.03346,-0.05018 0.03568,-0.02378 0.06599,-0.0077 0.100336,-0.03346 0.07133,-0.05351 0.136506,-0.126779 0.217413,-0.167239 0.03373,-0.01685 0.07258,-0.0028 0.100336,-0.01673 0.126601,-0.06329 0.27069,-0.135351 0.401375,-0.200686 0.01919,-0.0096 0.0329,-0.03721 0.05017,-0.05017 0.05105,-0.03827 0.118991,-0.06818 0.167236,-0.100351 0.0532,-0.03544 0.101003,-0.09418 0.150518,-0.133797 0.02049,-0.01637 0.05354,-0.02347 0.06689,-0.05017 0.0111,-0.02228 0.03016,-0.06363 0.05016,-0.08362 0.01763,-0.01763 0.04927,-0.01583 0.06689,-0.03346 0.05573,-0.05573 0.126734,-0.212978 0.150516,-0.284308 0.01022,-0.03083 0.03932,-0.0565 0.05018,-0.08362 0.09215,-0.230362 0.178384,-0.574187 0.117066,-0.819467 -0.0061,-0.02416 -0.02558,-0.04325 -0.03345,-0.06689 -0.03651,-0.10956 -0.08676,-0.205401 -0.150518,-0.301029 -0.0273,-0.04094 -0.03744,-0.0945 -0.06689,-0.133797 -0.06087,-0.08116 -0.157935,-0.196937 -0.183957,-0.301029 -0.01258,-0.05012 -0.008,-0.269676 0,-0.317754 0.0052,-0.03083 0.05016,-0.103194 0.05016,-0.133796 0,-0.0078 -0.01318,-0.0096 -0.01673,-0.01673 -0.0067,-0.01332 0.0067,-0.03678 0,-0.05018 -0.02487,-0.04972 -0.09624,-0.222685 -0.133797,-0.250858 -0.0152,-0.0114 -0.09495,-0.04464 -0.117066,-0.05016 -0.104615,-0.02616 -0.178328,0.07782 -0.200684,0.167236 -0.02273,0.09092 0.01488,0.186724 -0.05018,0.284307 -0.03584,0.05379 -0.109412,-0.135189 -0.117066,-0.150517 -0.01451,-0.02906 -0.03737,-0.05374 -0.05016,-0.08362 -0.0077,-0.01806 -0.02444,-0.115793 -0.03345,-0.133796 -0.01273,-0.02549 -0.03768,-0.04196 -0.05018,-0.06689 -0.0036,-0.0073 -0.01303,-0.02609 -0.01673,-0.03345 -0.0024,-0.005 0.0055,-0.01595 0,-0.01673 -0.03863,-0.0055 -0.07804,0 -0.117066,0 z"
       id="path11" />
  </g>
</svg>
