<?xml version="1.0" encoding="utf-8" standalone="no"?>
<!DOCTYPE svg PUBLIC "-//W3C//DTD SVG 1.1//EN"
  "http://www.w3.org/Graphics/SVG/1.1/DTD/svg11.dtd">
<svg xmlns:xlink="http://www.w3.org/1999/xlink" width="1152pt" height="648pt" viewBox="0 0 1152 648" xmlns="http://www.w3.org/2000/svg" version="1.1">
 <metadata>
  <rdf:RDF xmlns:dc="http://purl.org/dc/elements/1.1/" xmlns:cc="http://creativecommons.org/ns#" xmlns:rdf="http://www.w3.org/1999/02/22-rdf-syntax-ns#">
   <cc:Work>
    <dc:type rdf:resource="http://purl.org/dc/dcmitype/StillImage"/>
    <dc:date>2023-02-22T00:19:52.628909</dc:date>
    <dc:format>image/svg+xml</dc:format>
    <dc:creator>
     <cc:Agent>
      <dc:title>Matplotlib v3.6.2, https://matplotlib.org/</dc:title>
     </cc:Agent>
    </dc:creator>
   </cc:Work>
  </rdf:RDF>
 </metadata>
 <defs>
  <style type="text/css">*{stroke-linejoin: round; stroke-linecap: butt}</style>
 </defs>
 <g id="figure_1">
  <g id="patch_1">
   <path d="M 0 648 
L 1152 648 
L 1152 0 
L 0 0 
L 0 648 
z
" style="fill: none"/>
  </g>
  <g id="axes_1">
   <g id="patch_2">
    <path d="M 144 224.512941 
L 549.818182 224.512941 
L 549.818182 77.76 
L 144 77.76 
z
" style="fill: #eaeaf2"/>
   </g>
   <g id="matplotlib.axis_1">
    <g id="xtick_1">
     <g id="line2d_1">
      <path d="M 144 224.512941 
L 144 77.76 
" clip-path="url(#pad4614e559)" style="fill: none; stroke: #ffffff; stroke-width: 1.6; stroke-linecap: round"/>
     </g>
    </g>
    <g id="xtick_2">
     <g id="line2d_2">
      <path d="M 211.636364 224.512941 
L 211.636364 77.76 
" clip-path="url(#pad4614e559)" style="fill: none; stroke: #ffffff; stroke-width: 1.6; stroke-linecap: round"/>
     </g>
    </g>
    <g id="xtick_3">
     <g id="line2d_3">
      <path d="M 279.272727 224.512941 
L 279.272727 77.76 
" clip-path="url(#pad4614e559)" style="fill: none; stroke: #ffffff; stroke-width: 1.6; stroke-linecap: round"/>
     </g>
    </g>
    <g id="xtick_4">
     <g id="line2d_4">
      <path d="M 346.909091 224.512941 
L 346.909091 77.76 
" clip-path="url(#pad4614e559)" style="fill: none; stroke: #ffffff; stroke-width: 1.6; stroke-linecap: round"/>
     </g>
    </g>
    <g id="xtick_5">
     <g id="line2d_5">
      <path d="M 414.545455 224.512941 
L 414.545455 77.76 
" clip-path="url(#pad4614e559)" style="fill: none; stroke: #ffffff; stroke-width: 1.6; stroke-linecap: round"/>
     </g>
    </g>
    <g id="xtick_6">
     <g id="line2d_6">
      <path d="M 482.181818 224.512941 
L 482.181818 77.76 
" clip-path="url(#pad4614e559)" style="fill: none; stroke: #ffffff; stroke-width: 1.6; stroke-linecap: round"/>
     </g>
    </g>
    <g id="xtick_7">
     <g id="line2d_7">
      <path d="M 549.818182 224.512941 
L 549.818182 77.76 
" clip-path="url(#pad4614e559)" style="fill: none; stroke: #ffffff; stroke-width: 1.6; stroke-linecap: round"/>
     </g>
    </g>
   </g>
   <g id="matplotlib.axis_2">
    <g id="ytick_1">
     <g id="line2d_8">
      <path d="M 144 217.842353 
L 549.818182 217.842353 
" clip-path="url(#pad4614e559)" style="fill: none; stroke: #ffffff; stroke-width: 1.6; stroke-linecap: round"/>
     </g>
    </g>
    <g id="ytick_2">
     <g id="line2d_9">
      <path d="M 144 151.136471 
L 549.818182 151.136471 
" clip-path="url(#pad4614e559)" style="fill: none; stroke: #ffffff; stroke-width: 1.6; stroke-linecap: round"/>
     </g>
    </g>
    <g id="ytick_3">
     <g id="line2d_10">
      <path d="M 144 84.430588 
L 549.818182 84.430588 
" clip-path="url(#pad4614e559)" style="fill: none; stroke: #ffffff; stroke-width: 1.6; stroke-linecap: round"/>
     </g>
    </g>
   </g>
   <g id="line2d_11">
    <path d="M 144 151.136471 
L 146.299659 117.180107 
L 147.517126 102.509602 
L 148.464045 93.719562 
L 149.140415 89.114617 
L 149.681511 86.526057 
L 150.222608 84.956463 
L 150.62843 84.463471 
L 150.898978 84.463537 
L 151.169526 84.726736 
L 151.575348 85.612353 
L 151.981171 87.079578 
L 152.522267 89.917363 
L 153.198637 94.815595 
L 154.010282 102.511037 
L 154.9572 113.643607 
L 156.309941 132.527954 
L 160.503438 193.65837 
L 161.58563 205.104264 
L 162.397275 211.494971 
L 163.073645 215.194533 
L 163.614742 217.021568 
L 164.020564 217.710919 
L 164.291112 217.842353 
L 164.56166 217.710524 
L 164.832208 217.315953 
L 165.238031 216.235141 
L 165.779127 213.897609 
L 166.455497 209.589605 
L 167.267142 202.531939 
L 168.21406 192.018012 
L 169.431527 175.688881 
L 171.595912 142.771765 
L 173.489749 115.389814 
L 174.571942 102.506733 
L 175.518861 93.717429 
L 176.195231 89.113074 
L 176.736327 86.525015 
L 177.277424 84.955938 
L 177.683246 84.46334 
L 177.953794 84.463669 
L 178.224342 84.72713 
L 178.630164 85.613138 
L 179.035987 87.080747 
L 179.577083 89.919028 
L 180.253453 94.817841 
L 181.065098 102.513906 
L 182.012016 113.647074 
L 183.364757 132.531979 
L 187.558254 193.661599 
L 188.640446 205.106728 
L 189.452091 211.496755 
L 190.128461 215.195702 
L 190.669558 217.022223 
L 191.07538 217.711182 
L 191.345928 217.842353 
L 191.616476 217.710261 
L 191.887024 217.315427 
L 192.292847 216.234227 
L 192.833943 213.896189 
L 193.510313 209.587585 
L 194.321958 202.529267 
L 195.268876 192.0147 
L 196.486343 175.684983 
L 198.650728 142.767607 
L 200.544565 115.386276 
L 201.626758 102.503864 
L 202.573677 93.715296 
L 203.250047 89.111531 
L 203.791143 86.523973 
L 204.33224 84.955413 
L 204.738062 84.463209 
L 205.00861 84.463801 
L 205.279158 84.727525 
L 205.68498 85.613924 
L 206.090803 87.081917 
L 206.631899 89.920693 
L 207.308269 94.820087 
L 208.119914 102.516775 
L 209.066832 113.65054 
L 210.419573 132.536004 
L 214.61307 193.664829 
L 215.695262 205.109191 
L 216.506907 211.498539 
L 217.183277 215.19687 
L 217.724374 217.022879 
L 218.130196 217.711444 
L 218.400744 217.842352 
L 218.671292 217.709997 
L 218.94184 217.314901 
L 219.347663 216.233312 
L 219.888759 213.894769 
L 220.565129 209.585566 
L 221.376774 202.526595 
L 222.323692 192.011388 
L 223.541159 175.681086 
L 225.705544 142.763449 
L 227.599381 115.382737 
L 228.681574 102.500996 
L 229.628493 93.713163 
L 230.304863 89.109989 
L 230.845959 86.522932 
L 231.387056 84.954889 
L 231.792878 84.463078 
L 232.063426 84.463933 
L 232.333974 84.727921 
L 232.739796 85.61471 
L 233.145619 87.083087 
L 233.686715 89.922358 
L 234.363085 94.822334 
L 235.17473 102.519645 
L 236.121648 113.654007 
L 237.474389 132.540029 
L 241.667886 193.668057 
L 242.750078 205.111654 
L 243.561723 211.500323 
L 244.238093 215.198039 
L 244.77919 217.023533 
L 245.185012 217.711707 
L 245.45556 217.842351 
L 245.726108 217.709733 
L 245.996656 217.314375 
L 246.402479 216.232397 
L 246.943575 213.893349 
L 247.619945 209.583546 
L 248.43159 202.523922 
L 249.378508 192.008076 
L 250.595975 175.677189 
L 252.76036 142.759291 
L 254.654197 115.379199 
L 255.73639 102.498127 
L 256.683309 93.71103 
L 257.359679 89.108447 
L 257.900775 86.52189 
L 258.441872 84.954364 
L 258.847694 84.462947 
L 259.118242 84.464066 
L 259.38879 84.728316 
L 259.794612 85.615497 
L 260.200435 87.084258 
L 260.741531 89.924023 
L 261.417901 94.82458 
L 262.229546 102.522515 
L 263.176464 113.657474 
L 264.529205 132.544054 
L 268.722702 193.671286 
L 269.804894 205.114116 
L 270.616539 211.502107 
L 271.292909 215.199207 
L 271.834006 217.024188 
L 272.239828 217.711969 
L 272.510376 217.84235 
L 272.780924 217.709468 
L 273.051472 217.313848 
L 273.457295 216.231481 
L 273.998391 213.891928 
L 274.674761 209.581526 
L 275.486406 202.52125 
L 276.433324 192.004763 
L 277.650791 175.673291 
L 279.815176 142.755133 
L 281.709013 115.375661 
L 282.791206 102.495259 
L 283.738125 93.708897 
L 284.414495 89.106905 
L 284.955591 86.520849 
L 285.496688 84.95384 
L 285.90251 84.462817 
L 286.173058 84.464199 
L 286.443606 84.728712 
L 286.849428 85.616283 
L 287.255251 87.085428 
L 287.796347 89.925689 
L 288.472717 94.826827 
L 289.284362 102.525385 
L 290.23128 113.660942 
L 291.584021 132.548079 
L 295.777518 193.674515 
L 296.85971 205.116579 
L 297.671355 211.50389 
L 298.347725 215.200375 
L 298.888822 217.024842 
L 299.294644 217.71223 
L 299.565192 217.842349 
L 299.83574 217.709204 
L 300.106288 217.313322 
L 300.512111 216.230566 
L 301.053207 213.890507 
L 301.729577 209.579505 
L 302.541222 202.518577 
L 303.48814 192.001451 
L 304.705607 175.669394 
L 306.869992 142.750975 
L 308.763829 115.372123 
L 309.846022 102.492391 
L 310.792941 93.706765 
L 311.469311 89.105364 
L 312.010407 86.519808 
L 312.551504 84.953316 
L 312.957326 84.462687 
L 313.227874 84.464332 
L 313.498422 84.729108 
L 313.904244 85.61707 
L 314.310067 87.086599 
L 314.851163 89.927355 
L 315.527533 94.829074 
L 316.339178 102.528255 
L 317.286096 113.664409 
L 318.638837 132.552105 
L 322.832334 193.677743 
L 323.914526 205.119041 
L 324.726171 211.505673 
L 325.402541 215.201543 
L 325.943638 217.025496 
L 326.34946 217.712492 
L 326.620008 217.842347 
L 326.890556 217.708939 
L 327.161104 217.312795 
L 327.566927 216.22965 
L 328.108023 213.889085 
L 328.784393 209.577485 
L 329.596038 202.515904 
L 330.542956 191.998138 
L 331.760423 175.665496 
L 333.924808 142.746817 
L 335.818645 115.368585 
L 336.900838 102.489523 
L 337.847757 93.704633 
L 338.524127 89.103822 
L 339.065223 86.518768 
L 339.60632 84.952793 
L 340.012142 84.462557 
L 340.28269 84.464466 
L 340.553238 84.729504 
L 340.95906 85.617857 
L 341.364883 87.08777 
L 341.905979 89.929021 
L 342.582349 94.831322 
L 343.393994 102.531126 
L 344.340913 113.667877 
L 345.693653 132.55613 
L 349.88715 193.680972 
L 350.969342 205.121503 
L 351.780987 211.507456 
L 352.457357 215.20271 
L 352.998454 217.02615 
L 353.404276 217.712753 
L 353.674824 217.842345 
L 353.945372 217.708674 
L 354.21592 217.312268 
L 354.621743 216.228734 
L 355.162839 213.887664 
L 355.839209 209.575464 
L 356.650854 202.513231 
L 357.597772 191.994825 
L 358.815239 175.661599 
L 360.979624 142.742659 
L 362.873461 115.365047 
L 363.955654 102.486655 
L 364.902573 93.702501 
L 365.578943 89.102281 
L 366.120039 86.517727 
L 366.661136 84.95227 
L 367.066958 84.462427 
L 367.337506 84.464599 
L 367.608054 84.7299 
L 368.013877 85.618645 
L 368.419699 87.088941 
L 368.960795 89.930688 
L 369.637165 94.833569 
L 370.44881 102.533997 
L 371.395729 113.671344 
L 372.748469 132.560156 
L 376.941966 193.6842 
L 378.024158 205.123965 
L 378.835803 211.509239 
L 379.512173 215.203878 
L 380.05327 217.026804 
L 380.459092 217.713014 
L 380.72964 217.842343 
L 381.000188 217.708409 
L 381.270736 217.31174 
L 381.676559 216.227817 
L 382.217655 213.886242 
L 382.894025 209.573443 
L 383.70567 202.510558 
L 384.652588 191.991512 
L 385.870055 175.657701 
L 388.03444 142.738501 
L 389.928277 115.361509 
L 391.01047 102.483788 
L 391.957389 93.70037 
L 392.633759 89.100741 
L 393.174855 86.516687 
L 393.715952 84.951747 
L 394.121774 84.462298 
L 394.392322 84.464733 
L 394.66287 84.730297 
L 395.068693 85.619432 
L 395.474515 87.090113 
L 396.015611 89.932354 
L 396.691981 94.835817 
L 397.503626 102.536867 
L 398.450545 113.674812 
L 399.803285 132.564181 
L 403.996782 193.687428 
L 405.078974 205.126427 
L 405.890619 211.511021 
L 406.566989 215.205045 
L 407.108086 217.027457 
L 407.513908 217.713275 
L 407.784456 217.84234 
L 408.055004 217.708143 
L 408.325552 217.311212 
L 408.731375 216.226901 
L 409.272471 213.88482 
L 409.948841 209.571421 
L 410.760486 202.507884 
L 411.707404 191.988199 
L 412.924871 175.653803 
L 415.089256 142.734343 
L 416.983093 115.357972 
L 418.065286 102.480921 
L 419.012205 93.698238 
L 419.688575 89.0992 
L 420.229671 86.515647 
L 420.770768 84.951224 
L 421.17659 84.462169 
L 421.447138 84.464867 
L 421.717686 84.730694 
L 422.123509 85.62022 
L 422.529331 87.091285 
L 423.070427 89.934021 
L 423.746797 94.838065 
L 424.558442 102.539738 
L 425.505361 113.67828 
L 426.858101 132.568207 
L 431.051598 193.690655 
L 432.13379 205.128888 
L 432.945435 211.512803 
L 433.621805 215.206211 
L 434.162902 217.02811 
L 434.568724 217.713535 
L 434.839272 217.842338 
L 435.10982 217.707877 
L 435.380368 217.310684 
L 435.786191 216.225984 
L 436.327287 213.883398 
L 437.003657 209.5694 
L 437.815302 202.50521 
L 438.76222 191.984885 
L 439.979687 175.649905 
L 442.144072 142.730185 
L 444.037909 115.354435 
L 445.120102 102.478053 
L 446.067021 93.696107 
L 446.743391 89.09766 
L 447.284487 86.514608 
L 447.825584 84.950701 
L 448.231406 84.46204 
L 448.501954 84.465002 
L 448.772502 84.731091 
L 449.178325 85.621008 
L 449.584147 87.092457 
L 450.125243 89.935689 
L 450.801613 94.840313 
L 451.613258 102.54261 
L 452.560177 113.681748 
L 453.912917 132.572232 
L 458.106414 193.693883 
L 459.188606 205.131349 
L 460.000251 211.514585 
L 460.676621 215.207378 
L 461.217718 217.028763 
L 461.62354 217.713796 
L 461.894088 217.842335 
L 462.164636 217.707611 
L 462.435184 217.310156 
L 462.841007 216.225066 
L 463.382103 213.881975 
L 464.058473 209.567378 
L 464.870118 202.502536 
L 465.817036 191.981571 
L 467.034503 175.646007 
L 469.198888 142.726027 
L 471.092725 115.350897 
L 472.174918 102.475187 
L 473.121837 93.693976 
L 473.798207 89.09612 
L 474.339303 86.513568 
L 474.8804 84.950179 
L 475.286222 84.461911 
L 475.55677 84.465137 
L 475.827318 84.731489 
L 476.233141 85.621797 
L 476.638963 87.093629 
L 477.180059 89.937356 
L 477.856429 94.842562 
L 478.668074 102.545481 
L 479.614993 113.685217 
L 480.967733 132.576258 
L 485.16123 193.69711 
L 486.243422 205.13381 
L 487.055067 211.516367 
L 487.731437 215.208544 
L 488.272534 217.029415 
L 488.678356 217.714056 
L 488.948904 217.842332 
L 489.219452 217.707345 
L 489.49 217.309628 
L 489.895823 216.224149 
L 490.436919 213.880552 
L 491.113289 209.565356 
L 491.924934 202.499862 
L 492.871852 191.978258 
L 494.089319 175.642109 
L 496.253704 142.721869 
L 498.147541 115.34736 
L 499.229734 102.47232 
L 500.176653 93.691846 
L 500.853023 89.09458 
L 501.394119 86.512529 
L 501.935216 84.949657 
L 502.341038 84.461783 
L 502.611586 84.465272 
L 502.882134 84.731887 
L 503.287957 85.622585 
L 503.693779 87.094802 
L 504.234875 89.939024 
L 504.911245 94.84481 
L 505.72289 102.548353 
L 506.669809 113.688685 
L 508.022549 132.580284 
L 512.216046 193.700338 
L 513.298238 205.136271 
L 514.109883 211.518148 
L 514.786253 215.20971 
L 515.32735 217.030067 
L 515.733172 217.714315 
L 516.00372 217.842328 
L 516.274268 217.707078 
L 516.544816 217.309099 
L 516.950639 216.223231 
L 517.491735 213.879129 
L 518.168105 209.563334 
L 518.97975 202.497188 
L 519.926668 191.974944 
L 521.144135 175.638211 
L 523.30852 142.717711 
L 525.202357 115.343823 
L 526.28455 102.469453 
L 527.231469 93.689715 
L 527.907839 89.09304 
L 528.448935 86.51149 
L 528.990032 84.949135 
L 529.395854 84.461655 
L 529.666402 84.465407 
L 529.93695 84.732285 
L 530.342773 85.623374 
L 530.748595 87.095974 
L 531.289691 89.940691 
L 531.966061 94.847059 
L 532.777706 102.551224 
L 533.724625 113.692154 
L 535.077365 132.58431 
L 539.270862 193.703565 
L 540.353054 205.138732 
L 541.164699 211.519929 
L 541.841069 215.210876 
L 542.382166 217.030719 
L 542.787988 217.714575 
L 543.058536 217.842324 
L 543.329084 217.706811 
L 543.599632 217.30857 
L 544.005455 216.222313 
L 544.546551 213.877706 
L 545.222921 209.561311 
L 546.034566 202.494513 
L 546.981484 191.97163 
L 548.198951 175.634312 
L 549.82224 151.073601 
L 549.82224 151.073601 
" clip-path="url(#pad4614e559)" style="fill: none; stroke: #1f77b4; stroke-width: 2.8; stroke-linecap: round"/>
   </g>
   <g id="patch_3">
    <path d="M 144 224.512941 
L 144 77.76 
" style="fill: none"/>
   </g>
   <g id="patch_4">
    <path d="M 549.818182 224.512941 
L 549.818182 77.76 
" style="fill: none"/>
   </g>
   <g id="patch_5">
    <path d="M 144 224.512941 
L 549.818182 224.512941 
" style="fill: none"/>
   </g>
   <g id="patch_6">
    <path d="M 144 77.76 
L 549.818182 77.76 
" style="fill: none"/>
   </g>
  </g>
  <g id="axes_2">
   <g id="patch_7">
    <path d="M 630.981818 224.512941 
L 1036.8 224.512941 
L 1036.8 77.76 
L 630.981818 77.76 
z
" style="fill: #eaeaf2"/>
   </g>
   <g id="matplotlib.axis_3">
    <g id="xtick_8">
     <g id="line2d_12">
      <path d="M 630.981818 224.512941 
L 630.981818 77.76 
" clip-path="url(#p76aece0a9d)" style="fill: none; stroke: #ffffff; stroke-width: 1.6; stroke-linecap: round"/>
     </g>
    </g>
    <g id="xtick_9">
     <g id="line2d_13">
      <path d="M 681.709091 224.512941 
L 681.709091 77.76 
" clip-path="url(#p76aece0a9d)" style="fill: none; stroke: #ffffff; stroke-width: 1.6; stroke-linecap: round"/>
     </g>
    </g>
    <g id="xtick_10">
     <g id="line2d_14">
      <path d="M 732.436364 224.512941 
L 732.436364 77.76 
" clip-path="url(#p76aece0a9d)" style="fill: none; stroke: #ffffff; stroke-width: 1.6; stroke-linecap: round"/>
     </g>
    </g>
    <g id="xtick_11">
     <g id="line2d_15">
      <path d="M 783.163636 224.512941 
L 783.163636 77.76 
" clip-path="url(#p76aece0a9d)" style="fill: none; stroke: #ffffff; stroke-width: 1.6; stroke-linecap: round"/>
     </g>
    </g>
    <g id="xtick_12">
     <g id="line2d_16">
      <path d="M 833.890909 224.512941 
L 833.890909 77.76 
" clip-path="url(#p76aece0a9d)" style="fill: none; stroke: #ffffff; stroke-width: 1.6; stroke-linecap: round"/>
     </g>
    </g>
    <g id="xtick_13">
     <g id="line2d_17">
      <path d="M 884.618182 224.512941 
L 884.618182 77.76 
" clip-path="url(#p76aece0a9d)" style="fill: none; stroke: #ffffff; stroke-width: 1.6; stroke-linecap: round"/>
     </g>
    </g>
    <g id="xtick_14">
     <g id="line2d_18">
      <path d="M 935.345455 224.512941 
L 935.345455 77.76 
" clip-path="url(#p76aece0a9d)" style="fill: none; stroke: #ffffff; stroke-width: 1.6; stroke-linecap: round"/>
     </g>
    </g>
    <g id="xtick_15">
     <g id="line2d_19">
      <path d="M 986.072727 224.512941 
L 986.072727 77.76 
" clip-path="url(#p76aece0a9d)" style="fill: none; stroke: #ffffff; stroke-width: 1.6; stroke-linecap: round"/>
     </g>
    </g>
    <g id="xtick_16">
     <g id="line2d_20">
      <path d="M 1036.8 224.512941 
L 1036.8 77.76 
" clip-path="url(#p76aece0a9d)" style="fill: none; stroke: #ffffff; stroke-width: 1.6; stroke-linecap: round"/>
     </g>
    </g>
   </g>
   <g id="matplotlib.axis_4">
    <g id="ytick_4">
     <g id="line2d_21">
      <path d="M 630.981818 217.842353 
L 1036.8 217.842353 
" clip-path="url(#p76aece0a9d)" style="fill: none; stroke: #ffffff; stroke-width: 1.6; stroke-linecap: round"/>
     </g>
    </g>
    <g id="ytick_5">
     <g id="line2d_22">
      <path d="M 630.981818 164.472724 
L 1036.8 164.472724 
" clip-path="url(#p76aece0a9d)" style="fill: none; stroke: #ffffff; stroke-width: 1.6; stroke-linecap: round"/>
     </g>
    </g>
    <g id="ytick_6">
     <g id="line2d_23">
      <path d="M 630.981818 111.103095 
L 1036.8 111.103095 
" clip-path="url(#p76aece0a9d)" style="fill: none; stroke: #ffffff; stroke-width: 1.6; stroke-linecap: round"/>
     </g>
    </g>
   </g>
   <g id="line2d_24">
    <path d="M 630.778909 217.842353 
L 732.233455 217.838977 
L 732.436364 84.430588 
L 732.639273 217.839057 
L 741.973091 217.842352 
L 935.142545 217.839057 
L 935.345455 84.430588 
L 935.548364 217.838977 
L 944.679273 217.842351 
L 1037.002909 217.842353 
L 1037.002909 217.842353 
" clip-path="url(#p76aece0a9d)" style="fill: none; stroke: #9467bd; stroke-width: 2.8; stroke-linecap: round"/>
   </g>
   <g id="patch_8">
    <path d="M 630.981818 224.512941 
L 630.981818 77.76 
" style="fill: none"/>
   </g>
   <g id="patch_9">
    <path d="M 1036.8 224.512941 
L 1036.8 77.76 
" style="fill: none"/>
   </g>
   <g id="patch_10">
    <path d="M 630.981818 224.512941 
L 1036.8 224.512941 
" style="fill: none"/>
   </g>
   <g id="patch_11">
    <path d="M 630.981818 77.76 
L 1036.8 77.76 
" style="fill: none"/>
   </g>
  </g>
  <g id="axes_3">
   <g id="patch_12">
    <path d="M 144 400.616471 
L 549.818182 400.616471 
L 549.818182 253.863529 
L 144 253.863529 
z
" style="fill: #eaeaf2"/>
   </g>
   <g id="matplotlib.axis_5">
    <g id="xtick_17">
     <g id="line2d_25">
      <path d="M 144 400.616471 
L 144 253.863529 
" clip-path="url(#p39e034e54c)" style="fill: none; stroke: #ffffff; stroke-width: 1.6; stroke-linecap: round"/>
     </g>
    </g>
    <g id="xtick_18">
     <g id="line2d_26">
      <path d="M 211.636364 400.616471 
L 211.636364 253.863529 
" clip-path="url(#p39e034e54c)" style="fill: none; stroke: #ffffff; stroke-width: 1.6; stroke-linecap: round"/>
     </g>
    </g>
    <g id="xtick_19">
     <g id="line2d_27">
      <path d="M 279.272727 400.616471 
L 279.272727 253.863529 
" clip-path="url(#p39e034e54c)" style="fill: none; stroke: #ffffff; stroke-width: 1.6; stroke-linecap: round"/>
     </g>
    </g>
    <g id="xtick_20">
     <g id="line2d_28">
      <path d="M 346.909091 400.616471 
L 346.909091 253.863529 
" clip-path="url(#p39e034e54c)" style="fill: none; stroke: #ffffff; stroke-width: 1.6; stroke-linecap: round"/>
     </g>
    </g>
    <g id="xtick_21">
     <g id="line2d_29">
      <path d="M 414.545455 400.616471 
L 414.545455 253.863529 
" clip-path="url(#p39e034e54c)" style="fill: none; stroke: #ffffff; stroke-width: 1.6; stroke-linecap: round"/>
     </g>
    </g>
    <g id="xtick_22">
     <g id="line2d_30">
      <path d="M 482.181818 400.616471 
L 482.181818 253.863529 
" clip-path="url(#p39e034e54c)" style="fill: none; stroke: #ffffff; stroke-width: 1.6; stroke-linecap: round"/>
     </g>
    </g>
    <g id="xtick_23">
     <g id="line2d_31">
      <path d="M 549.818182 400.616471 
L 549.818182 253.863529 
" clip-path="url(#p39e034e54c)" style="fill: none; stroke: #ffffff; stroke-width: 1.6; stroke-linecap: round"/>
     </g>
    </g>
   </g>
   <g id="matplotlib.axis_6">
    <g id="ytick_7">
     <g id="line2d_32">
      <path d="M 144 393.945882 
L 549.818182 393.945882 
" clip-path="url(#p39e034e54c)" style="fill: none; stroke: #ffffff; stroke-width: 1.6; stroke-linecap: round"/>
     </g>
    </g>
    <g id="ytick_8">
     <g id="line2d_33">
      <path d="M 144 327.24 
L 549.818182 327.24 
" clip-path="url(#p39e034e54c)" style="fill: none; stroke: #ffffff; stroke-width: 1.6; stroke-linecap: round"/>
     </g>
    </g>
    <g id="ytick_9">
     <g id="line2d_34">
      <path d="M 144 260.534118 
L 549.818182 260.534118 
" clip-path="url(#p39e034e54c)" style="fill: none; stroke: #ffffff; stroke-width: 1.6; stroke-linecap: round"/>
     </g>
    </g>
   </g>
   <g id="line2d_35">
    <path d="M 144 393.945882 
L 279.138806 393.945882 
L 279.27408 260.534118 
L 414.412886 260.534118 
L 414.54816 393.945882 
L 549.82224 393.945882 
L 549.82224 393.945882 
" clip-path="url(#p39e034e54c)" style="fill: none; stroke: #1f77b4; stroke-width: 2.8; stroke-linecap: round"/>
   </g>
   <g id="patch_13">
    <path d="M 144 400.616471 
L 144 253.863529 
" style="fill: none"/>
   </g>
   <g id="patch_14">
    <path d="M 549.818182 400.616471 
L 549.818182 253.863529 
" style="fill: none"/>
   </g>
   <g id="patch_15">
    <path d="M 144 400.616471 
L 549.818182 400.616471 
" style="fill: none"/>
   </g>
   <g id="patch_16">
    <path d="M 144 253.863529 
L 549.818182 253.863529 
" style="fill: none"/>
   </g>
  </g>
  <g id="axes_4">
   <g id="patch_17">
    <path d="M 630.981818 400.616471 
L 1036.8 400.616471 
L 1036.8 253.863529 
L 630.981818 253.863529 
z
" style="fill: #eaeaf2"/>
   </g>
   <g id="matplotlib.axis_7">
    <g id="xtick_24">
     <g id="line2d_36">
      <path d="M 630.981818 400.616471 
L 630.981818 253.863529 
" clip-path="url(#p8709501bb4)" style="fill: none; stroke: #ffffff; stroke-width: 1.6; stroke-linecap: round"/>
     </g>
    </g>
    <g id="xtick_25">
     <g id="line2d_37">
      <path d="M 681.709091 400.616471 
L 681.709091 253.863529 
" clip-path="url(#p8709501bb4)" style="fill: none; stroke: #ffffff; stroke-width: 1.6; stroke-linecap: round"/>
     </g>
    </g>
    <g id="xtick_26">
     <g id="line2d_38">
      <path d="M 732.436364 400.616471 
L 732.436364 253.863529 
" clip-path="url(#p8709501bb4)" style="fill: none; stroke: #ffffff; stroke-width: 1.6; stroke-linecap: round"/>
     </g>
    </g>
    <g id="xtick_27">
     <g id="line2d_39">
      <path d="M 783.163636 400.616471 
L 783.163636 253.863529 
" clip-path="url(#p8709501bb4)" style="fill: none; stroke: #ffffff; stroke-width: 1.6; stroke-linecap: round"/>
     </g>
    </g>
    <g id="xtick_28">
     <g id="line2d_40">
      <path d="M 833.890909 400.616471 
L 833.890909 253.863529 
" clip-path="url(#p8709501bb4)" style="fill: none; stroke: #ffffff; stroke-width: 1.6; stroke-linecap: round"/>
     </g>
    </g>
    <g id="xtick_29">
     <g id="line2d_41">
      <path d="M 884.618182 400.616471 
L 884.618182 253.863529 
" clip-path="url(#p8709501bb4)" style="fill: none; stroke: #ffffff; stroke-width: 1.6; stroke-linecap: round"/>
     </g>
    </g>
    <g id="xtick_30">
     <g id="line2d_42">
      <path d="M 935.345455 400.616471 
L 935.345455 253.863529 
" clip-path="url(#p8709501bb4)" style="fill: none; stroke: #ffffff; stroke-width: 1.6; stroke-linecap: round"/>
     </g>
    </g>
    <g id="xtick_31">
     <g id="line2d_43">
      <path d="M 986.072727 400.616471 
L 986.072727 253.863529 
" clip-path="url(#p8709501bb4)" style="fill: none; stroke: #ffffff; stroke-width: 1.6; stroke-linecap: round"/>
     </g>
    </g>
    <g id="xtick_32">
     <g id="line2d_44">
      <path d="M 1036.8 400.616471 
L 1036.8 253.863529 
" clip-path="url(#p8709501bb4)" style="fill: none; stroke: #ffffff; stroke-width: 1.6; stroke-linecap: round"/>
     </g>
    </g>
   </g>
   <g id="matplotlib.axis_8">
    <g id="ytick_10">
     <g id="line2d_45">
      <path d="M 630.981818 393.945882 
L 1036.8 393.945882 
" clip-path="url(#p8709501bb4)" style="fill: none; stroke: #ffffff; stroke-width: 1.6; stroke-linecap: round"/>
     </g>
    </g>
    <g id="ytick_11">
     <g id="line2d_46">
      <path d="M 630.981818 327.24 
L 1036.8 327.24 
" clip-path="url(#p8709501bb4)" style="fill: none; stroke: #ffffff; stroke-width: 1.6; stroke-linecap: round"/>
     </g>
    </g>
    <g id="ytick_12">
     <g id="line2d_47">
      <path d="M 630.981818 260.534118 
L 1036.8 260.534118 
" clip-path="url(#p8709501bb4)" style="fill: none; stroke: #ffffff; stroke-width: 1.6; stroke-linecap: round"/>
     </g>
    </g>
   </g>
   <g id="line2d_48">
    <path d="M 630.778909 393.945749 
L 637.474909 393.84301 
L 643.765091 393.816166 
L 654.925091 393.89598 
L 663.853091 393.77944 
L 675.013091 393.888739 
L 683.738182 393.722565 
L 695.506909 393.86243 
L 703.420364 393.634455 
L 708.290182 393.834409 
L 712.754182 393.942523 
L 716.406545 393.794396 
L 722.696727 393.497488 
L 726.146182 393.617907 
L 732.842182 393.943733 
L 735.885818 393.795727 
L 743.393455 393.276958 
L 746.234182 393.429495 
L 752.930182 393.945045 
L 755.162182 393.824196 
L 758.002909 393.432325 
L 761.858182 392.899488 
L 763.887273 392.83795 
L 765.916364 392.989608 
L 768.757091 393.453062 
L 771.800727 393.895193 
L 773.626909 393.93231 
L 775.250182 393.760171 
L 777.076364 393.350183 
L 782.960727 391.802364 
L 784.381091 391.755095 
L 785.801455 391.918858 
L 787.424727 392.336514 
L 792.497455 393.894859 
L 793.714909 393.932288 
L 794.932364 393.719098 
L 796.149818 393.237541 
L 797.367273 392.50446 
L 798.990545 391.233181 
L 802.237091 388.586365 
L 803.454545 387.938088 
L 804.469091 387.673952 
L 805.280727 387.675888 
L 806.092364 387.879789 
L 806.904 388.284276 
L 807.918545 389.047677 
L 809.136 390.25582 
L 811.976727 393.229137 
L 812.788364 393.749564 
L 813.397091 393.932808 
L 814.005818 393.89039 
L 814.614545 393.579349 
L 815.223273 392.958157 
L 815.832 391.987745 
L 816.440727 390.63253 
L 817.252364 388.174013 
L 818.064 384.918479 
L 818.875636 380.828433 
L 819.890182 374.523946 
L 821.107636 365.260079 
L 822.528 352.355224 
L 824.354182 333.295216 
L 828.615273 287.686947 
L 829.832727 277.191869 
L 830.847273 270.121712 
L 831.658909 265.761043 
L 832.470545 262.670941 
L 833.079273 261.234891 
L 833.485091 260.709588 
L 833.890909 260.534118 
L 834.296727 260.709588 
L 834.702545 261.234891 
L 835.108364 262.106715 
L 835.717091 264.051582 
L 836.325818 266.735816 
L 837.137455 271.398363 
L 838.152 278.800879 
L 839.369455 289.613744 
L 840.992727 306.342628 
L 845.659636 356.248369 
L 847.08 368.546097 
L 848.297455 377.204049 
L 849.312 382.979214 
L 850.326545 387.436695 
L 851.138182 390.089757 
L 851.949818 391.987745 
L 852.558545 392.958157 
L 853.167273 393.579349 
L 853.776 393.89039 
L 854.384727 393.932808 
L 854.993455 393.749564 
L 855.805091 393.229137 
L 856.819636 392.276162 
L 860.269091 388.710778 
L 861.283636 388.057565 
L 862.095273 387.752374 
L 862.906909 387.650084 
L 863.718545 387.745772 
L 864.733091 388.118214 
L 865.950545 388.865954 
L 867.573818 390.178893 
L 870.414545 392.50446 
L 871.834909 393.336176 
L 873.052364 393.773192 
L 874.269818 393.942515 
L 875.487273 393.867167 
L 876.907636 393.538297 
L 879.342545 392.683438 
L 881.371636 392.050125 
L 882.994909 391.780444 
L 884.415273 391.767792 
L 886.038545 391.996652 
L 888.067636 392.541038 
L 891.922909 393.646281 
L 893.749091 393.90787 
L 895.575273 393.922905 
L 897.604364 393.69733 
L 903.488727 392.851552 
L 905.517818 392.870657 
L 907.952727 393.140338 
L 913.634182 393.904232 
L 915.866182 393.932872 
L 918.706909 393.723748 
L 923.982545 393.284224 
L 926.620364 393.329405 
L 930.475636 393.666294 
L 934.330909 393.932381 
L 937.374545 393.896251 
L 946.911273 393.530877 
L 951.984 393.831293 
L 955.839273 393.945513 
L 959.897455 393.814192 
L 965.781818 393.625899 
L 970.042909 393.75841 
L 976.130182 393.945611 
L 981 393.817276 
L 986.681455 393.709551 
L 992.565818 393.882405 
L 997.638545 393.936003 
L 1011.030545 393.84606 
L 1017.929455 393.938061 
L 1032.133091 393.883931 
L 1037.002909 393.945749 
L 1037.002909 393.945749 
" clip-path="url(#p8709501bb4)" style="fill: none; stroke: #9467bd; stroke-width: 2.8; stroke-linecap: round"/>
   </g>
   <g id="patch_18">
    <path d="M 630.981818 400.616471 
L 630.981818 253.863529 
" style="fill: none"/>
   </g>
   <g id="patch_19">
    <path d="M 1036.8 400.616471 
L 1036.8 253.863529 
" style="fill: none"/>
   </g>
   <g id="patch_20">
    <path d="M 630.981818 400.616471 
L 1036.8 400.616471 
" style="fill: none"/>
   </g>
   <g id="patch_21">
    <path d="M 630.981818 253.863529 
L 1036.8 253.863529 
" style="fill: none"/>
   </g>
  </g>
  <g id="axes_5">
   <g id="patch_22">
    <path d="M 144 576.72 
L 549.818182 576.72 
L 549.818182 429.967059 
L 144 429.967059 
z
" style="fill: #eaeaf2"/>
   </g>
   <g id="matplotlib.axis_9">
    <g id="xtick_33">
     <g id="line2d_49">
      <path d="M 144 576.72 
L 144 429.967059 
" clip-path="url(#pae1dcffbb1)" style="fill: none; stroke: #ffffff; stroke-width: 1.6; stroke-linecap: round"/>
     </g>
    </g>
    <g id="xtick_34">
     <g id="line2d_50">
      <path d="M 211.636364 576.72 
L 211.636364 429.967059 
" clip-path="url(#pae1dcffbb1)" style="fill: none; stroke: #ffffff; stroke-width: 1.6; stroke-linecap: round"/>
     </g>
    </g>
    <g id="xtick_35">
     <g id="line2d_51">
      <path d="M 279.272727 576.72 
L 279.272727 429.967059 
" clip-path="url(#pae1dcffbb1)" style="fill: none; stroke: #ffffff; stroke-width: 1.6; stroke-linecap: round"/>
     </g>
    </g>
    <g id="xtick_36">
     <g id="line2d_52">
      <path d="M 346.909091 576.72 
L 346.909091 429.967059 
" clip-path="url(#pae1dcffbb1)" style="fill: none; stroke: #ffffff; stroke-width: 1.6; stroke-linecap: round"/>
     </g>
    </g>
    <g id="xtick_37">
     <g id="line2d_53">
      <path d="M 414.545455 576.72 
L 414.545455 429.967059 
" clip-path="url(#pae1dcffbb1)" style="fill: none; stroke: #ffffff; stroke-width: 1.6; stroke-linecap: round"/>
     </g>
    </g>
    <g id="xtick_38">
     <g id="line2d_54">
      <path d="M 482.181818 576.72 
L 482.181818 429.967059 
" clip-path="url(#pae1dcffbb1)" style="fill: none; stroke: #ffffff; stroke-width: 1.6; stroke-linecap: round"/>
     </g>
    </g>
    <g id="xtick_39">
     <g id="line2d_55">
      <path d="M 549.818182 576.72 
L 549.818182 429.967059 
" clip-path="url(#pae1dcffbb1)" style="fill: none; stroke: #ffffff; stroke-width: 1.6; stroke-linecap: round"/>
     </g>
    </g>
   </g>
   <g id="matplotlib.axis_10">
    <g id="ytick_13">
     <g id="line2d_56">
      <path d="M 144 570.049416 
L 549.818182 570.049416 
" clip-path="url(#pae1dcffbb1)" style="fill: none; stroke: #ffffff; stroke-width: 1.6; stroke-linecap: round"/>
     </g>
    </g>
    <g id="ytick_14">
     <g id="line2d_57">
      <path d="M 144 503.34353 
L 549.818182 503.34353 
" clip-path="url(#pae1dcffbb1)" style="fill: none; stroke: #ffffff; stroke-width: 1.6; stroke-linecap: round"/>
     </g>
    </g>
    <g id="ytick_15">
     <g id="line2d_58">
      <path d="M 144 436.637643 
L 549.818182 436.637643 
" clip-path="url(#pae1dcffbb1)" style="fill: none; stroke: #ffffff; stroke-width: 1.6; stroke-linecap: round"/>
     </g>
    </g>
   </g>
   <g id="line2d_59">
    <path d="M 144 503.34353 
L 279.27408 503.322573 
L 281.573739 469.369128 
L 282.791206 454.702315 
L 283.738125 445.915953 
L 284.414495 441.313961 
L 284.955591 438.727904 
L 285.496688 437.160895 
L 285.90251 436.669872 
L 286.173058 436.671254 
L 286.443606 436.935767 
L 286.849428 437.823338 
L 287.255251 439.292483 
L 287.796347 442.132745 
L 288.472717 447.033883 
L 289.284362 454.732441 
L 290.23128 465.867999 
L 291.584021 484.755138 
L 295.777518 545.881577 
L 296.85971 557.323641 
L 297.671355 563.710953 
L 298.347725 567.407438 
L 298.888822 569.231905 
L 299.294644 569.919294 
L 299.565192 570.049412 
L 299.83574 569.916267 
L 300.106288 569.520385 
L 300.512111 568.437629 
L 301.053207 566.09757 
L 301.729577 561.786568 
L 302.541222 554.725639 
L 303.48814 544.208512 
L 304.705607 527.876455 
L 306.869992 494.958033 
L 308.763829 467.57918 
L 309.846022 454.699447 
L 310.792941 445.913821 
L 311.469311 441.312419 
L 312.010407 438.726864 
L 312.551504 437.160372 
L 312.957326 436.669742 
L 313.227874 436.671387 
L 313.498422 436.936163 
L 313.904244 437.824125 
L 314.310067 439.293654 
L 314.851163 442.134411 
L 315.527533 447.03613 
L 316.339178 454.735312 
L 317.286096 465.871466 
L 318.638837 484.759163 
L 322.832334 545.884805 
L 323.914526 557.326104 
L 324.726171 563.712736 
L 325.402541 567.408606 
L 325.943638 569.232559 
L 326.34946 569.919555 
L 326.620008 570.04941 
L 326.890556 569.916002 
L 327.161104 569.519858 
L 327.566927 568.436713 
L 328.108023 566.096148 
L 328.784393 561.784547 
L 329.596038 554.722966 
L 330.542956 544.2052 
L 331.760423 527.872557 
L 333.924808 494.953875 
L 335.818645 467.575642 
L 336.900838 454.696579 
L 337.847757 445.911689 
L 338.524127 441.310878 
L 339.065223 438.725823 
L 339.60632 437.159848 
L 340.012142 436.669612 
L 340.28269 436.671521 
L 340.553238 436.936559 
L 340.95906 437.824912 
L 341.364883 439.294825 
L 341.905979 442.136077 
L 342.582349 447.038377 
L 343.393994 454.738182 
L 344.340913 465.874934 
L 345.693653 484.763188 
L 349.88715 545.888033 
L 350.969342 557.328566 
L 351.780987 563.714519 
L 352.457357 567.409773 
L 352.998454 569.233213 
L 353.404276 569.919816 
L 353.674824 570.049408 
L 353.945372 569.915737 
L 354.21592 569.519331 
L 354.621743 568.435797 
L 355.162839 566.094727 
L 355.839209 561.782526 
L 356.650854 554.720293 
L 357.597772 544.201887 
L 358.815239 527.868659 
L 360.979624 494.949717 
L 362.873461 467.572104 
L 363.955654 454.693712 
L 364.902573 445.909557 
L 365.578943 441.309337 
L 366.120039 438.724783 
L 366.661136 437.159325 
L 367.066958 436.669482 
L 367.337506 436.671655 
L 367.608054 436.936955 
L 368.013877 437.8257 
L 368.419699 439.295997 
L 368.960795 442.137743 
L 369.637165 447.040625 
L 370.44881 454.741053 
L 371.395729 465.878401 
L 372.748469 484.767214 
L 376.941966 545.891261 
L 378.024158 557.331027 
L 378.835803 563.716301 
L 379.512173 567.410941 
L 380.05327 569.233867 
L 380.459092 569.920077 
L 380.72964 570.049406 
L 381.000188 569.915472 
L 381.270736 569.518803 
L 381.676559 568.43488 
L 382.217655 566.093305 
L 382.894025 561.780505 
L 383.70567 554.71762 
L 384.652588 544.198573 
L 385.870055 527.864762 
L 388.03444 494.945559 
L 389.928277 467.568566 
L 391.01047 454.690844 
L 391.957389 445.907426 
L 392.633759 441.307796 
L 393.174855 438.723742 
L 393.715952 437.158802 
L 394.121774 436.669353 
L 394.392322 436.671788 
L 394.66287 436.937352 
L 395.068693 437.826487 
L 395.474515 439.297168 
L 396.015611 442.13941 
L 396.691981 447.042873 
L 397.503626 454.743924 
L 398.450545 465.881869 
L 399.803285 484.771239 
L 403.996782 545.894489 
L 405.078974 557.333489 
L 405.890619 563.718084 
L 406.566989 567.412108 
L 407.108086 569.23452 
L 407.513908 569.920338 
L 407.784456 570.049404 
L 408.055004 569.915206 
L 408.325552 569.518276 
L 408.731375 568.433964 
L 409.272471 566.091883 
L 409.948841 561.778484 
L 410.760486 554.714946 
L 411.707404 544.19526 
L 412.924871 527.860864 
L 414.683434 503.34353 
L 549.82224 503.34353 
L 549.82224 503.34353 
" clip-path="url(#pae1dcffbb1)" style="fill: none; stroke: #1f77b4; stroke-width: 2.8; stroke-linecap: round"/>
   </g>
   <g id="patch_23">
    <path d="M 144 576.72 
L 144 429.967059 
" style="fill: none"/>
   </g>
   <g id="patch_24">
    <path d="M 549.818182 576.72 
L 549.818182 429.967059 
" style="fill: none"/>
   </g>
   <g id="patch_25">
    <path d="M 144 576.72 
L 549.818182 576.72 
" style="fill: none"/>
   </g>
   <g id="patch_26">
    <path d="M 144 429.967059 
L 549.818182 429.967059 
" style="fill: none"/>
   </g>
  </g>
  <g id="axes_6">
   <g id="patch_27">
    <path d="M 630.981818 576.72 
L 1036.8 576.72 
L 1036.8 429.967059 
L 630.981818 429.967059 
z
" style="fill: #eaeaf2"/>
   </g>
   <g id="matplotlib.axis_11">
    <g id="xtick_40">
     <g id="line2d_60">
      <path d="M 630.981818 576.72 
L 630.981818 429.967059 
" clip-path="url(#p3cf0fb2115)" style="fill: none; stroke: #ffffff; stroke-width: 1.6; stroke-linecap: round"/>
     </g>
    </g>
    <g id="xtick_41">
     <g id="line2d_61">
      <path d="M 681.709091 576.72 
L 681.709091 429.967059 
" clip-path="url(#p3cf0fb2115)" style="fill: none; stroke: #ffffff; stroke-width: 1.6; stroke-linecap: round"/>
     </g>
    </g>
    <g id="xtick_42">
     <g id="line2d_62">
      <path d="M 732.436364 576.72 
L 732.436364 429.967059 
" clip-path="url(#p3cf0fb2115)" style="fill: none; stroke: #ffffff; stroke-width: 1.6; stroke-linecap: round"/>
     </g>
    </g>
    <g id="xtick_43">
     <g id="line2d_63">
      <path d="M 783.163636 576.72 
L 783.163636 429.967059 
" clip-path="url(#p3cf0fb2115)" style="fill: none; stroke: #ffffff; stroke-width: 1.6; stroke-linecap: round"/>
     </g>
    </g>
    <g id="xtick_44">
     <g id="line2d_64">
      <path d="M 833.890909 576.72 
L 833.890909 429.967059 
" clip-path="url(#p3cf0fb2115)" style="fill: none; stroke: #ffffff; stroke-width: 1.6; stroke-linecap: round"/>
     </g>
    </g>
    <g id="xtick_45">
     <g id="line2d_65">
      <path d="M 884.618182 576.72 
L 884.618182 429.967059 
" clip-path="url(#p3cf0fb2115)" style="fill: none; stroke: #ffffff; stroke-width: 1.6; stroke-linecap: round"/>
     </g>
    </g>
    <g id="xtick_46">
     <g id="line2d_66">
      <path d="M 935.345455 576.72 
L 935.345455 429.967059 
" clip-path="url(#p3cf0fb2115)" style="fill: none; stroke: #ffffff; stroke-width: 1.6; stroke-linecap: round"/>
     </g>
    </g>
    <g id="xtick_47">
     <g id="line2d_67">
      <path d="M 986.072727 576.72 
L 986.072727 429.967059 
" clip-path="url(#p3cf0fb2115)" style="fill: none; stroke: #ffffff; stroke-width: 1.6; stroke-linecap: round"/>
     </g>
    </g>
    <g id="xtick_48">
     <g id="line2d_68">
      <path d="M 1036.8 576.72 
L 1036.8 429.967059 
" clip-path="url(#p3cf0fb2115)" style="fill: none; stroke: #ffffff; stroke-width: 1.6; stroke-linecap: round"/>
     </g>
    </g>
   </g>
   <g id="matplotlib.axis_12">
    <g id="ytick_16">
     <g id="line2d_69">
      <path d="M 630.981818 570.049412 
L 1036.8 570.049412 
" clip-path="url(#p3cf0fb2115)" style="fill: none; stroke: #ffffff; stroke-width: 1.6; stroke-linecap: round"/>
     </g>
    </g>
    <g id="ytick_17">
     <g id="line2d_70">
      <path d="M 630.981818 516.684085 
L 1036.8 516.684085 
" clip-path="url(#p3cf0fb2115)" style="fill: none; stroke: #ffffff; stroke-width: 1.6; stroke-linecap: round"/>
     </g>
    </g>
    <g id="ytick_18">
     <g id="line2d_71">
      <path d="M 630.981818 463.318758 
L 1036.8 463.318758 
" clip-path="url(#p3cf0fb2115)" style="fill: none; stroke: #ffffff; stroke-width: 1.6; stroke-linecap: round"/>
     </g>
    </g>
   </g>
   <g id="line2d_72">
    <path d="M 630.778909 570.047057 
L 633.619636 569.964202 
L 637.474909 569.586116 
L 640.924364 569.326434 
L 643.359273 569.358824 
L 646.402909 569.641895 
L 650.664 570.035318 
L 652.896 570.004439 
L 655.330909 569.732783 
L 661.621091 568.871685 
L 663.650182 568.923568 
L 665.882182 569.221869 
L 670.954909 570.025176 
L 672.781091 570.009416 
L 674.404364 569.777674 
L 676.433455 569.242657 
L 680.897455 567.937661 
L 682.520727 567.767135 
L 683.941091 567.847127 
L 685.361455 568.138752 
L 687.390545 568.82107 
L 690.231273 569.80132 
L 691.651636 570.035962 
L 692.869091 569.992632 
L 693.883636 569.753557 
L 695.101091 569.215494 
L 696.318545 568.428015 
L 697.941818 567.101588 
L 700.782545 564.730131 
L 702 564.024784 
L 703.014545 563.706164 
L 703.826182 563.662932 
L 704.637818 563.822973 
L 705.449455 564.187684 
L 706.464 564.911586 
L 707.681455 566.094987 
L 710.928 569.482263 
L 711.739636 569.935517 
L 712.348364 570.049339 
L 712.957091 569.921102 
L 713.565818 569.508213 
L 714.174545 568.769922 
L 714.783273 567.668351 
L 715.392 566.169509 
L 716.203636 563.503556 
L 717.015273 560.027596 
L 718.029818 554.498744 
L 719.044364 547.651713 
L 720.261818 537.783816 
L 721.682182 524.301532 
L 723.711273 502.559647 
L 726.957818 467.611422 
L 728.378182 454.855648 
L 729.392727 447.471468 
L 730.204364 442.821439 
L 731.016 439.41486 
L 731.624727 437.72803 
L 732.030545 437.031003 
L 732.436364 436.681398 
L 732.842182 436.681399 
L 733.248 437.030992 
L 733.653818 437.727969 
L 734.262545 439.414601 
L 734.871273 441.848709 
L 735.682909 446.196512 
L 736.697455 453.246744 
L 737.914909 463.714713 
L 739.538182 480.143761 
L 744.813818 535.94799 
L 746.234182 547.624657 
L 747.451636 555.688269 
L 748.466182 560.957292 
L 749.277818 564.23139 
L 750.089455 566.706635 
L 750.901091 568.440158 
L 751.509818 569.297792 
L 752.118545 569.816344 
L 752.727273 570.035578 
L 753.336 569.997469 
L 753.944727 569.745188 
L 754.756364 569.15054 
L 755.973818 567.90714 
L 758.611636 565.045624 
L 759.626182 564.254532 
L 760.640727 563.755948 
L 761.452364 563.587915 
L 762.264 563.625049 
L 763.075636 563.854475 
L 764.090182 564.375922 
L 765.307636 565.26284 
L 770.380364 569.304064 
L 771.597818 569.809805 
L 772.612364 570.016693 
L 773.829818 570.018463 
L 775.047273 569.791708 
L 776.670545 569.248406 
L 780.322909 567.922754 
L 781.743273 567.663217 
L 783.163636 567.631843 
L 784.584 567.823522 
L 786.410182 568.322548 
L 791.28 569.833008 
L 792.903273 570.033411 
L 794.526545 570.006996 
L 796.352727 569.748774 
L 802.642909 568.634074 
L 804.469091 568.668775 
L 806.498182 568.94048 
L 812.991273 570.030046 
L 815.020364 570.007161 
L 817.252364 569.744901 
L 822.933818 568.955315 
L 824.962909 568.968409 
L 827.194909 569.207317 
L 833.485091 570.03983 
L 835.514182 569.997915 
L 837.949091 569.706245 
L 843.224727 568.968409 
L 845.253818 568.955315 
L 847.485818 569.174226 
L 854.181818 570.048207 
L 856.210909 569.952212 
L 858.442909 569.604468 
L 863.718545 568.668775 
L 865.544727 568.634074 
L 867.370909 568.818057 
L 869.805818 569.307346 
L 873.052364 569.943816 
L 874.878545 570.047643 
L 876.501818 569.904221 
L 878.125091 569.543901 
L 880.56 568.741389 
L 883.197818 567.913844 
L 884.821091 567.646222 
L 886.241455 567.64441 
L 887.661818 567.87272 
L 889.285091 568.370923 
L 893.749091 569.930024 
L 894.966545 570.049398 
L 895.981091 569.957297 
L 896.995636 569.672152 
L 898.213091 569.075626 
L 899.633455 568.075131 
L 901.865455 566.133143 
L 903.691636 564.645153 
L 904.909091 563.939378 
L 905.923636 563.625049 
L 906.735273 563.587915 
L 907.546909 563.755948 
L 908.358545 564.130002 
L 909.373091 564.86656 
L 910.590545 566.06501 
L 913.837091 569.479457 
L 914.648727 569.935026 
L 915.257455 570.049352 
L 915.866182 569.920643 
L 916.474909 569.506412 
L 917.083636 568.766045 
L 917.692364 567.66182 
L 918.301091 566.159917 
L 919.112727 563.489556 
L 919.924364 560.009193 
L 920.938909 554.475414 
L 921.953455 547.624657 
L 923.170909 537.754428 
L 924.591273 524.272654 
L 926.620364 502.536632 
L 929.866909 467.602444 
L 931.287273 454.851398 
L 932.301818 447.469475 
L 933.113455 442.820571 
L 933.925091 439.414601 
L 934.533818 437.727969 
L 934.939636 437.030992 
L 935.345455 436.681399 
L 935.751273 436.681398 
L 936.157091 437.031003 
L 936.562909 437.72803 
L 937.171636 439.41486 
L 937.780364 441.84938 
L 938.592 446.19817 
L 939.606545 453.250464 
L 940.824 463.722171 
L 942.447273 480.157884 
L 947.722909 535.977517 
L 949.143273 547.651713 
L 950.360727 555.710692 
L 951.375273 560.974616 
L 952.186909 564.244272 
L 952.998545 566.715173 
L 953.810182 568.444865 
L 954.418909 569.300211 
L 955.027636 569.81716 
L 955.636364 570.035619 
L 956.245091 569.997679 
L 956.853818 569.746597 
L 957.665455 569.155228 
L 958.882909 567.920292 
L 961.520727 565.088084 
L 962.535273 564.309738 
L 963.549818 563.822973 
L 964.361455 563.662932 
L 965.173091 563.706164 
L 966.187636 564.024784 
L 967.202182 564.592235 
L 968.622545 565.679932 
L 972.477818 568.849929 
L 973.695273 569.518114 
L 974.912727 569.91995 
L 976.130182 570.049392 
L 977.347636 569.934284 
L 978.768 569.564955 
L 984.246545 567.847127 
L 985.666909 567.767135 
L 987.087273 567.902413 
L 988.913455 568.331932 
L 994.594909 569.918834 
L 996.218182 570.047831 
L 998.044364 569.956384 
L 1000.479273 569.566501 
L 1004.131636 568.961193 
L 1006.160727 568.86344 
L 1008.189818 568.991091 
L 1011.030545 569.4268 
L 1014.682909 569.957851 
L 1016.914909 570.048509 
L 1019.349818 569.913718 
L 1026.654545 569.31516 
L 1029.292364 569.447182 
L 1037.002909 570.049408 
L 1037.002909 570.049408 
" clip-path="url(#p3cf0fb2115)" style="fill: none; stroke: #9467bd; stroke-width: 2.8; stroke-linecap: round"/>
   </g>
   <g id="patch_28">
    <path d="M 630.981818 576.72 
L 630.981818 429.967059 
" style="fill: none"/>
   </g>
   <g id="patch_29">
    <path d="M 1036.8 576.72 
L 1036.8 429.967059 
" style="fill: none"/>
   </g>
   <g id="patch_30">
    <path d="M 630.981818 576.72 
L 1036.8 576.72 
" style="fill: none"/>
   </g>
   <g id="patch_31">
    <path d="M 630.981818 429.967059 
L 1036.8 429.967059 
" style="fill: none"/>
   </g>
  </g>
 </g>
 <defs>
  <clipPath id="pad4614e559">
   <rect x="144" y="77.76" width="405.818182" height="146.752941"/>
  </clipPath>
  <clipPath id="p76aece0a9d">
   <rect x="630.981818" y="77.76" width="405.818182" height="146.752941"/>
  </clipPath>
  <clipPath id="p39e034e54c">
   <rect x="144" y="253.863529" width="405.818182" height="146.752941"/>
  </clipPath>
  <clipPath id="p8709501bb4">
   <rect x="630.981818" y="253.863529" width="405.818182" height="146.752941"/>
  </clipPath>
  <clipPath id="pae1dcffbb1">
   <rect x="144" y="429.967059" width="405.818182" height="146.752941"/>
  </clipPath>
  <clipPath id="p3cf0fb2115">
   <rect x="630.981818" y="429.967059" width="405.818182" height="146.752941"/>
  </clipPath>
 </defs>
</svg>
